<svg version="1.1" xmlns="http://www.w3.org/2000/svg" viewBox="0 0 1952 1013.5" width="1952" height="1013.5">
  <!-- svg-source:excalidraw -->
  
  <defs>
    <style class="style-fonts">
      @font-face {
        font-family: "Virgil";
        src: url("https://unpkg.com/@excalidraw/excalidraw@undefined/dist/excalidraw-assets/Virgil.woff2");
      }
      @font-face {
        font-family: "Cascadia";
        src: url("https://unpkg.com/@excalidraw/excalidraw@undefined/dist/excalidraw-assets/Cascadia.woff2");
      }
      @font-face {
        font-family: "Assistant";
        src: url("https://unpkg.com/@excalidraw/excalidraw@undefined/dist/excalidraw-assets/Assistant-Regular.woff2");
      }
    </style>
    
  </defs>
  <rect x="0" y="0" width="1952" height="1013.5" fill="#ffffff"></rect><g stroke-linecap="round"><g transform="translate(35 40) rotate(0 0 10)"><path d="M0 0 C-0.33 7.04, 0.21 14.09, 0 20 M0 0 C0.05 4.9, 0.38 9.12, 0 20" stroke="#000" stroke-width="1" fill="none"></path></g></g><mask></mask><g stroke-linecap="round"><g transform="translate(17 48) rotate(0 18 0)"><path d="M0 0 C13.71 0.21, 27.43 -0.71, 36 0 M0 0 C8.53 0.41, 16.38 0.3, 36 0" stroke="#000" stroke-width="1" fill="none"></path></g></g><mask></mask><g stroke-linecap="round"><g transform="translate(17 75) rotate(0 9 -7.5)"><path d="M0 0 C4.86 -3.1, 8.63 -8.61, 18 -15 M0 0 C4.43 -3.16, 8.32 -6.58, 18 -15" stroke="#000" stroke-width="1" fill="none"></path></g></g><mask></mask><g stroke-linecap="round"><g transform="translate(35 60) rotate(0 8 7.5)"><path d="M0 0 C5.04 3.1, 7.59 7.01, 16 15 M0 0 C5.52 5.14, 10.64 9.45, 16 15" stroke="#000" stroke-width="1" fill="none"></path></g></g><mask></mask><g stroke-linecap="round" transform="translate(20 10) rotate(0 15 15)"><path d="M12.64 0.73 C15.71 0, 19.79 0.79, 22.55 2.24 C25.31 3.69, 28.07 6.47, 29.19 9.42 C30.3 12.36, 30.34 16.89, 29.22 19.9 C28.1 22.91, 25.27 25.73, 22.47 27.46 C19.67 29.19, 15.62 30.73, 12.42 30.28 C9.21 29.83, 5.3 27.32, 3.24 24.76 C1.18 22.19, 0.03 18.14, 0.08 14.91 C0.13 11.68, 1.44 7.82, 3.55 5.36 C5.67 2.91, 11.14 0.96, 12.78 0.18 C14.42 -0.6, 13.33 0.39, 13.39 0.68 M18.29 -0.03 C21.39 0.41, 25.85 3.54, 27.89 6.14 C29.94 8.74, 30.87 12.26, 30.58 15.57 C30.28 18.89, 28.36 23.55, 26.14 26.03 C23.93 28.51, 20.44 30.26, 17.26 30.47 C14.08 30.68, 9.91 29.2, 7.07 27.29 C4.23 25.39, 1.28 22, 0.23 19.05 C-0.83 16.09, -0.51 12.51, 0.75 9.56 C2.01 6.61, 4.78 2.93, 7.77 1.34 C10.77 -0.25, 17.05 0.17, 18.74 0.04 C20.44 -0.1, 17.91 0.19, 17.96 0.55" stroke="#1e1e1e" stroke-width="2" fill="none"></path></g><g transform="translate(19.1015625 72.5) rotate(0 17.871986389160156 10)"><text x="0" y="0" font-family="Virgil, Segoe UI Emoji" font-size="16px" fill="#1e1e1e" text-anchor="start" style="white-space: pre;" direction="ltr" dominant-baseline="text-before-edge">User</text></g><g stroke-linecap="round"><g transform="translate(35 951) rotate(0 0 10)"><path d="M0 0 C-0.86 7.95, 0.86 16.3, 0 20 M0 0 C-0.17 7.05, 0.06 13.79, 0 20" stroke="#000" stroke-width="1" fill="none"></path></g></g><mask></mask><g stroke-linecap="round"><g transform="translate(17 959) rotate(0 18 0)"><path d="M0 0 C8.23 1.08, 16.87 0.65, 36 0 M0 0 C13.3 0.07, 26.28 -0.33, 36 0" stroke="#000" stroke-width="1" fill="none"></path></g></g><mask></mask><g stroke-linecap="round"><g transform="translate(17 986) rotate(0 9 -7.5)"><path d="M0 0 C5.03 -2.47, 8.63 -6.06, 18 -15 M0 0 C6.04 -5.25, 11.65 -10.24, 18 -15" stroke="#000" stroke-width="1" fill="none"></path></g></g><mask></mask><g stroke-linecap="round"><g transform="translate(35 971) rotate(0 8 7.5)"><path d="M0 0 C4.48 3.76, 7.81 6.93, 16 15 M0 0 C3.82 3.38, 7.9 8.07, 16 15" stroke="#000" stroke-width="1" fill="none"></path></g></g><mask></mask><g stroke-linecap="round" transform="translate(20 921) rotate(0 15 15)"><path d="M17.59 0.21 C20.56 0.51, 24.19 2.37, 26.22 4.9 C28.25 7.43, 29.81 12.14, 29.79 15.41 C29.77 18.69, 28.12 22.2, 26.11 24.53 C24.1 26.87, 20.8 28.89, 17.74 29.44 C14.68 29.99, 10.5 29.39, 7.74 27.84 C4.98 26.3, 2.24 23.11, 1.17 20.16 C0.1 17.21, 0.23 13.14, 1.34 10.16 C2.46 7.17, 4.9 3.86, 7.85 2.26 C10.8 0.66, 17.04 0.82, 19.04 0.56 C21.04 0.31, 20.07 0.44, 19.87 0.75 M15.03 0.59 C18.1 0.51, 22.57 1.95, 25.1 3.84 C27.63 5.73, 29.74 8.88, 30.19 11.93 C30.65 14.98, 29.53 19.19, 27.81 22.14 C26.09 25.09, 22.94 28.51, 19.89 29.66 C16.84 30.81, 12.45 30.26, 9.52 29.04 C6.58 27.83, 3.93 25.13, 2.27 22.38 C0.61 19.63, -1.04 15.6, -0.45 12.54 C0.15 9.48, 3.29 6.12, 5.84 4 C8.39 1.88, 13.42 0.42, 14.84 -0.18 C16.27 -0.78, 14.42 0.08, 14.37 0.39" stroke="#1e1e1e" stroke-width="2" fill="none"></path></g><g transform="translate(19.1015625 983.5) rotate(0 17.871986389160156 10)"><text x="0" y="0" font-family="Virgil, Segoe UI Emoji" font-size="16px" fill="#1e1e1e" text-anchor="start" style="white-space: pre;" direction="ltr" dominant-baseline="text-before-edge">User</text></g><g stroke-linecap="round" transform="translate(264 15) rotate(0 75 32.5)"><path d="M0 0 C59.34 -1.96, 117.48 -1.07, 150 0 M0 0 C38.97 -0.22, 75.93 0.78, 150 0 M150 0 C151.24 15.21, 152.08 31.55, 150 65 M150 0 C150.57 25.61, 149.81 48.87, 150 65 M150 65 C88.79 67.22, 31.83 68.15, 0 65 M150 65 C93.59 64.66, 37.35 65.66, 0 65 M0 65 C-0.97 49.69, -0.37 39.68, 0 0 M0 65 C-0.56 43.3, -0.37 21.67, 0 0" stroke="#1e1e1e" stroke-width="2" fill="none"></path></g><g stroke-linecap="round" transform="translate(264 926) rotate(0 75 32.5)"><path d="M0 0 C51.65 -0.34, 105.13 -1.44, 150 0 M0 0 C31.75 -1.54, 65.34 -2.06, 150 0 M150 0 C149.67 23.83, 150.7 45.62, 150 65 M150 0 C151.49 21.92, 150 45.79, 150 65 M150 65 C107.36 65.57, 64.65 65.46, 0 65 M150 65 C95.23 63.56, 41.55 63.41, 0 65 M0 65 C-1.73 46.41, 1.91 29.57, 0 0 M0 65 C0.28 43.68, 0.46 22.43, 0 0" stroke="#1e1e1e" stroke-width="2" fill="none"></path></g><g stroke-linecap="round" transform="translate(573 15) rotate(0 75 32.5)"><path d="M0 0 C55.41 0.66, 109.55 -0.95, 150 0 M0 0 C38.64 1.42, 76.88 1.65, 150 0 M150 0 C152.15 18.14, 151.94 35.31, 150 65 M150 0 C149.7 25.26, 151.17 51.71, 150 65 M150 65 C94.3 67.67, 36.91 67.04, 0 65 M150 65 C106.8 65.79, 64.19 64.66, 0 65 M0 65 C-0.16 46.71, 1.07 24.95, 0 0 M0 65 C0.04 47.4, -0.09 29.94, 0 0" stroke="#1e1e1e" stroke-width="2" fill="none"></path></g><g stroke-linecap="round" transform="translate(573 926) rotate(0 75 32.5)"><path d="M0 0 C50.08 -1.06, 98.59 -0.96, 150 0 M0 0 C59.33 -0.46, 118.74 -0.17, 150 0 M150 0 C150.9 24.32, 150.86 47.38, 150 65 M150 0 C149.91 22.28, 150.46 43.4, 150 65 M150 65 C116.98 67.64, 81.39 65.84, 0 65 M150 65 C112.84 62.98, 73.63 64, 0 65 M0 65 C2.52 49.83, 1.03 32.74, 0 0 M0 65 C0.22 47.73, 0.66 31.38, 0 0" stroke="#1e1e1e" stroke-width="2" fill="none"></path></g><g stroke-linecap="round" transform="translate(792 15) rotate(0 75 32.5)"><path d="M0 0 C37.03 -1.62, 75.1 1.92, 150 0 M0 0 C31.74 0.15, 64.42 0.26, 150 0 M150 0 C152.21 20.08, 152.56 38.92, 150 65 M150 0 C150.68 24.96, 150.51 49.43, 150 65 M150 65 C99 67.74, 44.73 65.52, 0 65 M150 65 C105.35 66.15, 62.61 65.82, 0 65 M0 65 C0.88 51.37, -0.32 35.97, 0 0 M0 65 C-0.21 45.45, 0.36 24.83, 0 0" stroke="#1e1e1e" stroke-width="2" fill="none"></path></g><g stroke-linecap="round" transform="translate(792 926) rotate(0 75 32.5)"><path d="M0 0 C44.63 -0.13, 94.45 -0.98, 150 0 M0 0 C43.52 0.61, 86.76 0.92, 150 0 M150 0 C151.19 27.42, 150.85 52.61, 150 65 M150 0 C149.49 17.19, 148.91 33.24, 150 65 M150 65 C94.49 65.76, 35.47 65.93, 0 65 M150 65 C115.94 63.77, 81.76 62.82, 0 65 M0 65 C-0.15 46.69, -1.44 29.6, 0 0 M0 65 C0.54 47.11, 0.2 29.56, 0 0" stroke="#1e1e1e" stroke-width="2" fill="none"></path></g><g stroke-linecap="round" transform="translate(992 15) rotate(0 75 32.5)"><path d="M0 0 C43.85 3.13, 87.68 0.99, 150 0 M0 0 C47.01 -0.08, 94.68 0.34, 150 0 M150 0 C152.49 23.07, 152.23 44.09, 150 65 M150 0 C151.46 14.65, 151.14 31.43, 150 65 M150 65 C90.22 65.05, 30.95 64.48, 0 65 M150 65 C91.41 64.11, 31.75 64.41, 0 65 M0 65 C-0.72 38.26, 0.01 12.67, 0 0 M0 65 C0.45 43.94, 1.02 21.83, 0 0" stroke="#1e1e1e" stroke-width="2" fill="none"></path></g><g stroke-linecap="round" transform="translate(992 926) rotate(0 75 32.5)"><path d="M0 0 C39.92 -1.06, 75.8 0.94, 150 0 M0 0 C35.82 0.48, 71.57 0.99, 150 0 M150 0 C150.84 26.46, 149.33 48.22, 150 65 M150 0 C149.27 26.44, 150.73 52.85, 150 65 M150 65 C93.12 64.58, 36.61 66.57, 0 65 M150 65 C117.94 64.35, 86.74 66.17, 0 65 M0 65 C-0.95 43.42, -0.59 21.97, 0 0 M0 65 C-0.08 48.58, -0.75 31.53, 0 0" stroke="#1e1e1e" stroke-width="2" fill="none"></path></g><g stroke-linecap="round" transform="translate(1192 15) rotate(0 75 32.5)"><path d="M0 0 C30.91 -1.67, 65.5 -2.71, 150 0 M0 0 C50.73 0.18, 102.02 0.07, 150 0 M150 0 C152.35 21.44, 149.35 46.78, 150 65 M150 0 C151.03 19.7, 151.49 38.55, 150 65 M150 65 C95.15 62.82, 42.46 62.51, 0 65 M150 65 C107.47 63.91, 67.59 64.52, 0 65 M0 65 C0.4 43.47, 0.76 22.08, 0 0 M0 65 C0.65 40.46, 0.8 16.04, 0 0" stroke="#1e1e1e" stroke-width="2" fill="none"></path></g><g stroke-linecap="round" transform="translate(1192 926) rotate(0 75 32.5)"><path d="M0 0 C38.51 1.58, 76.23 2.03, 150 0 M0 0 C40.63 0.54, 80.23 0.52, 150 0 M150 0 C149.22 24.62, 152.16 51.62, 150 65 M150 0 C150.35 25.78, 150.29 50.28, 150 65 M150 65 C106.06 66.7, 63.29 64.44, 0 65 M150 65 C102.96 64.75, 56.79 64.01, 0 65 M0 65 C-0.17 47.7, -0.45 30.67, 0 0 M0 65 C-0.53 45.01, -0.67 23.8, 0 0" stroke="#1e1e1e" stroke-width="2" fill="none"></path></g><g stroke-linecap="round" transform="translate(1392 15) rotate(0 75 32.5)"><path d="M0 0 C59.49 -1.1, 119.12 -0.52, 150 0 M0 0 C52.86 -0.57, 105.24 -0.39, 150 0 M150 0 C149.27 23.27, 150.37 44.21, 150 65 M150 0 C151.29 15.87, 150.97 30.12, 150 65 M150 65 C113.75 62.08, 73.41 64.12, 0 65 M150 65 C114.34 64.97, 76.93 64.37, 0 65 M0 65 C0.52 47.37, 1.39 31.6, 0 0 M0 65 C0.43 42.51, 0.15 21.01, 0 0" stroke="#1e1e1e" stroke-width="2" fill="none"></path></g><g stroke-linecap="round" transform="translate(1392 926) rotate(0 75 32.5)"><path d="M0 0 C31.1 0.53, 64.07 0.75, 150 0 M0 0 C45.08 -0.25, 89.53 -0.42, 150 0 M150 0 C151.67 24.87, 151.32 48.76, 150 65 M150 0 C151.24 23.38, 150.34 45.01, 150 65 M150 65 C104.45 65.93, 62.73 65.26, 0 65 M150 65 C117.77 66.74, 84.59 66.09, 0 65 M0 65 C-0.57 46.19, 0.58 25.23, 0 0 M0 65 C-0.24 41.03, 0.35 16.07, 0 0" stroke="#1e1e1e" stroke-width="2" fill="none"></path></g><g stroke-linecap="round" transform="translate(1592 15) rotate(0 75 32.5)"><path d="M0 0 C43.9 0.26, 87.25 0.87, 150 0 M0 0 C59.18 -0.23, 117.75 -0.36, 150 0 M150 0 C149.4 18.01, 148.24 33.74, 150 65 M150 0 C151.27 24.45, 150.16 49.15, 150 65 M150 65 C115.72 63.89, 81.2 61.99, 0 65 M150 65 C109.12 65.29, 67.35 65.65, 0 65 M0 65 C1.27 47.33, 0.6 30.35, 0 0 M0 65 C0.05 47.42, -0.28 29.46, 0 0" stroke="#1e1e1e" stroke-width="2" fill="none"></path></g><g stroke-linecap="round" transform="translate(1592 926) rotate(0 75 32.5)"><path d="M0 0 C46.66 0.41, 94.63 1.25, 150 0 M0 0 C52.96 -0.39, 104.81 -1.15, 150 0 M150 0 C152.28 13.98, 151.64 32.22, 150 65 M150 0 C150.31 25.3, 150.39 50.77, 150 65 M150 65 C91.53 63.56, 30.92 64.15, 0 65 M150 65 C89.87 64.97, 30.35 65.16, 0 65 M0 65 C0.67 44.34, 1.81 21.56, 0 0 M0 65 C0.44 39.68, 0.22 14.55, 0 0" stroke="#1e1e1e" stroke-width="2" fill="none"></path></g><g stroke-linecap="round" transform="translate(1792 15) rotate(0 75 32.5)"><path d="M0 0 C36.31 0.43, 72.48 1.46, 150 0 M0 0 C57.4 -0.62, 113.77 -2.12, 150 0 M150 0 C148.6 26.94, 151.51 53.81, 150 65 M150 0 C149.96 24.16, 149.68 49.41, 150 65 M150 65 C117.39 63.52, 86.48 67.16, 0 65 M150 65 C99.26 64.75, 49.1 64.93, 0 65 M0 65 C0.32 49.37, -1.02 32.48, 0 0 M0 65 C-0.09 48.13, 0.44 31.99, 0 0" stroke="#1e1e1e" stroke-width="2" fill="none"></path></g><g stroke-linecap="round" transform="translate(1792 926) rotate(0 75 32.5)"><path d="M0 0 C50.68 1.09, 102.48 0.88, 150 0 M0 0 C52.55 -0.89, 102.74 0.58, 150 0 M150 0 C151.53 20.48, 152.46 39.28, 150 65 M150 0 C149.81 22.95, 150.8 46.49, 150 65 M150 65 C106.64 63.65, 68.58 64.88, 0 65 M150 65 C101.41 64.19, 52.88 64.05, 0 65 M0 65 C1.44 40.19, 1.75 15.63, 0 0 M0 65 C-0.16 42.06, 0.54 17.11, 0 0" stroke="#1e1e1e" stroke-width="2" fill="none"></path></g><g stroke-linecap="round" transform="translate(10 90) rotate(0 841 19.5)"><path d="M0 0 C446.01 0.7, 891.21 0.68, 1682 0 M1682 0 C1681.14 14.25, 1684.09 30.9, 1682 39 M1682 39 C1040.37 43.12, 398.07 42.86, 0 39 M0 39 C-1.31 29.79, -1.62 16.48, 0 0" stroke="#1e1e1e" stroke-width="2.5" fill="none" stroke-dasharray="8 10"></path></g><g stroke-linecap="round" transform="translate(10 323) rotate(0 841 19.5)"><path d="M0 0 C587.89 -5.51, 1175.39 -5.37, 1682 0 M1682 0 C1681.05 14.76, 1682.15 27.18, 1682 39 M1682 39 C1290.88 44.88, 898.73 44.16, 0 39 M0 39 C1.86 27.3, -0.41 19.44, 0 0" stroke="#1e1e1e" stroke-width="2.5" fill="none" stroke-dasharray="8 10"></path></g><g stroke-linecap="round"><g transform="translate(35 95) rotate(0 0 413)"><path d="M0 0 C3.67 244.16, 3.81 487.83, 0 826 M0 0 C-1.19 318.27, -1.26 636.34, 0 826" stroke="#999" stroke-width="1" fill="none"></path></g></g><mask></mask><g stroke-linecap="round"><g transform="translate(339 80) rotate(0 0 423)"><path d="M0 0 C1.93 332.05, 1.79 663.21, 0 846 M0 0 C-2.21 213.41, -2.44 426.37, 0 846" stroke="#999" stroke-width="1" fill="none"></path></g></g><mask></mask><g stroke-linecap="round"><g transform="translate(648 80) rotate(0 0 423)"><path d="M0 0 C3.52 293.38, 3.42 585.94, 0 846 M0 0 C3.68 199.16, 3.55 399.17, 0 846" stroke="#999" stroke-width="1" fill="none"></path></g></g><mask></mask><g stroke-linecap="round"><g transform="translate(867 80) rotate(0 0 423)"><path d="M0 0 C1.73 322.88, 1.12 643.87, 0 846 M0 0 C-0.58 337.88, 0.01 675.74, 0 846" stroke="#999" stroke-width="1" fill="none"></path></g></g><mask></mask><g stroke-linecap="round"><g transform="translate(1067 80) rotate(0 0 423)"><path d="M0 0 C4.02 291.16, 2.82 583.88, 0 846 M0 0 C2.97 246.42, 3.15 492.5, 0 846" stroke="#999" stroke-width="1" fill="none"></path></g></g><mask></mask><g stroke-linecap="round"><g transform="translate(1267 80) rotate(0 0 423)"><path d="M0 0 C0.55 336.59, 1.72 674.14, 0 846 M0 0 C-1.95 323.42, -1.98 646.33, 0 846" stroke="#999" stroke-width="1" fill="none"></path></g></g><mask></mask><g stroke-linecap="round"><g transform="translate(1467 80) rotate(0 0 423)"><path d="M0 0 C2.37 277.87, 2.82 554.81, 0 846 M0 0 C2.07 197.4, 1.94 394.15, 0 846" stroke="#999" stroke-width="1" fill="none"></path></g></g><mask></mask><g stroke-linecap="round"><g transform="translate(1667 80) rotate(0 0 423)"><path d="M0 0 C-0.84 325.94, -0.97 651.48, 0 846 M0 0 C2.95 296.16, 2.6 591.61, 0 846" stroke="#999" stroke-width="1" fill="none"></path></g></g><mask></mask><g stroke-linecap="round"><g transform="translate(1867 80) rotate(0 0 423)"><path d="M0 0 C-2.25 213.74, -2.71 426.57, 0 846 M0 0 C3.52 320.3, 3.07 640.71, 0 846" stroke="#999" stroke-width="1" fill="none"></path></g></g><mask></mask><g mask="url(#mask-j2t8A1r7gDUHmTcA4pOdq)" stroke-linecap="round"><g transform="translate(1866 165) rotate(0 -297.5 0)"><path d="M-0.61 0.98 C-99.61 0.88, -496.48 0.57, -595.3 0.6 M-2.13 0.45 C-100.68 0.51, -494.4 -1.04, -593.01 -1.21" stroke="#1e1e1e" stroke-width="2" fill="none"></path></g><g transform="translate(1866 165) rotate(0 -297.5 0)"><path d="M-569.5 -9.69 C-573.32 -9.06, -579.51 -4.14, -593.01 -1.21 M-569.5 -9.69 C-578.92 -6.64, -588.16 -3.56, -593.01 -1.21" stroke="#1e1e1e" stroke-width="2" fill="none"></path></g><g transform="translate(1866 165) rotate(0 -297.5 0)"><path d="M-569.55 7.41 C-573.53 4.01, -579.7 4.9, -593.01 -1.21 M-569.55 7.41 C-579.08 3.68, -588.29 -0.02, -593.01 -1.21" stroke="#1e1e1e" stroke-width="2" fill="none"></path></g></g><mask id="mask-j2t8A1r7gDUHmTcA4pOdq"><rect x="0" y="0" fill="#fff" width="2561" height="265"></rect><rect x="1499.972038269043" y="155" fill="#000" width="137.05592346191406" height="20" opacity="1"></rect></mask><g mask="url(#mask-OjfIhuUt8UvINnJCkw9Jy)" stroke-linecap="round"><g transform="translate(1866 211) rotate(0 -197.5 0)"><path d="M0.48 -0.8 C-65.28 -0.63, -328.27 0.66, -393.9 0.94 M-0.46 1.39 C-66.44 1.25, -329.03 -0.28, -394.54 -0.68" stroke="#1e1e1e" stroke-width="2" fill="none"></path></g><g transform="translate(1866 211) rotate(0 -197.5 0)"><path d="M-371 -9.09 C-381.74 -4.55, -388.22 -0.26, -394.54 -0.68 M-371 -9.09 C-380.18 -6.08, -389.25 -1.94, -394.54 -0.68" stroke="#1e1e1e" stroke-width="2" fill="none"></path></g><g transform="translate(1866 211) rotate(0 -197.5 0)"><path d="M-371.1 8.01 C-381.78 5.73, -388.23 3.19, -394.54 -0.68 M-371.1 8.01 C-380.36 4.64, -389.38 2.4, -394.54 -0.68" stroke="#1e1e1e" stroke-width="2" fill="none"></path></g></g><mask id="mask-OjfIhuUt8UvINnJCkw9Jy"><rect x="0" y="0" fill="#fff" width="2361" height="311"></rect><rect x="1599.972038269043" y="201" fill="#000" width="137.05592346191406" height="20" opacity="1"></rect></mask><g mask="url(#mask-Ux-lPwku-x-os7f1oPqEc)" stroke-linecap="round"><g transform="translate(1866 257) rotate(0 -97.5 0)"><path d="M-1.3 0.6 C-33.46 0.63, -161.5 1.13, -193.56 1.16 M0.47 -0.13 C-31.75 -0.5, -161.61 -0.19, -194.01 -0.36" stroke="#1e1e1e" stroke-width="2" fill="none"></path></g><g transform="translate(1866 257) rotate(0 -97.5 0)"><path d="M-170.51 -8.89 C-176.28 -4.99, -182.18 -2.62, -194.01 -0.36 M-170.51 -8.89 C-179.17 -6.63, -186.74 -3.68, -194.01 -0.36" stroke="#1e1e1e" stroke-width="2" fill="none"></path></g><g transform="translate(1866 257) rotate(0 -97.5 0)"><path d="M-170.53 8.22 C-176.43 7.14, -182.33 4.53, -194.01 -0.36 M-170.53 8.22 C-179.15 4.24, -186.72 0.95, -194.01 -0.36" stroke="#1e1e1e" stroke-width="2" fill="none"></path></g></g><mask id="mask-Ux-lPwku-x-os7f1oPqEc"><rect x="0" y="0" fill="#fff" width="2161" height="357"></rect><rect x="1699.972038269043" y="247" fill="#000" width="137.05592346191406" height="20" opacity="1"></rect></mask><g mask="url(#mask-OUOpnKncK5sBRc1Grgp-h)" stroke-linecap="round"><g transform="translate(1866 303) rotate(0 -397.5 0)"><path d="M0.1 0.94 C-132.21 1.22, -661.04 1.07, -793.34 0.88 M-1.05 0.39 C-133.5 0.42, -661.51 -0.89, -793.69 -0.79" stroke="#1e1e1e" stroke-width="2" fill="none"></path></g><g transform="translate(1866 303) rotate(0 -397.5 0)"><path d="M-770.18 -9.31 C-777.64 -4.01, -786.73 -1.39, -793.69 -0.79 M-770.18 -9.31 C-777.62 -6, -784.43 -4.73, -793.69 -0.79" stroke="#1e1e1e" stroke-width="2" fill="none"></path></g><g transform="translate(1866 303) rotate(0 -397.5 0)"><path d="M-770.2 7.79 C-777.54 6.56, -786.62 2.65, -793.69 -0.79 M-770.2 7.79 C-777.55 6.26, -784.36 2.7, -793.69 -0.79" stroke="#1e1e1e" stroke-width="2" fill="none"></path></g></g><mask id="mask-OUOpnKncK5sBRc1Grgp-h"><rect x="0" y="0" fill="#fff" width="2761" height="403"></rect><rect x="1378.2040557861328" y="293" fill="#000" width="180.59188842773438" height="20" opacity="1"></rect></mask><g mask="url(#mask-465Dhxr39ZCH4outnw2y0)" stroke-linecap="round"><g transform="translate(36 398) rotate(0 149.5 0)"><path d="M1.44 1.16 C51.39 1.18, 249.9 1.06, 299.38 0.77 M0.48 0.72 C50.42 0.36, 249.4 -0.9, 298.89 -0.94" stroke="#1e1e1e" stroke-width="2" fill="none"></path></g><g transform="translate(36 398) rotate(0 149.5 0)"><path d="M275.43 7.7 C282.78 6.96, 287.61 3.15, 298.89 -0.94 M275.43 7.7 C282.31 4.78, 287.13 3.61, 298.89 -0.94" stroke="#1e1e1e" stroke-width="2" fill="none"></path></g><g transform="translate(36 398) rotate(0 149.5 0)"><path d="M275.36 -9.4 C282.81 -6.15, 287.66 -5.98, 298.89 -0.94 M275.36 -9.4 C282.24 -7.98, 287.08 -4.81, 298.89 -0.94" stroke="#1e1e1e" stroke-width="2" fill="none"></path></g></g><mask id="mask-465Dhxr39ZCH4outnw2y0"><rect x="0" y="0" fill="#fff" width="435" height="498"></rect><rect x="99.06005096435547" y="378" fill="#000" width="172.87989807128906" height="40" opacity="1"></rect></mask><g mask="url(#mask-o3vFidwEUr7_L3k2YpPh3)" stroke-linecap="round"><g transform="translate(340 444) rotate(0 152 0)"><path d="M1.66 0.88 C52.18 0.68, 254.06 -0.04, 304.27 -0.2 M0.8 0.29 C51.19 0.2, 253.55 1.08, 303.73 1.23" stroke="#1e1e1e" stroke-width="2" fill="none"></path></g><g transform="translate(340 444) rotate(0 152 0)"><path d="M280.21 9.69 C289.83 7.8, 296.26 2.62, 303.73 1.23 M280.21 9.69 C286.23 6.79, 294.12 3.98, 303.73 1.23" stroke="#1e1e1e" stroke-width="2" fill="none"></path></g><g transform="translate(340 444) rotate(0 152 0)"><path d="M280.27 -7.41 C290.01 -3.32, 296.41 -2.52, 303.73 1.23 M280.27 -7.41 C286.15 -5.32, 294.01 -3.14, 303.73 1.23" stroke="#1e1e1e" stroke-width="2" fill="none"></path></g></g><mask id="mask-o3vFidwEUr7_L3k2YpPh3"><rect x="0" y="0" fill="#fff" width="744" height="544"></rect><rect x="385.8480682373047" y="424" fill="#000" width="212.30386352539062" height="40" opacity="1"></rect></mask><g mask="url(#mask-GUxxByNaA9wvoV2KkiMnV)" stroke-linecap="round"><g transform="translate(649 490) rotate(0 107 0)"><path d="M1.38 0.77 C36.68 0.49, 177.96 -0.28, 213.3 -0.55 M0.38 0.14 C35.43 0.52, 176.87 0.72, 212.24 0.69" stroke="#1e1e1e" stroke-width="2" fill="none"></path></g><g transform="translate(649 490) rotate(0 107 0)"><path d="M188.74 9.23 C198.85 5.48, 205.54 2.43, 212.24 0.69 M188.74 9.23 C193.75 7.63, 198.71 4.76, 212.24 0.69" stroke="#1e1e1e" stroke-width="2" fill="none"></path></g><g transform="translate(649 490) rotate(0 107 0)"><path d="M188.75 -7.87 C199.02 -5.14, 205.7 -1.72, 212.24 0.69 M188.75 -7.87 C193.91 -5.61, 198.88 -4.62, 212.24 0.69" stroke="#1e1e1e" stroke-width="2" fill="none"></path></g></g><mask id="mask-GUxxByNaA9wvoV2KkiMnV"><rect x="0" y="0" fill="#fff" width="963" height="590"></rect><rect x="676.8480453491211" y="480" fill="#000" width="158.3039093017578" height="20" opacity="1"></rect></mask><g mask="url(#mask-gfhouWve3Gra7UcdlZZsW)" stroke-linecap="round"><g transform="translate(866 581) rotate(0 -107 0)"><path d="M0.27 -0.2 C-35.51 -0.37, -178.28 -0.32, -214.05 -0.1" stroke="#1e1e1e" stroke-width="2.5" fill="none" stroke-dasharray="1.5 8"></path></g><g transform="translate(866 581) rotate(0 -107 0)"><path d="M-190.58 -8.71 C-200.16 -6.07, -209.29 -3.22, -214.05 -0.1" stroke="#1e1e1e" stroke-width="2.5" fill="none" stroke-dasharray="1.5 6"></path></g><g transform="translate(866 581) rotate(0 -107 0)"><path d="M-190.54 8.39 C-200.26 4.25, -209.4 0.33, -214.05 -0.1" stroke="#1e1e1e" stroke-width="2.5" fill="none" stroke-dasharray="1.5 6"></path></g></g><mask id="mask-gfhouWve3Gra7UcdlZZsW"><rect x="0" y="0" fill="#fff" width="1180" height="681"></rect><rect x="699.9440460205078" y="571" fill="#000" width="118.11190795898438" height="20" opacity="1"></rect></mask><g mask="url(#mask-Wg04Sg_elP922qkGJAP0V)" stroke-linecap="round"><g transform="translate(649 672) rotate(0 207 0)"><path d="M0.3 -0.55 C68.97 -0.83, 344.35 -0.8, 413.4 -0.89 M-1.27 1.77 C67.16 1.55, 343.12 0.53, 412.4 0.18" stroke="#1e1e1e" stroke-width="2" fill="none"></path></g><g transform="translate(649 672) rotate(0 207 0)"><path d="M388.94 8.83 C396.71 5.47, 404.9 4.24, 412.4 0.18 M388.94 8.83 C393.33 6.15, 398.56 6.16, 412.4 0.18" stroke="#1e1e1e" stroke-width="2" fill="none"></path></g><g transform="translate(649 672) rotate(0 207 0)"><path d="M388.87 -8.27 C396.78 -5.25, 404.99 -0.1, 412.4 0.18 M388.87 -8.27 C393.24 -7.35, 398.48 -3.76, 412.4 0.18" stroke="#1e1e1e" stroke-width="2" fill="none"></path></g></g><mask id="mask-Wg04Sg_elP922qkGJAP0V"><rect x="0" y="0" fill="#fff" width="1163" height="772"></rect><rect x="725.2400817871094" y="652" fill="#000" width="261.51983642578125" height="40" opacity="1"></rect></mask><g mask="url(#mask-W57NWI_WhpYyiwJaHuuux)" stroke-linecap="round"><g transform="translate(1066 718) rotate(0 -207 0)"><path d="M-1.05 -0.1 C-70.17 0.12, -345.47 1.12, -414.39 1.1" stroke="#1e1e1e" stroke-width="2.5" fill="none" stroke-dasharray="1.5 8"></path></g><g transform="translate(1066 718) rotate(0 -207 0)"><path d="M-390.92 -7.5 C-399.66 -5.96, -406.22 -3.14, -414.39 1.1" stroke="#1e1e1e" stroke-width="2.5" fill="none" stroke-dasharray="1.5 6"></path></g><g transform="translate(1066 718) rotate(0 -207 0)"><path d="M-390.88 9.6 C-399.61 4.91, -406.18 1.49, -414.39 1.1" stroke="#1e1e1e" stroke-width="2.5" fill="none" stroke-dasharray="1.5 6"></path></g></g><mask id="mask-W57NWI_WhpYyiwJaHuuux"><rect x="0" y="0" fill="#fff" width="1580" height="818"></rect><rect x="785.3920364379883" y="708" fill="#000" width="147.21592712402344" height="20" opacity="1"></rect></mask><g mask="url(#mask-za45nZHXpr8nxMbvHff2A)" stroke-linecap="round"><g transform="translate(649 764) rotate(0 32.96790234212233 10.146231507747245)"><path d="M-0.6 -1.39 C9.7 -3.06, 51.04 -16.34, 61.1 -11.08 C71.15 -5.82, 69.95 25.05, 59.74 30.14 C49.53 35.24, 9.76 20.92, -0.17 19.51 M-2.11 0.75 C8.14 -0.76, 50.57 -15.24, 60.72 -10.11 C70.88 -4.98, 69 26.5, 58.83 31.54 C48.67 36.57, 9.17 22.17, -0.27 20.09" stroke="#1e1e1e" stroke-width="2" fill="none"></path></g><g transform="translate(649 764) rotate(0 32.96790234212233 10.146231507747245)"><path d="M24.67 18.4 C16.12 20.69, 8.74 18.9, -0.27 20.09 M24.67 18.4 C16.62 19.72, 9.46 19.5, -0.27 20.09" stroke="#1e1e1e" stroke-width="2" fill="none"></path></g><g transform="translate(649 764) rotate(0 32.96790234212233 10.146231507747245)"><path d="M19.92 34.83 C12.79 32.47, 6.76 26.03, -0.27 20.09 M19.92 34.83 C13.45 31.06, 7.76 25.72, -0.27 20.09" stroke="#1e1e1e" stroke-width="2" fill="none"></path></g></g><mask id="mask-za45nZHXpr8nxMbvHff2A"><rect x="0" y="0" fill="#fff" width="809" height="904"></rect><rect x="633.6532328396308" y="764.239699096679" fill="#000" width="166.67190551757812" height="20" opacity="1"></rect></mask><g mask="url(#mask-XgXvXs9r4oQr4eOKwNSf8)" stroke-linecap="round"><g transform="translate(649 840) rotate(0 107 0)"><path d="M-0.39 1.1 C35.02 1.07, 176.75 0.03, 212.42 -0.26 M1.34 0.63 C37.16 0.79, 179.3 1.19, 214.57 1.14" stroke="#1e1e1e" stroke-width="2" fill="none"></path></g><g transform="translate(649 840) rotate(0 107 0)"><path d="M191.06 9.66 C198.87 5.87, 202.56 5.75, 214.57 1.14 M191.06 9.66 C197.87 8, 202.87 5.31, 214.57 1.14" stroke="#1e1e1e" stroke-width="2" fill="none"></path></g><g transform="translate(649 840) rotate(0 107 0)"><path d="M191.08 -7.44 C198.86 -6.89, 202.56 -2.67, 214.57 1.14 M191.08 -7.44 C197.74 -4.93, 202.74 -3.43, 214.57 1.14" stroke="#1e1e1e" stroke-width="2" fill="none"></path></g></g><mask id="mask-XgXvXs9r4oQr4eOKwNSf8"><rect x="0" y="0" fill="#fff" width="963" height="940"></rect><rect x="685.9840316772461" y="830" fill="#000" width="140.0319366455078" height="20" opacity="1"></rect></mask><g mask="url(#mask-_XqysXSXaWjYjiW41bIiR)" stroke-linecap="round"><g transform="translate(647 896) rotate(0 -152 0)"><path d="M0.6 -1.08 C-49.93 -0.91, -252.97 0.13, -303.76 0.14" stroke="#1e1e1e" stroke-width="2.5" fill="none" stroke-dasharray="1.5 8"></path></g><g transform="translate(647 896) rotate(0 -152 0)"><path d="M-280.3 -8.48 C-289.01 -6.19, -293.81 -4.35, -303.76 0.14" stroke="#1e1e1e" stroke-width="2.5" fill="none" stroke-dasharray="1.5 6"></path></g><g transform="translate(647 896) rotate(0 -152 0)"><path d="M-280.25 8.62 C-288.84 5.92, -293.66 2.78, -303.76 0.14" stroke="#1e1e1e" stroke-width="2.5" fill="none" stroke-dasharray="1.5 6"></path></g></g><mask id="mask-_XqysXSXaWjYjiW41bIiR"><rect x="0" y="0" fill="#fff" width="1051" height="996"></rect><rect x="414.48004150390625" y="876" fill="#000" width="161.0399169921875" height="40" opacity="1"></rect></mask><g stroke-linecap="round"><g transform="translate(564 510) rotate(0 257 0)"><path d="M0 0 C115.79 1.95, 231.49 1.19, 514 0" stroke="#adb5bd" stroke-width="2.5" fill="none" stroke-dasharray="1.5 8"></path></g></g><mask></mask><g stroke-linecap="round"><g transform="translate(1078 510) rotate(0 0 175)"><path d="M0 0 C-1.89 136.27, -3.12 273.65, 0 350" stroke="#adb5bd" stroke-width="2.5" fill="none" stroke-dasharray="1.5 8"></path></g></g><mask></mask><g stroke-linecap="round"><g transform="translate(564 860) rotate(0 257 0)"><path d="M0 0 C107.5 -0.91, 215.69 0.55, 514 0" stroke="#adb5bd" stroke-width="2.5" fill="none" stroke-dasharray="1.5 8"></path></g></g><mask></mask><g stroke-linecap="round"><g transform="translate(564 510) rotate(0 0 175)"><path d="M0 0 C-0.81 96.97, 1.56 195.08, 0 350" stroke="#adb5bd" stroke-width="2.5" fill="none" stroke-dasharray="1.5 8"></path></g></g><mask></mask><g stroke-linecap="round"><g transform="translate(564 606) rotate(0 257 0)"><path d="M0 0 C160.11 2.5, 320.92 1.9, 514 0" stroke="#adb5bd" stroke-width="2.5" fill="none" stroke-dasharray="1.5 8"></path></g></g><mask></mask><g transform="translate(805.34375 518) rotate(0 45.439971923828125 10)"><text x="0" y="0" font-family="Virgil, Segoe UI Emoji" font-size="16px" fill="#1e1e1e" text-anchor="start" style="white-space: pre;" direction="ltr" dominant-baseline="text-before-edge">[Cache Hit]</text></g><g transform="translate(776.59375 614) rotate(0 51.327964782714844 10)"><text x="0" y="0" font-family="Virgil, Segoe UI Emoji" font-size="16px" fill="#1e1e1e" text-anchor="start" style="white-space: pre;" direction="ltr" dominant-baseline="text-before-edge">[Cache Miss]</text></g><g stroke-linecap="round" transform="translate(564 510) rotate(0 17 15)"><path d="M-0.15 0.59 L34.44 0.13 L33.09 29.37 L0.79 30.12" stroke="none" stroke-width="0" fill="#e9ecef"></path><path d="M0 0 C9.57 -0.31, 18.25 0.06, 34 0 M0 0 C9.84 0.17, 19.15 0.45, 34 0 M34 0 C34.8 8.36, 34.48 16.34, 34 30 M34 0 C34.15 12.1, 33.74 22.92, 34 30 M34 30 C27.28 30.8, 18.25 29.15, 0 30 M34 30 C24.8 29.93, 14.87 30.39, 0 30 M0 30 C1 22.84, 1.01 14.28, 0 0 M0 30 C-0.18 22.26, 0.08 14.46, 0 0" stroke="#adb5bd" stroke-width="2" fill="none"></path></g><g transform="translate(305.6160202026367 37.5) rotate(0 33.38397979736328 10)"><text x="33.38397979736328" y="0" font-family="Virgil, Segoe UI Emoji" font-size="16px" fill="#000" text-anchor="middle" style="white-space: pre;" direction="ltr" dominant-baseline="text-before-edge">Frontend</text></g><g transform="translate(305.6160202026367 948.5) rotate(0 33.38397979736328 10)"><text x="33.38397979736328" y="0" font-family="Virgil, Segoe UI Emoji" font-size="16px" fill="#000" text-anchor="middle" style="white-space: pre;" direction="ltr" dominant-baseline="text-before-edge">Frontend</text></g><g transform="translate(587.472053527832 37.5) rotate(0 60.52794647216797 10)"><text x="60.52794647216797" y="0" font-family="Virgil, Segoe UI Emoji" font-size="16px" fill="#000" text-anchor="middle" style="white-space: pre;" direction="ltr" dominant-baseline="text-before-edge">Comparison API</text></g><g transform="translate(587.472053527832 948.5) rotate(0 60.52794647216797 10)"><text x="60.52794647216797" y="0" font-family="Virgil, Segoe UI Emoji" font-size="16px" fill="#000" text-anchor="middle" style="white-space: pre;" direction="ltr" dominant-baseline="text-before-edge">Comparison API</text></g><g transform="translate(846.5520172119141 37.5) rotate(0 20.447982788085938 10)"><text x="20.447982788085938" y="0" font-family="Virgil, Segoe UI Emoji" font-size="16px" fill="#000" text-anchor="middle" style="white-space: pre;" direction="ltr" dominant-baseline="text-before-edge">Redis</text></g><g transform="translate(846.5520172119141 948.5) rotate(0 20.447982788085938 10)"><text x="20.447982788085938" y="0" font-family="Virgil, Segoe UI Emoji" font-size="16px" fill="#000" text-anchor="middle" style="white-space: pre;" direction="ltr" dominant-baseline="text-before-edge">Redis</text></g><g transform="translate(999.4560394287109 37.5) rotate(0 67.54396057128906 10)"><text x="67.54396057128906" y="0" font-family="Virgil, Segoe UI Emoji" font-size="16px" fill="#000" text-anchor="middle" style="white-space: pre;" direction="ltr" dominant-baseline="text-before-edge">Pricing Database</text></g><g transform="translate(999.4560394287109 948.5) rotate(0 67.54396057128906 10)"><text x="67.54396057128906" y="0" font-family="Virgil, Segoe UI Emoji" font-size="16px" fill="#000" text-anchor="middle" style="white-space: pre;" direction="ltr" dominant-baseline="text-before-edge">Pricing Database</text></g><g transform="translate(1204.0320510864258 37.5) rotate(0 62.96794891357422 10)"><text x="62.96794891357422" y="0" font-family="Virgil, Segoe UI Emoji" font-size="16px" fill="#000" text-anchor="middle" style="white-space: pre;" direction="ltr" dominant-baseline="text-before-edge">AWS Pricing API</text></g><g transform="translate(1204.0320510864258 948.5) rotate(0 62.96794891357422 10)"><text x="62.96794891357422" y="0" font-family="Virgil, Segoe UI Emoji" font-size="16px" fill="#000" text-anchor="middle" style="white-space: pre;" direction="ltr" dominant-baseline="text-before-edge">AWS Pricing API</text></g><g transform="translate(1397.9280548095703 37.5) rotate(0 69.07194519042969 10)"><text x="69.07194519042969" y="0" font-family="Virgil, Segoe UI Emoji" font-size="16px" fill="#000" text-anchor="middle" style="white-space: pre;" direction="ltr" dominant-baseline="text-before-edge">Azure Pricing API</text></g><g transform="translate(1397.9280548095703 948.5) rotate(0 69.07194519042969 10)"><text x="69.07194519042969" y="0" font-family="Virgil, Segoe UI Emoji" font-size="16px" fill="#000" text-anchor="middle" style="white-space: pre;" direction="ltr" dominant-baseline="text-before-edge">Azure Pricing API</text></g><g transform="translate(1603.3600540161133 37.5) rotate(0 63.63994598388672 10)"><text x="63.63994598388672" y="0" font-family="Virgil, Segoe UI Emoji" font-size="16px" fill="#000" text-anchor="middle" style="white-space: pre;" direction="ltr" dominant-baseline="text-before-edge">GCP Pricing API</text></g><g transform="translate(1603.3600540161133 948.5) rotate(0 63.63994598388672 10)"><text x="63.63994598388672" y="0" font-family="Virgil, Segoe UI Emoji" font-size="16px" fill="#000" text-anchor="middle" style="white-space: pre;" direction="ltr" dominant-baseline="text-before-edge">GCP Pricing API</text></g><g transform="translate(1819.6240158081055 37.5) rotate(0 47.37598419189453 10)"><text x="47.37598419189453" y="0" font-family="Virgil, Segoe UI Emoji" font-size="16px" fill="#000" text-anchor="middle" style="white-space: pre;" direction="ltr" dominant-baseline="text-before-edge">Sync Service</text></g><g transform="translate(1819.6240158081055 948.5) rotate(0 47.37598419189453 10)"><text x="47.37598419189453" y="0" font-family="Virgil, Segoe UI Emoji" font-size="16px" fill="#000" text-anchor="middle" style="white-space: pre;" direction="ltr" dominant-baseline="text-before-edge">Sync Service</text></g><g transform="translate(757.1200408935547 99.5) rotate(0 93.87995910644531 10)"><text x="93.87995910644531" y="0" font-family="Virgil, Segoe UI Emoji" font-size="16px" fill="#000" text-anchor="middle" style="white-space: pre;" direction="ltr" dominant-baseline="text-before-edge">Price Data Sync (Daily)</text></g><g transform="translate(751.5440673828125 332.5) rotate(0 99.4559326171875 10)"><text x="99.4559326171875" y="0" font-family="Virgil, Segoe UI Emoji" font-size="16px" fill="#000" text-anchor="middle" style="white-space: pre;" direction="ltr" dominant-baseline="text-before-edge">User Comparison Request</text></g><g transform="translate(1499.972038269043 155) rotate(0 68.07133124098175 9.885082453754734)"><text x="68.52796173095703" y="0" font-family="Virgil, Segoe UI Emoji" font-size="16px" fill="#1e1e1e" text-anchor="middle" style="white-space: pre;" direction="ltr" dominant-baseline="text-before-edge">GET pricing data</text></g><g transform="translate(1599.972038269043 201) rotate(0 69.00030882728754 10.292024608501237)"><text x="68.52796173095703" y="0" font-family="Virgil, Segoe UI Emoji" font-size="16px" fill="#1e1e1e" text-anchor="middle" style="white-space: pre;" direction="ltr" dominant-baseline="text-before-edge">GET pricing data</text></g><g transform="translate(1699.972038269043 247) rotate(0 69.26126831642352 10.397336150375196)"><text x="68.52796173095703" y="0" font-family="Virgil, Segoe UI Emoji" font-size="16px" fill="#1e1e1e" text-anchor="middle" style="white-space: pre;" direction="ltr" dominant-baseline="text-before-edge">GET pricing data</text></g><g transform="translate(1378.2040557861328 293) rotate(0 91.00144646031322 10.152169479887817)"><text x="90.29594421386719" y="0" font-family="Virgil, Segoe UI Emoji" font-size="16px" fill="#1e1e1e" text-anchor="middle" style="white-space: pre;" direction="ltr" dominant-baseline="text-before-edge">Bulk INSERT/UPDATE</text></g><g transform="translate(99.06005096435547 378) rotate(0 86.86848760973196 20.109228874395995)"><text x="86.43994903564453" y="0" font-family="Virgil, Segoe UI Emoji" font-size="16px" fill="#1e1e1e" text-anchor="middle" style="white-space: pre;" direction="ltr" dominant-baseline="text-before-edge">Select specs (CPU:2, </text><text x="86.43994903564453" y="20" font-family="Virgil, Segoe UI Emoji" font-size="16px" fill="#1e1e1e" text-anchor="middle" style="white-space: pre;" direction="ltr" dominant-baseline="text-before-edge">RAM:4GB)</text></g><g transform="translate(385.8480682373047 424) rotate(0 106.69067414519844 20.511840809085413)"><text x="106.15193176269531" y="0" font-family="Virgil, Segoe UI Emoji" font-size="16px" fill="#1e1e1e" text-anchor="middle" style="white-space: pre;" direction="ltr" dominant-baseline="text-before-edge">GET </text><text x="106.15193176269531" y="20" font-family="Virgil, Segoe UI Emoji" font-size="16px" fill="#1e1e1e" text-anchor="middle" style="white-space: pre;" direction="ltr" dominant-baseline="text-before-edge">/api/compare?cpu=2&amp;ram=4</text></g><g transform="translate(676.8480453491211 480) rotate(0 78.9887330667255 10.110348830372118)"><text x="79.1519546508789" y="0" font-family="Virgil, Segoe UI Emoji" font-size="16px" fill="#1e1e1e" text-anchor="middle" style="white-space: pre;" direction="ltr" dominant-baseline="text-before-edge">Check cache key:2-4</text></g><g transform="translate(699.9440460205078 571) rotate(0 59.166302809864305 9.800299372549489)"><text x="59.05595397949219" y="0" font-family="Virgil, Segoe UI Emoji" font-size="16px" fill="#1e1e1e" text-anchor="middle" style="white-space: pre;" direction="ltr" dominant-baseline="text-before-edge">Cached results</text></g><g transform="translate(725.2400817871094 652) rotate(0 129.82533074806906 20.43848560017068)"><text x="130.75991821289062" y="0" font-family="Virgil, Segoe UI Emoji" font-size="16px" fill="#1e1e1e" text-anchor="middle" style="white-space: pre;" direction="ltr" dominant-baseline="text-before-edge">Query pricing WHERE cpu=2 AND </text><text x="130.75991821289062" y="20" font-family="Virgil, Segoe UI Emoji" font-size="16px" fill="#1e1e1e" text-anchor="middle" style="white-space: pre;" direction="ltr" dominant-baseline="text-before-edge">ram=4</text></g><g transform="translate(785.3920364379883 708) rotate(0 72.88468247428534 10.498887128472404)"><text x="73.60796356201172" y="0" font-family="Virgil, Segoe UI Emoji" font-size="16px" fill="#1e1e1e" text-anchor="middle" style="white-space: pre;" direction="ltr" dominant-baseline="text-before-edge">Matching instances</text></g><g transform="translate(633.653232839631 764.239699096679) rotate(0 48.31466950249148 9.906532411068213)"><text x="83.33595275878906" y="0" font-family="Virgil, Segoe UI Emoji" font-size="16px" fill="#1e1e1e" text-anchor="middle" style="white-space: pre;" direction="ltr" dominant-baseline="text-before-edge">Calculate best value</text></g><g transform="translate(685.9840316772461 830) rotate(0 70.10232216102537 10.438322545494543)"><text x="70.0159683227539" y="0" font-family="Virgil, Segoe UI Emoji" font-size="16px" fill="#1e1e1e" text-anchor="middle" style="white-space: pre;" direction="ltr" dominant-baseline="text-before-edge">Store (TTL: 24h)</text></g><g transform="translate(414.48004150390625 876) rotate(0 80.93659646734596 19.53151031509043)"><text x="80.51995849609375" y="0" font-family="Virgil, Segoe UI Emoji" font-size="16px" fill="#1e1e1e" text-anchor="middle" style="white-space: pre;" direction="ltr" dominant-baseline="text-before-edge">200 OK {providers, </text><text x="80.51995849609375" y="20" font-family="Virgil, Segoe UI Emoji" font-size="16px" fill="#1e1e1e" text-anchor="middle" style="white-space: pre;" direction="ltr" dominant-baseline="text-before-edge">bestChoice}</text></g><g transform="translate(569.0400085449219 515) rotate(0 11.959991455078125 10)"><text x="11.959991455078125" y="0" font-family="Virgil, Segoe UI Emoji" font-size="16px" fill="#000" text-anchor="middle" style="white-space: pre;" direction="ltr" dominant-baseline="text-before-edge">alt</text></g></svg>