<svg version="1.1" xmlns="http://www.w3.org/2000/svg" viewBox="0 0 1351 1547.5" width="1351" height="1547.5">
  <!-- svg-source:excalidraw -->
  
  <defs>
    <style class="style-fonts">
      @font-face {
        font-family: "Virgil";
        src: url("https://unpkg.com/@excalidraw/excalidraw@undefined/dist/excalidraw-assets/Virgil.woff2");
      }
      @font-face {
        font-family: "Cascadia";
        src: url("https://unpkg.com/@excalidraw/excalidraw@undefined/dist/excalidraw-assets/Cascadia.woff2");
      }
      @font-face {
        font-family: "Assistant";
        src: url("https://unpkg.com/@excalidraw/excalidraw@undefined/dist/excalidraw-assets/Assistant-Regular.woff2");
      }
    </style>
    
  </defs>
  <rect x="0" y="0" width="1351" height="1547.5" fill="#fafafa"></rect><g stroke-linecap="round"><g transform="translate(35 40) rotate(0 0 10)"><path d="M0 0 C-0.5 5.27, 0.57 11.75, 0 20 M0 0 C0.19 4.63, -0.1 10.1, 0 20" stroke="#000" stroke-width="1" fill="none"></path></g></g><mask></mask><g stroke-linecap="round"><g transform="translate(17 48) rotate(0 18 0)"><path d="M0 0 C10.66 0.65, 22.54 -0.41, 36 0 M0 0 C12.6 -0.2, 26.03 -0.27, 36 0" stroke="#000" stroke-width="1" fill="none"></path></g></g><mask></mask><g stroke-linecap="round"><g transform="translate(17 75) rotate(0 9 -7.5)"><path d="M0 0 C4.83 -3.34, 8 -6.41, 18 -15 M0 0 C5.2 -4.31, 10.52 -9.21, 18 -15" stroke="#000" stroke-width="1" fill="none"></path></g></g><mask></mask><g stroke-linecap="round"><g transform="translate(35 60) rotate(0 8 7.5)"><path d="M0 0 C4.09 3.19, 8.53 7.42, 16 15 M0 0 C5.26 4.69, 10.05 9.58, 16 15" stroke="#000" stroke-width="1" fill="none"></path></g></g><mask></mask><g stroke-linecap="round" transform="translate(20 10) rotate(0 15 15)"><path d="M16.88 0.01 C19.94 0.22, 24.23 2.45, 26.36 4.86 C28.5 7.26, 29.71 11.22, 29.69 14.43 C29.67 17.63, 28.26 21.56, 26.26 24.09 C24.25 26.62, 20.7 28.83, 17.65 29.59 C14.6 30.34, 10.75 30.14, 7.95 28.63 C5.15 27.13, 2.1 23.59, 0.87 20.55 C-0.37 17.51, -0.49 13.53, 0.54 10.41 C1.58 7.28, 4.17 3.51, 7.07 1.81 C9.98 0.1, 16.11 0.36, 17.95 0.16 C19.79 -0.04, 18.28 0.28, 18.11 0.61 M15.85 0.11 C18.83 0.06, 22.32 2.43, 24.56 4.5 C26.8 6.56, 28.67 9.53, 29.28 12.52 C29.89 15.52, 29.91 19.61, 28.22 22.46 C26.53 25.31, 22.41 28.59, 19.15 29.62 C15.89 30.65, 11.5 29.84, 8.66 28.62 C5.81 27.41, 3.45 25.22, 2.08 22.33 C0.71 19.44, -0.13 14.54, 0.45 11.28 C1.02 8.02, 2.98 4.7, 5.52 2.77 C8.07 0.83, 14.06 -0.04, 15.7 -0.34 C17.34 -0.64, 15.4 0.66, 15.36 0.98" stroke="#1e1e1e" stroke-width="2" fill="none"></path></g><g transform="translate(19.1015625 72.5) rotate(0 17.871986389160156 10)"><text x="0" y="0" font-family="Virgil, Segoe UI Emoji" font-size="16px" fill="#1e1e1e" text-anchor="start" style="white-space: pre;" direction="ltr" dominant-baseline="text-before-edge">User</text></g><g stroke-linecap="round"><g transform="translate(35 1485) rotate(0 0 10)"><path d="M0 0 C-0.06 6.54, -0.77 12.25, 0 20 M0 0 C-0.25 5.99, -0.31 12.59, 0 20" stroke="#000" stroke-width="1" fill="none"></path></g></g><mask></mask><g stroke-linecap="round"><g transform="translate(17 1493) rotate(0 18 0)"><path d="M0 0 C9.24 -0.72, 17.66 0.23, 36 0 M0 0 C8.75 -0.19, 18.11 -0.04, 36 0" stroke="#000" stroke-width="1" fill="none"></path></g></g><mask></mask><g stroke-linecap="round"><g transform="translate(17 1520) rotate(0 9 -7.5)"><path d="M0 0 C5.76 -5.74, 13.18 -11.26, 18 -15 M0 0 C4.07 -3.82, 8.51 -6.96, 18 -15" stroke="#000" stroke-width="1" fill="none"></path></g></g><mask></mask><g stroke-linecap="round"><g transform="translate(35 1505) rotate(0 8 7.5)"><path d="M0 0 C4.48 4.77, 9.15 8.41, 16 15 M0 0 C3.76 3.82, 8.37 8.29, 16 15" stroke="#000" stroke-width="1" fill="none"></path></g></g><mask></mask><g stroke-linecap="round" transform="translate(20 1455) rotate(0 15 15)"><path d="M12.89 -0.17 C15.9 -0.69, 20.23 0.5, 23 2.41 C25.77 4.31, 28.59 8.14, 29.52 11.25 C30.45 14.37, 29.92 18.21, 28.57 21.1 C27.21 24, 24.28 27.29, 21.4 28.64 C18.53 29.98, 14.37 29.98, 11.34 29.18 C8.3 28.37, 5.07 26.32, 3.19 23.8 C1.32 21.27, 0.02 17.15, 0.1 14.02 C0.19 10.9, 1.37 7.39, 3.68 5.06 C6 2.73, 12.15 0.8, 14.01 0.04 C15.87 -0.71, 14.83 0.33, 14.84 0.53 M18.69 -0.15 C21.72 0.44, 24.61 3.6, 26.38 6.17 C28.14 8.75, 29.26 12.11, 29.26 15.31 C29.27 18.51, 28.44 23.05, 26.42 25.37 C24.4 27.7, 20.41 28.94, 17.13 29.26 C13.86 29.57, 9.46 28.94, 6.75 27.27 C4.04 25.6, 1.85 22.1, 0.89 19.22 C-0.07 16.34, -0.22 12.89, 0.97 9.98 C2.16 7.08, 5.27 3.29, 8.02 1.79 C10.77 0.3, 15.71 1.17, 17.48 1.02 C19.25 0.86, 18.7 0.65, 18.66 0.86" stroke="#1e1e1e" stroke-width="2" fill="none"></path></g><g transform="translate(19.1015625 1517.5) rotate(0 17.871986389160156 10)"><text x="0" y="0" font-family="Virgil, Segoe UI Emoji" font-size="16px" fill="#1e1e1e" text-anchor="start" style="white-space: pre;" direction="ltr" dominant-baseline="text-before-edge">User</text></g><g stroke-linecap="round" transform="translate(160 15) rotate(0 75 32.5)"><path d="M0 0 C39 -0.15, 78.58 -0.4, 150 0 M0 0 C36.23 -0.71, 70.76 -0.86, 150 0 M150 0 C150.99 21.63, 150.15 43.87, 150 65 M150 0 C150.56 13.97, 150.99 26.84, 150 65 M150 65 C113.46 65.18, 77.68 62.55, 0 65 M150 65 C98.39 64.81, 46.08 63.62, 0 65 M0 65 C-0.57 47.2, 2.15 30.18, 0 0 M0 65 C1.33 45.16, -0.17 25.33, 0 0" stroke="#1e1e1e" stroke-width="2" fill="none"></path></g><g stroke-linecap="round" transform="translate(160 1460) rotate(0 75 32.5)"><path d="M0 0 C47.6 -0.96, 95.76 -0.38, 150 0 M0 0 C41.18 -1.24, 82.54 -1, 150 0 M150 0 C149.17 18.4, 149.46 34.32, 150 65 M150 0 C150.71 25.41, 150.23 49.31, 150 65 M150 65 C93.46 62.91, 32.98 65.16, 0 65 M150 65 C119.85 65.81, 88.13 65.33, 0 65 M0 65 C-0.55 50.87, -0.15 33.35, 0 0 M0 65 C-0.29 50.86, 0.02 38.48, 0 0" stroke="#1e1e1e" stroke-width="2" fill="none"></path></g><g stroke-linecap="round" transform="translate(508 15) rotate(0 75 32.5)"><path d="M0 0 C36.53 -0.45, 75.53 0.14, 150 0 M0 0 C48.89 0.02, 97.86 0.29, 150 0 M150 0 C150.66 14.35, 148.48 30.44, 150 65 M150 0 C150.45 20.55, 149.37 41.67, 150 65 M150 65 C115.14 64.69, 83.84 64.06, 0 65 M150 65 C110.85 64.76, 71.06 65.02, 0 65 M0 65 C2.09 43.96, 0.5 21.03, 0 0 M0 65 C-1.25 40.28, -0.28 13.86, 0 0" stroke="#1e1e1e" stroke-width="2" fill="none"></path></g><g stroke-linecap="round" transform="translate(508 1460) rotate(0 75 32.5)"><path d="M0 0 C34.77 0.12, 71.2 1.91, 150 0 M0 0 C58.32 0.16, 117.38 -1, 150 0 M150 0 C149.87 21.28, 151.58 46.63, 150 65 M150 0 C150.54 18.94, 151.26 38.38, 150 65 M150 65 C111.48 64.96, 73.64 63.26, 0 65 M150 65 C97.69 64.92, 46.45 65.48, 0 65 M0 65 C0.13 48.72, -1.76 33.83, 0 0 M0 65 C0.41 41.02, -0.69 16.28, 0 0" stroke="#1e1e1e" stroke-width="2" fill="none"></path></g><g stroke-linecap="round" transform="translate(791 15) rotate(0 75 32.5)"><path d="M0 0 C37.67 0.33, 78.42 2.63, 150 0 M0 0 C40.36 0.51, 79.19 1.29, 150 0 M150 0 C148.2 20.14, 150.37 36.94, 150 65 M150 0 C149.65 24.37, 149.52 46.5, 150 65 M150 65 C96.01 62.09, 39.39 64.89, 0 65 M150 65 C99.01 63.24, 48.91 63.32, 0 65 M0 65 C-0.39 44.89, 1.21 30.01, 0 0 M0 65 C0.69 43.1, 0.11 22.32, 0 0" stroke="#1e1e1e" stroke-width="2" fill="none"></path></g><g stroke-linecap="round" transform="translate(791 1460) rotate(0 75 32.5)"><path d="M0 0 C30.45 1.47, 63.68 0.3, 150 0 M0 0 C46.95 -1.35, 94.89 -0.72, 150 0 M150 0 C151.67 20.71, 150.01 42.11, 150 65 M150 0 C150.95 21.61, 149.57 45.42, 150 65 M150 65 C112.89 64.95, 80.51 66.46, 0 65 M150 65 C102.06 64.75, 54.75 64.32, 0 65 M0 65 C-1.89 41.47, 1.43 14.95, 0 0 M0 65 C-0.89 50.2, -0.26 36.93, 0 0" stroke="#1e1e1e" stroke-width="2" fill="none"></path></g><g stroke-linecap="round" transform="translate(991 15) rotate(0 75 32.5)"><path d="M0 0 C37.56 2.19, 73.45 0.64, 150 0 M0 0 C37 0.89, 75.41 0.47, 150 0 M150 0 C149.66 19.43, 150.62 39.69, 150 65 M150 0 C148.83 19.89, 150.25 40.16, 150 65 M150 65 C114.02 64.42, 80.31 63.87, 0 65 M150 65 C117.36 63.71, 84.05 65.07, 0 65 M0 65 C1.73 46.93, 0.52 24.42, 0 0 M0 65 C-0.52 41.72, 0.6 17.28, 0 0" stroke="#1e1e1e" stroke-width="2" fill="none"></path></g><g stroke-linecap="round" transform="translate(991 1460) rotate(0 75 32.5)"><path d="M0 0 C37.15 -1.04, 70.91 -1.34, 150 0 M0 0 C51.21 1.02, 101.44 1.17, 150 0 M150 0 C150.57 14.58, 151.43 26.98, 150 65 M150 0 C150.04 16.05, 149.9 30.12, 150 65 M150 65 C98.83 65.19, 46.24 62.81, 0 65 M150 65 C109.36 65.16, 70.55 65.36, 0 65 M0 65 C2.05 45.45, -0.96 25.93, 0 0 M0 65 C0.45 45.05, -0.59 22.69, 0 0" stroke="#1e1e1e" stroke-width="2" fill="none"></path></g><g stroke-linecap="round" transform="translate(1191 15) rotate(0 75 32.5)"><path d="M0 0 C40.84 -1.09, 82.06 -0.63, 150 0 M0 0 C41.63 -0.7, 83.56 -1.79, 150 0 M150 0 C151.32 25.85, 150.37 48.67, 150 65 M150 0 C150.17 24.42, 148.85 50.61, 150 65 M150 65 C120.22 65.97, 87.32 65.01, 0 65 M150 65 C113.06 65.2, 76.52 64.4, 0 65 M0 65 C0 50.08, 0.62 38.66, 0 0 M0 65 C0.98 47.81, -0.7 33, 0 0" stroke="#1e1e1e" stroke-width="2" fill="none"></path></g><g stroke-linecap="round" transform="translate(1191 1460) rotate(0 75 32.5)"><path d="M0 0 C49.03 -0.46, 98.24 0.07, 150 0 M0 0 C33.32 0.23, 65.41 1.08, 150 0 M150 0 C150.89 20.68, 148.74 42.53, 150 65 M150 0 C149.01 13.89, 150.13 28.11, 150 65 M150 65 C111.01 63.95, 70.74 64.47, 0 65 M150 65 C102.35 64.7, 53 63.76, 0 65 M0 65 C-2.04 40.88, -0.1 13.36, 0 0 M0 65 C-1 47.17, 0.48 30.45, 0 0" stroke="#1e1e1e" stroke-width="2" fill="none"></path></g><g stroke-linecap="round" transform="translate(10 90) rotate(0 640.5 19.5)"><path d="M0 0 C501.75 -0.44, 1004.1 -1.37, 1281 0 M1281 0 C1280.91 12.01, 1282.62 28.09, 1281 39 M1281 39 C895.38 40.76, 510.22 40.66, 0 39 M0 39 C-1.56 30.26, -2.19 18.89, 0 0" stroke="#1e1e1e" stroke-width="2.5" fill="none" stroke-dasharray="8 10"></path></g><g stroke-linecap="round"><g transform="translate(35 95) rotate(0 0 680)"><path d="M0 0 C1.09 362.38, 0.15 725.55, 0 1360 M0 0 C0.4 386.6, 0.84 772.53, 0 1360" stroke="#999" stroke-width="1" fill="none"></path></g></g><mask></mask><g stroke-linecap="round"><g transform="translate(235 80) rotate(0 0 690)"><path d="M0 0 C-2.83 433.26, -2.2 867.65, 0 1380 M0 0 C0.26 433.92, -0.08 867.97, 0 1380" stroke="#999" stroke-width="1" fill="none"></path></g></g><mask></mask><g stroke-linecap="round"><g transform="translate(583 80) rotate(0 0 690)"><path d="M0 0 C1.45 348.08, 1.95 695.36, 0 1380 M0 0 C-5.17 411.98, -4.98 824.12, 0 1380" stroke="#999" stroke-width="1" fill="none"></path></g></g><mask></mask><g stroke-linecap="round"><g transform="translate(866 80) rotate(0 0 690)"><path d="M0 0 C-0.73 465.83, -1.07 931.91, 0 1380 M0 0 C4.65 283.69, 4.82 566.93, 0 1380" stroke="#999" stroke-width="1" fill="none"></path></g></g><mask></mask><g stroke-linecap="round"><g transform="translate(1066 80) rotate(0 0 690)"><path d="M0 0 C-4.48 384.55, -4.36 768.11, 0 1380 M0 0 C1.02 530.3, 0.82 1060, 0 1380" stroke="#999" stroke-width="1" fill="none"></path></g></g><mask></mask><g stroke-linecap="round"><g transform="translate(1266 80) rotate(0 0 690)"><path d="M0 0 C3.24 305.21, 2.37 611.12, 0 1380 M0 0 C0.24 433.28, -0.19 866.8, 0 1380" stroke="#999" stroke-width="1" fill="none"></path></g></g><mask></mask><g mask="url(#mask-P4FpeQZz0qTotmVAnmZ93)" stroke-linecap="round"><g transform="translate(36 165) rotate(0 97.5 0)"><path d="M0.67 -0.02 C32.7 0.18, 161.03 1, 193.36 1.01 M-0.7 -1.07 C31.63 -1.17, 163.03 -0.98, 195.48 -0.58" stroke="#1e1e1e" stroke-width="2" fill="none"></path></g><g transform="translate(36 165) rotate(0 97.5 0)"><path d="M171.94 7.83 C180.32 2.9, 190.42 2.07, 195.48 -0.58 M171.94 7.83 C179.11 4.56, 186.92 1.9, 195.48 -0.58" stroke="#1e1e1e" stroke-width="2" fill="none"></path></g><g transform="translate(36 165) rotate(0 97.5 0)"><path d="M172.04 -9.27 C180.35 -8.1, 190.43 -2.83, 195.48 -0.58 M172.04 -9.27 C179.29 -7.39, 187.07 -4.91, 195.48 -0.58" stroke="#1e1e1e" stroke-width="2" fill="none"></path></g></g><mask id="mask-P4FpeQZz0qTotmVAnmZ93"><rect x="0" y="0" fill="#fff" width="331" height="265"></rect><rect x="65.48403930664062" y="155" fill="#000" width="136.03192138671875" height="20" opacity="1"></rect></mask><g mask="url(#mask-qnPwlLzXcw4hi238UZ1EJ)" stroke-linecap="round"><g transform="translate(236 211) rotate(0 171.5 0)"><path d="M0.48 -1.14 C57.68 -1.14, 286.5 -0.15, 343.51 0.17 M-0.99 0.88 C56.16 1.09, 285.97 2.14, 343.09 1.79" stroke="#1e1e1e" stroke-width="2" fill="none"></path></g><g transform="translate(236 211) rotate(0 171.5 0)"><path d="M319.6 10.34 C324.37 9.6, 333.21 5.51, 343.09 1.79 M319.6 10.34 C327.43 8.07, 335.79 3.61, 343.09 1.79" stroke="#1e1e1e" stroke-width="2" fill="none"></path></g><g transform="translate(236 211) rotate(0 171.5 0)"><path d="M319.6 -6.76 C324.39 -2.64, 333.24 -1.88, 343.09 1.79 M319.6 -6.76 C327.5 -2.84, 335.87 -1.12, 343.09 1.79" stroke="#1e1e1e" stroke-width="2" fill="none"></path></g></g><mask id="mask-qnPwlLzXcw4hi238UZ1EJ"><rect x="0" y="0" fill="#fff" width="679" height="311"></rect><rect x="290.42005157470703" y="191" fill="#000" width="234.15989685058594" height="40" opacity="1"></rect></mask><g mask="url(#mask-yx4SvpaFz2pxnRtWRSVRi)" stroke-linecap="round"><g transform="translate(584 257) rotate(0 139 0)"><path d="M-0.64 1.01 C45.53 1.01, 231.19 0.09, 277.67 0.01 M0.97 0.49 C46.98 0.71, 230.66 1.9, 276.81 1.56" stroke="#1e1e1e" stroke-width="2" fill="none"></path></g><g transform="translate(584 257) rotate(0 139 0)"><path d="M253.31 10.1 C262.38 7.91, 268.11 6.18, 276.81 1.56 M253.31 10.1 C262.24 6.54, 268.96 5.03, 276.81 1.56" stroke="#1e1e1e" stroke-width="2" fill="none"></path></g><g transform="translate(584 257) rotate(0 139 0)"><path d="M253.32 -7.01 C262.39 -3.81, 268.11 -0.16, 276.81 1.56 M253.32 -7.01 C262.27 -4.67, 268.98 -0.3, 276.81 1.56" stroke="#1e1e1e" stroke-width="2" fill="none"></path></g></g><mask id="mask-yx4SvpaFz2pxnRtWRSVRi"><rect x="0" y="0" fill="#fff" width="962" height="357"></rect><rect x="646.0960388183594" y="247" fill="#000" width="153.80792236328125" height="20" opacity="1"></rect></mask><g mask="url(#mask-fTZy3cmAMfxlRQy0MQJzT)" stroke-linecap="round"><g transform="translate(865 303) rotate(0 -139 0)"><path d="M0.51 0.17 C-45.65 0.48, -231.24 0.74, -277.49 0.74" stroke="#1e1e1e" stroke-width="2.5" fill="none" stroke-dasharray="1.5 8"></path></g><g transform="translate(865 303) rotate(0 -139 0)"><path d="M-254 -7.83 C-260.82 -5.05, -266.87 -1.63, -277.49 0.74" stroke="#1e1e1e" stroke-width="2.5" fill="none" stroke-dasharray="1.5 6"></path></g><g transform="translate(865 303) rotate(0 -139 0)"><path d="M-253.99 9.27 C-260.64 6.94, -266.7 5.26, -277.49 0.74" stroke="#1e1e1e" stroke-width="2.5" fill="none" stroke-dasharray="1.5 6"></path></g></g><mask id="mask-fTZy3cmAMfxlRQy0MQJzT"><rect x="0" y="0" fill="#fff" width="1243" height="403"></rect><rect x="640.8720474243164" y="283" fill="#000" width="170.2559051513672" height="40" opacity="1"></rect></mask><g mask="url(#mask-Gjkp1UIyWnHLxyHdWONaw)" stroke-linecap="round"><g transform="translate(584 349) rotate(0 33.12029108567941 9.407921950150723)"><path d="M-0.33 -0.49 C10.06 -2.15, 50.66 -14.42, 60.74 -9.47 C70.82 -4.51, 70.04 24.4, 60.17 29.24 C50.3 34.08, 11.58 20.91, 1.53 19.58 M-1.7 -1.53 C8.7 -3.03, 49.98 -16.59, 60.18 -11.31 C70.38 -6.03, 69.13 24.91, 59.49 30.16 C49.85 35.41, 11.94 21.55, 2.32 20.21" stroke="#1e1e1e" stroke-width="2" fill="none"></path></g><g transform="translate(584 349) rotate(0 33.12029108567941 9.407921950150723)"><path d="M27.19 17.68 C22.12 19.46, 17.88 19.03, 2.32 20.21 M27.19 17.68 C20.8 18.75, 14.78 18.03, 2.32 20.21" stroke="#1e1e1e" stroke-width="2" fill="none"></path></g><g transform="translate(584 349) rotate(0 33.12029108567941 9.407921950150723)"><path d="M23 34.26 C18.65 32.63, 15.27 28.79, 2.32 20.21 M23 34.26 C17.46 31.43, 12.43 26.8, 2.32 20.21" stroke="#1e1e1e" stroke-width="2" fill="none"></path></g></g><mask id="mask-Gjkp1UIyWnHLxyHdWONaw"><rect x="0" y="0" fill="#fff" width="744" height="489"></rect><rect x="586.650274601438" y="339.0035282944623" fill="#000" width="129.21588134765625" height="40" opacity="1"></rect></mask><g mask="url(#mask-s2Z9J9vtfM-znmISyg-E1)" stroke-linecap="round"><g transform="translate(582 470) rotate(0 -171.5 0)"><path d="M-0.49 0.74 C-57.57 0.74, -284.84 0.12, -341.97 0.17" stroke="#1e1e1e" stroke-width="2.5" fill="none" stroke-dasharray="1.5 8"></path></g><g transform="translate(582 470) rotate(0 -171.5 0)"><path d="M-318.47 -8.36 C-326.25 -4.19, -336.23 -3.07, -341.97 0.17" stroke="#1e1e1e" stroke-width="2.5" fill="none" stroke-dasharray="1.5 6"></path></g><g transform="translate(582 470) rotate(0 -171.5 0)"><path d="M-318.49 8.75 C-326.29 6.34, -336.26 0.89, -341.97 0.17" stroke="#1e1e1e" stroke-width="2.5" fill="none" stroke-dasharray="1.5 6"></path></g></g><mask id="mask-s2Z9J9vtfM-znmISyg-E1"><rect x="0" y="0" fill="#fff" width="1025" height="570"></rect><rect x="342.78003692626953" y="460" fill="#000" width="135.43992614746094" height="20" opacity="1"></rect></mask><g mask="url(#mask-znLGJZuyRH0Z_vuVn1H5x)" stroke-linecap="round"><g transform="translate(584 561) rotate(0 33.67409825366923 9.573627095434404)"><path d="M0.24 0.03 C10.32 -1.68, 50.04 -15.6, 60.17 -10.76 C70.3 -5.92, 71.08 23.74, 61.03 29.08 C50.98 34.43, 10.1 22.86, -0.12 21.29 M-0.83 -0.74 C9.1 -2.31, 49.04 -14.73, 59.31 -9.62 C69.58 -4.51, 70.72 25.12, 60.8 29.92 C50.88 34.72, 9.68 20.86, -0.2 19.15" stroke="#1e1e1e" stroke-width="2" fill="none"></path></g><g transform="translate(584 561) rotate(0 33.67409825366923 9.573627095434404)"><path d="M24.67 16.66 C17.75 17.87, 7.79 20.09, -0.2 19.15 M24.67 16.66 C18.44 16.73, 14 16.98, -0.2 19.15" stroke="#1e1e1e" stroke-width="2" fill="none"></path></g><g transform="translate(584 561) rotate(0 33.67409825366923 9.573627095434404)"><path d="M20.46 33.23 C14.86 29.22, 6.22 26.24, -0.2 19.15 M20.46 33.23 C15.25 29.57, 11.76 26.11, -0.2 19.15" stroke="#1e1e1e" stroke-width="2" fill="none"></path></g></g><mask id="mask-znLGJZuyRH0Z_vuVn1H5x"><rect x="0" y="0" fill="#fff" width="744" height="701"></rect><rect x="568.7282049335868" y="561.4161355110709" fill="#000" width="165.8079376220703" height="20" opacity="1"></rect></mask><g mask="url(#mask-Bo56jdPbCbD9kYJcZ51y2)" stroke-linecap="round"><g transform="translate(584 637) rotate(0 239 0)"><path d="M1.03 0.17 C80.4 0.22, 397.48 1.16, 476.74 1.03 M-0.15 -0.79 C79.61 -1.12, 399.2 -0.75, 479.05 -0.55" stroke="#1e1e1e" stroke-width="2" fill="none"></path></g><g transform="translate(584 637) rotate(0 239 0)"><path d="M455.55 7.96 C462.85 4.03, 471.37 1.2, 479.05 -0.55 M455.55 7.96 C460.67 6.47, 466.19 3.51, 479.05 -0.55" stroke="#1e1e1e" stroke-width="2" fill="none"></path></g><g transform="translate(584 637) rotate(0 239 0)"><path d="M455.58 -9.14 C462.98 -7.93, 471.48 -5.6, 479.05 -0.55 M455.58 -9.14 C460.81 -6.39, 466.32 -5.11, 479.05 -0.55" stroke="#1e1e1e" stroke-width="2" fill="none"></path></g></g><mask id="mask-Bo56jdPbCbD9kYJcZ51y2"><rect x="0" y="0" fill="#fff" width="1162" height="737"></rect><rect x="721.6560516357422" y="627" fill="#000" width="202.68789672851562" height="20" opacity="1"></rect></mask><g mask="url(#mask-WEcmNJ1jAEAX7jxjDJ3nn)" stroke-linecap="round"><g transform="translate(582 683) rotate(0 -171.5 0)"><path d="M-0.33 -0.76 C-57.28 -1, -284.34 -1.17, -341.47 -0.92" stroke="#1e1e1e" stroke-width="2.5" fill="none" stroke-dasharray="1.5 8"></path></g><g transform="translate(582 683) rotate(0 -171.5 0)"><path d="M-317.99 -9.5 C-327.71 -4.65, -336.47 -4.29, -341.47 -0.92" stroke="#1e1e1e" stroke-width="2.5" fill="none" stroke-dasharray="1.5 6"></path></g><g transform="translate(582 683) rotate(0 -171.5 0)"><path d="M-317.97 7.6 C-327.77 6.27, -336.53 0.43, -341.47 -0.92" stroke="#1e1e1e" stroke-width="2.5" fill="none" stroke-dasharray="1.5 6"></path></g></g><mask id="mask-WEcmNJ1jAEAX7jxjDJ3nn"><rect x="0" y="0" fill="#fff" width="1025" height="783"></rect><rect x="322.8120346069336" y="673" fill="#000" width="175.3759307861328" height="20" opacity="1"></rect></mask><g mask="url(#mask-ynbPy9NYAxuFaNkmKD0jg)" stroke-linecap="round"><g transform="translate(584 774) rotate(0 33.6170334702752 9.73010907085046)"><path d="M-1.26 0.53 C8.58 -1.19, 48.74 -15.4, 59.08 -10.62 C69.43 -5.84, 70.69 23.93, 60.79 29.21 C50.9 34.5, 9.96 22.59, -0.28 21.06 M0.54 0.02 C10.71 -1.56, 51.33 -14.43, 61.32 -9.41 C71.3 -4.4, 70.74 25.42, 60.45 30.12 C50.15 34.82, 9.47 20.46, -0.45 18.8" stroke="#1e1e1e" stroke-width="2" fill="none"></path></g><g transform="translate(584 774) rotate(0 33.6170334702752 9.73010907085046)"><path d="M24.44 16.46 C17.59 15.58, 6.27 19.24, -0.45 18.8 M24.44 16.46 C17.63 16.74, 13.19 18.05, -0.45 18.8" stroke="#1e1e1e" stroke-width="2" fill="none"></path></g><g transform="translate(584 774) rotate(0 33.6170334702752 9.73010907085046)"><path d="M20.13 33 C14.74 26.46, 4.91 24.42, -0.45 18.8 M20.13 33 C14.43 29.39, 11 26.82, -0.45 18.8" stroke="#1e1e1e" stroke-width="2" fill="none"></path></g></g><mask id="mask-ynbPy9NYAxuFaNkmKD0jg"><rect x="0" y="0" fill="#fff" width="744" height="914"></rect><rect x="565.4786595419071" y="774.984595655031" fill="#000" width="173.98390197753906" height="20" opacity="1"></rect></mask><g mask="url(#mask-L7r_gIUhns0SF5yZTw4al)" stroke-linecap="round"><g transform="translate(584 850) rotate(0 239 0)"><path d="M1.53 -0.92 C80.9 -0.66, 397.68 0.77, 476.88 0.79 M0.61 1.22 C80.36 1.21, 399.5 -0.73, 479.26 -0.91" stroke="#1e1e1e" stroke-width="2" fill="none"></path></g><g transform="translate(584 850) rotate(0 239 0)"><path d="M455.81 7.74 C461.7 3.79, 471.91 0.8, 479.26 -0.91 M455.81 7.74 C460.9 6.37, 467.16 4.06, 479.26 -0.91" stroke="#1e1e1e" stroke-width="2" fill="none"></path></g><g transform="translate(584 850) rotate(0 239 0)"><path d="M455.73 -9.36 C461.54 -7.95, 471.78 -5.57, 479.26 -0.91 M455.73 -9.36 C460.92 -6.72, 467.2 -5.01, 479.26 -0.91" stroke="#1e1e1e" stroke-width="2" fill="none"></path></g></g><mask id="mask-L7r_gIUhns0SF5yZTw4al"><rect x="0" y="0" fill="#fff" width="1162" height="950"></rect><rect x="730.7280426025391" y="840" fill="#000" width="184.54391479492188" height="20" opacity="1"></rect></mask><g mask="url(#mask-UuhKfiAeBzOKqXXbJqoLU)" stroke-linecap="round"><g transform="translate(584 896) rotate(0 339 0)"><path d="M-0.42 -0.62 C112.68 -0.92, 565.44 -0.98, 678.29 -0.79 M1.3 1.66 C114.37 2.02, 564.78 0.86, 677.76 0.34" stroke="#1e1e1e" stroke-width="2" fill="none"></path></g><g transform="translate(584 896) rotate(0 339 0)"><path d="M654.3 8.97 C658.74 8.43, 664.02 3.76, 677.76 0.34 M654.3 8.97 C662.96 6.44, 670.82 2.26, 677.76 0.34" stroke="#1e1e1e" stroke-width="2" fill="none"></path></g><g transform="translate(584 896) rotate(0 339 0)"><path d="M654.24 -8.13 C658.84 -4.62, 664.14 -5.25, 677.76 0.34 M654.24 -8.13 C662.75 -4.73, 670.64 -2.97, 677.76 0.34" stroke="#1e1e1e" stroke-width="2" fill="none"></path></g></g><mask id="mask-UuhKfiAeBzOKqXXbJqoLU"><rect x="0" y="0" fill="#fff" width="1362" height="996"></rect><rect x="861.3120269775391" y="886" fill="#000" width="123.37594604492188" height="20" opacity="1"></rect></mask><g mask="url(#mask-kxpPT8vQfCyqy7tXebww3)" stroke-linecap="round"><g transform="translate(582 942) rotate(0 -171.5 0)"><path d="M-1.12 0.79 C-58.42 0.82, -286.48 -0.46, -343.29 -0.78" stroke="#1e1e1e" stroke-width="2.5" fill="none" stroke-dasharray="1.5 8"></path></g><g transform="translate(582 942) rotate(0 -171.5 0)"><path d="M-319.75 -9.2 C-327.57 -7.39, -339.27 -1.89, -343.29 -0.78" stroke="#1e1e1e" stroke-width="2.5" fill="none" stroke-dasharray="1.5 6"></path></g><g transform="translate(582 942) rotate(0 -171.5 0)"><path d="M-319.84 7.9 C-327.49 3.12, -339.16 2.02, -343.29 -0.78" stroke="#1e1e1e" stroke-width="2.5" fill="none" stroke-dasharray="1.5 6"></path></g></g><mask id="mask-kxpPT8vQfCyqy7tXebww3"><rect x="0" y="0" fill="#fff" width="1025" height="1042"></rect><rect x="295.54805755615234" y="932" fill="#000" width="229.9038848876953" height="20" opacity="1"></rect></mask><g mask="url(#mask-1ocY6tbJ7KetdPNyPQmaZ)" stroke-linecap="round"><g transform="translate(36 988) rotate(0 97.5 0)"><path d="M1.29 -0.79 C33.65 -0.59, 161.71 0.51, 193.72 0.56 M0.25 1.42 C33.07 1.31, 163.46 -1.13, 196.02 -1.26" stroke="#1e1e1e" stroke-width="2" fill="none"></path></g><g transform="translate(36 988) rotate(0 97.5 0)"><path d="M172.63 7.57 C176.6 4.14, 184.08 1.54, 196.02 -1.26 M172.63 7.57 C178.88 4.36, 184.53 2.3, 196.02 -1.26" stroke="#1e1e1e" stroke-width="2" fill="none"></path></g><g transform="translate(36 988) rotate(0 97.5 0)"><path d="M172.42 -9.53 C176.35 -9.14, 183.87 -7.92, 196.02 -1.26 M172.42 -9.53 C178.8 -8.26, 184.51 -5.84, 196.02 -1.26" stroke="#1e1e1e" stroke-width="2" fill="none"></path></g></g><mask id="mask-1ocY6tbJ7KetdPNyPQmaZ"><rect x="0" y="0" fill="#fff" width="331" height="1088"></rect><rect x="90.50801849365234" y="978" fill="#000" width="85.98396301269531" height="20" opacity="1"></rect></mask><g mask="url(#mask-jMi1CUdJ2HOx2u97kAQE-)" stroke-linecap="round"><g transform="translate(236 1034) rotate(0 171.5 0)"><path d="M-0.29 -0.78 C56.91 -1.11, 286.01 -1.37, 343.06 -1.16 M1.5 1.42 C58.65 1.13, 285.82 0.27, 342.41 -0.23" stroke="#1e1e1e" stroke-width="2" fill="none"></path></g><g transform="translate(236 1034) rotate(0 171.5 0)"><path d="M318.97 8.46 C323.42 7.4, 328.62 3.54, 342.41 -0.23 M318.97 8.46 C326.18 5.12, 334.48 2.69, 342.41 -0.23" stroke="#1e1e1e" stroke-width="2" fill="none"></path></g><g transform="translate(236 1034) rotate(0 171.5 0)"><path d="M318.87 -8.64 C323.46 -5.46, 328.68 -5.07, 342.41 -0.23 M318.87 -8.64 C326.17 -6.11, 334.51 -2.66, 342.41 -0.23" stroke="#1e1e1e" stroke-width="2" fill="none"></path></g></g><mask id="mask-jMi1CUdJ2HOx2u97kAQE-"><rect x="0" y="0" fill="#fff" width="679" height="1134"></rect><rect x="296.12406158447266" y="1014" fill="#000" width="222.7518768310547" height="40" opacity="1"></rect></mask><g mask="url(#mask-qMCqDsCY0QoP4Zqdm3EFe)" stroke-linecap="round"><g transform="translate(584 1080) rotate(0 239 0)"><path d="M-0.28 0.56 C78.89 0.62, 396.63 -0.44, 476.34 -0.46 M1.51 -0.19 C80.96 0.1, 399.11 1.09, 478.45 0.84" stroke="#1e1e1e" stroke-width="2" fill="none"></path></g><g transform="translate(584 1080) rotate(0 239 0)"><path d="M454.95 9.38 C464.55 4.48, 471.46 4.15, 478.45 0.84 M454.95 9.38 C462.55 6.14, 471.05 3.34, 478.45 0.84" stroke="#1e1e1e" stroke-width="2" fill="none"></path></g><g transform="translate(584 1080) rotate(0 239 0)"><path d="M454.96 -7.72 C464.44 -6.36, 471.35 -0.43, 478.45 0.84 M454.96 -7.72 C462.58 -5.19, 471.08 -2.21, 478.45 0.84" stroke="#1e1e1e" stroke-width="2" fill="none"></path></g></g><mask id="mask-qMCqDsCY0QoP4Zqdm3EFe"><rect x="0" y="0" fill="#fff" width="1162" height="1180"></rect><rect x="769.3600311279297" y="1070" fill="#000" width="107.27993774414062" height="20" opacity="1"></rect></mask><g mask="url(#mask-oj9LedgjOxhO-bfvSFEEs)" stroke-linecap="round"><g transform="translate(1065 1171) rotate(0 -239 0)"><path d="M0.06 -1.16 C-79.38 -0.94, -398.44 0.29, -477.96 0.52" stroke="#1e1e1e" stroke-width="2.5" fill="none" stroke-dasharray="1.5 8"></path></g><g transform="translate(1065 1171) rotate(0 -239 0)"><path d="M-454.49 -8.11 C-461.98 -6.74, -464.69 -3.2, -477.96 0.52" stroke="#1e1e1e" stroke-width="2.5" fill="none" stroke-dasharray="1.5 6"></path></g><g transform="translate(1065 1171) rotate(0 -239 0)"><path d="M-454.43 8.99 C-461.82 6.36, -464.55 5.88, -477.96 0.52" stroke="#1e1e1e" stroke-width="2.5" fill="none" stroke-dasharray="1.5 6"></path></g></g><mask id="mask-oj9LedgjOxhO-bfvSFEEs"><rect x="0" y="0" fill="#fff" width="1643" height="1271"></rect><rect x="802.0480117797852" y="1161" fill="#000" width="47.90397644042969" height="20" opacity="1"></rect></mask><g mask="url(#mask-BfZQnrzDk6k3ukziYXvxS)" stroke-linecap="round"><g transform="translate(584 1217) rotate(0 239 0)"><path d="M-0.66 -0.46 C79.06 -0.47, 398.29 0.54, 478.02 0.45 M0.94 -1.74 C80.61 -2.17, 398 -1.69, 477.34 -1.43" stroke="#1e1e1e" stroke-width="2" fill="none"></path></g><g transform="translate(584 1217) rotate(0 239 0)"><path d="M453.83 7.07 C458.56 6.17, 465.59 3.62, 477.34 -1.43 M453.83 7.07 C459.25 4.87, 463.97 4.37, 477.34 -1.43" stroke="#1e1e1e" stroke-width="2" fill="none"></path></g><g transform="translate(584 1217) rotate(0 239 0)"><path d="M453.87 -10.03 C458.66 -6.92, 465.69 -5.45, 477.34 -1.43 M453.87 -10.03 C459.22 -8.48, 463.93 -5.24, 477.34 -1.43" stroke="#1e1e1e" stroke-width="2" fill="none"></path></g></g><mask id="mask-BfZQnrzDk6k3ukziYXvxS"><rect x="0" y="0" fill="#fff" width="1162" height="1317"></rect><rect x="729.3280563354492" y="1207" fill="#000" width="187.34388732910156" height="20" opacity="1"></rect></mask><g mask="url(#mask-Q1-m64G1UaPR7jZKeTdW3)" stroke-linecap="round"><g transform="translate(582 1263) rotate(0 -171.5 0)"><path d="M-0.96 0.52 C-57.97 0.74, -284.96 0.34, -342.05 0.19" stroke="#1e1e1e" stroke-width="2.5" fill="none" stroke-dasharray="1.5 8"></path></g><g transform="translate(582 1263) rotate(0 -171.5 0)"><path d="M-318.54 -8.31 C-325.91 -4.7, -334.61 -4.12, -342.05 0.19" stroke="#1e1e1e" stroke-width="2.5" fill="none" stroke-dasharray="1.5 6"></path></g><g transform="translate(582 1263) rotate(0 -171.5 0)"><path d="M-318.57 8.79 C-325.77 6.47, -334.46 1.12, -342.05 0.19" stroke="#1e1e1e" stroke-width="2.5" fill="none" stroke-dasharray="1.5 6"></path></g></g><mask id="mask-Q1-m64G1UaPR7jZKeTdW3"><rect x="0" y="0" fill="#fff" width="1025" height="1363"></rect><rect x="322.8120346069336" y="1253" fill="#000" width="175.3759307861328" height="20" opacity="1"></rect></mask><g mask="url(#mask-PnAdeQ0tJlUcxKWTiNlqw)" stroke-linecap="round"><g transform="translate(1065 1354) rotate(0 -239 0)"><path d="M0.02 0.45 C-79.26 0.37, -397.66 -0.78, -477.31 -0.97" stroke="#1e1e1e" stroke-width="2.5" fill="none" stroke-dasharray="1.5 8"></path></g><g transform="translate(1065 1354) rotate(0 -239 0)"><path d="M-453.79 -9.45 C-457.85 -7.3, -465.01 -6.54, -477.31 -0.97" stroke="#1e1e1e" stroke-width="2.5" fill="none" stroke-dasharray="1.5 6"></path></g><g transform="translate(1065 1354) rotate(0 -239 0)"><path d="M-453.84 7.65 C-457.83 6.32, -464.98 3.6, -477.31 -0.97" stroke="#1e1e1e" stroke-width="2.5" fill="none" stroke-dasharray="1.5 6"></path></g></g><mask id="mask-PnAdeQ0tJlUcxKWTiNlqw"><rect x="0" y="0" fill="#fff" width="1643" height="1454"></rect><rect x="790.8880233764648" y="1344" fill="#000" width="70.22395324707031" height="20" opacity="1"></rect></mask><g mask="url(#mask-bMYGih4wa_F7X_QQqUmWk)" stroke-linecap="round"><g transform="translate(582 1400) rotate(0 -171.5 0)"><path d="M-0.05 0.19 C-57.13 0.04, -286.28 -0.4, -343.47 -0.39" stroke="#1e1e1e" stroke-width="2.5" fill="none" stroke-dasharray="1.5 8"></path></g><g transform="translate(582 1400) rotate(0 -171.5 0)"><path d="M-319.97 -8.91 C-325.77 -8.21, -332.89 -5.46, -343.47 -0.39" stroke="#1e1e1e" stroke-width="2.5" fill="none" stroke-dasharray="1.5 6"></path></g><g transform="translate(582 1400) rotate(0 -171.5 0)"><path d="M-319.99 8.19 C-325.86 4.41, -332.98 2.68, -343.47 -0.39" stroke="#1e1e1e" stroke-width="2.5" fill="none" stroke-dasharray="1.5 6"></path></g></g><mask id="mask-bMYGih4wa_F7X_QQqUmWk"><rect x="0" y="0" fill="#fff" width="1025" height="1500"></rect><rect x="346.1560363769531" y="1390" fill="#000" width="128.68792724609375" height="20" opacity="1"></rect></mask><g stroke-linecap="round"><g transform="translate(224 1100) rotate(0 426.5 0)"><path d="M0 0 C292.2 -0.8, 585.25 -0.35, 853 0" stroke="#adb5bd" stroke-width="2.5" fill="none" stroke-dasharray="1.5 8"></path></g></g><mask></mask><g stroke-linecap="round"><g transform="translate(1077 1100) rotate(0 0 160)"><path d="M0 0 C-0.09 107.32, 0.69 215.52, 0 320" stroke="#adb5bd" stroke-width="2.5" fill="none" stroke-dasharray="1.5 8"></path></g></g><mask></mask><g stroke-linecap="round"><g transform="translate(224 1420) rotate(0 426.5 0)"><path d="M0 0 C269.06 1.29, 538.64 0.94, 853 0" stroke="#adb5bd" stroke-width="2.5" fill="none" stroke-dasharray="1.5 8"></path></g></g><mask></mask><g stroke-linecap="round"><g transform="translate(224 1100) rotate(0 0 160)"><path d="M0 0 C-0.39 69.48, -1 141.52, 0 320" stroke="#adb5bd" stroke-width="2.5" fill="none" stroke-dasharray="1.5 8"></path></g></g><mask></mask><g stroke-linecap="round"><g transform="translate(224 1288) rotate(0 426.5 0)"><path d="M0 0 C228.09 -0.97, 457.64 -0.81, 853 0" stroke="#adb5bd" stroke-width="2.5" fill="none" stroke-dasharray="1.5 8"></path></g></g><mask></mask><g stroke-linecap="round"><g transform="translate(24 703) rotate(0 626.5 0)"><path d="M0 0 C306.73 3.05, 613.78 2.41, 1253 0" stroke="#adb5bd" stroke-width="2.5" fill="none" stroke-dasharray="1.5 8"></path></g></g><mask></mask><g stroke-linecap="round"><g transform="translate(1277 703) rotate(0 0 363.5)"><path d="M0 0 C-0.64 235.3, -1.27 469.84, 0 727" stroke="#adb5bd" stroke-width="2.5" fill="none" stroke-dasharray="1.5 8"></path></g></g><mask></mask><g stroke-linecap="round"><g transform="translate(24 1430) rotate(0 626.5 0)"><path d="M0 0 C317.68 -4.41, 634.6 -3.77, 1253 0" stroke="#adb5bd" stroke-width="2.5" fill="none" stroke-dasharray="1.5 8"></path></g></g><mask></mask><g stroke-linecap="round"><g transform="translate(24 703) rotate(0 0 363.5)"><path d="M0 0 C2.68 202.95, 3.32 407.99, 0 727" stroke="#adb5bd" stroke-width="2.5" fill="none" stroke-dasharray="1.5 8"></path></g></g><mask></mask><g stroke-linecap="round"><g transform="translate(14 399) rotate(0 636.5 0)"><path d="M0 0 C495.11 0.22, 992.31 -0.26, 1273 0" stroke="#adb5bd" stroke-width="2.5" fill="none" stroke-dasharray="1.5 8"></path></g></g><mask></mask><g stroke-linecap="round"><g transform="translate(1287 399) rotate(0 0 520.5)"><path d="M0 0 C1.12 312.93, 0.64 624.08, 0 1041" stroke="#adb5bd" stroke-width="2.5" fill="none" stroke-dasharray="1.5 8"></path></g></g><mask></mask><g stroke-linecap="round"><g transform="translate(14 1440) rotate(0 636.5 0)"><path d="M0 0 C394.89 -4.33, 788 -4.08, 1273 0" stroke="#adb5bd" stroke-width="2.5" fill="none" stroke-dasharray="1.5 8"></path></g></g><mask></mask><g stroke-linecap="round"><g transform="translate(14 399) rotate(0 0 520.5)"><path d="M0 0 C3.97 213.17, 4.21 427.74, 0 1041" stroke="#adb5bd" stroke-width="2.5" fill="none" stroke-dasharray="1.5 8"></path></g></g><mask></mask><g stroke-linecap="round"><g transform="translate(14 495) rotate(0 636.5 0)"><path d="M0 0 C495.33 -1.01, 992.07 -1.89, 1273 0" stroke="#adb5bd" stroke-width="2.5" fill="none" stroke-dasharray="1.5 8"></path></g></g><mask></mask><g transform="translate(635.4921875 1108) rotate(0 47.335968017578125 10)"><text x="0" y="0" font-family="Virgil, Segoe UI Emoji" font-size="16px" fill="#1e1e1e" text-anchor="start" style="white-space: pre;" direction="ltr" dominant-baseline="text-before-edge">[OTP Valid]</text></g><g transform="translate(604.046875 1296) rotate(0 55.47996520996094 10)"><text x="0" y="0" font-family="Virgil, Segoe UI Emoji" font-size="16px" fill="#1e1e1e" text-anchor="start" style="white-space: pre;" direction="ltr" dominant-baseline="text-before-edge">[OTP Invalid]</text></g><g transform="translate(626.890625 711) rotate(0 57.023963928222656 10)"><text x="0" y="0" font-family="Virgil, Segoe UI Emoji" font-size="16px" fill="#1e1e1e" text-anchor="start" style="white-space: pre;" direction="ltr" dominant-baseline="text-before-edge">[2FA Enabled]</text></g><g transform="translate(602.6953125 407) rotate(0 81.63993835449219 10)"><text x="0" y="0" font-family="Virgil, Segoe UI Emoji" font-size="16px" fill="#1e1e1e" text-anchor="start" style="white-space: pre;" direction="ltr" dominant-baseline="text-before-edge">[Invalid Credentials]</text></g><g transform="translate(584.140625 503) rotate(0 73.49594116210938 10)"><text x="0" y="0" font-family="Virgil, Segoe UI Emoji" font-size="16px" fill="#1e1e1e" text-anchor="start" style="white-space: pre;" direction="ltr" dominant-baseline="text-before-edge">[Valid Credentials]</text></g><g stroke-linecap="round" transform="translate(224 1100) rotate(0 17 15)"><path d="M-0.54 -0.78 L34.24 -0.87 L34.66 29.61 L-0.04 30.37" stroke="none" stroke-width="0" fill="#e9ecef"></path><path d="M0 0 C9.24 -0.94, 16.07 0.54, 34 0 M0 0 C7.45 0.51, 15.24 0.09, 34 0 M34 0 C33.17 7.72, 34.8 13.07, 34 30 M34 0 C33.67 9.24, 33.94 17.46, 34 30 M34 30 C23.25 29.32, 12.42 29.56, 0 30 M34 30 C22.78 29.42, 10.55 29.42, 0 30 M0 30 C0.5 21.19, -0.71 11.6, 0 0 M0 30 C0.18 23.87, 0.23 17.05, 0 0" stroke="#adb5bd" stroke-width="2" fill="none"></path></g><g stroke-linecap="round" transform="translate(24 703) rotate(0 18 15)"><path d="M-0.78 0.24 L35.13 0.66 L35.61 29.96 L0.37 30.76" stroke="none" stroke-width="0" fill="#e9ecef"></path><path d="M0 0 C8.43 -1.09, 19.25 -0.93, 36 0 M0 0 C12.57 0.31, 24.22 -0.32, 36 0 M36 0 C36.56 9.92, 34.9 18.19, 36 30 M36 0 C36.5 6.1, 35.96 12.06, 36 30 M36 30 C23.88 29.3, 12.52 30.36, 0 30 M36 30 C21.41 29.89, 7.3 30.19, 0 30 M0 30 C0.45 22.47, 0.15 15.73, 0 0 M0 30 C0.31 22.17, -0.12 13.7, 0 0" stroke="#adb5bd" stroke-width="2" fill="none"></path></g><g stroke-linecap="round" transform="translate(14 399) rotate(0 17 15)"><path d="M0.24 -0.87 L34.66 -0.39 L33.96 30.37 L0.76 29.46" stroke="none" stroke-width="0" fill="#e9ecef"></path><path d="M0 0 C9.67 0.71, 20.45 0.51, 34 0 M0 0 C10.25 -0.09, 19.56 -0.15, 34 0 M34 0 C34.67 5.29, 33.8 11.52, 34 30 M34 0 C34.04 9.58, 33.99 19.43, 34 30 M34 30 C26.13 29.62, 19.97 30.83, 0 30 M34 30 C25.53 29.36, 17.61 29.45, 0 30 M0 30 C-0.89 20.42, -0.93 10.15, 0 0 M0 30 C0.14 22.14, -0.31 14.28, 0 0" stroke="#adb5bd" stroke-width="2" fill="none"></path></g><g transform="translate(201.61602020263672 37.5) rotate(0 33.38397979736328 10)"><text x="33.38397979736328" y="0" font-family="Virgil, Segoe UI Emoji" font-size="16px" fill="#000" text-anchor="middle" style="white-space: pre;" direction="ltr" dominant-baseline="text-before-edge">Frontend</text></g><g transform="translate(201.61602020263672 1482.5) rotate(0 33.38397979736328 10)"><text x="33.38397979736328" y="0" font-family="Virgil, Segoe UI Emoji" font-size="16px" fill="#000" text-anchor="middle" style="white-space: pre;" direction="ltr" dominant-baseline="text-before-edge">Frontend</text></g><g transform="translate(533.72802734375 37.5) rotate(0 49.27197265625 10)"><text x="49.27197265625" y="0" font-family="Virgil, Segoe UI Emoji" font-size="16px" fill="#000" text-anchor="middle" style="white-space: pre;" direction="ltr" dominant-baseline="text-before-edge">Auth Service</text></g><g transform="translate(533.72802734375 1482.5) rotate(0 49.27197265625 10)"><text x="49.27197265625" y="0" font-family="Virgil, Segoe UI Emoji" font-size="16px" fill="#000" text-anchor="middle" style="white-space: pre;" direction="ltr" dominant-baseline="text-before-edge">Auth Service</text></g><g transform="translate(826.4480209350586 37.5) rotate(0 39.551979064941406 10)"><text x="39.551979064941406" y="0" font-family="Virgil, Segoe UI Emoji" font-size="16px" fill="#000" text-anchor="middle" style="white-space: pre;" direction="ltr" dominant-baseline="text-before-edge">Database</text></g><g transform="translate(826.4480209350586 1482.5) rotate(0 39.551979064941406 10)"><text x="39.551979064941406" y="0" font-family="Virgil, Segoe UI Emoji" font-size="16px" fill="#000" text-anchor="middle" style="white-space: pre;" direction="ltr" dominant-baseline="text-before-edge">Database</text></g><g transform="translate(1018.7200317382812 37.5) rotate(0 47.27996826171875 10)"><text x="47.27996826171875" y="0" font-family="Virgil, Segoe UI Emoji" font-size="16px" fill="#000" text-anchor="middle" style="white-space: pre;" direction="ltr" dominant-baseline="text-before-edge">Redis Cache</text></g><g transform="translate(1018.7200317382812 1482.5) rotate(0 47.27996826171875 10)"><text x="47.27996826171875" y="0" font-family="Virgil, Segoe UI Emoji" font-size="16px" fill="#000" text-anchor="middle" style="white-space: pre;" direction="ltr" dominant-baseline="text-before-edge">Redis Cache</text></g><g transform="translate(1215.3440246582031 37.5) rotate(0 50.655975341796875 10)"><text x="50.655975341796875" y="0" font-family="Virgil, Segoe UI Emoji" font-size="16px" fill="#000" text-anchor="middle" style="white-space: pre;" direction="ltr" dominant-baseline="text-before-edge">Email Service</text></g><g transform="translate(1215.3440246582031 1482.5) rotate(0 50.655975341796875 10)"><text x="50.655975341796875" y="0" font-family="Virgil, Segoe UI Emoji" font-size="16px" fill="#000" text-anchor="middle" style="white-space: pre;" direction="ltr" dominant-baseline="text-before-edge">Email Service</text></g><g transform="translate(611.7800216674805 99.5) rotate(0 38.71997833251953 10)"><text x="38.71997833251953" y="0" font-family="Virgil, Segoe UI Emoji" font-size="16px" fill="#000" text-anchor="middle" style="white-space: pre;" direction="ltr" dominant-baseline="text-before-edge">Login Flow</text></g><g transform="translate(65.48403930664062 155) rotate(0 67.90839015300386 9.955403504873487)"><text x="68.01596069335938" y="0" font-family="Virgil, Segoe UI Emoji" font-size="16px" fill="#1e1e1e" text-anchor="middle" style="white-space: pre;" direction="ltr" dominant-baseline="text-before-edge">Enter credentials</text></g><g transform="translate(290.42005157470703 191) rotate(0 116.841841800618 20.363702093175547)"><text x="117.07994842529297" y="0" font-family="Virgil, Segoe UI Emoji" font-size="16px" fill="#1e1e1e" text-anchor="middle" style="white-space: pre;" direction="ltr" dominant-baseline="text-before-edge">POST /api/auth/login {email, </text><text x="117.07994842529297" y="20" font-family="Virgil, Segoe UI Emoji" font-size="16px" fill="#1e1e1e" text-anchor="middle" style="white-space: pre;" direction="ltr" dominant-baseline="text-before-edge">password}</text></g><g transform="translate(646.0960388183594 247) rotate(0 76.41990474238992 10.81568564780504)"><text x="76.90396118164062" y="0" font-family="Virgil, Segoe UI Emoji" font-size="16px" fill="#1e1e1e" text-anchor="middle" style="white-space: pre;" direction="ltr" dominant-baseline="text-before-edge">Query user by email</text></g><g transform="translate(640.8720474243164 283) rotate(0 85.63957350477574 20.453868208080536)"><text x="85.1279525756836" y="0" font-family="Virgil, Segoe UI Emoji" font-size="16px" fill="#1e1e1e" text-anchor="middle" style="white-space: pre;" direction="ltr" dominant-baseline="text-before-edge">User data + hashed </text><text x="85.1279525756836" y="20" font-family="Virgil, Segoe UI Emoji" font-size="16px" fill="#1e1e1e" text-anchor="middle" style="white-space: pre;" direction="ltr" dominant-baseline="text-before-edge">password</text></g><g transform="translate(586.6502746014381 339.00352829446234) rotate(0 30.4700164842414 19.40439365568838)"><text x="64.60794067382812" y="0" font-family="Virgil, Segoe UI Emoji" font-size="16px" fill="#1e1e1e" text-anchor="middle" style="white-space: pre;" direction="ltr" dominant-baseline="text-before-edge">Verify password </text><text x="64.60794067382812" y="20" font-family="Virgil, Segoe UI Emoji" font-size="16px" fill="#1e1e1e" text-anchor="middle" style="white-space: pre;" direction="ltr" dominant-baseline="text-before-edge">(bcrypt)</text></g><g transform="translate(342.78003692626953 460) rotate(0 67.99223532900211 10.452709302966724)"><text x="67.71996307373047" y="0" font-family="Virgil, Segoe UI Emoji" font-size="16px" fill="#1e1e1e" text-anchor="middle" style="white-space: pre;" direction="ltr" dominant-baseline="text-before-edge">401 Unauthorized</text></g><g transform="translate(568.7282049335865 561.4161355110708) rotate(0 48.945893320082575 9.157491584363584)"><text x="82.90396881103516" y="0" font-family="Virgil, Segoe UI Emoji" font-size="16px" fill="#1e1e1e" text-anchor="middle" style="white-space: pre;" direction="ltr" dominant-baseline="text-before-edge">Generate JWT token</text></g><g transform="translate(721.6560516357422 627) rotate(0 101.79617429903703 10.05949514573524)"><text x="101.34394836425781" y="0" font-family="Virgil, Segoe UI Emoji" font-size="16px" fill="#1e1e1e" text-anchor="middle" style="white-space: pre;" direction="ltr" dominant-baseline="text-before-edge">Store session (TTL: 24h)</text></g><g transform="translate(322.8120346069336 673) rotate(0 88.28612085357307 9.098031321958786)"><text x="87.6879653930664" y="0" font-family="Virgil, Segoe UI Emoji" font-size="16px" fill="#1e1e1e" text-anchor="middle" style="white-space: pre;" direction="ltr" dominant-baseline="text-before-edge">200 OK {token, user}</text></g><g transform="translate(565.4786595419071 774.9845956550308) rotate(0 52.13837392836814 8.745513415819516)"><text x="86.99195098876953" y="0" font-family="Virgil, Segoe UI Emoji" font-size="16px" fill="#1e1e1e" text-anchor="middle" style="white-space: pre;" direction="ltr" dominant-baseline="text-before-edge">Generate 6-digit OTP</text></g><g transform="translate(730.7280426025391 840) rotate(0 93.20809592719183 10.150758840390495)"><text x="92.27195739746094" y="0" font-family="Virgil, Segoe UI Emoji" font-size="16px" fill="#1e1e1e" text-anchor="middle" style="white-space: pre;" direction="ltr" dominant-baseline="text-before-edge">Store OTP (TTL: 5min)</text></g><g transform="translate(861.3120269775391 886) rotate(0 61.627027442306314 10.415118160609154)"><text x="61.68797302246094" y="0" font-family="Virgil, Segoe UI Emoji" font-size="16px" fill="#1e1e1e" text-anchor="middle" style="white-space: pre;" direction="ltr" dominant-baseline="text-before-edge">Send OTP email</text></g><g transform="translate(295.54805755615234 932) rotate(0 114.24784279838207 10.006158651639907)"><text x="114.95194244384766" y="0" font-family="Virgil, Segoe UI Emoji" font-size="16px" fill="#1e1e1e" text-anchor="middle" style="white-space: pre;" direction="ltr" dominant-baseline="text-before-edge">200 OK {requiresOTP: true}</text></g><g transform="translate(90.50801849365234 978) rotate(0 43.627560347234834 10.076228464776648)"><text x="42.991981506347656" y="0" font-family="Virgil, Segoe UI Emoji" font-size="16px" fill="#1e1e1e" text-anchor="middle" style="white-space: pre;" direction="ltr" dominant-baseline="text-before-edge">Enter OTP</text></g><g transform="translate(296.12406158447266 1014) rotate(0 111.26467140689493 20.09281798635999)"><text x="111.37593841552734" y="0" font-family="Virgil, Segoe UI Emoji" font-size="16px" fill="#1e1e1e" text-anchor="middle" style="white-space: pre;" direction="ltr" dominant-baseline="text-before-edge">POST /api/auth/verify-2fa </text><text x="111.37593841552734" y="20" font-family="Virgil, Segoe UI Emoji" font-size="16px" fill="#1e1e1e" text-anchor="middle" style="white-space: pre;" direction="ltr" dominant-baseline="text-before-edge">{otp}</text></g><g transform="translate(769.3600311279297 1070) rotate(0 53.72233536865099 10.213234254091958)"><text x="53.63996887207031" y="0" font-family="Virgil, Segoe UI Emoji" font-size="16px" fill="#1e1e1e" text-anchor="middle" style="white-space: pre;" direction="ltr" dominant-baseline="text-before-edge">Validate OTP</text></g><g transform="translate(802.0480117797852 1161) rotate(0 24.005927047878515 9.681150152534201)"><text x="23.951988220214844" y="0" font-family="Virgil, Segoe UI Emoji" font-size="16px" fill="#1e1e1e" text-anchor="middle" style="white-space: pre;" direction="ltr" dominant-baseline="text-before-edge">Match</text></g><g transform="translate(729.3280563354492 1207) rotate(0 93.35309381708504 9.272056237033667)"><text x="93.67194366455078" y="0" font-family="Virgil, Segoe UI Emoji" font-size="16px" fill="#1e1e1e" text-anchor="middle" style="white-space: pre;" direction="ltr" dominant-baseline="text-before-edge">Store validated session</text></g><g transform="translate(322.8120346069336 1253) rotate(0 87.68697837367654 10.388991654889082)"><text x="87.6879653930664" y="0" font-family="Virgil, Segoe UI Emoji" font-size="16px" fill="#1e1e1e" text-anchor="middle" style="white-space: pre;" direction="ltr" dominant-baseline="text-before-edge">200 OK {token, user}</text></g><g transform="translate(790.8880233764648 1344) rotate(0 35.46756365522742 9.74160681739454)"><text x="35.111976623535156" y="0" font-family="Virgil, Segoe UI Emoji" font-size="16px" fill="#1e1e1e" text-anchor="middle" style="white-space: pre;" direction="ltr" dominant-baseline="text-before-edge">Mismatch</text></g><g transform="translate(346.1560363769531 1390) rotate(0 64.08557044044136 9.902485775601804)"><text x="64.34396362304688" y="0" font-family="Virgil, Segoe UI Emoji" font-size="16px" fill="#1e1e1e" text-anchor="middle" style="white-space: pre;" direction="ltr" dominant-baseline="text-before-edge">401 Invalid OTP</text></g><g transform="translate(229.04000854492188 1105) rotate(0 11.959991455078125 10)"><text x="11.959991455078125" y="0" font-family="Virgil, Segoe UI Emoji" font-size="16px" fill="#000" text-anchor="middle" style="white-space: pre;" direction="ltr" dominant-baseline="text-before-edge">alt</text></g><g transform="translate(29.10401153564453 708) rotate(0 12.895988464355469 10)"><text x="12.895988464355469" y="0" font-family="Virgil, Segoe UI Emoji" font-size="16px" fill="#000" text-anchor="middle" style="white-space: pre;" direction="ltr" dominant-baseline="text-before-edge">opt</text></g><g transform="translate(19.040008544921875 404) rotate(0 11.959991455078125 10)"><text x="11.959991455078125" y="0" font-family="Virgil, Segoe UI Emoji" font-size="16px" fill="#000" text-anchor="middle" style="white-space: pre;" direction="ltr" dominant-baseline="text-before-edge">alt</text></g></svg>