<svg version="1.1" xmlns="http://www.w3.org/2000/svg" viewBox="0 0 1507 1403.5" width="1507" height="1403.5">
  <!-- svg-source:excalidraw -->
  
  <defs>
    <style class="style-fonts">
      @font-face {
        font-family: "Virgil";
        src: url("https://unpkg.com/@excalidraw/excalidraw@undefined/dist/excalidraw-assets/Virgil.woff2");
      }
      @font-face {
        font-family: "Cascadia";
        src: url("https://unpkg.com/@excalidraw/excalidraw@undefined/dist/excalidraw-assets/Cascadia.woff2");
      }
      @font-face {
        font-family: "Assistant";
        src: url("https://unpkg.com/@excalidraw/excalidraw@undefined/dist/excalidraw-assets/Assistant-Regular.woff2");
      }
    </style>
    
  </defs>
  <rect x="0" y="0" width="1507" height="1403.5" fill="#fafafa"></rect><g stroke-linecap="round"><g transform="translate(35 40) rotate(0 0 10)"><path d="M0 0 C0.47 7.7, 0.34 15.02, 0 20 M0 0 C-0.48 4.15, 0.43 9.25, 0 20" stroke="#000" stroke-width="1" fill="none"></path></g></g><mask></mask><g stroke-linecap="round"><g transform="translate(17 48) rotate(0 18 0)"><path d="M0 0 C11.38 0.24, 22.38 -0.77, 36 0 M0 0 C9.11 0.63, 19.16 0.63, 36 0" stroke="#000" stroke-width="1" fill="none"></path></g></g><mask></mask><g stroke-linecap="round"><g transform="translate(17 75) rotate(0 9 -7.5)"><path d="M0 0 C7.4 -6.45, 13.5 -12.18, 18 -15 M0 0 C4.53 -3.25, 8.52 -6.43, 18 -15" stroke="#000" stroke-width="1" fill="none"></path></g></g><mask></mask><g stroke-linecap="round"><g transform="translate(35 60) rotate(0 8 7.5)"><path d="M0 0 C4.98 4.46, 10.69 9.54, 16 15 M0 0 C3.29 3.55, 6.8 6.01, 16 15" stroke="#000" stroke-width="1" fill="none"></path></g></g><mask></mask><g stroke-linecap="round" transform="translate(20 10) rotate(0 15 15)"><path d="M13.26 0.52 C16.35 0.23, 20.9 1.47, 23.63 3.2 C26.36 4.94, 28.8 7.91, 29.64 10.94 C30.49 13.96, 30.17 18.41, 28.71 21.38 C27.25 24.35, 23.81 27.46, 20.89 28.75 C17.97 30.05, 14.27 29.92, 11.18 29.13 C8.1 28.34, 4.2 26.6, 2.39 24.01 C0.58 21.41, -0.02 16.83, 0.34 13.56 C0.69 10.29, 2.19 6.59, 4.52 4.38 C6.85 2.17, 12.65 1.01, 14.32 0.28 C15.99 -0.44, 14.59 -0.2, 14.55 0.03 M14.89 -0.71 C18.04 -0.98, 22.44 1.45, 24.99 3.72 C27.53 6, 29.58 9.86, 30.16 12.95 C30.73 16.03, 29.99 19.5, 28.42 22.23 C26.86 24.95, 23.96 28.04, 20.77 29.3 C17.58 30.57, 12.5 30.95, 9.29 29.81 C6.09 28.67, 2.96 25.3, 1.55 22.44 C0.14 19.59, 0.35 15.91, 0.85 12.67 C1.36 9.43, 2.34 5.03, 4.59 3 C6.85 0.97, 12.55 0.94, 14.37 0.5 C16.18 0.06, 15.28 0.23, 15.48 0.37" stroke="#1e1e1e" stroke-width="2" fill="none"></path></g><g transform="translate(19.1015625 72.5) rotate(0 17.871986389160156 10)"><text x="0" y="0" font-family="Virgil, Segoe UI Emoji" font-size="16px" fill="#1e1e1e" text-anchor="start" style="white-space: pre;" direction="ltr" dominant-baseline="text-before-edge">User</text></g><g stroke-linecap="round"><g transform="translate(35 1341) rotate(0 0 10)"><path d="M0 0 C-0.85 4.03, -1.02 10.8, 0 20 M0 0 C-0.13 6.1, 0.09 11.53, 0 20" stroke="#000" stroke-width="1" fill="none"></path></g></g><mask></mask><g stroke-linecap="round"><g transform="translate(17 1349) rotate(0 18 0)"><path d="M0 0 C7.43 -0.81, 17.6 0.13, 36 0 M0 0 C14.29 0.08, 27.91 0.22, 36 0" stroke="#000" stroke-width="1" fill="none"></path></g></g><mask></mask><g stroke-linecap="round"><g transform="translate(17 1376) rotate(0 9 -7.5)"><path d="M0 0 C3.9 -2.98, 9.63 -6.97, 18 -15 M0 0 C5.95 -5.37, 12.01 -9.78, 18 -15" stroke="#000" stroke-width="1" fill="none"></path></g></g><mask></mask><g stroke-linecap="round"><g transform="translate(35 1361) rotate(0 8 7.5)"><path d="M0 0 C4.42 3.39, 7.97 7.02, 16 15 M0 0 C3.69 3.97, 8.29 7.31, 16 15" stroke="#000" stroke-width="1" fill="none"></path></g></g><mask></mask><g stroke-linecap="round" transform="translate(20 1311) rotate(0 15 15)"><path d="M18.6 0.41 C21.52 0.99, 24.71 3.67, 26.63 6.19 C28.54 8.71, 30.25 12.28, 30.08 15.53 C29.91 18.79, 27.79 23.36, 25.61 25.74 C23.43 28.12, 20.13 29.51, 17.01 29.81 C13.88 30.11, 9.53 29.25, 6.84 27.54 C4.16 25.83, 1.79 22.68, 0.88 19.55 C-0.03 16.42, 0.15 11.74, 1.37 8.77 C2.59 5.8, 5.23 3.11, 8.2 1.73 C11.17 0.35, 17.18 0.58, 19.2 0.48 C21.21 0.38, 20.42 0.81, 20.27 1.12 M16.8 -0.11 C19.88 -0.08, 24.14 2.29, 26.22 4.72 C28.3 7.15, 29.19 11.35, 29.27 14.48 C29.35 17.62, 28.35 21.01, 26.71 23.54 C25.06 26.08, 22.56 28.95, 19.42 29.68 C16.28 30.42, 10.97 29.29, 7.88 27.97 C4.78 26.64, 1.96 24.55, 0.84 21.73 C-0.29 18.92, 0.08 14.29, 1.13 11.07 C2.18 7.86, 4.72 4.35, 7.15 2.44 C9.59 0.53, 14.31 0.02, 15.73 -0.4 C17.15 -0.82, 15.49 -0.36, 15.66 -0.08" stroke="#1e1e1e" stroke-width="2" fill="none"></path></g><g transform="translate(19.1015625 1373.5) rotate(0 17.871986389160156 10)"><text x="0" y="0" font-family="Virgil, Segoe UI Emoji" font-size="16px" fill="#1e1e1e" text-anchor="start" style="white-space: pre;" direction="ltr" dominant-baseline="text-before-edge">User</text></g><g stroke-linecap="round" transform="translate(183 15) rotate(0 75 32.5)"><path d="M0 0 C59.62 -2.3, 118.61 -1.41, 150 0 M0 0 C31.95 -0.92, 66.18 0.23, 150 0 M150 0 C151.14 19.37, 150.7 35.59, 150 65 M150 0 C149.93 19.35, 150.18 36.04, 150 65 M150 65 C98.1 66.82, 42.21 67.24, 0 65 M150 65 C99.4 66.15, 51.04 66.57, 0 65 M0 65 C1.83 52.96, 0.68 39.55, 0 0 M0 65 C-0.37 46.72, 1.24 29.25, 0 0" stroke="#1e1e1e" stroke-width="2" fill="none"></path></g><g stroke-linecap="round" transform="translate(183 1316) rotate(0 75 32.5)"><path d="M0 0 C43.89 0.09, 89.57 -2.08, 150 0 M0 0 C48.66 1.92, 99.07 0.87, 150 0 M150 0 C151.04 21.33, 148.91 41.19, 150 65 M150 0 C150.84 21.28, 149.03 43.14, 150 65 M150 65 C100.32 65.85, 50.05 66.98, 0 65 M150 65 C118.41 64.83, 87.45 63.06, 0 65 M0 65 C2.02 50.69, 2.22 35.48, 0 0 M0 65 C-0.19 52.13, 0.03 38.11, 0 0" stroke="#1e1e1e" stroke-width="2" fill="none"></path></g><g stroke-linecap="round" transform="translate(540 15) rotate(0 75 32.5)"><path d="M0 0 C59.53 0.67, 116.37 1.24, 150 0 M0 0 C49.12 1.45, 96.31 1.08, 150 0 M150 0 C150.91 18.6, 150.02 39.98, 150 65 M150 0 C149.84 18.36, 150.42 38.99, 150 65 M150 65 C96.43 67.19, 44.45 63.94, 0 65 M150 65 C92.31 64.91, 31.98 63.92, 0 65 M0 65 C-0.26 51.79, -0.99 33.2, 0 0 M0 65 C1.27 49.17, 0.77 34.36, 0 0" stroke="#1e1e1e" stroke-width="2" fill="none"></path></g><g stroke-linecap="round" transform="translate(540 1316) rotate(0 75 32.5)"><path d="M0 0 C49.32 -2.04, 99.21 0.04, 150 0 M0 0 C35.07 -1.49, 69.23 -1.28, 150 0 M150 0 C149.22 22.5, 150.88 45.55, 150 65 M150 0 C149.61 18.47, 150.94 36.32, 150 65 M150 65 C93.21 65.3, 31.74 66.45, 0 65 M150 65 C115.53 65.38, 79.84 65.6, 0 65 M0 65 C1.26 40.63, -2.35 16.13, 0 0 M0 65 C0.01 51.95, 0.65 38.72, 0 0" stroke="#1e1e1e" stroke-width="2" fill="none"></path></g><g stroke-linecap="round" transform="translate(740 15) rotate(0 75 32.5)"><path d="M0 0 C36.64 0.57, 77 -1.39, 150 0 M0 0 C35.91 -0.64, 72.2 -0.32, 150 0 M150 0 C149.88 23.36, 150.13 45.13, 150 65 M150 0 C150.58 25.47, 150.54 51.05, 150 65 M150 65 C98.07 64.26, 46.64 64.7, 0 65 M150 65 C107.14 64.56, 65.39 65.99, 0 65 M0 65 C-0.62 38.56, -1.3 13.87, 0 0 M0 65 C-0.28 49.63, -0.31 34.62, 0 0" stroke="#1e1e1e" stroke-width="2" fill="none"></path></g><g stroke-linecap="round" transform="translate(740 1316) rotate(0 75 32.5)"><path d="M0 0 C49.48 1.67, 96.43 0.05, 150 0 M0 0 C58.3 0.3, 116.72 0.77, 150 0 M150 0 C150.19 21.31, 149.14 44.45, 150 65 M150 0 C149.76 20.04, 150.27 39.51, 150 65 M150 65 C106.72 67.3, 65.7 65.09, 0 65 M150 65 C91.32 62.94, 34.84 64.42, 0 65 M0 65 C-2.42 43.68, -2.51 23.67, 0 0 M0 65 C0.51 41.42, 1.14 17.21, 0 0" stroke="#1e1e1e" stroke-width="2" fill="none"></path></g><g stroke-linecap="round" transform="translate(940 15) rotate(0 75 32.5)"><path d="M0 0 C45.39 -1.82, 88.72 1.32, 150 0 M0 0 C53.35 0.22, 107.14 0, 150 0 M150 0 C149.84 15.39, 151.62 31.76, 150 65 M150 0 C150.92 14.23, 150.88 26.47, 150 65 M150 65 C96.09 62.26, 38.16 65.36, 0 65 M150 65 C101.01 64.51, 54.2 63.93, 0 65 M0 65 C-1.06 37.81, -1.01 15.8, 0 0 M0 65 C0.02 48.83, -0.51 30.24, 0 0" stroke="#1e1e1e" stroke-width="2" fill="none"></path></g><g stroke-linecap="round" transform="translate(940 1316) rotate(0 75 32.5)"><path d="M0 0 C31.26 -1.51, 67.05 0.78, 150 0 M0 0 C42.86 0.46, 84.99 -0.61, 150 0 M150 0 C149.68 20.21, 150.18 35.09, 150 65 M150 0 C151.13 23.76, 150.01 47.22, 150 65 M150 65 C98.72 65.95, 51.9 66.79, 0 65 M150 65 C119.26 64.74, 87.28 64.84, 0 65 M0 65 C-1.34 46.13, 1.89 28.88, 0 0 M0 65 C0.72 44.17, -0.8 24.25, 0 0" stroke="#1e1e1e" stroke-width="2" fill="none"></path></g><g stroke-linecap="round" transform="translate(1140 15) rotate(0 78.5 32.5)"><path d="M0 0 C50.37 2.84, 104.22 0.74, 157 0 M0 0 C50.63 -0.51, 99.69 -0.95, 157 0 M157 0 C158.7 21.28, 155.09 43.72, 157 65 M157 0 C157.86 21.73, 158.07 44.26, 157 65 M157 65 C123.75 65.64, 91.75 62.11, 0 65 M157 65 C122.8 66.13, 87.93 65.76, 0 65 M0 65 C-0.78 52.77, -0.34 38.25, 0 0 M0 65 C-0.49 43.15, 0.01 23.34, 0 0" stroke="#1e1e1e" stroke-width="2" fill="none"></path></g><g stroke-linecap="round" transform="translate(1140 1316) rotate(0 78.5 32.5)"><path d="M0 0 C52.24 2.04, 100.64 1.32, 157 0 M0 0 C47.91 -1.36, 95.1 -0.53, 157 0 M157 0 C156.84 17.42, 157.99 39.37, 157 65 M157 0 C157.34 23.72, 157.9 45.11, 157 65 M157 65 C97.43 65.12, 32.61 63.14, 0 65 M157 65 C120.91 67.11, 84.37 65.31, 0 65 M0 65 C1.92 48.8, 0.91 34.63, 0 0 M0 65 C-1.21 44.85, 0.2 24.24, 0 0" stroke="#1e1e1e" stroke-width="2" fill="none"></path></g><g stroke-linecap="round" transform="translate(1347 15) rotate(0 75 32.5)"><path d="M0 0 C35.63 -1.66, 69.42 -1.24, 150 0 M0 0 C52.07 -0.59, 105.54 -0.46, 150 0 M150 0 C148.67 19.04, 151.32 36.86, 150 65 M150 0 C151.04 25.56, 149.42 51.36, 150 65 M150 65 C115.75 64.48, 79.07 64.9, 0 65 M150 65 C95.93 64.85, 39.17 64.51, 0 65 M0 65 C-0.36 52.09, 0.92 38.84, 0 0 M0 65 C0.36 40.46, -0.03 14.7, 0 0" stroke="#1e1e1e" stroke-width="2" fill="none"></path></g><g stroke-linecap="round" transform="translate(1347 1316) rotate(0 75 32.5)"><path d="M0 0 C35.73 -0.45, 72.23 0.19, 150 0 M0 0 C52.49 1.11, 105.26 0.59, 150 0 M150 0 C151.15 25.84, 151.08 51.93, 150 65 M150 0 C150.17 21.88, 150.75 44.89, 150 65 M150 65 C106.23 63.78, 64.7 66.66, 0 65 M150 65 C92.96 65.4, 35.86 65.36, 0 65 M0 65 C-0.14 49.89, -0.19 35.52, 0 0 M0 65 C1.19 47.89, 0.75 30.52, 0 0" stroke="#1e1e1e" stroke-width="2" fill="none"></path></g><g stroke-linecap="round" transform="translate(10 90) rotate(0 718.5 19.5)"><path d="M0 0 C556.82 1.04, 1113.73 1.42, 1437 0 M1437 0 C1437.33 12.76, 1436.29 27.36, 1437 39 M1437 39 C1006.17 42.75, 575.44 42.72, 0 39 M0 39 C-2.09 30.03, -1.65 17.03, 0 0" stroke="#1e1e1e" stroke-width="2.5" fill="none" stroke-dasharray="8 10"></path></g><g stroke-linecap="round" transform="translate(10 951) rotate(0 718.5 19.5)"><path d="M0 0 C510.77 -0.7, 1021.9 -0.88, 1437 0 M1437 0 C1436.88 9.03, 1438.66 19.06, 1437 39 M1437 39 C1142.27 41.89, 847.08 40.99, 0 39 M0 39 C1.68 23.14, -0.53 11.75, 0 0" stroke="#1e1e1e" stroke-width="2.5" fill="none" stroke-dasharray="8 10"></path></g><g stroke-linecap="round"><g transform="translate(35 95) rotate(0 0 608)"><path d="M0 0 C1.34 343.76, 1.17 686.25, 0 1216 M0 0 C1.23 346.3, 1.33 691.53, 0 1216" stroke="#999" stroke-width="1" fill="none"></path></g></g><mask></mask><g stroke-linecap="round"><g transform="translate(258 80) rotate(0 0 618)"><path d="M0 0 C0.57 394.82, -0.28 789.06, 0 1236 M0 0 C0.2 404.68, -0.53 809.59, 0 1236" stroke="#999" stroke-width="1" fill="none"></path></g></g><mask></mask><g stroke-linecap="round"><g transform="translate(615 80) rotate(0 0 618)"><path d="M0 0 C2.75 374.5, 2.39 750.12, 0 1236 M0 0 C-1.23 366.75, -0.99 734.42, 0 1236" stroke="#999" stroke-width="1" fill="none"></path></g></g><mask></mask><g stroke-linecap="round"><g transform="translate(815 80) rotate(0 0 618)"><path d="M0 0 C2.07 433.56, 2.74 867.34, 0 1236 M0 0 C3.87 340.38, 4.4 680.52, 0 1236" stroke="#999" stroke-width="1" fill="none"></path></g></g><mask></mask><g stroke-linecap="round"><g transform="translate(1015 80) rotate(0 0 618)"><path d="M0 0 C1.3 434.01, 1.4 867.39, 0 1236 M0 0 C0.23 477.17, 0.22 954.39, 0 1236" stroke="#999" stroke-width="1" fill="none"></path></g></g><mask></mask><g stroke-linecap="round"><g transform="translate(1218.5 80) rotate(0 0 618)"><path d="M0 0 C-2.53 406.27, -2.95 813.27, 0 1236 M0 0 C-4.53 371.04, -4.32 741.86, 0 1236" stroke="#999" stroke-width="1" fill="none"></path></g></g><mask></mask><g stroke-linecap="round"><g transform="translate(1422 80) rotate(0 0 618)"><path d="M0 0 C-0.79 301.8, -0.08 604, 0 1236 M0 0 C3.07 254.23, 3.06 507.66, 0 1236" stroke="#999" stroke-width="1" fill="none"></path></g></g><mask></mask><g mask="url(#mask-fP3YFcm10UlLXjiQwLb5X)" stroke-linecap="round"><g transform="translate(36 165) rotate(0 109 0)"><path d="M0.46 -0.3 C36.83 -0.35, 182.55 -0.16, 218.53 0 M-1.01 -1.5 C35.3 -1.38, 181.51 1.5, 218.12 1.54" stroke="#1e1e1e" stroke-width="2" fill="none"></path></g><g transform="translate(36 165) rotate(0 109 0)"><path d="M194.54 9.82 C200.73 9.19, 207.94 3.22, 218.12 1.54 M194.54 9.82 C203.82 7.23, 211.15 4.48, 218.12 1.54" stroke="#1e1e1e" stroke-width="2" fill="none"></path></g><g transform="translate(36 165) rotate(0 109 0)"><path d="M194.73 -7.28 C200.92 -3.05, 208.07 -4.15, 218.12 1.54 M194.73 -7.28 C204.02 -3.75, 211.27 -0.38, 218.12 1.54" stroke="#1e1e1e" stroke-width="2" fill="none"></path></g></g><mask id="mask-fP3YFcm10UlLXjiQwLb5X"><rect x="0" y="0" fill="#fff" width="354" height="265"></rect><rect x="68.04804992675781" y="155" fill="#000" width="153.90390014648438" height="20" opacity="1"></rect></mask><g mask="url(#mask-m9wTyZR5cA1jkNTvMM8rd)" stroke-linecap="round"><g transform="translate(259 211) rotate(0 176 0)"><path d="M0.2 1.03 C58.65 0.85, 292.84 -1.04, 351.5 -1.14 M2.25 0.53 C60.51 0.45, 292.3 0.17, 350.55 -0.19" stroke="#1e1e1e" stroke-width="2" fill="none"></path></g><g transform="translate(259 211) rotate(0 176 0)"><path d="M327.09 8.44 C336.49 5.67, 340.56 4, 350.55 -0.19 M327.09 8.44 C335.48 5.08, 343.62 2.72, 350.55 -0.19" stroke="#1e1e1e" stroke-width="2" fill="none"></path></g><g transform="translate(259 211) rotate(0 176 0)"><path d="M327.03 -8.67 C336.45 -5.83, 340.54 -1.9, 350.55 -0.19 M327.03 -8.67 C335.53 -6.25, 343.69 -2.82, 350.55 -0.19" stroke="#1e1e1e" stroke-width="2" fill="none"></path></g></g><mask id="mask-m9wTyZR5cA1jkNTvMM8rd"><rect x="0" y="0" fill="#fff" width="711" height="311"></rect><rect x="313.3040771484375" y="181" fill="#000" width="243.391845703125" height="60" opacity="1"></rect></mask><g mask="url(#mask-V39l-1Rgz17ukNPa2Oxhb)" stroke-linecap="round"><g transform="translate(616 257) rotate(0 401 0)"><path d="M1.53 0 C134.85 0.17, 666.96 0.58, 800.36 0.69 M0.61 -1.05 C134.29 -1.2, 669.01 -1.01, 802.48 -1.07" stroke="#1e1e1e" stroke-width="2" fill="none"></path></g><g transform="translate(616 257) rotate(0 401 0)"><path d="M778.99 7.48 C785.99 2.85, 794.12 2.96, 802.48 -1.07 M778.99 7.48 C786.99 5.05, 795.87 0.4, 802.48 -1.07" stroke="#1e1e1e" stroke-width="2" fill="none"></path></g><g transform="translate(616 257) rotate(0 401 0)"><path d="M778.99 -9.62 C785.95 -9.17, 794.08 -3.98, 802.48 -1.07 M778.99 -9.62 C787.14 -5.99, 796.02 -4.59, 802.48 -1.07" stroke="#1e1e1e" stroke-width="2" fill="none"></path></g></g><mask id="mask-V39l-1Rgz17ukNPa2Oxhb"><rect x="0" y="0" fill="#fff" width="1518" height="357"></rect><rect x="933.8480529785156" y="247" fill="#000" width="166.30389404296875" height="20" opacity="1"></rect></mask><g mask="url(#mask-I8J9lYFOUPi3NpFvyyI-Q)" stroke-linecap="round"><g transform="translate(1421 348) rotate(0 -401 0)"><path d="M-0.5 -1.14 C-133.83 -1.23, -667.42 0.09, -800.81 0.46" stroke="#1e1e1e" stroke-width="2.5" fill="none" stroke-dasharray="1.5 8"></path></g><g transform="translate(1421 348) rotate(0 -401 0)"><path d="M-777.34 -8.15 C-785.61 -4.63, -789.42 -2.34, -800.81 0.46" stroke="#1e1e1e" stroke-width="2.5" fill="none" stroke-dasharray="1.5 6"></path></g><g transform="translate(1421 348) rotate(0 -401 0)"><path d="M-777.29 8.95 C-785.73 7.76, -789.55 5.35, -800.81 0.46" stroke="#1e1e1e" stroke-width="2.5" fill="none" stroke-dasharray="1.5 6"></path></g></g><mask id="mask-I8J9lYFOUPi3NpFvyyI-Q"><rect x="0" y="0" fill="#fff" width="2323" height="448"></rect><rect x="968.8720321655273" y="338" fill="#000" width="102.25593566894531" height="20" opacity="1"></rect></mask><g mask="url(#mask-H9njcUapD3EVSR52Hk2Qh)" stroke-linecap="round"><g transform="translate(614 394) rotate(0 -176 0)"><path d="M-1.64 0.69 C-60.23 0.8, -292.91 0.66, -351.04 0.65" stroke="#1e1e1e" stroke-width="2.5" fill="none" stroke-dasharray="1.5 8"></path></g><g transform="translate(614 394) rotate(0 -176 0)"><path d="M-327.55 -7.89 C-335.46 -4.06, -344.6 0.24, -351.04 0.65" stroke="#1e1e1e" stroke-width="2.5" fill="none" stroke-dasharray="1.5 6"></path></g><g transform="translate(614 394) rotate(0 -176 0)"><path d="M-327.56 9.21 C-335.47 6.44, -344.61 4.14, -351.04 0.65" stroke="#1e1e1e" stroke-width="2.5" fill="none" stroke-dasharray="1.5 6"></path></g></g><mask id="mask-H9njcUapD3EVSR52Hk2Qh"><rect x="0" y="0" fill="#fff" width="1066" height="494"></rect><rect x="341.59204864501953" y="374" fill="#000" width="192.81590270996094" height="40" opacity="1"></rect></mask><g mask="url(#mask-PtZVdc6rXVGGtTgY_EppQ)" stroke-linecap="round"><g transform="translate(616 485) rotate(0 197.5 0)"><path d="M1.19 0.46 C66.97 0.82, 329.5 1.18, 395.15 1.06 M0.1 -0.35 C65.77 -0.2, 328.78 -0.72, 394.54 -0.51" stroke="#1e1e1e" stroke-width="2" fill="none"></path></g><g transform="translate(616 485) rotate(0 197.5 0)"><path d="M371.05 8.03 C378.93 6.42, 386.99 3.78, 394.54 -0.51 M371.05 8.03 C376.57 6.5, 383.29 3.03, 394.54 -0.51" stroke="#1e1e1e" stroke-width="2" fill="none"></path></g><g transform="translate(616 485) rotate(0 197.5 0)"><path d="M371.05 -9.07 C378.78 -5.55, 386.83 -3.06, 394.54 -0.51 M371.05 -9.07 C376.7 -5.87, 383.41 -4.62, 394.54 -0.51" stroke="#1e1e1e" stroke-width="2" fill="none"></path></g></g><mask id="mask-PtZVdc6rXVGGtTgY_EppQ"><rect x="0" y="0" fill="#fff" width="1111" height="585"></rect><rect x="718.1320571899414" y="475" fill="#000" width="190.7358856201172" height="20" opacity="1"></rect></mask><g mask="url(#mask-mSdxu9pt75EV5Fk28PuOB)" stroke-linecap="round"><g transform="translate(1014 531) rotate(0 -197.5 0)"><path d="M-0.04 0.65 C-65.35 0.63, -327.65 0.57, -393.44 0.61" stroke="#1e1e1e" stroke-width="2.5" fill="none" stroke-dasharray="1.5 8"></path></g><g transform="translate(1014 531) rotate(0 -197.5 0)"><path d="M-369.95 -7.95 C-373.65 -4.34, -378.54 -4.81, -393.44 0.61" stroke="#1e1e1e" stroke-width="2.5" fill="none" stroke-dasharray="1.5 6"></path></g><g transform="translate(1014 531) rotate(0 -197.5 0)"><path d="M-369.95 9.16 C-373.74 9.25, -378.64 5.26, -393.44 0.61" stroke="#1e1e1e" stroke-width="2.5" fill="none" stroke-dasharray="1.5 6"></path></g></g><mask id="mask-mSdxu9pt75EV5Fk28PuOB"><rect x="0" y="0" fill="#fff" width="1509" height="631"></rect><rect x="756.6520385742188" y="521" fill="#000" width="119.6959228515625" height="20" opacity="1"></rect></mask><g mask="url(#mask-pk6SQA-DV27jA_znw50xq)" stroke-linecap="round"><g transform="translate(616 622) rotate(0 299.25 0)"><path d="M1.15 1.06 C100.72 0.93, 498.99 -0.17, 598.61 -0.28 M0.03 0.57 C99.43 0.58, 498.23 1.49, 597.98 1.11" stroke="#1e1e1e" stroke-width="2" fill="none"></path></g><g transform="translate(616 622) rotate(0 299.25 0)"><path d="M574.49 9.67 C584.62 7.49, 590.79 4.84, 597.98 1.11 M574.49 9.67 C581.69 6.4, 591.06 3.98, 597.98 1.11" stroke="#1e1e1e" stroke-width="2" fill="none"></path></g><g transform="translate(616 622) rotate(0 299.25 0)"><path d="M574.48 -7.44 C584.68 -3.5, 590.85 -0.02, 597.98 1.11 M574.48 -7.44 C581.53 -5.01, 590.9 -1.74, 597.98 1.11" stroke="#1e1e1e" stroke-width="2" fill="none"></path></g></g><mask id="mask-pk6SQA-DV27jA_znw50xq"><rect x="0" y="0" fill="#fff" width="1314.5" height="722"></rect><rect x="822.9540634155273" y="612" fill="#000" width="184.5918731689453" height="20" opacity="1"></rect></mask><g mask="url(#mask-yhzgtNMvMQETPXQkDpWJz)" stroke-linecap="round"><g transform="translate(1217.5 668) rotate(0 -299.25 0)"><path d="M0.56 0.61 C-99.15 0.64, -498.59 1.14, -598.28 0.86" stroke="#1e1e1e" stroke-width="2.5" fill="none" stroke-dasharray="1.5 8"></path></g><g transform="translate(1217.5 668) rotate(0 -299.25 0)"><path d="M-574.79 -7.68 C-581.67 -5.06, -589.19 -1.05, -598.28 0.86" stroke="#1e1e1e" stroke-width="2.5" fill="none" stroke-dasharray="1.5 6"></path></g><g transform="translate(1217.5 668) rotate(0 -299.25 0)"><path d="M-574.79 9.42 C-581.77 6.26, -589.29 4.49, -598.28 0.86" stroke="#1e1e1e" stroke-width="2.5" fill="none" stroke-dasharray="1.5 6"></path></g></g><mask id="mask-yhzgtNMvMQETPXQkDpWJz"><rect x="0" y="0" fill="#fff" width="1916" height="768"></rect><rect x="837.6820526123047" y="658" fill="#000" width="161.13589477539062" height="20" opacity="1"></rect></mask><g mask="url(#mask-BInm_12ODG3DABuuUp5XQ)" stroke-linecap="round"><g transform="translate(616 759) rotate(0 33.73440326570483 9.704216766493971)"><path d="M0.11 -0.78 C10.22 -2.48, 51.06 -14.92, 60.86 -9.61 C70.66 -4.3, 69.11 26.11, 58.91 31.08 C48.71 36.06, 9.24 21.98, -0.32 20.26 M-1.03 -1.98 C8.94 -3.53, 49.98 -16.74, 60.36 -11.52 C70.74 -6.31, 71.38 23.85, 61.23 29.31 C51.09 34.77, 9.59 22.57, -0.51 21.23" stroke="#1e1e1e" stroke-width="2" fill="none"></path></g><g transform="translate(616 759) rotate(0 33.73440326570483 9.704216766493971)"><path d="M24.24 17.74 C15.04 20.53, 7.4 18.52, -0.51 21.23 M24.24 17.74 C15.42 19.27, 3.99 19.64, -0.51 21.23" stroke="#1e1e1e" stroke-width="2" fill="none"></path></g><g transform="translate(616 759) rotate(0 33.73440326570483 9.704216766493971)"><path d="M20.7 34.47 C12.6 31.32, 6.22 23.39, -0.51 21.23 M20.7 34.47 C13.37 29.48, 3.32 23.32, -0.51 21.23" stroke="#1e1e1e" stroke-width="2" fill="none"></path></g></g><mask id="mask-BInm_12ODG3DABuuUp5XQ"><rect x="0" y="0" fill="#fff" width="776" height="899"></rect><rect x="600.4751840933827" y="748.2168596720876" fill="#000" width="168.0478973388672" height="40" opacity="1"></rect></mask><g mask="url(#mask-bJlUJNmWgPHaKrEjE9zFz)" stroke-linecap="round"><g transform="translate(616 875) rotate(0 401 0)"><path d="M0.22 0.86 C133.61 0.57, 668.16 -0.81, 801.89 -1.09 M2.27 0.26 C135.44 0.03, 667.8 -0.09, 801.15 -0.12" stroke="#1e1e1e" stroke-width="2" fill="none"></path></g><g transform="translate(616 875) rotate(0 401 0)"><path d="M777.66 8.43 C788.16 5.82, 794.04 3.65, 801.15 -0.12 M777.66 8.43 C783.33 5.35, 787.77 3.58, 801.15 -0.12" stroke="#1e1e1e" stroke-width="2" fill="none"></path></g><g transform="translate(616 875) rotate(0 401 0)"><path d="M777.66 -8.67 C788.25 -4.64, 794.12 -0.17, 801.15 -0.12 M777.66 -8.67 C783.29 -7.8, 787.73 -5.61, 801.15 -0.12" stroke="#1e1e1e" stroke-width="2" fill="none"></path></g></g><mask id="mask-bJlUJNmWgPHaKrEjE9zFz"><rect x="0" y="0" fill="#fff" width="1518" height="975"></rect><rect x="955.6320266723633" y="865" fill="#000" width="122.73594665527344" height="20" opacity="1"></rect></mask><g mask="url(#mask-Zai8PdyaAHvbS8Ny6y3qe)" stroke-linecap="round"><g transform="translate(614 921) rotate(0 -176 0)"><path d="M0.36 0.39 C-58.43 0.62, -293.81 1.19, -352.59 1.08" stroke="#1e1e1e" stroke-width="2.5" fill="none" stroke-dasharray="1.5 8"></path></g><g transform="translate(614 921) rotate(0 -176 0)"><path d="M-329.1 -7.48 C-336.7 -6.13, -343.78 -2.68, -352.59 1.08" stroke="#1e1e1e" stroke-width="2.5" fill="none" stroke-dasharray="1.5 6"></path></g><g transform="translate(614 921) rotate(0 -176 0)"><path d="M-329.09 9.62 C-336.65 4.98, -343.74 2.43, -352.59 1.08" stroke="#1e1e1e" stroke-width="2.5" fill="none" stroke-dasharray="1.5 6"></path></g></g><mask id="mask-Zai8PdyaAHvbS8Ny6y3qe"><rect x="0" y="0" fill="#fff" width="1066" height="1021"></rect><rect x="374.28802490234375" y="911" fill="#000" width="127.4239501953125" height="20" opacity="1"></rect></mask><g mask="url(#mask-VVQObAW0vQKf3hMOSbo7S)" stroke-linecap="round"><g transform="translate(36 1026) rotate(0 109 0)"><path d="M0.89 -1.09 C37.29 -1.37, 182.52 -1.18, 218.58 -0.82 M-0.36 0.95 C36 0.73, 182.09 0.57, 218.21 0.28" stroke="#1e1e1e" stroke-width="2" fill="none"></path></g><g transform="translate(36 1026) rotate(0 109 0)"><path d="M194.75 8.93 C199.35 8.27, 206.28 3.66, 218.21 0.28 M194.75 8.93 C203.01 5.1, 213.51 3.25, 218.21 0.28" stroke="#1e1e1e" stroke-width="2" fill="none"></path></g><g transform="translate(36 1026) rotate(0 109 0)"><path d="M194.68 -8.17 C199.43 -4.11, 206.37 -3.98, 218.21 0.28 M194.68 -8.17 C203.01 -5.39, 213.53 -0.65, 218.21 0.28" stroke="#1e1e1e" stroke-width="2" fill="none"></path></g></g><mask id="mask-VVQObAW0vQKf3hMOSbo7S"><rect x="0" y="0" fill="#fff" width="354" height="1126"></rect><rect x="59.064064025878906" y="1016" fill="#000" width="171.8718719482422" height="20" opacity="1"></rect></mask><g mask="url(#mask-5MoWQl99y5jiYrKsxh3mn)" stroke-linecap="round"><g transform="translate(259 1072) rotate(0 176 0)"><path d="M-0.59 1.08 C57.63 0.98, 291.82 -0.11, 350.68 -0.24 M1.04 0.61 C59.56 0.65, 294.41 0.98, 352.95 1.17" stroke="#1e1e1e" stroke-width="2" fill="none"></path></g><g transform="translate(259 1072) rotate(0 176 0)"><path d="M329.44 9.67 C339.96 5.35, 346.48 5.29, 352.95 1.17 M329.44 9.67 C336.39 7.78, 345.44 4.46, 352.95 1.17" stroke="#1e1e1e" stroke-width="2" fill="none"></path></g><g transform="translate(259 1072) rotate(0 176 0)"><path d="M329.48 -7.43 C340.04 -5.4, 346.54 0.89, 352.95 1.17 M329.48 -7.43 C336.26 -3.82, 345.3 -1.63, 352.95 1.17" stroke="#1e1e1e" stroke-width="2" fill="none"></path></g></g><mask id="mask-5MoWQl99y5jiYrKsxh3mn"><rect x="0" y="0" fill="#fff" width="711" height="1172"></rect><rect x="321.47206115722656" y="1052" fill="#000" width="227.05587768554688" height="40" opacity="1"></rect></mask><g mask="url(#mask-l8KNU9VZ2rDLF5rPV8mTH)" stroke-linecap="round"><g transform="translate(616 1118) rotate(0 197.5 0)"><path d="M1.58 -0.82 C67.15 -0.47, 328.73 1.08, 394.26 1.03 M0.69 1.36 C66.04 1.49, 327.61 -0.26, 393.18 -0.55" stroke="#1e1e1e" stroke-width="2" fill="none"></path></g><g transform="translate(616 1118) rotate(0 197.5 0)"><path d="M369.74 8.13 C376.24 4.63, 387.14 2.58, 393.18 -0.55 M369.74 8.13 C375.38 7.26, 379.71 5.55, 393.18 -0.55" stroke="#1e1e1e" stroke-width="2" fill="none"></path></g><g transform="translate(616 1118) rotate(0 197.5 0)"><path d="M369.64 -8.97 C376.02 -6.78, 386.95 -3.14, 393.18 -0.55 M369.64 -8.97 C375.17 -6.26, 379.52 -4.39, 393.18 -0.55" stroke="#1e1e1e" stroke-width="2" fill="none"></path></g></g><mask id="mask-l8KNU9VZ2rDLF5rPV8mTH"><rect x="0" y="0" fill="#fff" width="1111" height="1218"></rect><rect x="713.4760589599609" y="1108" fill="#000" width="200.04788208007812" height="20" opacity="1"></rect></mask><g mask="url(#mask-kt8dqqJXoMjvI5f12zaEG)" stroke-linecap="round"><g transform="translate(1014 1164) rotate(0 -197.5 0)"><path d="M-1.32 -0.24 C-66.64 -0.38, -327.76 0.38, -393.47 0.26" stroke="#1e1e1e" stroke-width="2.5" fill="none" stroke-dasharray="1.5 8"></path></g><g transform="translate(1014 1164) rotate(0 -197.5 0)"><path d="M-369.98 -8.31 C-375.22 -4.95, -379.29 -6.7, -393.47 0.26" stroke="#1e1e1e" stroke-width="2.5" fill="none" stroke-dasharray="1.5 6"></path></g><g transform="translate(1014 1164) rotate(0 -197.5 0)"><path d="M-369.97 8.79 C-375.37 8.57, -379.44 3.25, -393.47 0.26" stroke="#1e1e1e" stroke-width="2.5" fill="none" stroke-dasharray="1.5 6"></path></g></g><mask id="mask-kt8dqqJXoMjvI5f12zaEG"><rect x="0" y="0" fill="#fff" width="1509" height="1264"></rect><rect x="777.1240234375" y="1154" fill="#000" width="78.751953125" height="20" opacity="1"></rect></mask><g mask="url(#mask-DqRkbjR-BCP5_rYnSJ1e7)" stroke-linecap="round"><g transform="translate(616 1210) rotate(0 33.56939005033337 9.53438386701714)"><path d="M-0.74 0.53 C9.2 -1.09, 50.29 -15.86, 60.26 -11.09 C70.23 -6.32, 68.9 23.74, 59.07 29.17 C49.25 34.59, 11.04 22.71, 1.3 21.44 M1.33 0.03 C11.05 -1.42, 49.43 -15.12, 59.45 -10.12 C69.48 -5.12, 71.06 25.13, 61.48 30.04 C51.9 34.96, 12.34 21.24, 1.96 19.38" stroke="#1e1e1e" stroke-width="2" fill="none"></path></g><g transform="translate(616 1210) rotate(0 33.56939005033337 9.53438386701714)"><path d="M26.85 17.01 C18.84 18.32, 5.59 17.26, 1.96 19.38 M26.85 17.01 C21.22 18.63, 15.12 17.37, 1.96 19.38" stroke="#1e1e1e" stroke-width="2" fill="none"></path></g><g transform="translate(616 1210) rotate(0 33.56939005033337 9.53438386701714)"><path d="M22.55 33.56 C16.33 28.42, 4.76 20.9, 1.96 19.38 M22.55 33.56 C17.8 31.34, 12.69 26.26, 1.96 19.38" stroke="#1e1e1e" stroke-width="2" fill="none"></path></g></g><mask id="mask-DqRkbjR-BCP5_rYnSJ1e7"><rect x="0" y="0" fill="#fff" width="776" height="1350"></rect><rect x="598.3110784640871" y="1209.6294413113515" fill="#000" width="169.48789978027344" height="20" opacity="1"></rect></mask><g mask="url(#mask-Of57G9SKazHwEGOBTvzi1)" stroke-linecap="round"><g transform="translate(614 1286) rotate(0 -176 0)"><path d="M0.53 0.26 C-58.01 0.15, -293.78 -1.02, -352.59 -0.93" stroke="#1e1e1e" stroke-width="2.5" fill="none" stroke-dasharray="1.5 8"></path></g><g transform="translate(614 1286) rotate(0 -176 0)"><path d="M-329.08 -9.43 C-334.09 -9.07, -341.51 -6.68, -352.59 -0.93" stroke="#1e1e1e" stroke-width="2.5" fill="none" stroke-dasharray="1.5 6"></path></g><g transform="translate(614 1286) rotate(0 -176 0)"><path d="M-329.11 7.67 C-334.09 4.07, -341.5 2.51, -352.59 -0.93" stroke="#1e1e1e" stroke-width="2.5" fill="none" stroke-dasharray="1.5 6"></path></g></g><mask id="mask-Of57G9SKazHwEGOBTvzi1"><rect x="0" y="0" fill="#fff" width="1066" height="1386"></rect><rect x="348.76004791259766" y="1276" fill="#000" width="178.4799041748047" height="20" opacity="1"></rect></mask><g stroke-linecap="round"><g transform="translate(504 551) rotate(0 362.75 0)"><path d="M0 0 C202.2 -1.25, 405.3 -0.11, 725.5 0" stroke="#adb5bd" stroke-width="2.5" fill="none" stroke-dasharray="1.5 8"></path></g></g><mask></mask><g stroke-linecap="round"><g transform="translate(1229.5 551) rotate(0 0 144)"><path d="M0 0 C-0.69 110.14, 1.48 223.56, 0 288" stroke="#adb5bd" stroke-width="2.5" fill="none" stroke-dasharray="1.5 8"></path></g></g><mask></mask><g stroke-linecap="round"><g transform="translate(504 839) rotate(0 362.75 0)"><path d="M0 0 C233.01 2.77, 467.75 2.31, 725.5 0" stroke="#adb5bd" stroke-width="2.5" fill="none" stroke-dasharray="1.5 8"></path></g></g><mask></mask><g stroke-linecap="round"><g transform="translate(504 551) rotate(0 0 144)"><path d="M0 0 C-0.67 61.48, -1.54 121.92, 0 288" stroke="#adb5bd" stroke-width="2.5" fill="none" stroke-dasharray="1.5 8"></path></g></g><mask></mask><g stroke-linecap="round"><g transform="translate(504 693) rotate(0 362.75 0)"><path d="M0 0 C162.27 -1.86, 323.99 -2.15, 725.5 0" stroke="#adb5bd" stroke-width="2.5" fill="none" stroke-dasharray="1.5 8"></path></g></g><mask></mask><g stroke-linecap="round"><g transform="translate(247 277) rotate(0 593 0)"><path d="M0 0 C273.35 -3.01, 546.33 -4.45, 1186 0" stroke="#adb5bd" stroke-width="2.5" fill="none" stroke-dasharray="1.5 8"></path></g></g><mask></mask><g stroke-linecap="round"><g transform="translate(1433 277) rotate(0 0 332)"><path d="M0 0 C2.79 243.05, 1.34 486.05, 0 664" stroke="#adb5bd" stroke-width="2.5" fill="none" stroke-dasharray="1.5 8"></path></g></g><mask></mask><g stroke-linecap="round"><g transform="translate(247 941) rotate(0 593 0)"><path d="M0 0 C448.53 -4.93, 897.01 -4.97, 1186 0" stroke="#adb5bd" stroke-width="2.5" fill="none" stroke-dasharray="1.5 8"></path></g></g><mask></mask><g stroke-linecap="round"><g transform="translate(247 277) rotate(0 0 332)"><path d="M0 0 C1.61 204.56, 1.57 409.64, 0 664" stroke="#adb5bd" stroke-width="2.5" fill="none" stroke-dasharray="1.5 8"></path></g></g><mask></mask><g stroke-linecap="round"><g transform="translate(247 419) rotate(0 593 0)"><path d="M0 0 C460.12 3.59, 920.77 4.88, 1186 0" stroke="#adb5bd" stroke-width="2.5" fill="none" stroke-dasharray="1.5 8"></path></g></g><mask></mask><g transform="translate(811.1171875 559) rotate(0 90.43193817138672 10)"><text x="0" y="0" font-family="Virgil, Segoe UI Emoji" font-size="16px" fill="#1e1e1e" text-anchor="start" style="white-space: pre;" direction="ltr" dominant-baseline="text-before-edge">[Fetch Current Period]</text></g><g transform="translate(806 701) rotate(0 72.6799545288086 10)"><text x="0" y="0" font-family="Virgil, Segoe UI Emoji" font-size="16px" fill="#1e1e1e" text-anchor="start" style="white-space: pre;" direction="ltr" dominant-baseline="text-before-edge">[Aggregate Data]</text></g><g transform="translate(824.34375 285) rotate(0 45.439971923828125 10)"><text x="0" y="0" font-family="Virgil, Segoe UI Emoji" font-size="16px" fill="#1e1e1e" text-anchor="start" style="white-space: pre;" direction="ltr" dominant-baseline="text-before-edge">[Cache Hit]</text></g><g transform="translate(795.59375 427) rotate(0 51.327964782714844 10)"><text x="0" y="0" font-family="Virgil, Segoe UI Emoji" font-size="16px" fill="#1e1e1e" text-anchor="start" style="white-space: pre;" direction="ltr" dominant-baseline="text-before-edge">[Cache Miss]</text></g><g stroke-linecap="round" transform="translate(504 551) rotate(0 18 15)"><path d="M-0.23 -0.34 L35.47 0.08 L35.94 30.76 L-0.95 30.3" stroke="none" stroke-width="0" fill="#e9ecef"></path><path d="M0 0 C8.8 0.33, 17.43 0.96, 36 0 M0 0 C9.7 -0.17, 18.79 -0.45, 36 0 M36 0 C35.77 10.64, 36.09 21.4, 36 30 M36 0 C36.1 10.75, 35.82 21.27, 36 30 M36 30 C26.49 30.68, 17.5 29.23, 0 30 M36 30 C27.86 30.48, 19.11 30, 0 30 M0 30 C0.33 19.77, -0.23 8.25, 0 0 M0 30 C-0.02 21.89, 0.16 13.28, 0 0" stroke="#adb5bd" stroke-width="2" fill="none"></path></g><g stroke-linecap="round" transform="translate(247 277) rotate(0 17 15)"><path d="M-0.34 -0.53 L34.08 -0.06 L34.76 29.05 L0.3 29.22" stroke="none" stroke-width="0" fill="#e9ecef"></path><path d="M0 0 C12.66 0.09, 25.68 -0.44, 34 0 M0 0 C7.93 0.04, 15.72 0.07, 34 0 M34 0 C34.32 8.49, 34.86 17.32, 34 30 M34 0 C33.98 6.05, 33.73 11.97, 34 30 M34 30 C23.01 30.29, 9.95 29.32, 0 30 M34 30 C23.29 30.08, 11.64 30.35, 0 30 M0 30 C0.35 18.59, -0.66 7.1, 0 0 M0 30 C-0.03 18.84, -0.51 7.01, 0 0" stroke="#adb5bd" stroke-width="2" fill="none"></path></g><g transform="translate(224.61602020263672 37.5) rotate(0 33.38397979736328 10)"><text x="33.38397979736328" y="0" font-family="Virgil, Segoe UI Emoji" font-size="16px" fill="#000" text-anchor="middle" style="white-space: pre;" direction="ltr" dominant-baseline="text-before-edge">Frontend</text></g><g transform="translate(224.61602020263672 1338.5) rotate(0 33.38397979736328 10)"><text x="33.38397979736328" y="0" font-family="Virgil, Segoe UI Emoji" font-size="16px" fill="#000" text-anchor="middle" style="white-space: pre;" direction="ltr" dominant-baseline="text-before-edge">Frontend</text></g><g transform="translate(561.2960433959961 37.5) rotate(0 53.703956604003906 10)"><text x="53.703956604003906" y="0" font-family="Virgil, Segoe UI Emoji" font-size="16px" fill="#000" text-anchor="middle" style="white-space: pre;" direction="ltr" dominant-baseline="text-before-edge">Analytics API</text></g><g transform="translate(561.2960433959961 1338.5) rotate(0 53.703956604003906 10)"><text x="53.703956604003906" y="0" font-family="Virgil, Segoe UI Emoji" font-size="16px" fill="#000" text-anchor="middle" style="white-space: pre;" direction="ltr" dominant-baseline="text-before-edge">Analytics API</text></g><g transform="translate(769.296028137207 37.5) rotate(0 45.70397186279297 10)"><text x="45.70397186279297" y="0" font-family="Virgil, Segoe UI Emoji" font-size="16px" fill="#000" text-anchor="middle" style="white-space: pre;" direction="ltr" dominant-baseline="text-before-edge">PostgreSQL</text></g><g transform="translate(769.296028137207 1338.5) rotate(0 45.70397186279297 10)"><text x="45.70397186279297" y="0" font-family="Virgil, Segoe UI Emoji" font-size="16px" fill="#000" text-anchor="middle" style="white-space: pre;" direction="ltr" dominant-baseline="text-before-edge">PostgreSQL</text></g><g transform="translate(948.8000335693359 37.5) rotate(0 66.19996643066406 10)"><text x="66.19996643066406" y="0" font-family="Virgil, Segoe UI Emoji" font-size="16px" fill="#000" text-anchor="middle" style="white-space: pre;" direction="ltr" dominant-baseline="text-before-edge">Data Warehouse</text></g><g transform="translate(948.8000335693359 1338.5) rotate(0 66.19996643066406 10)"><text x="66.19996643066406" y="0" font-family="Virgil, Segoe UI Emoji" font-size="16px" fill="#000" text-anchor="middle" style="white-space: pre;" direction="ltr" dominant-baseline="text-before-edge">Data Warehouse</text></g><g transform="translate(1175.9720306396484 27.5) rotate(0 42.52796936035156 20)"><text x="42.52796936035156" y="0" font-family="Virgil, Segoe UI Emoji" font-size="16px" fill="#000" text-anchor="middle" style="white-space: pre;" direction="ltr" dominant-baseline="text-before-edge">AWS Cost </text><text x="42.52796936035156" y="20" font-family="Virgil, Segoe UI Emoji" font-size="16px" fill="#000" text-anchor="middle" style="white-space: pre;" direction="ltr" dominant-baseline="text-before-edge">Explorer</text></g><g transform="translate(1175.9720306396484 1328.5) rotate(0 42.52796936035156 20)"><text x="42.52796936035156" y="0" font-family="Virgil, Segoe UI Emoji" font-size="16px" fill="#000" text-anchor="middle" style="white-space: pre;" direction="ltr" dominant-baseline="text-before-edge">AWS Cost </text><text x="42.52796936035156" y="20" font-family="Virgil, Segoe UI Emoji" font-size="16px" fill="#000" text-anchor="middle" style="white-space: pre;" direction="ltr" dominant-baseline="text-before-edge">Explorer</text></g><g transform="translate(1401.552017211914 37.5) rotate(0 20.447982788085938 10)"><text x="20.447982788085938" y="0" font-family="Virgil, Segoe UI Emoji" font-size="16px" fill="#000" text-anchor="middle" style="white-space: pre;" direction="ltr" dominant-baseline="text-before-edge">Redis</text></g><g transform="translate(1401.552017211914 1338.5) rotate(0 20.447982788085938 10)"><text x="20.447982788085938" y="0" font-family="Virgil, Segoe UI Emoji" font-size="16px" fill="#000" text-anchor="middle" style="white-space: pre;" direction="ltr" dominant-baseline="text-before-edge">Redis</text></g><g transform="translate(659.1640396118164 99.5) rotate(0 69.3359603881836 10)"><text x="69.3359603881836" y="0" font-family="Virgil, Segoe UI Emoji" font-size="16px" fill="#000" text-anchor="middle" style="white-space: pre;" direction="ltr" dominant-baseline="text-before-edge">Fetch Cost Data</text></g><g transform="translate(661.8920364379883 960.5) rotate(0 66.60796356201172 10)"><text x="66.60796356201172" y="0" font-family="Virgil, Segoe UI Emoji" font-size="16px" fill="#000" text-anchor="middle" style="white-space: pre;" direction="ltr" dominant-baseline="text-before-edge">Generate Report</text></g><g transform="translate(68.04804992675781 155) rotate(0 76.71084569286089 10.019239374930052)"><text x="76.95195007324219" y="0" font-family="Virgil, Segoe UI Emoji" font-size="16px" fill="#1e1e1e" text-anchor="middle" style="white-space: pre;" direction="ltr" dominant-baseline="text-before-edge">View Analytics Page</text></g><g transform="translate(313.3040771484375 181) rotate(0 121.54728594794867 29.94802565798163)"><text x="121.6959228515625" y="0" font-family="Virgil, Segoe UI Emoji" font-size="16px" fill="#1e1e1e" text-anchor="middle" style="white-space: pre;" direction="ltr" dominant-baseline="text-before-edge">GET </text><text x="121.6959228515625" y="20" font-family="Virgil, Segoe UI Emoji" font-size="16px" fill="#1e1e1e" text-anchor="middle" style="white-space: pre;" direction="ltr" dominant-baseline="text-before-edge">/api/analytics/costs?period=30</text><text x="121.6959228515625" y="40" font-family="Virgil, Segoe UI Emoji" font-size="16px" fill="#1e1e1e" text-anchor="middle" style="white-space: pre;" direction="ltr" dominant-baseline="text-before-edge">d</text></g><g transform="translate(933.8480529785156 247) rotate(0 83.6990940534231 9.79246566719226)"><text x="83.15194702148438" y="0" font-family="Virgil, Segoe UI Emoji" font-size="16px" fill="#1e1e1e" text-anchor="middle" style="white-space: pre;" direction="ltr" dominant-baseline="text-before-edge">Check cached metrics</text></g><g transform="translate(968.8720321655273 338) rotate(0 51.47450426593423 9.657596913082045)"><text x="51.127967834472656" y="0" font-family="Virgil, Segoe UI Emoji" font-size="16px" fill="#1e1e1e" text-anchor="middle" style="white-space: pre;" direction="ltr" dominant-baseline="text-before-edge">Cached data</text></g><g transform="translate(341.59204864501953 374) rotate(0 96.06803443655372 20.690875144546112)"><text x="96.40795135498047" y="0" font-family="Virgil, Segoe UI Emoji" font-size="16px" fill="#1e1e1e" text-anchor="middle" style="white-space: pre;" direction="ltr" dominant-baseline="text-before-edge">200 OK {monthlyCosts, </text><text x="96.40795135498047" y="20" font-family="Virgil, Segoe UI Emoji" font-size="16px" fill="#1e1e1e" text-anchor="middle" style="white-space: pre;" direction="ltr" dominant-baseline="text-before-edge">breakdown}</text></g><g transform="translate(718.1320571899414 475) rotate(0 95.49066355941358 10.26179541117213)"><text x="95.3679428100586" y="0" font-family="Virgil, Segoe UI Emoji" font-size="16px" fill="#1e1e1e" text-anchor="middle" style="white-space: pre;" direction="ltr" dominant-baseline="text-before-edge">Query aggregated costs</text></g><g transform="translate(756.6520385742188 521) rotate(0 60.6045280478894 10.622158909111931)"><text x="59.84796142578125" y="0" font-family="Virgil, Segoe UI Emoji" font-size="16px" fill="#1e1e1e" text-anchor="middle" style="white-space: pre;" direction="ltr" dominant-baseline="text-before-edge">Historical data</text></g><g transform="translate(822.9540634155273 612) rotate(0 92.36389959064775 10.459053016390499)"><text x="92.29593658447266" y="0" font-family="Virgil, Segoe UI Emoji" font-size="16px" fill="#1e1e1e" text-anchor="middle" style="white-space: pre;" direction="ltr" dominant-baseline="text-before-edge">get_cost_and_usage()</text></g><g transform="translate(837.6820526123047 658) rotate(0 80.95535042509437 10.775232266702176)"><text x="80.56794738769531" y="0" font-family="Virgil, Segoe UI Emoji" font-size="16px" fill="#1e1e1e" text-anchor="middle" style="white-space: pre;" direction="ltr" dominant-baseline="text-before-edge">Current month costs</text></g><g transform="translate(600.4751840933827 748.2168596720877) rotate(0 49.259219172322105 20.487357094406264)"><text x="84.0239486694336" y="0" font-family="Virgil, Segoe UI Emoji" font-size="16px" fill="#1e1e1e" text-anchor="middle" style="white-space: pre;" direction="ltr" dominant-baseline="text-before-edge">Calculate trends, % </text><text x="84.0239486694336" y="20" font-family="Virgil, Segoe UI Emoji" font-size="16px" fill="#1e1e1e" text-anchor="middle" style="white-space: pre;" direction="ltr" dominant-baseline="text-before-edge">changes</text></g><g transform="translate(955.6320266723633 865) rotate(0 61.42283616289501 9.883920750767004)"><text x="61.36797332763672" y="0" font-family="Virgil, Segoe UI Emoji" font-size="16px" fill="#1e1e1e" text-anchor="middle" style="white-space: pre;" direction="ltr" dominant-baseline="text-before-edge">Store (TTL: 1h)</text></g><g transform="translate(374.28802490234375 911) rotate(0 63.595895848423254 10.745069029059493)"><text x="63.71197509765625" y="0" font-family="Virgil, Segoe UI Emoji" font-size="16px" fill="#1e1e1e" text-anchor="middle" style="white-space: pre;" direction="ltr" dominant-baseline="text-before-edge">200 OK {data}</text></g><g transform="translate(59.064064025878906 1016) rotate(0 86.04801329146603 9.864523759820884)"><text x="85.9359359741211" y="0" font-family="Virgil, Segoe UI Emoji" font-size="16px" fill="#1e1e1e" text-anchor="middle" style="white-space: pre;" direction="ltr" dominant-baseline="text-before-edge">Export monthly report</text></g><g transform="translate(321.47206115722656 1052) rotate(0 113.710407721526 20.461289205052935)"><text x="113.52793884277344" y="0" font-family="Virgil, Segoe UI Emoji" font-size="16px" fill="#1e1e1e" text-anchor="middle" style="white-space: pre;" direction="ltr" dominant-baseline="text-before-edge">POST /api/analytics/export </text><text x="113.52793884277344" y="20" font-family="Virgil, Segoe UI Emoji" font-size="16px" fill="#1e1e1e" text-anchor="middle" style="white-space: pre;" direction="ltr" dominant-baseline="text-before-edge">{format: 'pdf'}</text></g><g transform="translate(713.4760589599609 1108) rotate(0 99.99948277037129 10.269711137974127)"><text x="100.02394104003906" y="0" font-family="Virgil, Segoe UI Emoji" font-size="16px" fill="#1e1e1e" text-anchor="middle" style="white-space: pre;" direction="ltr" dominant-baseline="text-before-edge">Query detailed breakdown</text></g><g transform="translate(777.1240234375 1154) rotate(0 39.48011382594706 10.007390301851956)"><text x="39.3759765625" y="0" font-family="Virgil, Segoe UI Emoji" font-size="16px" fill="#1e1e1e" text-anchor="middle" style="white-space: pre;" direction="ltr" dominant-baseline="text-before-edge">Raw data</text></g><g transform="translate(598.3110784640871 1209.6294413113517) rotate(0 51.25831158624635 9.904942555665684)"><text x="84.74394989013672" y="0" font-family="Virgil, Segoe UI Emoji" font-size="16px" fill="#1e1e1e" text-anchor="middle" style="white-space: pre;" direction="ltr" dominant-baseline="text-before-edge">Generate PDF report</text></g><g transform="translate(348.76004791259766 1276) rotate(0 89.21254988685251 9.665959647427599)"><text x="89.23995208740234" y="0" font-family="Virgil, Segoe UI Emoji" font-size="16px" fill="#1e1e1e" text-anchor="middle" style="white-space: pre;" direction="ltr" dominant-baseline="text-before-edge">200 OK {downloadUrl}</text></g><g transform="translate(509.28001403808594 556) rotate(0 12.719985961914062 10)"><text x="12.719985961914062" y="0" font-family="Virgil, Segoe UI Emoji" font-size="16px" fill="#000" text-anchor="middle" style="white-space: pre;" direction="ltr" dominant-baseline="text-before-edge">par</text></g><g transform="translate(252.04000854492188 282) rotate(0 11.959991455078125 10)"><text x="11.959991455078125" y="0" font-family="Virgil, Segoe UI Emoji" font-size="16px" fill="#000" text-anchor="middle" style="white-space: pre;" direction="ltr" dominant-baseline="text-before-edge">alt</text></g></svg>