<svg version="1.1" xmlns="http://www.w3.org/2000/svg" viewBox="0 0 2079 2129.5" width="2079" height="2129.5">
  <!-- svg-source:excalidraw -->
  
  <defs>
    <style class="style-fonts">
      @font-face {
        font-family: "Virgil";
        src: url("https://unpkg.com/@excalidraw/excalidraw@undefined/dist/excalidraw-assets/Virgil.woff2");
      }
      @font-face {
        font-family: "Cascadia";
        src: url("https://unpkg.com/@excalidraw/excalidraw@undefined/dist/excalidraw-assets/Cascadia.woff2");
      }
      @font-face {
        font-family: "Assistant";
        src: url("https://unpkg.com/@excalidraw/excalidraw@undefined/dist/excalidraw-assets/Assistant-Regular.woff2");
      }
    </style>
    
  </defs>
  <rect x="0" y="0" width="2079" height="2129.5" fill="#ffffff"></rect><g stroke-linecap="round"><g transform="translate(35 40) rotate(0 0 10)"><path d="M0 0 C-0.22 5.11, -0.53 11.08, 0 20 M0 0 C0.22 6.4, -0.41 11.96, 0 20" stroke="#000" stroke-width="1" fill="none"></path></g></g><mask></mask><g stroke-linecap="round"><g transform="translate(17 48) rotate(0 18 0)"><path d="M0 0 C9.3 -0.46, 19.47 0.06, 36 0 M0 0 C12.57 -0.52, 24.29 -0.41, 36 0" stroke="#000" stroke-width="1" fill="none"></path></g></g><mask></mask><g stroke-linecap="round"><g transform="translate(17 75) rotate(0 9 -7.5)"><path d="M0 0 C5.97 -5.15, 12.95 -10.33, 18 -15 M0 0 C3.92 -3.86, 8.42 -7.71, 18 -15" stroke="#000" stroke-width="1" fill="none"></path></g></g><mask></mask><g stroke-linecap="round"><g transform="translate(35 60) rotate(0 8 7.5)"><path d="M0 0 C4.67 4.28, 9.37 7.92, 16 15 M0 0 C5.31 4.78, 10.53 10.43, 16 15" stroke="#000" stroke-width="1" fill="none"></path></g></g><mask></mask><g stroke-linecap="round" transform="translate(20 10) rotate(0 15 15)"><path d="M16.83 -0.38 C19.91 -0.36, 23.45 1.75, 25.59 4.17 C27.72 6.58, 29.41 10.86, 29.64 14.1 C29.87 17.34, 28.85 20.97, 26.98 23.61 C25.11 26.25, 21.58 29.04, 18.44 29.94 C15.29 30.84, 10.92 30.47, 8.1 29 C5.27 27.53, 2.78 24.07, 1.49 21.13 C0.2 18.18, -0.41 14.32, 0.38 11.32 C1.17 8.31, 3.51 5.01, 6.23 3.1 C8.94 1.19, 14.76 0.18, 16.68 -0.17 C18.59 -0.52, 17.59 0.73, 17.69 1.01 M12.79 -0.48 C15.85 -1.15, 20.91 0.12, 23.67 2.03 C26.42 3.94, 28.53 7.91, 29.31 11 C30.09 14.09, 29.63 17.66, 28.36 20.58 C27.09 23.5, 24.51 27.04, 21.7 28.5 C18.89 29.96, 14.55 30.13, 11.5 29.33 C8.45 28.53, 5.24 26.25, 3.4 23.69 C1.56 21.14, 0.45 17.16, 0.48 14.03 C0.5 10.9, 1.5 7.34, 3.55 4.91 C5.59 2.48, 11.15 0.33, 12.77 -0.54 C14.39 -1.41, 13.2 -0.55, 13.27 -0.29" stroke="#1e1e1e" stroke-width="2" fill="none"></path></g><g transform="translate(19.1015625 72.5) rotate(0 17.871986389160156 10)"><text x="0" y="0" font-family="Virgil, Segoe UI Emoji" font-size="16px" fill="#1e1e1e" text-anchor="start" style="white-space: pre;" direction="ltr" dominant-baseline="text-before-edge">User</text></g><g stroke-linecap="round"><g transform="translate(35 2067) rotate(0 0 10)"><path d="M0 0 C-0.56 6.76, 0.72 11.88, 0 20 M0 0 C0.17 5.25, -0.19 10.63, 0 20" stroke="#000" stroke-width="1" fill="none"></path></g></g><mask></mask><g stroke-linecap="round"><g transform="translate(17 2075) rotate(0 18 0)"><path d="M0 0 C11.25 0.82, 20.86 -0.17, 36 0 M0 0 C8.11 -0.21, 16.35 0.32, 36 0" stroke="#000" stroke-width="1" fill="none"></path></g></g><mask></mask><g stroke-linecap="round"><g transform="translate(17 2102) rotate(0 9 -7.5)"><path d="M0 0 C6.87 -6.03, 11.99 -10.9, 18 -15 M0 0 C4.1 -3.8, 8.9 -7.48, 18 -15" stroke="#000" stroke-width="1" fill="none"></path></g></g><mask></mask><g stroke-linecap="round"><g transform="translate(35 2087) rotate(0 8 7.5)"><path d="M0 0 C3.03 3.34, 7.15 6.64, 16 15 M0 0 C5.26 5.66, 10.71 10.96, 16 15" stroke="#000" stroke-width="1" fill="none"></path></g></g><mask></mask><g stroke-linecap="round" transform="translate(20 2037) rotate(0 15 15)"><path d="M12.22 0.1 C15.2 -0.59, 19.5 0.72, 22.24 2.44 C24.99 4.15, 27.53 7.43, 28.69 10.38 C29.86 13.32, 30.3 17.1, 29.24 20.1 C28.17 23.09, 25.16 26.67, 22.3 28.36 C19.44 30.06, 15.27 30.92, 12.06 30.25 C8.85 29.57, 5.07 26.77, 3.06 24.3 C1.05 21.83, -0.12 18.61, 0.02 15.43 C0.15 12.25, 1.8 7.75, 3.9 5.22 C5.99 2.69, 10.98 1.09, 12.57 0.23 C14.16 -0.63, 13.42 -0.21, 13.43 0.06 M12.29 -0.23 C15.29 -0.92, 19.94 0.54, 22.76 2.23 C25.58 3.92, 28.08 6.9, 29.2 9.89 C30.31 12.89, 30.54 17.15, 29.46 20.18 C28.37 23.21, 25.68 26.45, 22.69 28.08 C19.71 29.71, 14.85 30.68, 11.53 29.96 C8.21 29.24, 4.72 26.44, 2.78 23.78 C0.85 21.12, -0.17 17.23, -0.07 14.02 C0.03 10.81, 1.38 6.96, 3.41 4.54 C5.44 2.12, 10.45 0.06, 12.09 -0.5 C13.73 -1.06, 13.08 0.87, 13.25 1.16" stroke="#1e1e1e" stroke-width="2" fill="none"></path></g><g transform="translate(19.1015625 2099.5) rotate(0 17.871986389160156 10)"><text x="0" y="0" font-family="Virgil, Segoe UI Emoji" font-size="16px" fill="#1e1e1e" text-anchor="start" style="white-space: pre;" direction="ltr" dominant-baseline="text-before-edge">User</text></g><g stroke-linecap="round" transform="translate(238 15) rotate(0 75 32.5)"><path d="M0 0 C30.15 2.01, 61.99 0.53, 150 0 M0 0 C37.38 1.55, 72.72 0.9, 150 0 M150 0 C147.89 22.9, 149.67 50.17, 150 65 M150 0 C149.99 24.72, 149.16 47.74, 150 65 M150 65 C97.99 63.81, 43.55 64.88, 0 65 M150 65 C104.18 64.2, 57.72 64.43, 0 65 M0 65 C-1.9 50.3, -2.04 35.23, 0 0 M0 65 C1.21 51.6, 0.77 35.81, 0 0" stroke="#1e1e1e" stroke-width="2" fill="none"></path></g><g stroke-linecap="round" transform="translate(238 2042) rotate(0 75 32.5)"><path d="M0 0 C41.92 0.1, 81.39 -0.2, 150 0 M0 0 C57.6 -1.56, 114.23 -0.71, 150 0 M150 0 C149.36 15.61, 152.47 32.56, 150 65 M150 0 C150.17 17.31, 148.94 36.52, 150 65 M150 65 C113.26 64.42, 78.63 65.7, 0 65 M150 65 C104.61 66.52, 59.74 65.16, 0 65 M0 65 C0.27 41.59, -0.3 20.24, 0 0 M0 65 C1.5 50.9, 0.01 35.44, 0 0" stroke="#1e1e1e" stroke-width="2" fill="none"></path></g><g stroke-linecap="round" transform="translate(577 15) rotate(0 75 32.5)"><path d="M0 0 C33.81 -1.23, 68.16 0.91, 150 0 M0 0 C32.43 -0.81, 65.84 -1.07, 150 0 M150 0 C149.51 27.6, 150.91 51.03, 150 65 M150 0 C149.4 15.79, 150.6 32.5, 150 65 M150 65 C105.35 64.24, 63.07 64.23, 0 65 M150 65 C110.62 64.48, 69.29 64.87, 0 65 M0 65 C-1.28 49.42, -1.05 33.8, 0 0 M0 65 C-0.2 50.81, -1.3 37.87, 0 0" stroke="#1e1e1e" stroke-width="2" fill="none"></path></g><g stroke-linecap="round" transform="translate(577 2042) rotate(0 75 32.5)"><path d="M0 0 C35.03 -0.51, 72.71 -1.03, 150 0 M0 0 C58.94 0.91, 117.96 1.15, 150 0 M150 0 C151.44 15.4, 149.13 26.98, 150 65 M150 0 C149.53 20.92, 149.68 40.73, 150 65 M150 65 C99.97 64.38, 49.9 63.52, 0 65 M150 65 C95.68 65.12, 41.83 65.17, 0 65 M0 65 C-0.71 49.41, -1.52 35.2, 0 0 M0 65 C-1.17 40.11, -0.5 17.61, 0 0" stroke="#1e1e1e" stroke-width="2" fill="none"></path></g><g stroke-linecap="round" transform="translate(919 15) rotate(0 75 32.5)"><path d="M0 0 C51.15 2.02, 102.94 2.28, 150 0 M0 0 C50.34 -0.09, 100.21 -0.34, 150 0 M150 0 C151.48 14.94, 149.12 31.08, 150 65 M150 0 C150.06 21.92, 149.45 45.43, 150 65 M150 65 C113.02 65.03, 74.98 66.25, 0 65 M150 65 C108.7 65.22, 68.22 64.05, 0 65 M0 65 C-1 44.55, -1.22 28.67, 0 0 M0 65 C-1.01 39.67, 0.52 13.27, 0 0" stroke="#1e1e1e" stroke-width="2" fill="none"></path></g><g stroke-linecap="round" transform="translate(919 2042) rotate(0 75 32.5)"><path d="M0 0 C40.33 -0.8, 79.28 1.47, 150 0 M0 0 C42.49 -0.11, 85.35 -1.71, 150 0 M150 0 C150.14 18.8, 150.88 40.34, 150 65 M150 0 C148.88 14.9, 149.84 29.47, 150 65 M150 65 C113.14 64.47, 77.49 64.55, 0 65 M150 65 C96.38 63.12, 41.27 63.75, 0 65 M0 65 C-1.33 49.65, 1.65 39.74, 0 0 M0 65 C0.46 44.51, -0.52 21.78, 0 0" stroke="#1e1e1e" stroke-width="2" fill="none"></path></g><g stroke-linecap="round" transform="translate(1119 15) rotate(0 75 32.5)"><path d="M0 0 C39.58 0.68, 83.09 -1.48, 150 0 M0 0 C40.76 0.06, 78.97 0.94, 150 0 M150 0 C149.57 25.79, 151.41 49.64, 150 65 M150 0 C150.24 14.83, 149.81 28.45, 150 65 M150 65 C104.14 66.24, 59.03 66.2, 0 65 M150 65 C105.33 64.63, 62 64.56, 0 65 M0 65 C-1.29 49.4, 2.34 31.53, 0 0 M0 65 C1.24 48.36, -0.31 33.01, 0 0" stroke="#1e1e1e" stroke-width="2" fill="none"></path></g><g stroke-linecap="round" transform="translate(1119 2042) rotate(0 75 32.5)"><path d="M0 0 C38.33 1.86, 72.6 0.55, 150 0 M0 0 C54.89 -2.07, 111.53 -0.52, 150 0 M150 0 C150.13 25.19, 148.47 46.97, 150 65 M150 0 C149.93 22.31, 149.05 45.67, 150 65 M150 65 C104.79 63.9, 58.32 64.36, 0 65 M150 65 C115.69 63.82, 82.16 63.53, 0 65 M0 65 C1.91 52.52, 1.03 35.23, 0 0 M0 65 C-0.95 50.13, -0.55 37.66, 0 0" stroke="#1e1e1e" stroke-width="2" fill="none"></path></g><g stroke-linecap="round" transform="translate(1319 15) rotate(0 75 32.5)"><path d="M0 0 C57.91 -1.68, 113.89 0, 150 0 M0 0 C35.25 1.31, 72.68 2.01, 150 0 M150 0 C150.64 16.62, 148.17 37.03, 150 65 M150 0 C149.42 14.93, 149.95 31.03, 150 65 M150 65 C104.31 67.12, 59.67 64.39, 0 65 M150 65 C100.1 62.81, 50.02 62.93, 0 65 M0 65 C2.41 51.16, -0.57 34.6, 0 0 M0 65 C-1.31 44.44, 0.23 24.03, 0 0" stroke="#1e1e1e" stroke-width="2" fill="none"></path></g><g stroke-linecap="round" transform="translate(1319 2042) rotate(0 75 32.5)"><path d="M0 0 C32.31 -1.16, 66.55 -1.68, 150 0 M0 0 C59.45 1.87, 119.56 0.72, 150 0 M150 0 C148.71 15.02, 151.12 31.88, 150 65 M150 0 C149.68 18.89, 150.32 37.76, 150 65 M150 65 C111.22 64.41, 68.52 65.19, 0 65 M150 65 C114.91 64.47, 80.86 64.06, 0 65 M0 65 C0.06 50.24, -2.14 37.95, 0 0 M0 65 C0.08 41.68, -0.26 17.35, 0 0" stroke="#1e1e1e" stroke-width="2" fill="none"></path></g><g stroke-linecap="round" transform="translate(1519 15) rotate(0 75 32.5)"><path d="M0 0 C58.59 1.62, 117.35 2.11, 150 0 M0 0 C33.1 0.68, 64.11 -0.5, 150 0 M150 0 C148.76 21.44, 149.06 40.63, 150 65 M150 0 C149.67 21.79, 149.67 43.05, 150 65 M150 65 C95.61 64.36, 42.15 64.45, 0 65 M150 65 C117.32 62.83, 84.62 62.72, 0 65 M0 65 C-1.75 39.27, -0.42 18.3, 0 0 M0 65 C1.24 50.45, 0.9 38.49, 0 0" stroke="#1e1e1e" stroke-width="2" fill="none"></path></g><g stroke-linecap="round" transform="translate(1519 2042) rotate(0 75 32.5)"><path d="M0 0 C51.06 -0.7, 101.17 -1.19, 150 0 M0 0 C36.27 -1.62, 70.63 -1.25, 150 0 M150 0 C150.57 21.3, 149.36 45.76, 150 65 M150 0 C149.74 16.11, 149.31 32.83, 150 65 M150 65 C107.93 65.54, 67.5 63.2, 0 65 M150 65 C105.66 63.63, 62.02 65.12, 0 65 M0 65 C-1.86 39.76, 1.22 12.38, 0 0 M0 65 C-0.52 51.43, 1.23 38.11, 0 0" stroke="#1e1e1e" stroke-width="2" fill="none"></path></g><g stroke-linecap="round" transform="translate(1719 15) rotate(0 75 32.5)"><path d="M0 0 C41.89 0.85, 84.49 -2.34, 150 0 M0 0 C45.24 -1.55, 91.08 -0.63, 150 0 M150 0 C148.26 14.81, 150.17 28.95, 150 65 M150 0 C150.01 15.64, 150.62 31.66, 150 65 M150 65 C96.7 62.4, 40.43 63.65, 0 65 M150 65 C117.96 62.9, 88.2 64.71, 0 65 M0 65 C0.55 45.2, -1.41 20.92, 0 0 M0 65 C-0.1 49.63, 0.48 33, 0 0" stroke="#1e1e1e" stroke-width="2" fill="none"></path></g><g stroke-linecap="round" transform="translate(1719 2042) rotate(0 75 32.5)"><path d="M0 0 C41.72 -0.8, 78.34 0.98, 150 0 M0 0 C58.42 0.49, 118.22 -0.35, 150 0 M150 0 C150.14 15.17, 149.29 27.91, 150 65 M150 0 C149.73 20.2, 149.76 39.76, 150 65 M150 65 C104.6 63.79, 61.9 63.65, 0 65 M150 65 C109.87 64.51, 72.47 64.07, 0 65 M0 65 C1.93 47.47, -1.17 32.52, 0 0 M0 65 C1.45 42.01, 1.1 17.13, 0 0" stroke="#1e1e1e" stroke-width="2" fill="none"></path></g><g stroke-linecap="round" transform="translate(1919 15) rotate(0 75 32.5)"><path d="M0 0 C54.04 -2.7, 111.56 0.41, 150 0 M0 0 C56.11 1.15, 111.25 -0.09, 150 0 M150 0 C150.27 21.79, 148.51 45.68, 150 65 M150 0 C150.62 19.83, 150.6 40.18, 150 65 M150 65 C114.84 63.72, 81.24 63.15, 0 65 M150 65 C117.69 64.55, 84.23 63.06, 0 65 M0 65 C-1.84 49.27, -1.05 38.34, 0 0 M0 65 C0.71 51.51, -0.25 37.9, 0 0" stroke="#1e1e1e" stroke-width="2" fill="none"></path></g><g stroke-linecap="round" transform="translate(1919 2042) rotate(0 75 32.5)"><path d="M0 0 C34.62 1.35, 73.6 2.75, 150 0 M0 0 C42.01 -0.9, 82.32 0.3, 150 0 M150 0 C148.89 14.38, 149.96 31.13, 150 65 M150 0 C149.48 20.14, 149.71 38.31, 150 65 M150 65 C100.01 61.9, 49.63 62.13, 0 65 M150 65 C117.78 66.31, 83.16 65.2, 0 65 M0 65 C-2.17 43.94, 0.91 23.19, 0 0 M0 65 C-0.03 43.27, 0.41 22.26, 0 0" stroke="#1e1e1e" stroke-width="2" fill="none"></path></g><g stroke-linecap="round" transform="translate(10 90) rotate(0 1004.5 19.5)"><path d="M0 0 C795.78 5.81, 1592.1 4.88, 2009 0 M2009 0 C2007.67 8.4, 2010.08 18.63, 2009 39 M2009 39 C1425.12 34.82, 842.18 34.81, 0 39 M0 39 C0.95 28.47, -1.78 18.85, 0 0" stroke="#1e1e1e" stroke-width="2.5" fill="none" stroke-dasharray="8 10"></path></g><g stroke-linecap="round" transform="translate(10 583) rotate(0 1004.5 19.5)"><path d="M0 0 C431.63 0.33, 861.59 -0.61, 2009 0 M2009 0 C2007.64 13.27, 2007.94 24.3, 2009 39 M2009 39 C1338.56 34.72, 668.11 34.38, 0 39 M0 39 C-0.02 23.36, 0.76 9.35, 0 0" stroke="#1e1e1e" stroke-width="2.5" fill="none" stroke-dasharray="8 10"></path></g><g stroke-linecap="round" transform="translate(1569 1421) rotate(0 125 19.5)"><path d="M0 0 C60.43 -2.26, 117.73 -1.66, 250 0 M250 0 C250.75 12.29, 249.54 27.73, 250 39 M250 39 C188.2 39.04, 125.54 40.03, 0 39 M0 39 C-1.77 29.1, -1.68 16.23, 0 0" stroke="#1e1e1e" stroke-width="2.5" fill="none" stroke-dasharray="8 10"></path></g><g stroke-linecap="round"><g transform="translate(35 95) rotate(0 0 971)"><path d="M0 0 C7 588.33, 7.3 1177.76, 0 1942 M0 0 C-6.23 448.06, -5.85 895.98, 0 1942" stroke="#999" stroke-width="1" fill="none"></path></g></g><mask></mask><g stroke-linecap="round"><g transform="translate(313 80) rotate(0 0 981)"><path d="M0 0 C5.38 770.21, 6.11 1539.63, 0 1962 M0 0 C3.98 437.69, 3.81 874.89, 0 1962" stroke="#999" stroke-width="1" fill="none"></path></g></g><mask></mask><g stroke-linecap="round"><g transform="translate(652 80) rotate(0 0 981)"><path d="M0 0 C-1.7 732.48, -2.36 1463.59, 0 1962 M0 0 C-4.73 688.9, -5.08 1378.22, 0 1962" stroke="#999" stroke-width="1" fill="none"></path></g></g><mask></mask><g stroke-linecap="round"><g transform="translate(994 80) rotate(0 0 981)"><path d="M0 0 C-3.18 542.84, -4.17 1087.19, 0 1962 M0 0 C-0.96 466.69, -0.75 933.85, 0 1962" stroke="#999" stroke-width="1" fill="none"></path></g></g><mask></mask><g stroke-linecap="round"><g transform="translate(1194 80) rotate(0 0 981)"><path d="M0 0 C0.55 499.23, 1.51 999.2, 0 1962 M0 0 C2.43 569.8, 2.68 1139.6, 0 1962" stroke="#999" stroke-width="1" fill="none"></path></g></g><mask></mask><g stroke-linecap="round"><g transform="translate(1394 80) rotate(0 0 981)"><path d="M0 0 C3.06 616.52, 3.18 1232.14, 0 1962 M0 0 C-4.09 654.8, -4.09 1309.39, 0 1962" stroke="#999" stroke-width="1" fill="none"></path></g></g><mask></mask><g stroke-linecap="round"><g transform="translate(1594 80) rotate(0 0 981)"><path d="M0 0 C-5.03 680.01, -5.51 1361.28, 0 1962 M0 0 C-4.21 486.22, -4.39 972.69, 0 1962" stroke="#999" stroke-width="1" fill="none"></path></g></g><mask></mask><g stroke-linecap="round"><g transform="translate(1794 80) rotate(0 0 981)"><path d="M0 0 C-6.54 452.63, -5.77 905, 0 1962 M0 0 C0.1 482.14, 0.35 964.42, 0 1962" stroke="#999" stroke-width="1" fill="none"></path></g></g><mask></mask><g stroke-linecap="round"><g transform="translate(1994 80) rotate(0 0 981)"><path d="M0 0 C3.94 437.82, 3.6 874.68, 0 1962 M0 0 C0.62 591.31, 0.63 1182.37, 0 1962" stroke="#999" stroke-width="1" fill="none"></path></g></g><mask></mask><g mask="url(#mask-0I-abcKe2dnWU8o2OEuNy)" stroke-linecap="round"><g transform="translate(36 165) rotate(0 136.5 0)"><path d="M0.39 0.4 C45.51 0.42, 226.52 -0.6, 271.87 -0.65 M-1.13 -0.43 C44.34 -0.2, 228.78 0.23, 274.26 0.55" stroke="#1e1e1e" stroke-width="2" fill="none"></path></g><g transform="translate(36 165) rotate(0 136.5 0)"><path d="M250.73 8.99 C259.72 5.01, 266.22 3.11, 274.26 0.55 M250.73 8.99 C258.63 6.16, 265.89 3.77, 274.26 0.55" stroke="#1e1e1e" stroke-width="2" fill="none"></path></g><g transform="translate(36 165) rotate(0 136.5 0)"><path d="M250.8 -8.11 C259.66 -6.09, 266.14 -1.98, 274.26 0.55 M250.8 -8.11 C258.68 -5.65, 265.92 -2.74, 274.26 0.55" stroke="#1e1e1e" stroke-width="2" fill="none"></path></g></g><mask id="mask-0I-abcKe2dnWU8o2OEuNy"><rect x="0" y="0" fill="#fff" width="409" height="265"></rect><rect x="100.39605712890625" y="145" fill="#000" width="144.2078857421875" height="40" opacity="1"></rect></mask><g mask="url(#mask-x-zZ8cpMh4BPJ9_pH4fZn)" stroke-linecap="round"><g transform="translate(314 211) rotate(0 167 0)"><path d="M0.9 -0.63 C56.42 -0.6, 277.4 -0.09, 332.85 0.02 M-0.34 1.66 C55.63 1.9, 279.68 1.62, 335.22 1.56" stroke="#1e1e1e" stroke-width="2" fill="none"></path></g><g transform="translate(314 211) rotate(0 167 0)"><path d="M311.74 10.14 C316.29 6.93, 322.95 6.17, 335.22 1.56 M311.74 10.14 C318.53 8.01, 325.82 4.07, 335.22 1.56" stroke="#1e1e1e" stroke-width="2" fill="none"></path></g><g transform="translate(314 211) rotate(0 167 0)"><path d="M311.72 -6.97 C316.26 -6.1, 322.92 -2.8, 335.22 1.56 M311.72 -6.97 C318.46 -3.95, 325.75 -2.75, 335.22 1.56" stroke="#1e1e1e" stroke-width="2" fill="none"></path></g></g><mask id="mask-x-zZ8cpMh4BPJ9_pH4fZn"><rect x="0" y="0" fill="#fff" width="748" height="311"></rect><rect x="367.23207092285156" y="201" fill="#000" width="227.53585815429688" height="20" opacity="1"></rect></mask><g mask="url(#mask-vJIeag_xg2ouj0356lADZ)" stroke-linecap="round"><g transform="translate(653 257) rotate(0 168.5 0)"><path d="M-0.13 -0.65 C55.9 -0.7, 280.41 0.07, 336.52 0.12 M1.75 1.62 C57.62 1.75, 279.91 1.87, 335.57 1.71" stroke="#1e1e1e" stroke-width="2" fill="none"></path></g><g transform="translate(653 257) rotate(0 168.5 0)"><path d="M312.09 10.28 C317.8 7.94, 325.89 5.44, 335.57 1.71 M312.09 10.28 C318.89 8, 323.78 6.11, 335.57 1.71" stroke="#1e1e1e" stroke-width="2" fill="none"></path></g><g transform="translate(653 257) rotate(0 168.5 0)"><path d="M312.08 -6.82 C317.84 -4.19, 325.95 -1.73, 335.57 1.71 M312.08 -6.82 C318.99 -4.54, 323.88 -1.88, 335.57 1.71" stroke="#1e1e1e" stroke-width="2" fill="none"></path></g></g><mask id="mask-vJIeag_xg2ouj0356lADZ"><rect x="0" y="0" fill="#fff" width="1090" height="357"></rect><rect x="727.1880722045898" y="247" fill="#000" width="188.6238555908203" height="20" opacity="1"></rect></mask><g mask="url(#mask-ytqR9VC3861HWAShKAS01)" stroke-linecap="round"><g transform="translate(993 303) rotate(0 -168.5 0)"><path d="M-1.15 0.02 C-57.2 0.12, -280.43 -0.11, -336.38 0.01" stroke="#1e1e1e" stroke-width="2.5" fill="none" stroke-dasharray="1.5 8"></path></g><g transform="translate(993 303) rotate(0 -168.5 0)"><path d="M-312.9 -8.55 C-320.75 -5.63, -328.61 -3.64, -336.38 0.01" stroke="#1e1e1e" stroke-width="2.5" fill="none" stroke-dasharray="1.5 6"></path></g><g transform="translate(993 303) rotate(0 -168.5 0)"><path d="M-312.89 8.55 C-320.66 5.76, -328.51 2.05, -336.38 0.01" stroke="#1e1e1e" stroke-width="2.5" fill="none" stroke-dasharray="1.5 6"></path></g></g><mask id="mask-ytqR9VC3861HWAShKAS01"><rect x="0" y="0" fill="#fff" width="1430" height="403"></rect><rect x="737.1880645751953" y="283" fill="#000" width="174.62387084960938" height="40" opacity="1"></rect></mask><g mask="url(#mask-e8iVNJzw3McXo6UQQeCCb)" stroke-linecap="round"><g transform="translate(653 349) rotate(0 32.97188226900687 10.224495359885537)"><path d="M-0.48 -0.38 C9.7 -1.93, 49.8 -15.41, 60.01 -10.4 C70.21 -5.4, 70.54 24.51, 60.74 29.64 C50.94 34.78, 11.41 21.88, 1.22 20.42 M-1.94 -1.37 C8.15 -2.69, 48.68 -14.43, 59.06 -9.08 C69.45 -3.72, 69.9 25.68, 60.36 30.77 C50.82 35.86, 11.68 23.03, 1.84 21.48" stroke="#1e1e1e" stroke-width="2" fill="none"></path></g><g transform="translate(653 349) rotate(0 32.97188226900687 10.224495359885537)"><path d="M26.68 18.66 C20.7 19.37, 13.68 21.29, 1.84 21.48 M26.68 18.66 C19.21 19.72, 12.55 19.32, 1.84 21.48" stroke="#1e1e1e" stroke-width="2" fill="none"></path></g><g transform="translate(653 349) rotate(0 32.97188226900687 10.224495359885537)"><path d="M22.68 35.29 C17.78 31.88, 11.75 29.68, 1.84 21.48 M22.68 35.29 C16.19 31.86, 10.61 26.96, 1.84 21.48" stroke="#1e1e1e" stroke-width="2" fill="none"></path></g></g><mask id="mask-e8iVNJzw3McXo6UQQeCCb"><rect x="0" y="0" fill="#fff" width="813" height="489"></rect><rect x="633.8870100964464" y="348.96745924454194" fill="#000" width="173.98390197753906" height="20" opacity="1"></rect></mask><g mask="url(#mask-wyv9Fsr9Trh-nfMnjLE16)" stroke-linecap="round"><g transform="translate(653 425) rotate(0 268.5 0)"><path d="M0.62 0.01 C89.99 0.13, 446.84 0.62, 536.1 0.74 M-0.78 -1.03 C88.45 -1.26, 445.61 -0.96, 534.94 -0.99" stroke="#1e1e1e" stroke-width="2" fill="none"></path></g><g transform="translate(653 425) rotate(0 268.5 0)"><path d="M511.44 7.55 C517.23 4.76, 524.23 2.73, 534.94 -0.99 M511.44 7.55 C520.22 3.94, 527.5 1.49, 534.94 -0.99" stroke="#1e1e1e" stroke-width="2" fill="none"></path></g><g transform="translate(653 425) rotate(0 268.5 0)"><path d="M511.45 -9.55 C517.24 -8.14, 524.23 -5.96, 534.94 -0.99 M511.45 -9.55 C520.21 -7.02, 527.49 -3.31, 534.94 -0.99" stroke="#1e1e1e" stroke-width="2" fill="none"></path></g></g><mask id="mask-wyv9Fsr9Trh-nfMnjLE16"><rect x="0" y="0" fill="#fff" width="1290" height="525"></rect><rect x="754.0361175537109" y="415" fill="#000" width="334.9277648925781" height="20" opacity="1"></rect></mask><g mask="url(#mask-mHeHg_OYouf7-uqjb0MXv)" stroke-linecap="round"><g transform="translate(653 471) rotate(0 368.5 0)"><path d="M0.51 -0.4 C123.29 -0.48, 614.46 -0.41, 737.24 -0.36 M-0.95 -1.66 C121.75 -1.57, 613.72 0.52, 736.68 0.99" stroke="#1e1e1e" stroke-width="2" fill="none"></path></g><g transform="translate(653 471) rotate(0 368.5 0)"><path d="M713.15 9.45 C719.56 8.13, 726.72 5.54, 736.68 0.99 M713.15 9.45 C719.39 6.05, 726.91 3.5, 736.68 0.99" stroke="#1e1e1e" stroke-width="2" fill="none"></path></g><g transform="translate(653 471) rotate(0 368.5 0)"><path d="M713.22 -7.65 C719.63 -3.82, 726.77 -1.25, 736.68 0.99 M713.22 -7.65 C719.31 -6.04, 726.8 -3.58, 736.68 0.99" stroke="#1e1e1e" stroke-width="2" fill="none"></path></g></g><mask id="mask-mHeHg_OYouf7-uqjb0MXv"><rect x="0" y="0" fill="#fff" width="1490" height="571"></rect><rect x="959.8120269775391" y="461" fill="#000" width="123.37594604492188" height="20" opacity="1"></rect></mask><g mask="url(#mask-xObFTK4A2uzen8ocaIVjU)" stroke-linecap="round"><g transform="translate(653 517) rotate(0 668.5 0)"><path d="M0.1 0.74 C222.69 0.86, 1113.42 0.99, 1336.14 0.72 M2.09 0.08 C224.48 -0.14, 1112.75 -1, 1335.01 -1.03" stroke="#1e1e1e" stroke-width="2" fill="none"></path></g><g transform="translate(653 517) rotate(0 668.5 0)"><path d="M1311.52 7.53 C1320.02 4.36, 1327.25 2.17, 1335.01 -1.03 M1311.52 7.53 C1315.88 5.69, 1321.05 3.5, 1335.01 -1.03" stroke="#1e1e1e" stroke-width="2" fill="none"></path></g><g transform="translate(653 517) rotate(0 668.5 0)"><path d="M1311.51 -9.57 C1320.02 -7.44, 1327.25 -4.34, 1335.01 -1.03 M1311.51 -9.57 C1315.93 -7.59, 1321.1 -5.98, 1335.01 -1.03" stroke="#1e1e1e" stroke-width="2" fill="none"></path></g></g><mask id="mask-xObFTK4A2uzen8ocaIVjU"><rect x="0" y="0" fill="#fff" width="2090" height="617"></rect><rect x="1234.7000427246094" y="507" fill="#000" width="173.59991455078125" height="20" opacity="1"></rect></mask><g mask="url(#mask-YN1bDLaDgactGxGd7kyBT)" stroke-linecap="round"><g transform="translate(651 563) rotate(0 -167 0)"><path d="M0.24 -0.36 C-55.14 -0.3, -277.01 -0.21, -332.78 -0.08" stroke="#1e1e1e" stroke-width="2.5" fill="none" stroke-dasharray="1.5 8"></path></g><g transform="translate(651 563) rotate(0 -167 0)"><path d="M-309.3 -8.66 C-316.99 -4.75, -323.59 -4.9, -332.78 -0.08" stroke="#1e1e1e" stroke-width="2.5" fill="none" stroke-dasharray="1.5 6"></path></g><g transform="translate(651 563) rotate(0 -167 0)"><path d="M-309.28 8.44 C-316.92 7.21, -323.52 1.92, -332.78 -0.08" stroke="#1e1e1e" stroke-width="2.5" fill="none" stroke-dasharray="1.5 6"></path></g></g><mask id="mask-YN1bDLaDgactGxGd7kyBT"><rect x="0" y="0" fill="#fff" width="1085" height="663"></rect><rect x="369.04805755615234" y="553" fill="#000" width="229.9038848876953" height="20" opacity="1"></rect></mask><g mask="url(#mask-9nUFeM-tfKk3hPl-3i135)" stroke-linecap="round"><g transform="translate(36 658) rotate(0 136.5 0)"><path d="M0.14 0.72 C45.53 0.44, 226.96 -0.66, 272.42 -0.92 M2.16 0.05 C47.41 -0.17, 226.4 0.14, 271.42 0.13" stroke="#1e1e1e" stroke-width="2" fill="none"></path></g><g transform="translate(36 658) rotate(0 136.5 0)"><path d="M247.92 8.66 C255.33 6.32, 258.86 4.82, 271.42 0.13 M247.92 8.66 C252.43 6.36, 257.9 4.01, 271.42 0.13" stroke="#1e1e1e" stroke-width="2" fill="none"></path></g><g transform="translate(36 658) rotate(0 136.5 0)"><path d="M247.94 -8.44 C255.44 -6.23, 258.97 -3.16, 271.42 0.13 M247.94 -8.44 C252.3 -6.85, 257.77 -5.3, 271.42 0.13" stroke="#1e1e1e" stroke-width="2" fill="none"></path></g></g><mask id="mask-9nUFeM-tfKk3hPl-3i135"><rect x="0" y="0" fill="#fff" width="409" height="758"></rect><rect x="91.76405334472656" y="648" fill="#000" width="161.47189331054688" height="20" opacity="1"></rect></mask><g mask="url(#mask-VXQ8g1svzqhydKOhgxTd1)" stroke-linecap="round"><g transform="translate(314 704) rotate(0 167 0)"><path d="M1.22 -0.08 C56.44 0.04, 277.34 0.54, 332.58 0.38 M0.13 -1.17 C55.66 -1.39, 278.98 -1.69, 334.8 -1.54" stroke="#1e1e1e" stroke-width="2" fill="none"></path></g><g transform="translate(314 704) rotate(0 167 0)"><path d="M311.31 7 C319.69 2.24, 328.97 -0.76, 334.8 -1.54 M311.31 7 C315.99 4.58, 320.64 2.64, 334.8 -1.54" stroke="#1e1e1e" stroke-width="2" fill="none"></path></g><g transform="translate(314 704) rotate(0 167 0)"><path d="M311.32 -10.1 C319.64 -8.68, 328.92 -5.49, 334.8 -1.54 M311.32 -10.1 C315.98 -8.84, 320.63 -7.1, 334.8 -1.54" stroke="#1e1e1e" stroke-width="2" fill="none"></path></g></g><mask id="mask-VXQ8g1svzqhydKOhgxTd1"><rect x="0" y="0" fill="#fff" width="748" height="804"></rect><rect x="369.5840759277344" y="684" fill="#000" width="222.83184814453125" height="40" opacity="1"></rect></mask><g mask="url(#mask-09f59c3jxCvIEV0qbYo54)" stroke-linecap="round"><g transform="translate(653 750) rotate(0 268.5 0)"><path d="M0.42 -0.92 C89.87 -1.19, 447.71 -1, 536.88 -0.87 M-1.09 1.21 C88.28 1.01, 446.32 0.23, 536.14 0.22" stroke="#1e1e1e" stroke-width="2" fill="none"></path></g><g transform="translate(653 750) rotate(0 268.5 0)"><path d="M512.66 8.8 C517.41 7.14, 523.85 2.48, 536.14 0.22 M512.66 8.8 C518.75 5.61, 525.46 4.61, 536.14 0.22" stroke="#1e1e1e" stroke-width="2" fill="none"></path></g><g transform="translate(653 750) rotate(0 268.5 0)"><path d="M512.63 -8.3 C517.5 -5.35, 523.94 -5.38, 536.14 0.22 M512.63 -8.3 C518.58 -6.53, 525.29 -2.57, 536.14 0.22" stroke="#1e1e1e" stroke-width="2" fill="none"></path></g></g><mask id="mask-09f59c3jxCvIEV0qbYo54"><rect x="0" y="0" fill="#fff" width="1290" height="850"></rect><rect x="833.9000701904297" y="740" fill="#000" width="175.19985961914062" height="20" opacity="1"></rect></mask><g mask="url(#mask-AAQ8GUqrCuqcrbPH94sBw)" stroke-linecap="round"><g transform="translate(1193 841) rotate(0 -268.5 0)"><path d="M-1.42 0.38 C-91.02 0.23, -448.17 -0.77, -537.37 -1.02" stroke="#1e1e1e" stroke-width="2.5" fill="none" stroke-dasharray="1.5 8"></path></g><g transform="translate(1193 841) rotate(0 -268.5 0)"><path d="M-513.85 -9.5 C-521.67 -8.08, -532.46 -3.78, -537.37 -1.02" stroke="#1e1e1e" stroke-width="2.5" fill="none" stroke-dasharray="1.5 6"></path></g><g transform="translate(1193 841) rotate(0 -268.5 0)"><path d="M-513.9 7.6 C-521.69 2.88, -532.46 1.03, -537.37 -1.02" stroke="#1e1e1e" stroke-width="2.5" fill="none" stroke-dasharray="1.5 6"></path></g></g><mask id="mask-AAQ8GUqrCuqcrbPH94sBw"><rect x="0" y="0" fill="#fff" width="1830" height="941"></rect><rect x="846.5800552368164" y="831" fill="#000" width="155.8398895263672" height="20" opacity="1"></rect></mask><g mask="url(#mask-uGct6oMzd2qubDcdAUcb2)" stroke-linecap="round"><g transform="translate(653 887) rotate(0 668.5 0)"><path d="M0.88 -0.87 C223.4 -0.73, 1113.06 -0.18, 1335.48 -0.12 M-0.37 1.29 C222.51 1.7, 1114.65 1.47, 1337.66 1.36" stroke="#1e1e1e" stroke-width="2" fill="none"></path></g><g transform="translate(653 887) rotate(0 668.5 0)"><path d="M1314.17 9.92 C1319.68 5.64, 1327.81 2.99, 1337.66 1.36 M1314.17 9.92 C1319.48 8.56, 1327.43 5.89, 1337.66 1.36" stroke="#1e1e1e" stroke-width="2" fill="none"></path></g><g transform="translate(653 887) rotate(0 668.5 0)"><path d="M1314.17 -7.18 C1319.54 -6.45, 1327.67 -4.09, 1337.66 1.36 M1314.17 -7.18 C1319.34 -4.07, 1327.3 -2.27, 1337.66 1.36" stroke="#1e1e1e" stroke-width="2" fill="none"></path></g></g><mask id="mask-uGct6oMzd2qubDcdAUcb2"><rect x="0" y="0" fill="#fff" width="2090" height="987"></rect><rect x="1245.9800491333008" y="877" fill="#000" width="151.03990173339844" height="20" opacity="1"></rect></mask><g mask="url(#mask-5zDpH9rRKFb5Q_Jsc8WTi)" stroke-linecap="round"><g transform="translate(651 933) rotate(0 -167 0)"><path d="M-1.37 -1.02 C-56.73 -1.26, -278.18 -1.11, -333.62 -1.1" stroke="#1e1e1e" stroke-width="2.5" fill="none" stroke-dasharray="1.5 8"></path></g><g transform="translate(651 933) rotate(0 -167 0)"><path d="M-310.13 -9.66 C-317.04 -8.11, -322.41 -6.78, -333.62 -1.1" stroke="#1e1e1e" stroke-width="2.5" fill="none" stroke-dasharray="1.5 6"></path></g><g transform="translate(651 933) rotate(0 -167 0)"><path d="M-310.12 7.44 C-317.08 5.17, -322.47 2.69, -333.62 -1.1" stroke="#1e1e1e" stroke-width="2.5" fill="none" stroke-dasharray="1.5 6"></path></g></g><mask id="mask-5zDpH9rRKFb5Q_Jsc8WTi"><rect x="0" y="0" fill="#fff" width="1085" height="1033"></rect><rect x="419.6560363769531" y="923" fill="#000" width="128.68792724609375" height="20" opacity="1"></rect></mask><g mask="url(#mask-_yknZPEeJKinP_uH0fL9T)" stroke-linecap="round"><g transform="translate(1193 1024) rotate(0 -268.5 0)"><path d="M-1.52 -0.12 C-91.1 -0.05, -448.28 -0.32, -537.6 -0.46" stroke="#1e1e1e" stroke-width="2.5" fill="none" stroke-dasharray="1.5 8"></path></g><g transform="translate(1193 1024) rotate(0 -268.5 0)"><path d="M-514.1 -8.99 C-522.16 -8.19, -530.54 -5.12, -537.6 -0.46" stroke="#1e1e1e" stroke-width="2.5" fill="none" stroke-dasharray="1.5 6"></path></g><g transform="translate(1193 1024) rotate(0 -268.5 0)"><path d="M-514.12 8.11 C-522.05 3.23, -530.42 0.62, -537.6 -0.46" stroke="#1e1e1e" stroke-width="2.5" fill="none" stroke-dasharray="1.5 6"></path></g></g><mask id="mask-_yknZPEeJKinP_uH0fL9T"><rect x="0" y="0" fill="#fff" width="1830" height="1124"></rect><rect x="900.5480117797852" y="1014" fill="#000" width="47.90397644042969" height="20" opacity="1"></rect></mask><g mask="url(#mask-EL0bFqAbHuzXpe5NJOgj3)" stroke-linecap="round"><g transform="translate(653 1070) rotate(0 168.5 0)"><path d="M0.38 -1.1 C56.45 -1.09, 280.18 -0.96, 336.04 -0.96 M-1.14 0.94 C54.81 1.16, 278.33 0.29, 334.85 0.08" stroke="#1e1e1e" stroke-width="2" fill="none"></path></g><g transform="translate(653 1070) rotate(0 168.5 0)"><path d="M311.39 8.71 C314.97 6, 320.55 3.22, 334.85 0.08 M311.39 8.71 C316.5 6.11, 320.31 4.97, 334.85 0.08" stroke="#1e1e1e" stroke-width="2" fill="none"></path></g><g transform="translate(653 1070) rotate(0 168.5 0)"><path d="M311.32 -8.39 C314.78 -7.21, 320.37 -6.09, 334.85 0.08 M311.32 -8.39 C316.57 -7.41, 320.39 -4.97, 334.85 0.08" stroke="#1e1e1e" stroke-width="2" fill="none"></path></g></g><mask id="mask-EL0bFqAbHuzXpe5NJOgj3"><rect x="0" y="0" fill="#fff" width="1090" height="1170"></rect><rect x="729.8280639648438" y="1060" fill="#000" width="183.3438720703125" height="20" opacity="1"></rect></mask><g mask="url(#mask-pelK24TqNX6RTLAyCy2fh)" stroke-linecap="round"><g transform="translate(653 1116) rotate(0 168.5 0)"><path d="M-0.6 -0.46 C55.41 -0.6, 279.54 -1.17, 335.54 -0.95 M1.02 -1.75 C57.49 -1.76, 281.63 -0.03, 337.75 0.09" stroke="#1e1e1e" stroke-width="2" fill="none"></path></g><g transform="translate(653 1116) rotate(0 168.5 0)"><path d="M314.21 8.52 C318.52 5.32, 322.77 3.29, 337.75 0.09 M314.21 8.52 C322.26 4.49, 331.64 2.91, 337.75 0.09" stroke="#1e1e1e" stroke-width="2" fill="none"></path></g><g transform="translate(653 1116) rotate(0 168.5 0)"><path d="M314.3 -8.58 C318.57 -8.1, 322.81 -6.45, 337.75 0.09 M314.3 -8.58 C322.48 -6.28, 331.81 -1.54, 337.75 0.09" stroke="#1e1e1e" stroke-width="2" fill="none"></path></g></g><mask id="mask-pelK24TqNX6RTLAyCy2fh"><rect x="0" y="0" fill="#fff" width="1090" height="1216"></rect><rect x="751.4360427856445" y="1106" fill="#000" width="140.12791442871094" height="20" opacity="1"></rect></mask><g mask="url(#mask-gUxwnmiXI63O-MeSTidNf)" stroke-linecap="round"><g transform="translate(993 1162) rotate(0 -168.5 0)"><path d="M-0.96 -0.96 C-57.1 -0.96, -281.67 -1.43, -337.45 -1.09" stroke="#1e1e1e" stroke-width="2.5" fill="none" stroke-dasharray="1.5 8"></path></g><g transform="translate(993 1162) rotate(0 -168.5 0)"><path d="M-313.97 -9.67 C-322.46 -8.85, -329.49 -3.38, -337.45 -1.09" stroke="#1e1e1e" stroke-width="2.5" fill="none" stroke-dasharray="1.5 6"></path></g><g transform="translate(993 1162) rotate(0 -168.5 0)"><path d="M-313.95 7.43 C-322.29 3.28, -329.32 3.79, -337.45 -1.09" stroke="#1e1e1e" stroke-width="2.5" fill="none" stroke-dasharray="1.5 6"></path></g></g><mask id="mask-gUxwnmiXI63O-MeSTidNf"><rect x="0" y="0" fill="#fff" width="1430" height="1262"></rect><rect x="707.612060546875" y="1152" fill="#000" width="233.77587890625" height="20" opacity="1"></rect></mask><g mask="url(#mask-j5H30YCT9-K0c80WBsvtW)" stroke-linecap="round"><g transform="translate(653 1253) rotate(0 568.5 0)"><path d="M-0.46 -0.95 C188.88 -0.73, 945.74 0.63, 1135.41 0.84 M1.24 1.17 C191.03 1.09, 948.19 -0.95, 1137.55 -0.84" stroke="#1e1e1e" stroke-width="2" fill="none"></path></g><g transform="translate(653 1253) rotate(0 568.5 0)"><path d="M1114.07 7.74 C1117.41 4.32, 1125.29 6.17, 1137.55 -0.84 M1114.07 7.74 C1121.86 5.83, 1128.53 1.48, 1137.55 -0.84" stroke="#1e1e1e" stroke-width="2" fill="none"></path></g><g transform="translate(653 1253) rotate(0 568.5 0)"><path d="M1114.05 -9.36 C1117.33 -9.21, 1125.21 -3.81, 1137.55 -0.84 M1114.05 -9.36 C1121.75 -5.7, 1128.43 -4.47, 1137.55 -0.84" stroke="#1e1e1e" stroke-width="2" fill="none"></path></g></g><mask id="mask-j5H30YCT9-K0c80WBsvtW"><rect x="0" y="0" fill="#fff" width="1890" height="1353"></rect><rect x="1115.060073852539" y="1243" fill="#000" width="212.87985229492188" height="20" opacity="1"></rect></mask><g mask="url(#mask-7Zj-SwehsaIbDMutLstV3)" stroke-linecap="round"><g transform="translate(653 1309) rotate(0 168.5 0)"><path d="M-0.45 -1.09 C55.77 -0.75, 281.13 1.03, 337.34 1.09 M1.25 0.96 C57.43 1.07, 281.01 -0.34, 336.83 -0.46" stroke="#1e1e1e" stroke-width="2" fill="none"></path></g><g transform="translate(653 1309) rotate(0 168.5 0)"><path d="M313.38 8.2 C317.77 7.52, 327.53 4.37, 336.83 -0.46 M313.38 8.2 C319.82 5.19, 323.95 3.49, 336.83 -0.46" stroke="#1e1e1e" stroke-width="2" fill="none"></path></g><g transform="translate(653 1309) rotate(0 168.5 0)"><path d="M313.3 -8.9 C317.57 -5.11, 327.36 -3.78, 336.83 -0.46 M313.3 -8.9 C319.62 -7.77, 323.77 -5.33, 336.83 -0.46" stroke="#1e1e1e" stroke-width="2" fill="none"></path></g></g><mask id="mask-7Zj-SwehsaIbDMutLstV3"><rect x="0" y="0" fill="#fff" width="1090" height="1409"></rect><rect x="738.7240600585938" y="1289" fill="#000" width="165.5518798828125" height="40" opacity="1"></rect></mask><g mask="url(#mask-RBIBlywKfgdFQCgmJe0jp)" stroke-linecap="round"><g transform="translate(653 1355) rotate(0 168.5 0)"><path d="M-0.59 0.84 C55.75 1.05, 281.53 0.62, 337.59 0.31 M1.04 0.23 C57.41 0.15, 281.61 -1.57, 337.22 -1.65" stroke="#1e1e1e" stroke-width="2" fill="none"></path></g><g transform="translate(653 1355) rotate(0 168.5 0)"><path d="M313.77 7.02 C320.4 7.14, 324.68 2.26, 337.22 -1.65 M313.77 7.02 C317.92 4.13, 323.37 3.8, 337.22 -1.65" stroke="#1e1e1e" stroke-width="2" fill="none"></path></g><g transform="translate(653 1355) rotate(0 168.5 0)"><path d="M313.68 -10.08 C320.19 -6.19, 324.49 -7.31, 337.22 -1.65 M313.68 -10.08 C317.87 -9.29, 323.34 -5.93, 337.22 -1.65" stroke="#1e1e1e" stroke-width="2" fill="none"></path></g></g><mask id="mask-RBIBlywKfgdFQCgmJe0jp"><rect x="0" y="0" fill="#fff" width="1090" height="1455"></rect><rect x="787.4920196533203" y="1345" fill="#000" width="68.01596069335938" height="20" opacity="1"></rect></mask><g mask="url(#mask-HgaTt8RXuVU9kSy5tUvnH)" stroke-linecap="round"><g transform="translate(651 1401) rotate(0 -167 0)"><path d="M0.34 1.09 C-54.95 1.16, -277.38 -0.53, -333.19 -0.69" stroke="#1e1e1e" stroke-width="2.5" fill="none" stroke-dasharray="1.5 8"></path></g><g transform="translate(651 1401) rotate(0 -167 0)"><path d="M-309.65 -9.12 C-313.11 -6.57, -321.28 -6.92, -333.19 -0.69" stroke="#1e1e1e" stroke-width="2.5" fill="none" stroke-dasharray="1.5 6"></path></g><g transform="translate(651 1401) rotate(0 -167 0)"><path d="M-309.74 7.99 C-313.02 6.75, -321.18 2.63, -333.19 -0.69" stroke="#1e1e1e" stroke-width="2.5" fill="none" stroke-dasharray="1.5 6"></path></g></g><mask id="mask-HgaTt8RXuVU9kSy5tUvnH"><rect x="0" y="0" fill="#fff" width="1085" height="1501"></rect><rect x="395.47206115722656" y="1391" fill="#000" width="177.05587768554688" height="20" opacity="1"></rect></mask><g mask="url(#mask-3v3bOK5gWX9bd2VpClEgX)" stroke-linecap="round"><g transform="translate(1793 1496) rotate(0 -568.5 0)"><path d="M0.59 0.31 C-188.67 0, -947.69 -1.1, -1137.19 -1.01 M-0.29 -0.57 C-189.07 -0.84, -945.38 0.08, -1134.84 -0.01" stroke="#1e1e1e" stroke-width="2" fill="none"></path></g><g transform="translate(1793 1496) rotate(0 -568.5 0)"><path d="M-1111.36 -8.57 C-1115.7 -7.72, -1122.82 -4.6, -1134.84 -0.01 M-1111.36 -8.57 C-1120.6 -4.93, -1129.61 -2.11, -1134.84 -0.01" stroke="#1e1e1e" stroke-width="2" fill="none"></path></g><g transform="translate(1793 1496) rotate(0 -568.5 0)"><path d="M-1111.35 8.53 C-1115.81 5.8, -1122.94 5.34, -1134.84 -0.01 M-1111.35 8.53 C-1120.44 5.86, -1129.46 2.36, -1134.84 -0.01" stroke="#1e1e1e" stroke-width="2" fill="none"></path></g></g><mask id="mask-3v3bOK5gWX9bd2VpClEgX"><rect x="0" y="0" fill="#fff" width="3030" height="1596"></rect><rect x="1123.012062072754" y="1486" fill="#000" width="202.9758758544922" height="20" opacity="1"></rect></mask><g mask="url(#mask-VWXfaOGlByDzNtc8Uf0PU)" stroke-linecap="round"><g transform="translate(653 1542) rotate(0 468.5 0)"><path d="M0.81 -0.69 C156.5 -0.86, 779.4 0.17, 935.49 0.1 M-0.49 1.56 C155.49 2.12, 781.42 2.01, 937.67 1.7" stroke="#1e1e1e" stroke-width="2" fill="none"></path></g><g transform="translate(653 1542) rotate(0 468.5 0)"><path d="M914.18 10.27 C921.64 5.35, 931.65 5.25, 937.67 1.7 M914.18 10.27 C919.89 7.74, 924.5 7.67, 937.67 1.7" stroke="#1e1e1e" stroke-width="2" fill="none"></path></g><g transform="translate(653 1542) rotate(0 468.5 0)"><path d="M914.17 -6.83 C921.78 -5.43, 931.8 0.8, 937.67 1.7 M914.17 -6.83 C919.73 -5.76, 924.34 -2.21, 937.67 1.7" stroke="#1e1e1e" stroke-width="2" fill="none"></path></g></g><mask id="mask-VWXfaOGlByDzNtc8Uf0PU"><rect x="0" y="0" fill="#fff" width="1690" height="1642"></rect><rect x="1024.9400634765625" y="1532" fill="#000" width="193.119873046875" height="20" opacity="1"></rect></mask><g mask="url(#mask-if57LKgW1pE1te7EeaJJ3)" stroke-linecap="round"><g transform="translate(1593 1588) rotate(0 -468.5 0)"><path d="M-1.19 -1.01 C-157.36 -0.93, -780.33 0.83, -936.4 0.83" stroke="#1e1e1e" stroke-width="2.5" fill="none" stroke-dasharray="1.5 8"></path></g><g transform="translate(1593 1588) rotate(0 -468.5 0)"><path d="M-912.92 -7.76 C-923.77 -4.36, -929.87 -2.96, -936.4 0.83" stroke="#1e1e1e" stroke-width="2.5" fill="none" stroke-dasharray="1.5 6"></path></g><g transform="translate(1593 1588) rotate(0 -468.5 0)"><path d="M-912.89 9.34 C-923.79 6.05, -929.91 0.77, -936.4 0.83" stroke="#1e1e1e" stroke-width="2.5" fill="none" stroke-dasharray="1.5 6"></path></g></g><mask id="mask-if57LKgW1pE1te7EeaJJ3"><rect x="0" y="0" fill="#fff" width="2630" height="1688"></rect><rect x="1043.6280364990234" y="1578" fill="#000" width="161.74392700195312" height="20" opacity="1"></rect></mask><g mask="url(#mask--yKZnX_aJsMBvesqMhO9l)" stroke-linecap="round"><g transform="translate(1793 1634) rotate(0 -568.5 0)"><path d="M-1.51 0.1 C-190.76 0.04, -946.33 -0.95, -1135.67 -1.07 M0.16 -0.89 C-189.2 -0.78, -946.96 -0.31, -1136.18 -0.09" stroke="#1e1e1e" stroke-width="2" fill="none"></path></g><g transform="translate(1793 1634) rotate(0 -568.5 0)"><path d="M-1112.7 -8.66 C-1120.22 -4.69, -1129.83 -5, -1136.18 -0.09 M-1112.7 -8.66 C-1118.18 -5.81, -1123.47 -4.01, -1136.18 -0.09" stroke="#1e1e1e" stroke-width="2" fill="none"></path></g><g transform="translate(1793 1634) rotate(0 -568.5 0)"><path d="M-1112.68 8.44 C-1120.12 6.84, -1129.73 0.96, -1136.18 -0.09 M-1112.68 8.44 C-1118.29 7.01, -1123.58 4.52, -1136.18 -0.09" stroke="#1e1e1e" stroke-width="2" fill="none"></path></g></g><mask id="mask--yKZnX_aJsMBvesqMhO9l"><rect x="0" y="0" fill="#fff" width="3030" height="1734"></rect><rect x="1141.7560501098633" y="1624" fill="#000" width="165.48789978027344" height="20" opacity="1"></rect></mask><g mask="url(#mask-O2Y_tUp23U6Yu_7hvi01j)" stroke-linecap="round"><g transform="translate(653 1680) rotate(0 468.5 0)"><path d="M0.6 0.83 C156.54 0.83, 779.55 -1.03, 935.43 -1.03 M-0.8 0.22 C155.56 0.42, 781.64 0.18, 937.58 -0.04" stroke="#1e1e1e" stroke-width="2" fill="none"></path></g><g transform="translate(653 1680) rotate(0 468.5 0)"><path d="M914.1 8.53 C921.24 4.65, 923.83 3.37, 937.58 -0.04 M914.1 8.53 C923.72 6.23, 932.01 2.12, 937.58 -0.04" stroke="#1e1e1e" stroke-width="2" fill="none"></path></g><g transform="translate(653 1680) rotate(0 468.5 0)"><path d="M914.08 -8.57 C921.09 -8.3, 923.68 -5.45, 937.58 -0.04 M914.08 -8.57 C923.56 -4.58, 931.86 -2.4, 937.58 -0.04" stroke="#1e1e1e" stroke-width="2" fill="none"></path></g></g><mask id="mask-O2Y_tUp23U6Yu_7hvi01j"><rect x="0" y="0" fill="#fff" width="1690" height="1780"></rect><rect x="988.3640747070312" y="1670" fill="#000" width="266.2718505859375" height="20" opacity="1"></rect></mask><g mask="url(#mask-D2nsnazk4xOleZ6EjOroE)" stroke-linecap="round"><g transform="translate(1593 1726) rotate(0 -468.5 0)"><path d="M0.33 -1.07 C-155.67 -1.19, -781.53 -0.61, -937.53 -0.6" stroke="#1e1e1e" stroke-width="2.5" fill="none" stroke-dasharray="1.5 8"></path></g><g transform="translate(1593 1726) rotate(0 -468.5 0)"><path d="M-914.04 -9.16 C-920.88 -8.87, -925.15 -3.94, -937.53 -0.6" stroke="#1e1e1e" stroke-width="2.5" fill="none" stroke-dasharray="1.5 6"></path></g><g transform="translate(1593 1726) rotate(0 -468.5 0)"><path d="M-914.04 7.94 C-920.89 4.54, -925.16 5.79, -937.53 -0.6" stroke="#1e1e1e" stroke-width="2.5" fill="none" stroke-dasharray="1.5 6"></path></g></g><mask id="mask-D2nsnazk4xOleZ6EjOroE"><rect x="0" y="0" fill="#fff" width="2630" height="1826"></rect><rect x="1060.1320419311523" y="1716" fill="#000" width="128.7359161376953" height="20" opacity="1"></rect></mask><g mask="url(#mask-vLPH9zuuYwZqg1W1KTY4-)" stroke-linecap="round"><g transform="translate(1793 1772) rotate(0 -568.5 0)"><path d="M-1.57 -1.03 C-191.02 -1.03, -947.77 0.58, -1137.1 0.82 M0.07 1.04 C-188.99 0.63, -945.49 -0.42, -1134.7 -0.88" stroke="#1e1e1e" stroke-width="2" fill="none"></path></g><g transform="translate(1793 1772) rotate(0 -568.5 0)"><path d="M-1111.19 -9.39 C-1120.11 -7.96, -1124.28 -6.02, -1134.7 -0.88 M-1111.19 -9.39 C-1118.4 -6.35, -1125.81 -2.82, -1134.7 -0.88" stroke="#1e1e1e" stroke-width="2" fill="none"></path></g><g transform="translate(1793 1772) rotate(0 -568.5 0)"><path d="M-1111.22 7.72 C-1120.25 3.86, -1124.41 0.52, -1134.7 -0.88 M-1111.22 7.72 C-1118.58 5.04, -1125.98 2.86, -1134.7 -0.88" stroke="#1e1e1e" stroke-width="2" fill="none"></path></g></g><mask id="mask-vLPH9zuuYwZqg1W1KTY4-"><rect x="0" y="0" fill="#fff" width="3030" height="1872"></rect><rect x="1135.540054321289" y="1762" fill="#000" width="177.91989135742188" height="20" opacity="1"></rect></mask><g mask="url(#mask-i_mdcaDoxxpWbN8gf7ElT)" stroke-linecap="round"><g transform="translate(653 1818) rotate(0 468.5 0)"><path d="M-0.53 -0.6 C155.47 -0.58, 781.08 -1.29, 937.32 -1.01 M1.13 1.71 C156.97 1.93, 780.93 0.4, 936.8 0" stroke="#1e1e1e" stroke-width="2" fill="none"></path></g><g transform="translate(653 1818) rotate(0 468.5 0)"><path d="M913.33 8.61 C921.07 6.99, 929.05 3.13, 936.8 0 M913.33 8.61 C922.38 6.12, 932.24 2, 936.8 0" stroke="#1e1e1e" stroke-width="2" fill="none"></path></g><g transform="translate(653 1818) rotate(0 468.5 0)"><path d="M913.28 -8.49 C920.9 -3.79, 928.89 -1.34, 936.8 0 M913.28 -8.49 C922.51 -4.31, 932.39 -1.75, 936.8 0" stroke="#1e1e1e" stroke-width="2" fill="none"></path></g></g><mask id="mask-i_mdcaDoxxpWbN8gf7ElT"><rect x="0" y="0" fill="#fff" width="1690" height="1918"></rect><rect x="1031.2200622558594" y="1808" fill="#000" width="180.55987548828125" height="20" opacity="1"></rect></mask><g mask="url(#mask-M3VXjbQXDI2gJR9J5q8dJ)" stroke-linecap="round"><g transform="translate(1593 1864) rotate(0 -468.5 0)"><path d="M-1.1 0.82 C-157.08 1.06, -781.79 0.36, -937.51 0.41" stroke="#1e1e1e" stroke-width="2.5" fill="none" stroke-dasharray="1.5 8"></path></g><g transform="translate(1593 1864) rotate(0 -468.5 0)"><path d="M-914.01 -8.13 C-917.68 -8.13, -923.32 -2.84, -937.51 0.41" stroke="#1e1e1e" stroke-width="2.5" fill="none" stroke-dasharray="1.5 6"></path></g><g transform="translate(1593 1864) rotate(0 -468.5 0)"><path d="M-914.02 8.97 C-917.54 5.37, -923.17 7.05, -937.51 0.41" stroke="#1e1e1e" stroke-width="2.5" fill="none" stroke-dasharray="1.5 6"></path></g></g><mask id="mask-M3VXjbQXDI2gJR9J5q8dJ"><rect x="0" y="0" fill="#fff" width="2630" height="1964"></rect><rect x="1047.748046875" y="1854" fill="#000" width="153.50390625" height="20" opacity="1"></rect></mask><g mask="url(#mask-bU2PIF_JbtXePa4t-HVYE)" stroke-linecap="round"><g transform="translate(653 1910) rotate(0 168.5 0)"><path d="M1.32 -1.01 C57.56 -0.73, 280.86 0.81, 336.91 1.09 M0.29 1.08 C56.49 1.1, 279.98 -0.07, 336.17 -0.47" stroke="#1e1e1e" stroke-width="2" fill="none"></path></g><g transform="translate(653 1910) rotate(0 168.5 0)"><path d="M312.73 8.22 C316.11 6.88, 324.62 6.2, 336.17 -0.47 M312.73 8.22 C321.73 5.14, 330.19 1.28, 336.17 -0.47" stroke="#1e1e1e" stroke-width="2" fill="none"></path></g><g transform="translate(653 1910) rotate(0 168.5 0)"><path d="M312.63 -8.88 C315.95 -6.56, 324.47 -3.59, 336.17 -0.47 M312.63 -8.88 C321.66 -5.88, 330.16 -3.66, 336.17 -0.47" stroke="#1e1e1e" stroke-width="2" fill="none"></path></g></g><mask id="mask-bU2PIF_JbtXePa4t-HVYE"><rect x="0" y="0" fill="#fff" width="1090" height="2010"></rect><rect x="715.3320541381836" y="1900" fill="#000" width="212.3358917236328" height="20" opacity="1"></rect></mask><g mask="url(#mask-EQ1YuJ1i_Xx9yOdpUBvrP)" stroke-linecap="round"><g transform="translate(653 1956) rotate(0 668.5 0)"><path d="M-0.51 0.41 C222.44 0.46, 1114.64 1.19, 1337.59 1.11 M1.17 -0.42 C224.1 -0.76, 1114.61 -0.71, 1337.21 -0.43" stroke="#1e1e1e" stroke-width="2" fill="none"></path></g><g transform="translate(653 1956) rotate(0 668.5 0)"><path d="M1313.71 8.11 C1320.21 7.98, 1327.27 5.14, 1337.21 -0.43 M1313.71 8.11 C1320.85 6.2, 1327.06 2.54, 1337.21 -0.43" stroke="#1e1e1e" stroke-width="2" fill="none"></path></g><g transform="translate(653 1956) rotate(0 668.5 0)"><path d="M1313.72 -8.99 C1320.34 -4.84, 1327.39 -3.39, 1337.21 -0.43 M1313.72 -8.99 C1321.03 -5.81, 1327.24 -4.4, 1337.21 -0.43" stroke="#1e1e1e" stroke-width="2" fill="none"></path></g></g><mask id="mask-EQ1YuJ1i_Xx9yOdpUBvrP"><rect x="0" y="0" fill="#fff" width="2090" height="2056"></rect><rect x="1223.2040557861328" y="1946" fill="#000" width="196.59188842773438" height="20" opacity="1"></rect></mask><g mask="url(#mask-ncUHPtrUu5D4oaPFeLDjq)" stroke-linecap="round"><g transform="translate(651 2002) rotate(0 -167 0)"><path d="M-0.09 1.09 C-55.54 1.36, -276.81 0.65, -332.39 0.67 M-1.34 0.61 C-56.92 0.63, -277.26 -0.92, -332.75 -1.1" stroke="#1e1e1e" stroke-width="2" fill="none"></path></g><g transform="translate(651 2002) rotate(0 -167 0)"><path d="M-309.22 -9.53 C-316.14 -4.5, -325.5 -3.3, -332.75 -1.1 M-309.22 -9.53 C-317.79 -6.63, -328.33 -3.6, -332.75 -1.1" stroke="#1e1e1e" stroke-width="2" fill="none"></path></g><g transform="translate(651 2002) rotate(0 -167 0)"><path d="M-309.31 7.57 C-316.05 6.31, -325.38 1.21, -332.75 -1.1 M-309.31 7.57 C-317.96 3.63, -328.46 -0.18, -332.75 -1.1" stroke="#1e1e1e" stroke-width="2" fill="none"></path></g></g><mask id="mask-ncUHPtrUu5D4oaPFeLDjq"><rect x="0" y="0" fill="#fff" width="1085" height="2102"></rect><rect x="380.16007232666016" y="1982" fill="#000" width="207.6798553466797" height="40" opacity="1"></rect></mask><g stroke-linecap="round"><g transform="translate(641 1182) rotate(0 582 0)"><path d="M0 0 C252.3 -3.77, 503.11 -3.41, 1164 0" stroke="#adb5bd" stroke-width="2.5" fill="none" stroke-dasharray="1.5 8"></path></g></g><mask></mask><g stroke-linecap="round"><g transform="translate(1805 1182) rotate(0 0 45.5)"><path d="M0 0 C1.94 30.33, 2.82 62.1, 0 91" stroke="#adb5bd" stroke-width="2.5" fill="none" stroke-dasharray="1.5 8"></path></g></g><mask></mask><g stroke-linecap="round"><g transform="translate(641 1273) rotate(0 582 0)"><path d="M0 0 C454.47 -1.79, 909.52 -2.4, 1164 0" stroke="#adb5bd" stroke-width="2.5" fill="none" stroke-dasharray="1.5 8"></path></g></g><mask></mask><g stroke-linecap="round"><g transform="translate(641 1182) rotate(0 0 45.5)"><path d="M0 0 C2.51 37.06, 0.99 73.03, 0 91" stroke="#adb5bd" stroke-width="2.5" fill="none" stroke-dasharray="1.5 8"></path></g></g><mask></mask><g stroke-linecap="round"><g transform="translate(302 770) rotate(0 851.5 0)"><path d="M0 0 C606.21 -6.62, 1211.98 -7.24, 1703 0" stroke="#adb5bd" stroke-width="2.5" fill="none" stroke-dasharray="1.5 8"></path></g></g><mask></mask><g stroke-linecap="round"><g transform="translate(2005 770) rotate(0 0 626)"><path d="M0 0 C5.2 372.69, 4.58 743.86, 0 1252" stroke="#adb5bd" stroke-width="2.5" fill="none" stroke-dasharray="1.5 8"></path></g></g><mask></mask><g stroke-linecap="round"><g transform="translate(302 2022) rotate(0 851.5 0)"><path d="M0 0 C681.81 -2.06, 1362.1 -2.34, 1703 0" stroke="#adb5bd" stroke-width="2.5" fill="none" stroke-dasharray="1.5 8"></path></g></g><mask></mask><g stroke-linecap="round"><g transform="translate(302 770) rotate(0 0 626)"><path d="M0 0 C0.78 458.46, 0.51 916.72, 0 1252" stroke="#adb5bd" stroke-width="2.5" fill="none" stroke-dasharray="1.5 8"></path></g></g><mask></mask><g stroke-linecap="round"><g transform="translate(302 958) rotate(0 851.5 0)"><path d="M0 0 C551.61 2.91, 1103.02 4.38, 1703 0" stroke="#adb5bd" stroke-width="2.5" fill="none" stroke-dasharray="1.5 8"></path></g></g><mask></mask><g transform="translate(1158.09375 1190) rotate(0 104.5439453125 10)"><text x="0" y="0" font-family="Virgil, Segoe UI Emoji" font-size="16px" fill="#1e1e1e" text-anchor="start" style="white-space: pre;" direction="ltr" dominant-baseline="text-before-edge">[For Each Resource Type]</text></g><g transform="translate(1132.046875 778) rotate(0 55.47996520996094 10)"><text x="0" y="0" font-family="Virgil, Segoe UI Emoji" font-size="16px" fill="#1e1e1e" text-anchor="start" style="white-space: pre;" direction="ltr" dominant-baseline="text-before-edge">[OTP Invalid]</text></g><g transform="translate(1113.4921875 966) rotate(0 47.335968017578125 10)"><text x="0" y="0" font-family="Virgil, Segoe UI Emoji" font-size="16px" fill="#1e1e1e" text-anchor="start" style="white-space: pre;" direction="ltr" dominant-baseline="text-before-edge">[OTP Valid]</text></g><g stroke-linecap="round" transform="translate(641 1182) rotate(0 20 15)"><path d="M-0.32 0.24 L40.42 -0.7 L39.11 29.41 L-0.11 29.96" stroke="none" stroke-width="0" fill="#e9ecef"></path><path d="M0 0 C8.72 -0.09, 17.65 -1.09, 40 0 M0 0 C8.77 -0.26, 16.92 0.07, 40 0 M40 0 C40.04 10.9, 40.46 21.11, 40 30 M40 0 C39.55 7.35, 39.97 14.38, 40 30 M40 30 C30.81 30.99, 22.63 29.35, 0 30 M40 30 C30.04 30.39, 20.5 30.43, 0 30 M0 30 C-0.22 22.36, -0.74 14.03, 0 0 M0 30 C-0.19 18.49, 0.08 6.68, 0 0" stroke="#adb5bd" stroke-width="2" fill="none"></path></g><g stroke-linecap="round" transform="translate(302 770) rotate(0 17 15)"><path d="M0.24 0.42 L33.3 -0.89 L33.41 29.89 L-0.04 30.13" stroke="none" stroke-width="0" fill="#e9ecef"></path><path d="M0 0 C7.13 0.59, 13.15 -0.9, 34 0 M0 0 C10.15 -0.24, 20.73 0.23, 34 0 M34 0 C34.05 9.75, 33.42 18.03, 34 30 M34 0 C34.04 9.88, 33.79 19.56, 34 30 M34 30 C27.7 30.98, 18.77 29.37, 0 30 M34 30 C21.87 29.37, 9.33 29.67, 0 30 M0 30 C0.2 19.83, -0.21 12.01, 0 0 M0 30 C0.1 23.04, 0.05 15.96, 0 0" stroke="#adb5bd" stroke-width="2" fill="none"></path></g><g transform="translate(279.6160202026367 37.5) rotate(0 33.38397979736328 10)"><text x="33.38397979736328" y="0" font-family="Virgil, Segoe UI Emoji" font-size="16px" fill="#000" text-anchor="middle" style="white-space: pre;" direction="ltr" dominant-baseline="text-before-edge">Frontend</text></g><g transform="translate(279.6160202026367 2064.5) rotate(0 33.38397979736328 10)"><text x="33.38397979736328" y="0" font-family="Virgil, Segoe UI Emoji" font-size="16px" fill="#000" text-anchor="middle" style="white-space: pre;" direction="ltr" dominant-baseline="text-before-edge">Frontend</text></g><g transform="translate(594.264045715332 37.5) rotate(0 57.73595428466797 10)"><text x="57.73595428466797" y="0" font-family="Virgil, Segoe UI Emoji" font-size="16px" fill="#000" text-anchor="middle" style="white-space: pre;" direction="ltr" dominant-baseline="text-before-edge">Kill Switch API</text></g><g transform="translate(594.264045715332 2064.5) rotate(0 57.73595428466797 10)"><text x="57.73595428466797" y="0" font-family="Virgil, Segoe UI Emoji" font-size="16px" fill="#000" text-anchor="middle" style="white-space: pre;" direction="ltr" dominant-baseline="text-before-edge">Kill Switch API</text></g><g transform="translate(954.4480209350586 37.5) rotate(0 39.551979064941406 10)"><text x="39.551979064941406" y="0" font-family="Virgil, Segoe UI Emoji" font-size="16px" fill="#000" text-anchor="middle" style="white-space: pre;" direction="ltr" dominant-baseline="text-before-edge">Database</text></g><g transform="translate(954.4480209350586 2064.5) rotate(0 39.551979064941406 10)"><text x="39.551979064941406" y="0" font-family="Virgil, Segoe UI Emoji" font-size="16px" fill="#000" text-anchor="middle" style="white-space: pre;" direction="ltr" dominant-baseline="text-before-edge">Database</text></g><g transform="translate(1173.552017211914 37.5) rotate(0 20.447982788085938 10)"><text x="20.447982788085938" y="0" font-family="Virgil, Segoe UI Emoji" font-size="16px" fill="#000" text-anchor="middle" style="white-space: pre;" direction="ltr" dominant-baseline="text-before-edge">Redis</text></g><g transform="translate(1173.552017211914 2064.5) rotate(0 20.447982788085938 10)"><text x="20.447982788085938" y="0" font-family="Virgil, Segoe UI Emoji" font-size="16px" fill="#000" text-anchor="middle" style="white-space: pre;" direction="ltr" dominant-baseline="text-before-edge">Redis</text></g><g transform="translate(1343.3440246582031 37.5) rotate(0 50.655975341796875 10)"><text x="50.655975341796875" y="0" font-family="Virgil, Segoe UI Emoji" font-size="16px" fill="#000" text-anchor="middle" style="white-space: pre;" direction="ltr" dominant-baseline="text-before-edge">Email Service</text></g><g transform="translate(1343.3440246582031 2064.5) rotate(0 50.655975341796875 10)"><text x="50.655975341796875" y="0" font-family="Virgil, Segoe UI Emoji" font-size="16px" fill="#000" text-anchor="middle" style="white-space: pre;" direction="ltr" dominant-baseline="text-before-edge">Email Service</text></g><g transform="translate(1557.9120178222656 37.5) rotate(0 36.087982177734375 10)"><text x="36.087982177734375" y="0" font-family="Virgil, Segoe UI Emoji" font-size="16px" fill="#000" text-anchor="middle" style="white-space: pre;" direction="ltr" dominant-baseline="text-before-edge">AWS SDK</text></g><g transform="translate(1557.9120178222656 2064.5) rotate(0 36.087982177734375 10)"><text x="36.087982177734375" y="0" font-family="Virgil, Segoe UI Emoji" font-size="16px" fill="#000" text-anchor="middle" style="white-space: pre;" direction="ltr" dominant-baseline="text-before-edge">AWS SDK</text></g><g transform="translate(1733.608024597168 37.5) rotate(0 60.39197540283203 10)"><text x="60.39197540283203" y="0" font-family="Virgil, Segoe UI Emoji" font-size="16px" fill="#000" text-anchor="middle" style="white-space: pre;" direction="ltr" dominant-baseline="text-before-edge">Message Queue</text></g><g transform="translate(1733.608024597168 2064.5) rotate(0 60.39197540283203 10)"><text x="60.39197540283203" y="0" font-family="Virgil, Segoe UI Emoji" font-size="16px" fill="#000" text-anchor="middle" style="white-space: pre;" direction="ltr" dominant-baseline="text-before-edge">Message Queue</text></g><g transform="translate(1942.3760299682617 37.5) rotate(0 51.62397003173828 10)"><text x="51.62397003173828" y="0" font-family="Virgil, Segoe UI Emoji" font-size="16px" fill="#000" text-anchor="middle" style="white-space: pre;" direction="ltr" dominant-baseline="text-before-edge">Audit Service</text></g><g transform="translate(1942.3760299682617 2064.5) rotate(0 51.62397003173828 10)"><text x="51.62397003173828" y="0" font-family="Virgil, Segoe UI Emoji" font-size="16px" fill="#000" text-anchor="middle" style="white-space: pre;" direction="ltr" dominant-baseline="text-before-edge">Audit Service</text></g><g transform="translate(943.2040405273438 99.5) rotate(0 71.29595947265625 10)"><text x="71.29595947265625" y="0" font-family="Virgil, Segoe UI Emoji" font-size="16px" fill="#000" text-anchor="middle" style="white-space: pre;" direction="ltr" dominant-baseline="text-before-edge">Phase 1: Initiation</text></g><g transform="translate(932.4360504150391 592.5) rotate(0 82.06394958496094 10)"><text x="82.06394958496094" y="0" font-family="Virgil, Segoe UI Emoji" font-size="16px" fill="#000" text-anchor="middle" style="white-space: pre;" direction="ltr" dominant-baseline="text-before-edge">Phase 2: Verification</text></g><g transform="translate(1620.6720504760742 1430.5) rotate(0 73.32794952392578 10)"><text x="73.32794952392578" y="0" font-family="Virgil, Segoe UI Emoji" font-size="16px" fill="#000" text-anchor="middle" style="white-space: pre;" direction="ltr" dominant-baseline="text-before-edge">Background Worker</text></g><g transform="translate(100.39605712890625 145) rotate(0 72.16520819774829 19.947673472133474)"><text x="72.10394287109375" y="0" font-family="Virgil, Segoe UI Emoji" font-size="16px" fill="#1e1e1e" text-anchor="middle" style="white-space: pre;" direction="ltr" dominant-baseline="text-before-edge">Click "Destroy All </text><text x="72.10394287109375" y="20" font-family="Virgil, Segoe UI Emoji" font-size="16px" fill="#1e1e1e" text-anchor="middle" style="white-space: pre;" direction="ltr" dominant-baseline="text-before-edge">Resources"</text></g><g transform="translate(367.23207092285156 201) rotate(0 114.2070092689525 10.563564919553656)"><text x="113.76792907714844" y="0" font-family="Virgil, Segoe UI Emoji" font-size="16px" fill="#1e1e1e" text-anchor="middle" style="white-space: pre;" direction="ltr" dominant-baseline="text-before-edge">POST /api/kill-switch/initiate</text></g><g transform="translate(727.1880722045898 247) rotate(0 94.00637233480813 10.567069249778854)"><text x="94.31192779541016" y="0" font-family="Virgil, Segoe UI Emoji" font-size="16px" fill="#1e1e1e" text-anchor="middle" style="white-space: pre;" direction="ltr" dominant-baseline="text-before-edge">Check kill switch status</text></g><g transform="translate(737.1880645751953 283) rotate(0 87.0442967034877 20.007577272596336)"><text x="87.31193542480469" y="0" font-family="Virgil, Segoe UI Emoji" font-size="16px" fill="#1e1e1e" text-anchor="middle" style="white-space: pre;" direction="ltr" dominant-baseline="text-before-edge">{enabled: true, </text><text x="87.31193542480469" y="20" font-family="Virgil, Segoe UI Emoji" font-size="16px" fill="#1e1e1e" text-anchor="middle" style="white-space: pre;" direction="ltr" dominant-baseline="text-before-edge">cooldownExpired: true}</text></g><g transform="translate(633.8870100964463 348.967459244542) rotate(0 52.084872172560495 10.257036115343539)"><text x="86.99195098876953" y="0" font-family="Virgil, Segoe UI Emoji" font-size="16px" fill="#1e1e1e" text-anchor="middle" style="white-space: pre;" direction="ltr" dominant-baseline="text-before-edge">Generate 6-digit OTP</text></g><g transform="translate(754.0361175537109 415) rotate(0 166.62090742555915 9.81141744158279)"><text x="167.46388244628906" y="0" font-family="Virgil, Segoe UI Emoji" font-size="16px" fill="#1e1e1e" text-anchor="middle" style="white-space: pre;" direction="ltr" dominant-baseline="text-before-edge">SET kill_otp:{userId} = "123456" EX 300</text></g><g transform="translate(959.8120269775391 461) rotate(0 61.33397997568824 9.666464595133448)"><text x="61.68797302246094" y="0" font-family="Virgil, Segoe UI Emoji" font-size="16px" fill="#1e1e1e" text-anchor="middle" style="white-space: pre;" direction="ltr" dominant-baseline="text-before-edge">Send OTP email</text></g><g transform="translate(1234.7000427246094 507) rotate(0 86.4199926473201 9.92318409300637)"><text x="86.79995727539062" y="0" font-family="Virgil, Segoe UI Emoji" font-size="16px" fill="#1e1e1e" text-anchor="middle" style="white-space: pre;" direction="ltr" dominant-baseline="text-before-edge">Log initiation attempt</text></g><g transform="translate(369.04805755615234 553) rotate(0 115.67938084825875 9.77921932712195)"><text x="114.95194244384766" y="0" font-family="Virgil, Segoe UI Emoji" font-size="16px" fill="#1e1e1e" text-anchor="middle" style="white-space: pre;" direction="ltr" dominant-baseline="text-before-edge">200 OK {requiresOTP: true}</text></g><g transform="translate(91.76405334472656 648) rotate(0 80.51516598239542 9.896139504760527)"><text x="80.73594665527344" y="0" font-family="Virgil, Segoe UI Emoji" font-size="16px" fill="#1e1e1e" text-anchor="middle" style="white-space: pre;" direction="ltr" dominant-baseline="text-before-edge">Enter OTP "123456"</text></g><g transform="translate(369.5840759277344 684) rotate(0 111.88394472054208 19.41664861069438)"><text x="111.41592407226562" y="0" font-family="Virgil, Segoe UI Emoji" font-size="16px" fill="#1e1e1e" text-anchor="middle" style="white-space: pre;" direction="ltr" dominant-baseline="text-before-edge">POST /api/kill-switch/verify </text><text x="111.41592407226562" y="20" font-family="Virgil, Segoe UI Emoji" font-size="16px" fill="#1e1e1e" text-anchor="middle" style="white-space: pre;" direction="ltr" dominant-baseline="text-before-edge">{otp}</text></g><g transform="translate(833.9000701904297 740) rotate(0 86.99837215302045 10.075381123569002)"><text x="87.59992980957031" y="0" font-family="Virgil, Segoe UI Emoji" font-size="16px" fill="#1e1e1e" text-anchor="middle" style="white-space: pre;" direction="ltr" dominant-baseline="text-before-edge">GET kill_otp:{userId}</text></g><g transform="translate(846.5800552368164 831) rotate(0 77.02536382898688 9.683725390583277)"><text x="77.9199447631836" y="0" font-family="Virgil, Segoe UI Emoji" font-size="16px" fill="#1e1e1e" text-anchor="middle" style="white-space: pre;" direction="ltr" dominant-baseline="text-before-edge">Mismatch or expired</text></g><g transform="translate(1245.9800491333008 877) rotate(0 75.66403999085526 10.330187249792516)"><text x="75.51995086669922" y="0" font-family="Virgil, Segoe UI Emoji" font-size="16px" fill="#1e1e1e" text-anchor="middle" style="white-space: pre;" direction="ltr" dominant-baseline="text-before-edge">Log failed attempt</text></g><g transform="translate(419.6560363769531 923) rotate(0 63.85229246839879 8.913577808382854)"><text x="64.34396362304688" y="0" font-family="Virgil, Segoe UI Emoji" font-size="16px" fill="#1e1e1e" text-anchor="middle" style="white-space: pre;" direction="ltr" dominant-baseline="text-before-edge">401 Invalid OTP</text></g><g transform="translate(900.5480117797852 1014) rotate(0 22.89368220344187 9.715500071127678)"><text x="23.951988220214844" y="0" font-family="Virgil, Segoe UI Emoji" font-size="16px" fill="#1e1e1e" text-anchor="middle" style="white-space: pre;" direction="ltr" dominant-baseline="text-before-edge">Match</text></g><g transform="translate(729.8280639648438 1060) rotate(0 90.6219022450922 9.93589499458949)"><text x="91.67193603515625" y="0" font-family="Virgil, Segoe UI Emoji" font-size="16px" fill="#1e1e1e" text-anchor="middle" style="white-space: pre;" direction="ltr" dominant-baseline="text-before-edge">START TRANSACTION</text></g><g transform="translate(751.4360427856445 1106) rotate(0 70.13871935707988 9.169195688315313)"><text x="70.06395721435547" y="0" font-family="Virgil, Segoe UI Emoji" font-size="16px" fill="#1e1e1e" text-anchor="middle" style="white-space: pre;" direction="ltr" dominant-baseline="text-before-edge">Get all resources</text></g><g transform="translate(707.612060546875 1152) rotate(0 116.18190429434179 8.914736258388984)"><text x="116.887939453125" y="0" font-family="Virgil, Segoe UI Emoji" font-size="16px" fill="#1e1e1e" text-anchor="middle" style="white-space: pre;" direction="ltr" dominant-baseline="text-before-edge">Resource list (EC2, S3, RDS)</text></g><g transform="translate(1115.060073852539 1243) rotate(0 106.48731305432966 10.108250981816127)"><text x="106.43992614746094" y="0" font-family="Virgil, Segoe UI Emoji" font-size="16px" fill="#1e1e1e" text-anchor="middle" style="white-space: pre;" direction="ltr" dominant-baseline="text-before-edge">Publish bulk termination job</text></g><g transform="translate(738.7240600585938 1289) rotate(0 82.72045326456424 20.00262216106057)"><text x="82.77593994140625" y="0" font-family="Virgil, Segoe UI Emoji" font-size="16px" fill="#1e1e1e" text-anchor="middle" style="white-space: pre;" direction="ltr" dominant-baseline="text-before-edge">INSERT </text><text x="82.77593994140625" y="20" font-family="Virgil, Segoe UI Emoji" font-size="16px" fill="#1e1e1e" text-anchor="middle" style="white-space: pre;" direction="ltr" dominant-baseline="text-before-edge">kill_switch_execution</text></g><g transform="translate(787.4920196533203 1345) rotate(0 34.0106025077402 9.622239407004713)"><text x="34.00798034667969" y="0" font-family="Virgil, Segoe UI Emoji" font-size="16px" fill="#1e1e1e" text-anchor="middle" style="white-space: pre;" direction="ltr" dominant-baseline="text-before-edge">COMMIT</text></g><g transform="translate(395.47206115722656 1391) rotate(0 89.10227539762852 10.200775327297151)"><text x="88.52793884277344" y="0" font-family="Virgil, Segoe UI Emoji" font-size="16px" fill="#1e1e1e" text-anchor="middle" style="white-space: pre;" direction="ltr" dominant-baseline="text-before-edge">202 Accepted {jobId}</text></g><g transform="translate(1123.012062072754 1486) rotate(0 101.68777733817694 9.645783608900501)"><text x="101.4879379272461" y="0" font-family="Virgil, Segoe UI Emoji" font-size="16px" fill="#1e1e1e" text-anchor="middle" style="white-space: pre;" direction="ltr" dominant-baseline="text-before-edge">Process EC2 terminations</text></g><g transform="translate(1024.9400634765625 1532) rotate(0 96.64985711923805 10.622182580454819)"><text x="96.5599365234375" y="0" font-family="Virgil, Segoe UI Emoji" font-size="16px" fill="#1e1e1e" text-anchor="middle" style="white-space: pre;" direction="ltr" dominant-baseline="text-before-edge">terminate_instances(ids)</text></g><g transform="translate(1043.6280364990234 1578) rotate(0 80.57764824405314 9.908235117865274)"><text x="80.87196350097656" y="0" font-family="Virgil, Segoe UI Emoji" font-size="16px" fill="#1e1e1e" text-anchor="middle" style="white-space: pre;" direction="ltr" dominant-baseline="text-before-edge">Termination initiated</text></g><g transform="translate(1141.7560501098633 1624) rotate(0 83.23041319302286 9.517497024685213)"><text x="82.74394989013672" y="0" font-family="Virgil, Segoe UI Emoji" font-size="16px" fill="#1e1e1e" text-anchor="middle" style="white-space: pre;" direction="ltr" dominant-baseline="text-before-edge">Process S3 deletions</text></g><g transform="translate(988.3640747070312 1670) rotate(0 133.02651615913027 9.898878576606535)"><text x="133.13592529296875" y="0" font-family="Virgil, Segoe UI Emoji" font-size="16px" fill="#1e1e1e" text-anchor="middle" style="white-space: pre;" direction="ltr" dominant-baseline="text-before-edge">delete_bucket(bucket) [for each]</text></g><g transform="translate(1060.1320419311523 1716) rotate(0 64.26683664545419 9.160038056223812)"><text x="64.36795806884766" y="0" font-family="Virgil, Segoe UI Emoji" font-size="16px" fill="#1e1e1e" text-anchor="middle" style="white-space: pre;" direction="ltr" dominant-baseline="text-before-edge">Buckets deleted</text></g><g transform="translate(1135.540054321289 1762) rotate(0 88.94744745341598 10.003937864187492)"><text x="88.95994567871094" y="0" font-family="Virgil, Segoe UI Emoji" font-size="16px" fill="#1e1e1e" text-anchor="middle" style="white-space: pre;" direction="ltr" dominant-baseline="text-before-edge">Process RDS deletions</text></g><g transform="translate(1031.2200622558594 1808) rotate(0 90.17188112959263 10.327927551658604)"><text x="90.27993774414062" y="0" font-family="Virgil, Segoe UI Emoji" font-size="16px" fill="#1e1e1e" text-anchor="middle" style="white-space: pre;" direction="ltr" dominant-baseline="text-before-edge">delete_db_instance(id)</text></g><g transform="translate(1047.748046875 1854) rotate(0 75.95111228004095 10.635486021046177)"><text x="76.751953125" y="0" font-family="Virgil, Segoe UI Emoji" font-size="16px" fill="#1e1e1e" text-anchor="middle" style="white-space: pre;" direction="ltr" dominant-baseline="text-before-edge">Databases deleted</text></g><g transform="translate(715.3320541381836 1900) rotate(0 106.26419438462244 10.039467988163324)"><text x="106.1679458618164" y="0" font-family="Virgil, Segoe UI Emoji" font-size="16px" fill="#1e1e1e" text-anchor="middle" style="white-space: pre;" direction="ltr" dominant-baseline="text-before-edge">UPDATE execution status</text></g><g transform="translate(1223.2040557861328 1946) rotate(0 98.3354122020304 10.230294306649398)"><text x="98.29594421386719" y="0" font-family="Virgil, Segoe UI Emoji" font-size="16px" fill="#1e1e1e" text-anchor="middle" style="white-space: pre;" direction="ltr" dominant-baseline="text-before-edge">Log complete destruction</text></g><g transform="translate(380.16007232666016 1982) rotate(0 104.41694038655143 20.023007779958107)"><text x="103.83992767333984" y="0" font-family="Virgil, Segoe UI Emoji" font-size="16px" fill="#1e1e1e" text-anchor="middle" style="white-space: pre;" direction="ltr" dominant-baseline="text-before-edge">WebSocket: "All resources </text><text x="103.83992767333984" y="20" font-family="Virgil, Segoe UI Emoji" font-size="16px" fill="#1e1e1e" text-anchor="middle" style="white-space: pre;" direction="ltr" dominant-baseline="text-before-edge">destroyed"</text></g><g transform="translate(646.0880126953125 1187) rotate(0 14.9119873046875 10)"><text x="14.9119873046875" y="0" font-family="Virgil, Segoe UI Emoji" font-size="16px" fill="#000" text-anchor="middle" style="white-space: pre;" direction="ltr" dominant-baseline="text-before-edge">loop</text></g><g transform="translate(307.0400085449219 775) rotate(0 11.959991455078125 10)"><text x="11.959991455078125" y="0" font-family="Virgil, Segoe UI Emoji" font-size="16px" fill="#000" text-anchor="middle" style="white-space: pre;" direction="ltr" dominant-baseline="text-before-edge">alt</text></g></svg>