<svg version="1.1" xmlns="http://www.w3.org/2000/svg" viewBox="0 0 1975.3189141708274 1068" width="1975.3189141708274" height="1068">
  <!-- svg-source:excalidraw -->
  
  <defs>
    <style class="style-fonts">
      @font-face {
        font-family: "Virgil";
        src: url("https://unpkg.com/@excalidraw/excalidraw@undefined/dist/excalidraw-assets/Virgil.woff2");
      }
      @font-face {
        font-family: "Cascadia";
        src: url("https://unpkg.com/@excalidraw/excalidraw@undefined/dist/excalidraw-assets/Cascadia.woff2");
      }
      @font-face {
        font-family: "Assistant";
        src: url("https://unpkg.com/@excalidraw/excalidraw@undefined/dist/excalidraw-assets/Assistant-Regular.woff2");
      }
    </style>
    
  </defs>
  <rect x="0" y="0" width="1975.3189141708274" height="1068" fill="#ffffff"></rect><g stroke-linecap="round" transform="translate(10 10) rotate(0 75 32.5)"><path d="M0 0 C40.03 -0.91, 80.05 -1.11, 150 0 M0 0 C54.19 -0.24, 110.34 0.12, 150 0 M150 0 C150.55 12.77, 151.75 27.49, 150 65 M150 0 C149.55 21.34, 148.74 42.39, 150 65 M150 65 C102.17 66.28, 53.08 66.23, 0 65 M150 65 C98.05 65.46, 46.1 65.24, 0 65 M0 65 C-0.84 44.38, 1.3 27.11, 0 0 M0 65 C-1.07 42.97, 0.66 22.07, 0 0" stroke="#1e1e1e" stroke-width="2" fill="none"></path></g><g stroke-linecap="round" transform="translate(10 993) rotate(0 75 32.5)"><path d="M0 0 C30.42 0.82, 60.93 0.83, 150 0 M0 0 C37.86 1.58, 76.19 0.31, 150 0 M150 0 C149.25 25.29, 149.87 48.57, 150 65 M150 0 C150.1 12.97, 149.66 27.52, 150 65 M150 65 C113.47 65.32, 76.21 66.42, 0 65 M150 65 C114.28 66.66, 77.85 65.62, 0 65 M0 65 C-2.31 48.47, -0.66 30.23, 0 0 M0 65 C-1.05 44.61, -0.7 22.49, 0 0" stroke="#1e1e1e" stroke-width="2" fill="none"></path></g><g stroke-linecap="round" transform="translate(382 10) rotate(0 75 32.5)"><path d="M0 0 C52.33 -0.28, 103.35 -0.71, 150 0 M0 0 C46.87 0.42, 92.03 0.84, 150 0 M150 0 C151.34 24.46, 150.64 48.52, 150 65 M150 0 C149.41 21.35, 150.32 43.36, 150 65 M150 65 C98.73 66.11, 48.67 64.33, 0 65 M150 65 C106.29 66.01, 60.59 65.46, 0 65 M0 65 C1.45 39.24, 0.87 14.08, 0 0 M0 65 C1.41 42.5, 0.51 21.79, 0 0" stroke="#1e1e1e" stroke-width="2" fill="none"></path></g><g stroke-linecap="round" transform="translate(382 993) rotate(0 75 32.5)"><path d="M0 0 C49.5 0.33, 99.09 -0.8, 150 0 M0 0 C33.87 -1.49, 67.9 0.21, 150 0 M150 0 C148.87 20.43, 147.77 40.4, 150 65 M150 0 C149.32 20.64, 149.38 41.23, 150 65 M150 65 C101.28 65.91, 50.18 64.87, 0 65 M150 65 C98.18 66.34, 45.54 67.38, 0 65 M0 65 C0.52 49.36, 1.08 33.42, 0 0 M0 65 C0.07 51.25, 1.39 37.62, 0 0" stroke="#1e1e1e" stroke-width="2" fill="none"></path></g><g stroke-linecap="round" transform="translate(590 10) rotate(0 75 32.5)"><path d="M0 0 C44.04 -0.56, 85.61 -1.14, 150 0 M0 0 C42.65 0.29, 87.84 -0.35, 150 0 M150 0 C151.04 13.41, 151.18 30.7, 150 65 M150 0 C149.79 18.02, 149.97 37.37, 150 65 M150 65 C100.98 64.29, 49.93 66.4, 0 65 M150 65 C97.5 65.12, 46.13 64.89, 0 65 M0 65 C0.17 51.52, 0.42 35.19, 0 0 M0 65 C-0.61 51.53, -0.56 35.65, 0 0" stroke="#1e1e1e" stroke-width="2" fill="none"></path></g><g stroke-linecap="round" transform="translate(590 993) rotate(0 75 32.5)"><path d="M0 0 C53.99 -0.8, 108.33 -1.2, 150 0 M0 0 C52.29 2.12, 103.25 0.59, 150 0 M150 0 C147.97 24.5, 150.05 47.19, 150 65 M150 0 C149.1 15.5, 149.91 30.51, 150 65 M150 65 C104.64 65.7, 62.57 66.73, 0 65 M150 65 C90.46 65.83, 30.99 64.02, 0 65 M0 65 C0.54 42.65, -1.78 17.15, 0 0 M0 65 C1.17 40.08, -0.37 15.79, 0 0" stroke="#1e1e1e" stroke-width="2" fill="none"></path></g><g stroke-linecap="round" transform="translate(945 10) rotate(0 75 32.5)"><path d="M0 0 C41.36 -0.82, 82.14 1.58, 150 0 M0 0 C49.82 -0.98, 97.25 -0.38, 150 0 M150 0 C150.95 17.51, 149.9 33.11, 150 65 M150 0 C150.56 15.97, 150.48 31.31, 150 65 M150 65 C100.38 65.07, 51.84 66.02, 0 65 M150 65 C101.9 64.06, 51.05 65.13, 0 65 M0 65 C0.61 43.82, -1.76 27.88, 0 0 M0 65 C0.03 47.76, 0.65 31.67, 0 0" stroke="#1e1e1e" stroke-width="2" fill="none"></path></g><g stroke-linecap="round" transform="translate(945 993) rotate(0 75 32.5)"><path d="M0 0 C53.43 -0.35, 110.78 0.38, 150 0 M0 0 C32.57 -1.97, 65.69 -1.66, 150 0 M150 0 C149.69 21.19, 148.06 41.8, 150 65 M150 0 C149.95 21.31, 149.61 42.26, 150 65 M150 65 C98.52 65.95, 47.05 65.51, 0 65 M150 65 C105.8 65.59, 63.19 66.42, 0 65 M0 65 C-1.96 42.18, 1.49 21.62, 0 0 M0 65 C-1.23 46.55, -0.75 27.28, 0 0" stroke="#1e1e1e" stroke-width="2" fill="none"></path></g><g stroke-linecap="round" transform="translate(1145 10) rotate(0 75 32.5)"><path d="M0 0 C37.76 2.02, 76.46 -0.52, 150 0 M0 0 C54.68 0.58, 110.33 0.23, 150 0 M150 0 C149.95 12.29, 149.07 27.75, 150 65 M150 0 C150.6 16.07, 150.57 32.73, 150 65 M150 65 C114.78 67.61, 78.12 65.53, 0 65 M150 65 C108.42 64.79, 68.51 64.5, 0 65 M0 65 C-1.84 45.45, -1.15 22.42, 0 0 M0 65 C0.61 39.61, 0.38 14.61, 0 0" stroke="#1e1e1e" stroke-width="2" fill="none"></path></g><g stroke-linecap="round" transform="translate(1145 993) rotate(0 75 32.5)"><path d="M0 0 C47.31 0.68, 91.19 1.53, 150 0 M0 0 C58.71 0.64, 116.43 0.09, 150 0 M150 0 C148.73 20.77, 150.55 42.84, 150 65 M150 0 C150.13 22.48, 150.68 43.75, 150 65 M150 65 C107.24 66.28, 60.51 65.17, 0 65 M150 65 C91.19 63.72, 31.53 64, 0 65 M0 65 C2.25 42.05, 0.44 22.67, 0 0 M0 65 C0.25 45.99, 0.46 26.02, 0 0" stroke="#1e1e1e" stroke-width="2" fill="none"></path></g><g stroke-linecap="round" transform="translate(1345 10) rotate(0 75 32.5)"><path d="M0 0 C34.13 -2.32, 68.59 1.08, 150 0 M0 0 C45.4 -0.67, 90.59 -0.6, 150 0 M150 0 C148.73 20.86, 148.86 41.64, 150 65 M150 0 C150.52 21.87, 149.63 42.73, 150 65 M150 65 C98.45 66.25, 45.26 68.34, 0 65 M150 65 C112.65 66.11, 75.59 66.23, 0 65 M0 65 C-0.38 51.18, 2.27 37.6, 0 0 M0 65 C-0.02 49.83, -0.6 35.14, 0 0" stroke="#1e1e1e" stroke-width="2" fill="none"></path></g><g stroke-linecap="round" transform="translate(1345 993) rotate(0 75 32.5)"><path d="M0 0 C41.82 0.98, 88.71 -0.3, 150 0 M0 0 C35.41 -0.38, 70.58 0.66, 150 0 M150 0 C150.01 17.5, 150.38 37.66, 150 65 M150 0 C150.46 21.09, 149.94 43.82, 150 65 M150 65 C97.41 64.84, 47.09 64.38, 0 65 M150 65 C117.93 65.24, 85.72 64.08, 0 65 M0 65 C-0.68 52.41, -0.58 34.98, 0 0 M0 65 C0.15 41.38, 0.66 18.38, 0 0" stroke="#1e1e1e" stroke-width="2" fill="none"></path></g><g stroke-linecap="round" transform="translate(1545 10) rotate(0 75 32.5)"><path d="M0 0 C52.98 2.99, 103.3 -0.07, 150 0 M0 0 C53.89 -0.08, 109.73 -0.61, 150 0 M150 0 C148.58 15.91, 150.2 30.85, 150 65 M150 0 C149.61 19.12, 150.67 38.79, 150 65 M150 65 C90.18 66.78, 30.48 63.18, 0 65 M150 65 C96.88 65.79, 42.33 64.61, 0 65 M0 65 C2.05 40.06, -1.03 16.39, 0 0 M0 65 C-0.45 47.2, -0.05 29.18, 0 0" stroke="#1e1e1e" stroke-width="2" fill="none"></path></g><g stroke-linecap="round" transform="translate(1545 993) rotate(0 75 32.5)"><path d="M0 0 C50.69 -0.93, 96.59 0.27, 150 0 M0 0 C40.14 1.49, 79.39 0.67, 150 0 M150 0 C150.97 16.26, 150.82 31.26, 150 65 M150 0 C150.3 21.96, 150.82 43.92, 150 65 M150 65 C102.86 63.55, 50.2 65.69, 0 65 M150 65 C105.64 64.5, 59.7 66.23, 0 65 M0 65 C0.01 47.1, 1.25 31.5, 0 0 M0 65 C0.52 43.27, 0.85 21.86, 0 0" stroke="#1e1e1e" stroke-width="2" fill="none"></path></g><g stroke-linecap="round" transform="translate(1745 10) rotate(0 75 32.5)"><path d="M0 0 C32.62 -2.63, 66.35 -2, 150 0 M0 0 C49.73 -0.71, 98.5 -1.15, 150 0 M150 0 C150.24 21.64, 149.55 42.56, 150 65 M150 0 C150.09 23.21, 150.57 45.71, 150 65 M150 65 C105.29 64.75, 63.75 66.4, 0 65 M150 65 C100.09 64.79, 52.81 65.14, 0 65 M0 65 C-1.89 47.15, -0.93 27.65, 0 0 M0 65 C0.32 46.16, 0.83 25.1, 0 0" stroke="#1e1e1e" stroke-width="2" fill="none"></path></g><g stroke-linecap="round" transform="translate(1745 993) rotate(0 75 32.5)"><path d="M0 0 C54.02 1.23, 109.99 0.54, 150 0 M0 0 C31.35 -0.89, 62.4 0.02, 150 0 M150 0 C150.94 16.01, 150.88 33.23, 150 65 M150 0 C150.48 16.64, 150.26 31.29, 150 65 M150 65 C107.57 65.35, 68.49 64.77, 0 65 M150 65 C100.24 64.49, 51.62 63.59, 0 65 M0 65 C1.21 39.43, 0.75 14.64, 0 0 M0 65 C0.52 47.58, -0.83 27.91, 0 0" stroke="#1e1e1e" stroke-width="2" fill="none"></path></g><g stroke-linecap="round" transform="translate(60 85) rotate(0 892.5 19.5)"><path d="M0 0 C691.46 4.43, 1382.12 3.99, 1785 0 M1785 0 C1783.7 11.99, 1785.51 25.29, 1785 39 M1785 39 C1176.13 41.63, 567.74 40.92, 0 39 M0 39 C1.72 27.93, -0.36 15.21, 0 0" stroke="#1e1e1e" stroke-width="2.5" fill="none" stroke-dasharray="8 10"></path></g><g stroke-linecap="round"><g transform="translate(85 75) rotate(0 0 459)"><path d="M0 0 C-2.7 280.21, -3.14 560.23, 0 918 M0 0 C-0.78 288.33, -0.75 576.65, 0 918" stroke="#999" stroke-width="1" fill="none"></path></g></g><mask></mask><g stroke-linecap="round"><g transform="translate(457 75) rotate(0 0 459)"><path d="M0 0 C2.64 214.1, 2.7 429.76, 0 918 M0 0 C-2.4 261.67, -2.33 523.88, 0 918" stroke="#999" stroke-width="1" fill="none"></path></g></g><mask></mask><g stroke-linecap="round"><g transform="translate(665 75) rotate(0 0 459)"><path d="M0 0 C-2 335.64, -1.17 670.56, 0 918 M0 0 C-2.36 213.27, -2.04 426.34, 0 918" stroke="#999" stroke-width="1" fill="none"></path></g></g><mask></mask><g stroke-linecap="round"><g transform="translate(1020 75) rotate(0 0 459)"><path d="M0 0 C1.42 243.49, 1.01 486.21, 0 918 M0 0 C1 221.62, 0.97 442.98, 0 918" stroke="#999" stroke-width="1" fill="none"></path></g></g><mask></mask><g stroke-linecap="round"><g transform="translate(1220 75) rotate(0 0 459)"><path d="M0 0 C-3.19 303.36, -3.85 606.48, 0 918 M0 0 C-1.79 296.38, -1.93 592.62, 0 918" stroke="#999" stroke-width="1" fill="none"></path></g></g><mask></mask><g stroke-linecap="round"><g transform="translate(1420 75) rotate(0 0 459)"><path d="M0 0 C1.26 192.21, 0.91 385.69, 0 918 M0 0 C1.64 227.64, 1.63 455.52, 0 918" stroke="#999" stroke-width="1" fill="none"></path></g></g><mask></mask><g stroke-linecap="round"><g transform="translate(1620 75) rotate(0 0 459)"><path d="M0 0 C-0.03 309.42, 0.7 619.36, 0 918 M0 0 C1.04 313.23, 1.26 625.99, 0 918" stroke="#999" stroke-width="1" fill="none"></path></g></g><mask></mask><g stroke-linecap="round"><g transform="translate(1820 75) rotate(0 0 459)"><path d="M0 0 C-1.01 288.42, -0.96 576.81, 0 918 M0 0 C1.35 302.07, 0.99 603.74, 0 918" stroke="#999" stroke-width="1" fill="none"></path></g></g><mask></mask><g mask="url(#mask-VeOspj3lK1UL10NQt-dt-)" stroke-linecap="round"><g transform="translate(86 160) rotate(0 183.5 0)"><path d="M-0.2 0.27 C60.72 0.49, 304.7 0.47, 365.88 0.49 M1.63 -0.63 C62.96 -0.7, 307.49 -1.19, 368.26 -1.37" stroke="#1e1e1e" stroke-width="2" fill="none"></path></g><g transform="translate(86 160) rotate(0 183.5 0)"><path d="M344.79 7.24 C352 3.88, 359.06 3.04, 368.26 -1.37 M344.79 7.24 C353.11 3.71, 360.42 1.9, 368.26 -1.37" stroke="#1e1e1e" stroke-width="2" fill="none"></path></g><g transform="translate(86 160) rotate(0 183.5 0)"><path d="M344.75 -9.86 C351.85 -8.34, 358.93 -4.3, 368.26 -1.37 M344.75 -9.86 C353.08 -7.69, 360.4 -3.8, 368.26 -1.37" stroke="#1e1e1e" stroke-width="2" fill="none"></path></g></g><mask id="mask-VeOspj3lK1UL10NQt-dt-"><rect x="0" y="0" fill="#fff" width="553" height="260"></rect><rect x="158.3320770263672" y="140" fill="#000" width="222.33584594726562" height="40" opacity="1"></rect></mask><g mask="url(#mask-NLbSiQHtncrRMIg2uTtax)" stroke-linecap="round"><g transform="translate(458 206) rotate(0 101.5 0)"><path d="M0.77 -0.62 C34.66 -0.45, 169.3 0.25, 202.99 0.35 M-0.54 1.66 C33.3 1.52, 168.49 -1.52, 202.3 -1.59" stroke="#1e1e1e" stroke-width="2" fill="none"></path></g><g transform="translate(458 206) rotate(0 101.5 0)"><path d="M178.93 7.27 C183.37 5.98, 190.41 3.77, 202.3 -1.59 M178.93 7.27 C185.2 4.52, 193.15 2.43, 202.3 -1.59" stroke="#1e1e1e" stroke-width="2" fill="none"></path></g><g transform="translate(458 206) rotate(0 101.5 0)"><path d="M178.7 -9.83 C183.09 -7.15, 190.19 -5.39, 202.3 -1.59 M178.7 -9.83 C185.09 -7.54, 193.1 -4.6, 202.3 -1.59" stroke="#1e1e1e" stroke-width="2" fill="none"></path></g></g><mask id="mask-NLbSiQHtncrRMIg2uTtax"><rect x="0" y="0" fill="#fff" width="761" height="306"></rect><rect x="492.00404357910156" y="196" fill="#000" width="134.99191284179688" height="20" opacity="1"></rect></mask><g mask="url(#mask-g7nH4L8q9YNTjKE8WefYU)" stroke-linecap="round"><g transform="translate(666 252) rotate(0 175 0)"><path d="M-0.12 0.49 C58.22 0.51, 291.59 0.42, 349.85 0.4 M1.75 -0.29 C60.02 -0.67, 291.27 -1.26, 349.08 -1.51" stroke="#1e1e1e" stroke-width="2" fill="none"></path></g><g transform="translate(666 252) rotate(0 175 0)"><path d="M325.62 7.12 C332.08 5.74, 337.59 2.97, 349.08 -1.51 M325.62 7.12 C333.31 4.88, 341.58 2.5, 349.08 -1.51" stroke="#1e1e1e" stroke-width="2" fill="none"></path></g><g transform="translate(666 252) rotate(0 175 0)"><path d="M325.56 -9.98 C332.07 -7.24, 337.6 -5.88, 349.08 -1.51 M325.56 -9.98 C333.35 -6.57, 341.64 -3.29, 349.08 -1.51" stroke="#1e1e1e" stroke-width="2" fill="none"></path></g></g><mask id="mask-g7nH4L8q9YNTjKE8WefYU"><rect x="0" y="0" fill="#fff" width="1116" height="352"></rect><rect x="756.7760543823242" y="242" fill="#000" width="168.44789123535156" height="20" opacity="1"></rect></mask><g mask="url(#mask-BYOXNz0RjRZ7Yh9acVyZS)" stroke-linecap="round"><g transform="translate(1019 298) rotate(0 -175 0)"><path d="M-0.01 0.35 C-58.15 0.44, -290.91 -0.11, -349.1 -0.07" stroke="#1e1e1e" stroke-width="2.5" fill="none" stroke-dasharray="1.5 8"></path></g><g transform="translate(1019 298) rotate(0 -175 0)"><path d="M-325.6 -8.59 C-332.65 -5.08, -340.92 -2.38, -349.1 -0.07" stroke="#1e1e1e" stroke-width="2.5" fill="none" stroke-dasharray="1.5 6"></path></g><g transform="translate(1019 298) rotate(0 -175 0)"><path d="M-325.61 8.51 C-332.57 6.51, -340.84 3.68, -349.1 -0.07" stroke="#1e1e1e" stroke-width="2.5" fill="none" stroke-dasharray="1.5 6"></path></g></g><mask id="mask-BYOXNz0RjRZ7Yh9acVyZS"><rect x="0" y="0" fill="#fff" width="1469" height="398"></rect><rect x="762.3520431518555" y="278" fill="#000" width="163.29591369628906" height="40" opacity="1"></rect></mask><g mask="url(#mask-DS6ysoGWpu3zsuZjctTNi)" stroke-linecap="round"><g transform="translate(666 389) rotate(0 275 0)"><path d="M0.85 0.4 C92.44 0.38, 457.89 0.55, 549.43 0.37 M-0.43 -0.43 C91.05 -0.87, 456.77 -1.68, 548.45 -1.56" stroke="#1e1e1e" stroke-width="2" fill="none"></path></g><g transform="translate(666 389) rotate(0 275 0)"><path d="M524.97 7 C531.42 4.7, 537.19 3.68, 548.45 -1.56 M524.97 7 C531.13 5.78, 536.58 2.67, 548.45 -1.56" stroke="#1e1e1e" stroke-width="2" fill="none"></path></g><g transform="translate(666 389) rotate(0 275 0)"><path d="M524.95 -10.1 C531.48 -8.16, 537.25 -4.94, 548.45 -1.56 M524.95 -10.1 C531.12 -7.2, 536.57 -6.18, 548.45 -1.56" stroke="#1e1e1e" stroke-width="2" fill="none"></path></g></g><mask id="mask-DS6ysoGWpu3zsuZjctTNi"><rect x="0" y="0" fill="#fff" width="1316" height="489"></rect><rect x="854.2240524291992" y="379" fill="#000" width="173.55189514160156" height="20" opacity="1"></rect></mask><g mask="url(#mask-yNxijc5KkHVJP7K5SvUJt)" stroke-linecap="round"><g transform="translate(1219 435) rotate(0 -275 0)"><path d="M-0.1 -0.07 C-91.62 -0.02, -457.45 0.59, -549.13 0.59" stroke="#1e1e1e" stroke-width="2.5" fill="none" stroke-dasharray="1.5 8"></path></g><g transform="translate(1219 435) rotate(0 -275 0)"><path d="M-525.65 -7.98 C-533.74 -4.37, -540.66 -3.22, -549.13 0.59" stroke="#1e1e1e" stroke-width="2.5" fill="none" stroke-dasharray="1.5 6"></path></g><g transform="translate(1219 435) rotate(0 -275 0)"><path d="M-525.63 9.12 C-533.78 6.9, -540.7 2.21, -549.13 0.59" stroke="#1e1e1e" stroke-width="2.5" fill="none" stroke-dasharray="1.5 6"></path></g></g><mask id="mask-yNxijc5KkHVJP7K5SvUJt"><rect x="0" y="0" fill="#fff" width="1869" height="535"></rect><rect x="888.9040145874023" y="425" fill="#000" width="110.19197082519531" height="20" opacity="1"></rect></mask><g mask="url(#mask-qDJ1jcDKtmiHxxAu-soew)" stroke-linecap="round"><g transform="translate(666 481) rotate(0 375 0)"><path d="M0.43 0.37 C125.31 0.18, 625.25 -0.74, 750.09 -0.7 M-1.06 -0.49 C123.68 -0.56, 624.5 0.63, 749.46 0.46" stroke="#1e1e1e" stroke-width="2" fill="none"></path></g><g transform="translate(666 481) rotate(0 375 0)"><path d="M725.96 9 C734.27 7.19, 740.21 3.35, 749.46 0.46 M725.96 9 C734.35 5.72, 741.95 3.81, 749.46 0.46" stroke="#1e1e1e" stroke-width="2" fill="none"></path></g><g transform="translate(666 481) rotate(0 375 0)"><path d="M725.97 -8.1 C734.33 -4.28, 740.27 -2.5, 749.46 0.46 M725.97 -8.1 C734.44 -5.44, 742.04 -1.42, 749.46 0.46" stroke="#1e1e1e" stroke-width="2" fill="none"></path></g></g><mask id="mask-qDJ1jcDKtmiHxxAu-soew"><rect x="0" y="0" fill="#fff" width="1516" height="581"></rect><rect x="1000.8400192260742" y="471" fill="#000" width="80.31996154785156" height="20" opacity="1"></rect></mask><g mask="url(#mask-QSvDj2l8VQBtUGkGZKyo6)" stroke-linecap="round"><g transform="translate(1419 527) rotate(0 -375 0)"><path d="M-0.13 0.59 C-125.15 0.6, -625.4 -0.03, -750.2 -0.03" stroke="#1e1e1e" stroke-width="2.5" fill="none" stroke-dasharray="1.5 8"></path></g><g transform="translate(1419 527) rotate(0 -375 0)"><path d="M-726.7 -8.56 C-733.55 -6.82, -742.43 -1.85, -750.2 -0.03" stroke="#1e1e1e" stroke-width="2.5" fill="none" stroke-dasharray="1.5 6"></path></g><g transform="translate(1419 527) rotate(0 -375 0)"><path d="M-726.72 8.54 C-733.55 4.58, -742.42 3.84, -750.2 -0.03" stroke="#1e1e1e" stroke-width="2.5" fill="none" stroke-dasharray="1.5 6"></path></g></g><mask id="mask-QSvDj2l8VQBtUGkGZKyo6"><rect x="0" y="0" fill="#fff" width="2269" height="627"></rect><rect x="996.4880294799805" y="517" fill="#000" width="95.02394104003906" height="20" opacity="1"></rect></mask><g mask="url(#mask-2tNrIUKtRzoyNZK7hn-nf)" stroke-linecap="round"><g transform="translate(666 618) rotate(0 475 0)"><path d="M1.09 -0.7 C159.27 -0.67, 791.31 0.26, 949.47 0.57 M-0.05 1.54 C157.97 1.19, 790.23 -0.9, 948.51 -1.26" stroke="#1e1e1e" stroke-width="2" fill="none"></path></g><g transform="translate(666 618) rotate(0 475 0)"><path d="M925.04 7.36 C930.76 4.66, 939.79 3.15, 948.51 -1.26 M925.04 7.36 C934.01 4.93, 943.05 -0.27, 948.51 -1.26" stroke="#1e1e1e" stroke-width="2" fill="none"></path></g><g transform="translate(666 618) rotate(0 475 0)"><path d="M924.99 -9.74 C930.78 -7.4, 939.82 -3.87, 948.51 -1.26 M924.99 -9.74 C934.02 -5.41, 943.08 -3.86, 948.51 -1.26" stroke="#1e1e1e" stroke-width="2" fill="none"></path></g></g><mask id="mask-2tNrIUKtRzoyNZK7hn-nf"><rect x="0" y="0" fill="#fff" width="1716" height="718"></rect><rect x="1054.1200485229492" y="608" fill="#000" width="173.75990295410156" height="20" opacity="1"></rect></mask><g mask="url(#mask-gDUEHgD3v9UbgPz_lDomE)" stroke-linecap="round"><g transform="translate(1619 664) rotate(0 -475 0)"><path d="M-1.2 -0.03 C-159.34 -0.03, -791.07 0.53, -948.93 0.59" stroke="#1e1e1e" stroke-width="2.5" fill="none" stroke-dasharray="1.5 8"></path></g><g transform="translate(1619 664) rotate(0 -475 0)"><path d="M-925.45 -7.97 C-933.21 -4.33, -939.94 -0.55, -948.93 0.59" stroke="#1e1e1e" stroke-width="2.5" fill="none" stroke-dasharray="1.5 6"></path></g><g transform="translate(1619 664) rotate(0 -475 0)"><path d="M-925.44 9.13 C-933.29 7.11, -940.02 5.25, -948.93 0.59" stroke="#1e1e1e" stroke-width="2.5" fill="none" stroke-dasharray="1.5 6"></path></g></g><mask id="mask-gDUEHgD3v9UbgPz_lDomE"><rect x="0" y="0" fill="#fff" width="2669" height="764"></rect><rect x="1112.5840072631836" y="654" fill="#000" width="62.83198547363281" height="20" opacity="1"></rect></mask><g mask="url(#mask-3fXg9B0e9Mw41szP0iDiI)" stroke-linecap="round"><g transform="translate(666 755) rotate(0 175 0)"><path d="M0.47 0.57 C58.64 0.87, 291.87 1.25, 350.09 1.14 M-1 -0.18 C57.01 -0.12, 291.08 -0.61, 349.46 -0.38" stroke="#1e1e1e" stroke-width="2" fill="none"></path></g><g transform="translate(666 755) rotate(0 175 0)"><path d="M325.96 8.16 C335.17 6.16, 344.33 2.73, 349.46 -0.38 M325.96 8.16 C332.32 4.6, 340.23 2.94, 349.46 -0.38" stroke="#1e1e1e" stroke-width="2" fill="none"></path></g><g transform="translate(666 755) rotate(0 175 0)"><path d="M325.97 -8.95 C335.07 -4.96, 344.24 -2.42, 349.46 -0.38 M325.97 -8.95 C332.27 -7.52, 340.18 -4.2, 349.46 -0.38" stroke="#1e1e1e" stroke-width="2" fill="none"></path></g></g><mask id="mask-3fXg9B0e9Mw41szP0iDiI"><rect x="0" y="0" fill="#fff" width="1116" height="855"></rect><rect x="761.5040435791016" y="745" fill="#000" width="158.99191284179688" height="20" opacity="1"></rect></mask><g mask="url(#mask-U2GUrJmd5oqqmTqRgONE0)" stroke-linecap="round"><g transform="translate(666 801) rotate(0 575 0)"><path d="M1.07 0.59 C192.87 0.65, 959.25 0.48, 1150.64 0.32 M-0.09 -0.14 C191.72 -0.46, 958.85 -1.78, 1150.29 -1.63" stroke="#1e1e1e" stroke-width="2" fill="none"></path></g><g transform="translate(666 801) rotate(0 575 0)"><path d="M1126.8 6.94 C1133.46 6.66, 1138.69 2.52, 1150.29 -1.63 M1126.8 6.94 C1132.26 5.29, 1139.46 2.67, 1150.29 -1.63" stroke="#1e1e1e" stroke-width="2" fill="none"></path></g><g transform="translate(666 801) rotate(0 575 0)"><path d="M1126.79 -10.16 C1133.45 -6.31, 1138.68 -6.33, 1150.29 -1.63 M1126.79 -10.16 C1132.41 -7.17, 1139.62 -5.14, 1150.29 -1.63" stroke="#1e1e1e" stroke-width="2" fill="none"></path></g></g><mask id="mask-U2GUrJmd5oqqmTqRgONE0"><rect x="0" y="0" fill="#fff" width="1916" height="901"></rect><rect x="1165.5520477294922" y="791" fill="#000" width="150.89590454101562" height="20" opacity="1"></rect></mask><g mask="url(#mask-NhnH5B2nofB20hJcO2HIP)" stroke-linecap="round"><g transform="translate(1821 847) rotate(0 33.22174806772546 10.473360649509232)"><path d="M0.09 0.64 C10.23 -1.06, 50.4 -15.19, 60.32 -10.11 C70.25 -5.02, 69.73 26.22, 59.66 31.15 C49.59 36.08, 9.64 21.26, -0.11 19.49 M-1.05 0.19 C8.96 -1.36, 49.58 -13.49, 59.55 -8.62 C69.51 -3.75, 68.67 24.63, 58.71 29.41 C48.76 34.19, 9.59 21.48, -0.19 20.06" stroke="#1e1e1e" stroke-width="2" fill="none"></path></g><g transform="translate(1821 847) rotate(0 33.22174806772546 10.473360649509232)"><path d="M24.64 17.1 C19.16 18.64, 9.69 18.41, -0.19 20.06 M24.64 17.1 C15.36 18.04, 5.24 19.5, -0.19 20.06" stroke="#1e1e1e" stroke-width="2" fill="none"></path></g><g transform="translate(1821 847) rotate(0 33.22174806772546 10.473360649509232)"><path d="M20.73 33.74 C16.34 30.31, 8.04 25.13, -0.19 20.06 M20.73 33.74 C13.08 28.13, 4.51 23, -0.19 20.06" stroke="#1e1e1e" stroke-width="2" fill="none"></path></g></g><mask id="mask-NhnH5B2nofB20hJcO2HIP"><rect x="0" y="0" fill="#fff" width="1981" height="987"></rect><rect x="1811.6389825302022" y="838.1591262246232" fill="#000" width="153.679931640625" height="40" opacity="1"></rect></mask><g mask="url(#mask-idHTx7_L-ArOxQf4qkw8W)" stroke-linecap="round"><g transform="translate(666 963) rotate(0 175 0)"><path d="M1.64 0.32 C59.69 0.17, 291.23 -0.18, 349.39 -0.34 M0.78 -0.55 C58.62 -0.58, 290.11 0.86, 348.39 1.02" stroke="#1e1e1e" stroke-width="2" fill="none"></path></g><g transform="translate(666 963) rotate(0 175 0)"><path d="M324.86 9.46 C333.53 6.13, 340.59 5.29, 348.39 1.02 M324.86 9.46 C330.77 7.49, 336.91 5.52, 348.39 1.02" stroke="#1e1e1e" stroke-width="2" fill="none"></path></g><g transform="translate(666 963) rotate(0 175 0)"><path d="M324.94 -7.64 C333.67 -5.03, 340.7 0.06, 348.39 1.02 M324.94 -7.64 C330.69 -5.35, 336.81 -3.07, 348.39 1.02" stroke="#1e1e1e" stroke-width="2" fill="none"></path></g></g><mask id="mask-idHTx7_L-ArOxQf4qkw8W"><rect x="0" y="0" fill="#fff" width="1116" height="1063"></rect><rect x="758.920036315918" y="953" fill="#000" width="164.15992736816406" height="20" opacity="1"></rect></mask><g stroke-linecap="round"><g transform="translate(654 318) rotate(0 634 0)"><path d="M0 0 C442.98 -1.6, 886.87 -1.78, 1268 0" stroke="#adb5bd" stroke-width="2.5" fill="none" stroke-dasharray="1.5 8"></path></g></g><mask></mask><g stroke-linecap="round"><g transform="translate(1922 318) rotate(0 0 304.5)"><path d="M0 0 C0.43 241.33, 0.25 480.45, 0 609" stroke="#adb5bd" stroke-width="2.5" fill="none" stroke-dasharray="1.5 8"></path></g></g><mask></mask><g stroke-linecap="round"><g transform="translate(654 927) rotate(0 634 0)"><path d="M0 0 C415.43 1.03, 828.65 1.89, 1268 0" stroke="#adb5bd" stroke-width="2.5" fill="none" stroke-dasharray="1.5 8"></path></g></g><mask></mask><g stroke-linecap="round"><g transform="translate(654 318) rotate(0 0 304.5)"><path d="M0 0 C-1.1 176.69, -0.24 354.71, 0 609" stroke="#adb5bd" stroke-width="2.5" fill="none" stroke-dasharray="1.5 8"></path></g></g><mask></mask><g stroke-linecap="round"><g transform="translate(654 552) rotate(0 634 0)"><path d="M0 0 C343.69 3.04, 688.72 2.8, 1268 0" stroke="#adb5bd" stroke-width="2.5" fill="none" stroke-dasharray="1.5 8"></path></g></g><mask></mask><g stroke-linecap="round"><g transform="translate(654 689) rotate(0 634 0)"><path d="M0 0 C502.3 4.27, 1003.91 4.49, 1268 0" stroke="#adb5bd" stroke-width="2.5" fill="none" stroke-dasharray="1.5 8"></path></g></g><mask></mask><g transform="translate(1242.5703125 326) rotate(0 76.86395263671875 10)"><text x="0" y="0" font-family="Virgil, Segoe UI Emoji" font-size="16px" fill="#1e1e1e" text-anchor="start" style="white-space: pre;" direction="ltr" dominant-baseline="text-before-edge">[Email Notification]</text></g><g transform="translate(1218.9375 560) rotate(0 77.43195343017578 10)"><text x="0" y="0" font-family="Virgil, Segoe UI Emoji" font-size="16px" fill="#1e1e1e" text-anchor="start" style="white-space: pre;" direction="ltr" dominant-baseline="text-before-edge">[Slack Notification]</text></g><g transform="translate(1214.171875 697) rotate(0 81.73593139648438 10)"><text x="0" y="0" font-family="Virgil, Segoe UI Emoji" font-size="16px" fill="#1e1e1e" text-anchor="start" style="white-space: pre;" direction="ltr" dominant-baseline="text-before-edge">[In-App Notification]</text></g><g stroke-linecap="round" transform="translate(654 318) rotate(0 18 15)"><path d="M-0.42 -0.83 L36.75 -0.56 L36.69 30.08 L0.53 30.98" stroke="none" stroke-width="0" fill="#e9ecef"></path><path d="M0 0 C11.13 -0.94, 20.69 0.78, 36 0 M0 0 C9.17 -0.49, 18.66 -0.25, 36 0 M36 0 C36.55 10.3, 36.88 20.92, 36 30 M36 0 C35.4 7.19, 36.12 15.57, 36 30 M36 30 C27.59 29.54, 21.02 28.87, 0 30 M36 30 C23.69 30.38, 11.13 30.48, 0 30 M0 30 C-0.51 19.79, 0.61 9.14, 0 0 M0 30 C-0.25 23.48, -0.21 17.23, 0 0" stroke="#adb5bd" stroke-width="2" fill="none"></path></g><g transform="translate(33.120018005371094 32.5) rotate(0 51.879981994628906 10)"><text x="51.879981994628906" y="0" font-family="Virgil, Segoe UI Emoji" font-size="16px" fill="#000" text-anchor="middle" style="white-space: pre;" direction="ltr" dominant-baseline="text-before-edge">Event Source</text></g><g transform="translate(33.120018005371094 1015.5) rotate(0 51.879981994628906 10)"><text x="51.879981994628906" y="0" font-family="Virgil, Segoe UI Emoji" font-size="16px" fill="#000" text-anchor="middle" style="white-space: pre;" direction="ltr" dominant-baseline="text-before-edge">Event Source</text></g><g transform="translate(396.60802459716797 32.5) rotate(0 60.39197540283203 10)"><text x="60.39197540283203" y="0" font-family="Virgil, Segoe UI Emoji" font-size="16px" fill="#000" text-anchor="middle" style="white-space: pre;" direction="ltr" dominant-baseline="text-before-edge">Message Queue</text></g><g transform="translate(396.60802459716797 1015.5) rotate(0 60.39197540283203 10)"><text x="60.39197540283203" y="0" font-family="Virgil, Segoe UI Emoji" font-size="16px" fill="#000" text-anchor="middle" style="white-space: pre;" direction="ltr" dominant-baseline="text-before-edge">Message Queue</text></g><g transform="translate(600.816047668457 32.5) rotate(0 64.18395233154297 10)"><text x="64.18395233154297" y="0" font-family="Virgil, Segoe UI Emoji" font-size="16px" fill="#000" text-anchor="middle" style="white-space: pre;" direction="ltr" dominant-baseline="text-before-edge">Notification API</text></g><g transform="translate(600.816047668457 1015.5) rotate(0 64.18395233154297 10)"><text x="64.18395233154297" y="0" font-family="Virgil, Segoe UI Emoji" font-size="16px" fill="#000" text-anchor="middle" style="white-space: pre;" direction="ltr" dominant-baseline="text-before-edge">Notification API</text></g><g transform="translate(980.4480209350586 32.5) rotate(0 39.551979064941406 10)"><text x="39.551979064941406" y="0" font-family="Virgil, Segoe UI Emoji" font-size="16px" fill="#000" text-anchor="middle" style="white-space: pre;" direction="ltr" dominant-baseline="text-before-edge">Database</text></g><g transform="translate(980.4480209350586 1015.5) rotate(0 39.551979064941406 10)"><text x="39.551979064941406" y="0" font-family="Virgil, Segoe UI Emoji" font-size="16px" fill="#000" text-anchor="middle" style="white-space: pre;" direction="ltr" dominant-baseline="text-before-edge">Database</text></g><g transform="translate(1156.848030090332 32.5) rotate(0 63.15196990966797 10)"><text x="63.15196990966797" y="0" font-family="Virgil, Segoe UI Emoji" font-size="16px" fill="#000" text-anchor="middle" style="white-space: pre;" direction="ltr" dominant-baseline="text-before-edge">Template Engine</text></g><g transform="translate(1156.848030090332 1015.5) rotate(0 63.15196990966797 10)"><text x="63.15196990966797" y="0" font-family="Virgil, Segoe UI Emoji" font-size="16px" fill="#000" text-anchor="middle" style="white-space: pre;" direction="ltr" dominant-baseline="text-before-edge">Template Engine</text></g><g transform="translate(1364.888038635254 32.5) rotate(0 55.111961364746094 10)"><text x="55.111961364746094" y="0" font-family="Virgil, Segoe UI Emoji" font-size="16px" fill="#000" text-anchor="middle" style="white-space: pre;" direction="ltr" dominant-baseline="text-before-edge">Email Provider</text></g><g transform="translate(1364.888038635254 1015.5) rotate(0 55.111961364746094 10)"><text x="55.111961364746094" y="0" font-family="Virgil, Segoe UI Emoji" font-size="16px" fill="#000" text-anchor="middle" style="white-space: pre;" direction="ltr" dominant-baseline="text-before-edge">Email Provider</text></g><g transform="translate(1580.8880310058594 32.5) rotate(0 39.111968994140625 10)"><text x="39.111968994140625" y="0" font-family="Virgil, Segoe UI Emoji" font-size="16px" fill="#000" text-anchor="middle" style="white-space: pre;" direction="ltr" dominant-baseline="text-before-edge">Slack API</text></g><g transform="translate(1580.8880310058594 1015.5) rotate(0 39.111968994140625 10)"><text x="39.111968994140625" y="0" font-family="Virgil, Segoe UI Emoji" font-size="16px" fill="#000" text-anchor="middle" style="white-space: pre;" direction="ltr" dominant-baseline="text-before-edge">Slack API</text></g><g transform="translate(1780.488021850586 32.5) rotate(0 39.51197814941406 10)"><text x="39.51197814941406" y="0" font-family="Virgil, Segoe UI Emoji" font-size="16px" fill="#000" text-anchor="middle" style="white-space: pre;" direction="ltr" dominant-baseline="text-before-edge">WS Server</text></g><g transform="translate(1780.488021850586 1015.5) rotate(0 39.51197814941406 10)"><text x="39.51197814941406" y="0" font-family="Virgil, Segoe UI Emoji" font-size="16px" fill="#000" text-anchor="middle" style="white-space: pre;" direction="ltr" dominant-baseline="text-before-edge">WS Server</text></g><g transform="translate(861.0760650634766 94.5) rotate(0 91.42393493652344 10)"><text x="91.42393493652344" y="0" font-family="Virgil, Segoe UI Emoji" font-size="16px" fill="#000" text-anchor="middle" style="white-space: pre;" direction="ltr" dominant-baseline="text-before-edge">Cost Alert Notification</text></g><g transform="translate(158.3320770263672 140) rotate(0 111.69576641750986 19.561092252233067)"><text x="111.16792297363281" y="0" font-family="Virgil, Segoe UI Emoji" font-size="16px" fill="#1e1e1e" text-anchor="middle" style="white-space: pre;" direction="ltr" dominant-baseline="text-before-edge">Publish {type: 'cost_alert', </text><text x="111.16792297363281" y="20" font-family="Virgil, Segoe UI Emoji" font-size="16px" fill="#1e1e1e" text-anchor="middle" style="white-space: pre;" direction="ltr" dominant-baseline="text-before-edge">threshold: 1000}</text></g><g transform="translate(492.00404357910156 196) rotate(0 67.22069206755145 10.033964593345303)"><text x="67.49595642089844" y="0" font-family="Virgil, Segoe UI Emoji" font-size="16px" fill="#1e1e1e" text-anchor="middle" style="white-space: pre;" direction="ltr" dominant-baseline="text-before-edge">Consume message</text></g><g transform="translate(756.7760543823242 242) rotate(0 84.08496459499003 9.492669049841112)"><text x="84.22394561767578" y="0" font-family="Virgil, Segoe UI Emoji" font-size="16px" fill="#1e1e1e" text-anchor="middle" style="white-space: pre;" direction="ltr" dominant-baseline="text-before-edge">Get user preferences</text></g><g transform="translate(762.3520431518555 278) rotate(0 82.09501078352332 20.144757403861234)"><text x="81.64795684814453" y="0" font-family="Virgil, Segoe UI Emoji" font-size="16px" fill="#1e1e1e" text-anchor="middle" style="white-space: pre;" direction="ltr" dominant-baseline="text-before-edge">{emailEnabled: true, </text><text x="81.64795684814453" y="20" font-family="Virgil, Segoe UI Emoji" font-size="16px" fill="#1e1e1e" text-anchor="middle" style="white-space: pre;" direction="ltr" dominant-baseline="text-before-edge">slackEnabled: true}</text></g><g transform="translate(854.2240524291992 379) rotate(0 86.2777452569967 9.438778802589496)"><text x="86.77594757080078" y="0" font-family="Virgil, Segoe UI Emoji" font-size="16px" fill="#1e1e1e" text-anchor="middle" style="white-space: pre;" direction="ltr" dominant-baseline="text-before-edge">Render email template</text></g><g transform="translate(888.9040145874023 425) rotate(0 55.479600097984076 10.264478287845861)"><text x="55.095985412597656" y="0" font-family="Virgil, Segoe UI Emoji" font-size="16px" fill="#1e1e1e" text-anchor="middle" style="white-space: pre;" direction="ltr" dominant-baseline="text-before-edge">HTML content</text></g><g transform="translate(1000.8400192260742 471) rotate(0 39.677807517326414 9.888286194277754)"><text x="40.15998077392578" y="0" font-family="Virgil, Segoe UI Emoji" font-size="16px" fill="#1e1e1e" text-anchor="middle" style="white-space: pre;" direction="ltr" dominant-baseline="text-before-edge">Send email</text></g><g transform="translate(996.4880294799805 517) rotate(0 47.34340312704444 10.283397251893291)"><text x="47.51197052001953" y="0" font-family="Virgil, Segoe UI Emoji" font-size="16px" fill="#1e1e1e" text-anchor="middle" style="white-space: pre;" direction="ltr" dominant-baseline="text-before-edge">Message ID</text></g><g transform="translate(1054.1200485229492 608) rotate(0 86.58968909261284 10.141967732803892)"><text x="86.87995147705078" y="0" font-family="Virgil, Segoe UI Emoji" font-size="16px" fill="#1e1e1e" text-anchor="middle" style="white-space: pre;" direction="ltr" dominant-baseline="text-before-edge">POST webhook {text}</text></g><g transform="translate(1112.5840072631836 654) rotate(0 31.34783344492314 10.282820998579894)"><text x="31.415992736816406" y="0" font-family="Virgil, Segoe UI Emoji" font-size="16px" fill="#1e1e1e" text-anchor="middle" style="white-space: pre;" direction="ltr" dominant-baseline="text-before-edge">200 OK</text></g><g transform="translate(761.5040435791016 745) rotate(0 79.0420459887153 10.358825605997708)"><text x="79.49595642089844" y="0" font-family="Virgil, Segoe UI Emoji" font-size="16px" fill="#1e1e1e" text-anchor="middle" style="white-space: pre;" direction="ltr" dominant-baseline="text-before-edge">INSERT notification</text></g><g transform="translate(1165.5520477294922 791) rotate(0 75.7207129640459 9.481919653461546)"><text x="75.44795227050781" y="0" font-family="Virgil, Segoe UI Emoji" font-size="16px" fill="#1e1e1e" text-anchor="middle" style="white-space: pre;" direction="ltr" dominant-baseline="text-before-edge">Broadcast to user</text></g><g transform="translate(1811.6389825302024 838.1591262246232) rotate(0 42.58276553752307 19.31423442488608)"><text x="76.8399658203125" y="0" font-family="Virgil, Segoe UI Emoji" font-size="16px" fill="#1e1e1e" text-anchor="middle" style="white-space: pre;" direction="ltr" dominant-baseline="text-before-edge">Push to connected </text><text x="76.8399658203125" y="20" font-family="Virgil, Segoe UI Emoji" font-size="16px" fill="#1e1e1e" text-anchor="middle" style="white-space: pre;" direction="ltr" dominant-baseline="text-before-edge">clients</text></g><g transform="translate(758.920036315918 953) rotate(0 82.1671540043829 10.232872968835636)"><text x="82.07996368408203" y="0" font-family="Virgil, Segoe UI Emoji" font-size="16px" fill="#1e1e1e" text-anchor="middle" style="white-space: pre;" direction="ltr" dominant-baseline="text-before-edge">Log notification sent</text></g><g transform="translate(659.2800140380859 323) rotate(0 12.719985961914062 10)"><text x="12.719985961914062" y="0" font-family="Virgil, Segoe UI Emoji" font-size="16px" fill="#000" text-anchor="middle" style="white-space: pre;" direction="ltr" dominant-baseline="text-before-edge">par</text></g></svg>