<svg version="1.1" xmlns="http://www.w3.org/2000/svg" viewBox="0 0 2032.5 1328" width="2032.5" height="1328">
  <!-- svg-source:excalidraw -->
  
  <defs>
    <style class="style-fonts">
      @font-face {
        font-family: "Virgil";
        src: url("https://unpkg.com/@excalidraw/excalidraw@undefined/dist/excalidraw-assets/Virgil.woff2");
      }
      @font-face {
        font-family: "Cascadia";
        src: url("https://unpkg.com/@excalidraw/excalidraw@undefined/dist/excalidraw-assets/Cascadia.woff2");
      }
      @font-face {
        font-family: "Assistant";
        src: url("https://unpkg.com/@excalidraw/excalidraw@undefined/dist/excalidraw-assets/Assistant-Regular.woff2");
      }
    </style>
    
  </defs>
  <rect x="0" y="0" width="2032.5" height="1328" fill="#fafafa"></rect><g stroke-linecap="round" transform="translate(10 10) rotate(0 75 32.5)"><path d="M0 0 C59.29 -2.8, 116.8 -0.78, 150 0 M0 0 C57.8 -0.11, 116.9 -0.11, 150 0 M150 0 C150.7 16.27, 151.91 34.22, 150 65 M150 0 C149.82 19.31, 150.03 40.03, 150 65 M150 65 C106.83 64.26, 66.88 62.98, 0 65 M150 65 C105.94 66.2, 59.82 65.44, 0 65 M0 65 C1.41 41.2, 1.54 13.31, 0 0 M0 65 C1.11 40.23, 1.42 16.42, 0 0" stroke="#1e1e1e" stroke-width="2" fill="none"></path></g><g stroke-linecap="round" transform="translate(10 1253) rotate(0 75 32.5)"><path d="M0 0 C28.95 -1.84, 61.92 1.85, 150 0 M0 0 C30.11 0.91, 60.24 0.79, 150 0 M150 0 C149.26 22.29, 150.28 41.01, 150 65 M150 0 C149.83 24.38, 150.91 49.59, 150 65 M150 65 C116.14 65.25, 80.24 64.19, 0 65 M150 65 C112.32 66.31, 73.36 67.41, 0 65 M0 65 C2.1 48.99, 0 31.75, 0 0 M0 65 C-0.16 51.23, 0.15 35.88, 0 0" stroke="#1e1e1e" stroke-width="2" fill="none"></path></g><g stroke-linecap="round" transform="translate(267 10) rotate(0 100 32.5)"><path d="M0 0 C69.16 1.83, 143.32 0.01, 200 0 M0 0 C60.9 0.02, 121.94 0.17, 200 0 M200 0 C202.01 19.11, 200.24 39.16, 200 65 M200 0 C199.02 21.9, 199.34 41.61, 200 65 M200 65 C160.77 65.19, 119.63 64.85, 0 65 M200 65 C130.71 65.7, 62.53 65.63, 0 65 M0 65 C0.94 46.42, 1.03 26.58, 0 0 M0 65 C0.53 50.11, -0.1 35.18, 0 0" stroke="#1e1e1e" stroke-width="2" fill="none"></path></g><g stroke-linecap="round" transform="translate(267 1253) rotate(0 100 32.5)"><path d="M0 0 C59.57 3.32, 117.29 1.79, 200 0 M0 0 C44.16 0.14, 88.49 0.39, 200 0 M200 0 C200.14 21.51, 201.44 43.44, 200 65 M200 0 C200.53 14.6, 199.09 28.59, 200 65 M200 65 C150.33 65.96, 100.82 66.78, 0 65 M200 65 C120.57 65.63, 41.28 64.62, 0 65 M0 65 C-0.75 43.04, -2.12 16.72, 0 0 M0 65 C0.08 41.68, -0.3 17.92, 0 0" stroke="#1e1e1e" stroke-width="2" fill="none"></path></g><g stroke-linecap="round" transform="translate(562 10) rotate(0 75 32.5)"><path d="M0 0 C31.88 -2.01, 60.25 -1.61, 150 0 M0 0 C44.3 0.18, 89.28 0.33, 150 0 M150 0 C150.63 19, 151.1 33.24, 150 65 M150 0 C149.47 16.66, 148.68 34.16, 150 65 M150 65 C99.41 63.69, 49.74 66.52, 0 65 M150 65 C98.26 64.3, 44.43 65.23, 0 65 M0 65 C0.99 37.53, -1.96 14.28, 0 0 M0 65 C-0.3 49.05, -0.43 35.25, 0 0" stroke="#1e1e1e" stroke-width="2" fill="none"></path></g><g stroke-linecap="round" transform="translate(562 1253) rotate(0 75 32.5)"><path d="M0 0 C28.97 -1.24, 60.32 -1.4, 150 0 M0 0 C41.05 0.48, 82.1 0.26, 150 0 M150 0 C151.78 25.88, 148.67 50.09, 150 65 M150 0 C149.79 15.18, 149.94 32.71, 150 65 M150 65 C96.16 65.92, 46.05 66.03, 0 65 M150 65 C106.66 66.3, 64.59 67.45, 0 65 M0 65 C-1.44 39.66, 1.3 16.06, 0 0 M0 65 C-0.5 39.56, 0.94 13.11, 0 0" stroke="#1e1e1e" stroke-width="2" fill="none"></path></g><g stroke-linecap="round" transform="translate(762 10) rotate(0 75 32.5)"><path d="M0 0 C45.4 -0.1, 90.52 0.94, 150 0 M0 0 C44.6 0.08, 89.1 0.68, 150 0 M150 0 C150.52 19.22, 149.35 40.31, 150 65 M150 0 C148.88 23.81, 150.25 49.23, 150 65 M150 65 C109.94 66.24, 69.07 64.05, 0 65 M150 65 C108.56 65.1, 68.43 65.16, 0 65 M0 65 C-1.99 47.1, -1.78 28.53, 0 0 M0 65 C-0.02 48.45, -0.84 31.3, 0 0" stroke="#1e1e1e" stroke-width="2" fill="none"></path></g><g stroke-linecap="round" transform="translate(762 1253) rotate(0 75 32.5)"><path d="M0 0 C57.01 -0.13, 116.63 -0.12, 150 0 M0 0 C39.38 -0.16, 79.05 0.35, 150 0 M150 0 C149.09 18.98, 149.51 40.78, 150 65 M150 0 C149.01 18.61, 150.08 36.21, 150 65 M150 65 C106.9 66.72, 59.68 65.19, 0 65 M150 65 C91.06 65.76, 31.6 64.71, 0 65 M0 65 C1.75 39.57, 2.36 16.07, 0 0 M0 65 C1.18 42.83, 1.29 22.03, 0 0" stroke="#1e1e1e" stroke-width="2" fill="none"></path></g><g stroke-linecap="round" transform="translate(962 10) rotate(0 75 32.5)"><path d="M0 0 C30.09 0.64, 60.22 0.4, 150 0 M0 0 C46.94 0.45, 94.72 -0.43, 150 0 M150 0 C149.5 23.87, 151.66 49.4, 150 65 M150 0 C149.73 15.53, 149.09 30, 150 65 M150 65 C112.83 66.17, 73.11 68.38, 0 65 M150 65 C111 66.56, 69.94 66.61, 0 65 M0 65 C-0.82 52.17, -0.19 36.19, 0 0 M0 65 C-0.75 51.03, -0.01 35.16, 0 0" stroke="#1e1e1e" stroke-width="2" fill="none"></path></g><g stroke-linecap="round" transform="translate(962 1253) rotate(0 75 32.5)"><path d="M0 0 C45.31 -0.01, 90.93 0.33, 150 0 M0 0 C44.18 0.68, 86.57 1.33, 150 0 M150 0 C148.5 22.64, 149.14 40.91, 150 65 M150 0 C150.18 12.79, 149.65 25.67, 150 65 M150 65 C97.85 65.28, 48.18 65.1, 0 65 M150 65 C108.03 66.45, 65.44 65.76, 0 65 M0 65 C1.47 49.76, 0.21 34.46, 0 0 M0 65 C0.36 44.41, -0.73 23.75, 0 0" stroke="#1e1e1e" stroke-width="2" fill="none"></path></g><g stroke-linecap="round" transform="translate(1162 10) rotate(0 75 32.5)"><path d="M0 0 C33.09 -0.38, 66.57 0.18, 150 0 M0 0 C49.72 -1.33, 99.91 -1.1, 150 0 M150 0 C151.28 14.4, 148.4 27.6, 150 65 M150 0 C149.97 15.99, 149.79 32.43, 150 65 M150 65 C90.1 66.74, 30.52 64.49, 0 65 M150 65 C96 66.71, 41.36 65.23, 0 65 M0 65 C-0.26 42, -1.02 18.11, 0 0 M0 65 C0.52 40.61, 0.56 16.57, 0 0" stroke="#1e1e1e" stroke-width="2" fill="none"></path></g><g stroke-linecap="round" transform="translate(1162 1253) rotate(0 75 32.5)"><path d="M0 0 C43.91 0.33, 89.16 0.63, 150 0 M0 0 C40.05 0.56, 80.31 -0.99, 150 0 M150 0 C149.28 15.97, 147.69 33.62, 150 65 M150 0 C150.35 21.47, 150.8 44.81, 150 65 M150 65 C99.23 63.96, 44.27 65.82, 0 65 M150 65 C90.72 64.19, 29.25 65.56, 0 65 M0 65 C0.01 48.32, -0.24 35.97, 0 0 M0 65 C-0.8 49.76, -0.72 35.02, 0 0" stroke="#1e1e1e" stroke-width="2" fill="none"></path></g><g stroke-linecap="round" transform="translate(1375.5 10) rotate(0 78.5 32.5)"><path d="M0 0 C43.11 0.39, 86.22 -0.04, 157 0 M0 0 C62.13 0.22, 121.87 -0.36, 157 0 M157 0 C156.1 14.19, 156.4 33.08, 157 65 M157 0 C156.37 23.4, 157.79 46.39, 157 65 M157 65 C111.32 66.21, 68.17 68.52, 0 65 M157 65 C98.74 65.35, 42.6 65.46, 0 65 M0 65 C-1.23 39.74, 1.65 12.48, 0 0 M0 65 C0.08 40, 0.73 15.95, 0 0" stroke="#1e1e1e" stroke-width="2" fill="none"></path></g><g stroke-linecap="round" transform="translate(1375.5 1253) rotate(0 78.5 32.5)"><path d="M0 0 C46.57 0.37, 92.94 1.57, 157 0 M0 0 C50.18 -2.03, 99.52 -1.82, 157 0 M157 0 C154.89 23.27, 157.62 49.76, 157 65 M157 0 C157.46 18.72, 157.51 35.38, 157 65 M157 65 C113.48 65.67, 72.58 65.8, 0 65 M157 65 C109.92 64.48, 63.71 64.79, 0 65 M0 65 C0.17 49.17, -1.47 32.12, 0 0 M0 65 C-0.01 45.6, 0.75 25.59, 0 0" stroke="#1e1e1e" stroke-width="2" fill="none"></path></g><g stroke-linecap="round" transform="translate(1582.5 10) rotate(0 75 32.5)"><path d="M0 0 C39.68 -0.49, 79.95 0.53, 150 0 M0 0 C44.6 -0.71, 90.14 0.37, 150 0 M150 0 C148.47 18.98, 150.61 35.94, 150 65 M150 0 C150.67 20.02, 149.57 38.77, 150 65 M150 65 C91.66 66.76, 32.26 64.66, 0 65 M150 65 C94.98 63.2, 39.63 63.51, 0 65 M0 65 C1.89 42.2, 2.11 22.14, 0 0 M0 65 C0.7 47.81, 0.88 29.11, 0 0" stroke="#1e1e1e" stroke-width="2" fill="none"></path></g><g stroke-linecap="round" transform="translate(1582.5 1253) rotate(0 75 32.5)"><path d="M0 0 C46.61 1.35, 94.9 -0.41, 150 0 M0 0 C57.11 0.57, 115.63 0.89, 150 0 M150 0 C150.1 16.06, 148.82 30, 150 65 M150 0 C150.81 16.42, 150.05 34.07, 150 65 M150 65 C112 67.22, 69.89 67.32, 0 65 M150 65 C115.38 66.9, 81.73 66.27, 0 65 M0 65 C-1.39 51.85, 0.09 34.9, 0 0 M0 65 C0.7 45.51, -0.24 23.38, 0 0" stroke="#1e1e1e" stroke-width="2" fill="none"></path></g><g stroke-linecap="round" transform="translate(1872.5 10) rotate(0 75 32.5)"><path d="M0 0 C45.08 0.86, 86.59 2.16, 150 0 M0 0 C48.29 1.24, 97.42 -0.2, 150 0 M150 0 C150.71 12.52, 149.65 25.21, 150 65 M150 0 C150.49 22.23, 151.59 44.63, 150 65 M150 65 C108.69 66.4, 66.15 65.03, 0 65 M150 65 C117.37 63.67, 83.18 63.29, 0 65 M0 65 C1.17 44.51, -1 23.9, 0 0 M0 65 C0.46 46.34, -1.21 28.04, 0 0" stroke="#1e1e1e" stroke-width="2" fill="none"></path></g><g stroke-linecap="round" transform="translate(1872.5 1253) rotate(0 75 32.5)"><path d="M0 0 C49.9 -1.31, 100.74 -0.85, 150 0 M0 0 C34.88 0.58, 67.58 -0.22, 150 0 M150 0 C149.71 15.99, 149.34 32.89, 150 65 M150 0 C150.09 26.71, 150 51.33, 150 65 M150 65 C95.95 67.42, 40.63 64.47, 0 65 M150 65 C95.12 66.73, 40.21 66.6, 0 65 M0 65 C0.63 40.35, 0.71 16.39, 0 0 M0 65 C-0.73 39.63, -0.73 15.79, 0 0" stroke="#1e1e1e" stroke-width="2" fill="none"></path></g><g stroke-linecap="round" transform="translate(60 85) rotate(0 709.5 19.5)"><path d="M0 0 C378.66 -0.36, 757.49 -1.6, 1419 0 M1419 0 C1418.41 9.03, 1416.82 19.74, 1419 39 M1419 39 C940.42 37.12, 462.21 38.25, 0 39 M0 39 C1.99 24.63, -0.26 12.79, 0 0" stroke="#1e1e1e" stroke-width="2.5" fill="none" stroke-dasharray="8 10"></path></g><g stroke-linecap="round" transform="translate(60 826) rotate(0 709.5 19.5)"><path d="M0 0 C554.67 0.08, 1107.44 -0.39, 1419 0 M1419 0 C1417.91 7.72, 1418.21 20.15, 1419 39 M1419 39 C917.89 39.38, 418.27 39.42, 0 39 M0 39 C-0.57 27.5, 1.29 18.64, 0 0" stroke="#1e1e1e" stroke-width="2.5" fill="none" stroke-dasharray="8 10"></path></g><g stroke-linecap="round"><g transform="translate(85 75) rotate(0 0 589)"><path d="M0 0 C0.31 374.01, -0.16 748.76, 0 1178 M0 0 C-1.31 441.08, -0.76 882.81, 0 1178" stroke="#999" stroke-width="1" fill="none"></path></g></g><mask></mask><g stroke-linecap="round"><g transform="translate(367 75) rotate(0 0 589)"><path d="M0 0 C3.33 355.7, 3.5 712.53, 0 1178 M0 0 C-3.48 330.7, -3.05 661, 0 1178" stroke="#999" stroke-width="1" fill="none"></path></g></g><mask></mask><g stroke-linecap="round"><g transform="translate(637 75) rotate(0 0 589)"><path d="M0 0 C0.93 450.71, 1.79 902.09, 0 1178 M0 0 C-4.52 272.01, -4.78 543.6, 0 1178" stroke="#999" stroke-width="1" fill="none"></path></g></g><mask></mask><g stroke-linecap="round"><g transform="translate(837 75) rotate(0 0 589)"><path d="M0 0 C-3.82 383.89, -3.57 766.02, 0 1178 M0 0 C-2.34 236.59, -2.55 473.22, 0 1178" stroke="#999" stroke-width="1" fill="none"></path></g></g><mask></mask><g stroke-linecap="round"><g transform="translate(1037 75) rotate(0 0 589)"><path d="M0 0 C-0.96 267.93, -2.11 535.38, 0 1178 M0 0 C1.65 289.69, 1.57 579.57, 0 1178" stroke="#999" stroke-width="1" fill="none"></path></g></g><mask></mask><g stroke-linecap="round"><g transform="translate(1237 75) rotate(0 0 589)"><path d="M0 0 C-2.57 313.9, -3.21 628.47, 0 1178 M0 0 C2.49 397.12, 2.68 794.98, 0 1178" stroke="#999" stroke-width="1" fill="none"></path></g></g><mask></mask><g stroke-linecap="round"><g transform="translate(1454 75) rotate(0 0 589)"><path d="M0 0 C2.96 292.21, 3.08 586.31, 0 1178 M0 0 C-1.44 415.89, -0.88 831.61, 0 1178" stroke="#999" stroke-width="1" fill="none"></path></g></g><mask></mask><g stroke-linecap="round"><g transform="translate(1657.5 75) rotate(0 0 589)"><path d="M0 0 C-1.71 440.86, -0.62 883.02, 0 1178 M0 0 C0.19 322.22, 0.21 643.61, 0 1178" stroke="#999" stroke-width="1" fill="none"></path></g></g><mask></mask><g stroke-linecap="round"><g transform="translate(1947.5 75) rotate(0 0 589)"><path d="M0 0 C-3.7 330.85, -2.84 660.89, 0 1178 M0 0 C-1.75 353.8, -2.19 707.1, 0 1178" stroke="#999" stroke-width="1" fill="none"></path></g></g><mask></mask><g mask="url(#mask-3bUJIIxKRnVrvrsWR9K6Y)" stroke-linecap="round"><g transform="translate(86 160) rotate(0 138.5 0)"><path d="M-0.15 0.45 C46.1 0.59, 231.03 -0.16, 277.13 -0.32 M1.71 -0.36 C47.93 0.06, 230.85 0.91, 276.52 1.05" stroke="#1e1e1e" stroke-width="2" fill="none"></path></g><g transform="translate(86 160) rotate(0 138.5 0)"><path d="M252.99 9.5 C259.25 8.74, 263.4 5.73, 276.52 1.05 M252.99 9.5 C259.46 6.99, 264.69 5.94, 276.52 1.05" stroke="#1e1e1e" stroke-width="2" fill="none"></path></g><g transform="translate(86 160) rotate(0 138.5 0)"><path d="M253.06 -7.6 C259.13 -4.42, 263.27 -3.48, 276.52 1.05 M253.06 -7.6 C259.59 -5.76, 264.8 -2.45, 276.52 1.05" stroke="#1e1e1e" stroke-width="2" fill="none"></path></g></g><mask id="mask-3bUJIIxKRnVrvrsWR9K6Y"><rect x="0" y="0" fill="#fff" width="463" height="260"></rect><rect x="130.21205139160156" y="140" fill="#000" width="188.57589721679688" height="40" opacity="1"></rect></mask><g mask="url(#mask-P9msQKf8feD67Jh5aV9IR)" stroke-linecap="round"><g transform="translate(368 206) rotate(0 132.5 0)"><path d="M0.95 0.63 C45.09 0.74, 220.34 0.02, 264.18 0 M-0.28 -0.08 C43.79 0.29, 219.2 1.78, 263.06 1.54" stroke="#1e1e1e" stroke-width="2" fill="none"></path></g><g transform="translate(368 206) rotate(0 132.5 0)"><path d="M239.55 10.03 C245.38 7.7, 249.05 5.62, 263.06 1.54 M239.55 10.03 C247.47 6.73, 256.7 3.7, 263.06 1.54" stroke="#1e1e1e" stroke-width="2" fill="none"></path></g><g transform="translate(368 206) rotate(0 132.5 0)"><path d="M239.59 -7.07 C245.32 -5.96, 248.98 -4.6, 263.06 1.54 M239.59 -7.07 C247.66 -4.46, 256.88 -1.57, 263.06 1.54" stroke="#1e1e1e" stroke-width="2" fill="none"></path></g></g><mask id="mask-P9msQKf8feD67Jh5aV9IR"><rect x="0" y="0" fill="#fff" width="733" height="306"></rect><rect x="433.31603240966797" y="186" fill="#000" width="134.36793518066406" height="40" opacity="1"></rect></mask><g mask="url(#mask-hAN0nqifcOw0-q54XzaXq)" stroke-linecap="round"><g transform="translate(636 252) rotate(0 -132.5 0)"><path d="M0.13 -0.32 C-43.76 -0.49, -220.48 -0.79, -264.5 -0.54" stroke="#1e1e1e" stroke-width="2.5" fill="none" stroke-dasharray="1.5 8"></path></g><g transform="translate(636 252) rotate(0 -132.5 0)"><path d="M-241.02 -9.13 C-247.3 -6.89, -253.44 -3.86, -264.5 -0.54" stroke="#1e1e1e" stroke-width="2.5" fill="none" stroke-dasharray="1.5 6"></path></g><g transform="translate(636 252) rotate(0 -132.5 0)"><path d="M-240.99 7.97 C-247.34 6.01, -253.49 4.83, -264.5 -0.54" stroke="#1e1e1e" stroke-width="2.5" fill="none" stroke-dasharray="1.5 6"></path></g></g><mask id="mask-hAN0nqifcOw0-q54XzaXq"><rect x="0" y="0" fill="#fff" width="1001" height="352"></rect><rect x="451.8280334472656" y="242" fill="#000" width="103.34393310546875" height="20" opacity="1"></rect></mask><g mask="url(#mask-S7pCTg2EHlLNxplmjMoe2)" stroke-linecap="round"><g transform="translate(368 343) rotate(0 232.5 0)"><path d="M0.18 0 C77.35 -0.01, 386.38 0.45, 463.96 0.55 M2.21 -1.04 C79.13 -1.47, 385.51 -1.22, 462.72 -1.28" stroke="#1e1e1e" stroke-width="2" fill="none"></path></g><g transform="translate(368 343) rotate(0 232.5 0)"><path d="M439.23 7.27 C447.11 3.54, 455.95 3.48, 462.72 -1.28 M439.23 7.27 C448.46 3.99, 455.59 1.91, 462.72 -1.28" stroke="#1e1e1e" stroke-width="2" fill="none"></path></g><g transform="translate(368 343) rotate(0 232.5 0)"><path d="M439.23 -9.83 C447.2 -7.79, 456.04 -2.08, 462.72 -1.28 M439.23 -9.83 C448.44 -7.1, 455.57 -3.17, 462.72 -1.28" stroke="#1e1e1e" stroke-width="2" fill="none"></path></g></g><mask id="mask-S7pCTg2EHlLNxplmjMoe2"><rect x="0" y="0" fill="#fff" width="933" height="443"></rect><rect x="452.74810791015625" y="323" fill="#000" width="295.5037841796875" height="40" opacity="1"></rect></mask><g mask="url(#mask-qQ5IvICJ8tdpy0NtAZSm7)" stroke-linecap="round"><g transform="translate(836 389) rotate(0 -232.5 0)"><path d="M-0.5 -0.54 C-77.85 -0.3, -386.72 1.09, -463.95 1.15" stroke="#1e1e1e" stroke-width="2.5" fill="none" stroke-dasharray="1.5 8"></path></g><g transform="translate(836 389) rotate(0 -232.5 0)"><path d="M-440.48 -7.47 C-449.69 -3.51, -455.15 -0.36, -463.95 1.15" stroke="#1e1e1e" stroke-width="2.5" fill="none" stroke-dasharray="1.5 6"></path></g><g transform="translate(836 389) rotate(0 -232.5 0)"><path d="M-440.43 9.63 C-449.62 7.56, -455.09 4.68, -463.95 1.15" stroke="#1e1e1e" stroke-width="2.5" fill="none" stroke-dasharray="1.5 6"></path></g></g><mask id="mask-qQ5IvICJ8tdpy0NtAZSm7"><rect x="0" y="0" fill="#fff" width="1401" height="489"></rect><rect x="484.4520797729492" y="379" fill="#000" width="238.09584045410156" height="20" opacity="1"></rect></mask><g mask="url(#mask-Ci84mIH78cjA6YL1h5ZPY)" stroke-linecap="round"><g transform="translate(368 435) rotate(0 332.5 0)"><path d="M-0.04 0.55 C110.87 0.65, 554.92 0.76, 665.65 0.62 M1.87 -0.21 C112.75 -0.46, 555.04 -1.36, 665.31 -1.18" stroke="#1e1e1e" stroke-width="2" fill="none"></path></g><g transform="translate(368 435) rotate(0 332.5 0)"><path d="M641.82 7.38 C649.16 7.07, 655.68 2.54, 665.31 -1.18 M641.82 7.38 C648.05 5.7, 655.67 3.41, 665.31 -1.18" stroke="#1e1e1e" stroke-width="2" fill="none"></path></g><g transform="translate(368 435) rotate(0 332.5 0)"><path d="M641.81 -9.72 C649.15 -5.36, 655.68 -5.22, 665.31 -1.18 M641.81 -9.72 C648.21 -6.7, 655.83 -4.28, 665.31 -1.18" stroke="#1e1e1e" stroke-width="2" fill="none"></path></g></g><mask id="mask-Ci84mIH78cjA6YL1h5ZPY"><rect x="0" y="0" fill="#fff" width="1133" height="535"></rect><rect x="519.7161102294922" y="425" fill="#000" width="361.5677795410156" height="20" opacity="1"></rect></mask><g mask="url(#mask-1qmbKBN-KbAjsFOVrzoSm)" stroke-linecap="round"><g transform="translate(1036 481) rotate(0 -332.5 0)"><path d="M0.05 1.15 C-110.51 1.22, -553.08 -0.16, -663.88 -0.16" stroke="#1e1e1e" stroke-width="2.5" fill="none" stroke-dasharray="1.5 8"></path></g><g transform="translate(1036 481) rotate(0 -332.5 0)"><path d="M-640.38 -8.67 C-645.55 -4.98, -654.79 -3.95, -663.88 -0.16" stroke="#1e1e1e" stroke-width="2.5" fill="none" stroke-dasharray="1.5 6"></path></g><g transform="translate(1036 481) rotate(0 -332.5 0)"><path d="M-640.41 8.43 C-645.49 6.99, -654.73 2.89, -663.88 -0.16" stroke="#1e1e1e" stroke-width="2.5" fill="none" stroke-dasharray="1.5 6"></path></g></g><mask id="mask-1qmbKBN-KbAjsFOVrzoSm"><rect x="0" y="0" fill="#fff" width="1801" height="581"></rect><rect x="557.4200744628906" y="471" fill="#000" width="292.15985107421875" height="20" opacity="1"></rect></mask><g mask="url(#mask-Pp6TM7_5POhwYhVlCzpBd)" stroke-linecap="round"><g transform="translate(368 572) rotate(0 132.5 0)"><path d="M1.65 0.62 C45.72 0.48, 220.34 -0.13, 264.34 -0.3 M0.8 -0.11 C44.74 -0.12, 219.19 0.95, 263.31 1.08" stroke="#1e1e1e" stroke-width="2" fill="none"></path></g><g transform="translate(368 572) rotate(0 132.5 0)"><path d="M239.78 9.52 C246.76 6.88, 251.23 6.94, 263.31 1.08 M239.78 9.52 C247.07 7.8, 252.29 5.59, 263.31 1.08" stroke="#1e1e1e" stroke-width="2" fill="none"></path></g><g transform="translate(368 572) rotate(0 132.5 0)"><path d="M239.86 -7.58 C246.9 -5.86, 251.34 -1.45, 263.31 1.08 M239.86 -7.58 C247.1 -4.74, 252.3 -2.39, 263.31 1.08" stroke="#1e1e1e" stroke-width="2" fill="none"></path></g></g><mask id="mask-Pp6TM7_5POhwYhVlCzpBd"><rect x="0" y="0" fill="#fff" width="733" height="672"></rect><rect x="441.66802978515625" y="552" fill="#000" width="117.6639404296875" height="40" opacity="1"></rect></mask><g mask="url(#mask-WT7edafWAVFALYN2mqMod)" stroke-linecap="round"><g transform="translate(368 618) rotate(0 432.5 0)"><path d="M1.12 -0.16 C144.98 -0.16, 720.37 1.17, 864.2 1.16 M-0.02 -1.29 C143.61 -1.08, 719.24 -0.74, 863.1 -0.35" stroke="#1e1e1e" stroke-width="2" fill="none"></path></g><g transform="translate(368 618) rotate(0 432.5 0)"><path d="M839.59 8.17 C847.37 4.6, 857.71 1.49, 863.1 -0.35 M839.59 8.17 C846.89 5.46, 853.62 2.35, 863.1 -0.35" stroke="#1e1e1e" stroke-width="2" fill="none"></path></g><g transform="translate(368 618) rotate(0 432.5 0)"><path d="M839.62 -8.94 C847.56 -6.58, 857.88 -3.78, 863.1 -0.35 M839.62 -8.94 C847.01 -6.78, 853.73 -5.02, 863.1 -0.35" stroke="#1e1e1e" stroke-width="2" fill="none"></path></g></g><mask id="mask-WT7edafWAVFALYN2mqMod"><rect x="0" y="0" fill="#fff" width="1333" height="718"></rect><rect x="711.4600601196289" y="608" fill="#000" width="178.0798797607422" height="20" opacity="1"></rect></mask><g mask="url(#mask-uuunbWKoFnoyn71CM7RcZ)" stroke-linecap="round"><g transform="translate(368 684) rotate(0 132.5 0)"><path d="M0.34 -0.3 C44.34 -0.47, 221.67 -0.57, 265.66 -0.4 M-1.2 -1.5 C42.64 -1.55, 221.22 0.89, 265.32 0.93" stroke="#1e1e1e" stroke-width="2" fill="none"></path></g><g transform="translate(368 684) rotate(0 132.5 0)"><path d="M241.76 9.29 C250.56 7.95, 259.72 2.38, 265.32 0.93 M241.76 9.29 C250.11 6.84, 257.89 2.36, 265.32 0.93" stroke="#1e1e1e" stroke-width="2" fill="none"></path></g><g transform="translate(368 684) rotate(0 132.5 0)"><path d="M241.9 -7.81 C250.73 -2.38, 259.83 -1.17, 265.32 0.93 M241.9 -7.81 C250.36 -4.11, 258.1 -2.44, 265.32 0.93" stroke="#1e1e1e" stroke-width="2" fill="none"></path></g></g><mask id="mask-uuunbWKoFnoyn71CM7RcZ"><rect x="0" y="0" fill="#fff" width="733" height="784"></rect><rect x="423.43604278564453" y="674" fill="#000" width="154.12791442871094" height="20" opacity="1"></rect></mask><g mask="url(#mask-lMUjPSobeSdAGBd5uaTU0)" stroke-linecap="round"><g transform="translate(1238 730) rotate(0 106 0)"><path d="M0.2 1.16 C35.2 1.16, 175.76 -0.2, 211.1 -0.19 M2.25 0.73 C37 0.92, 175.01 1.46, 209.94 1.25" stroke="#1e1e1e" stroke-width="2" fill="none"></path></g><g transform="translate(1238 730) rotate(0 106 0)"><path d="M186.45 9.81 C196.66 6.19, 202.66 5.04, 209.94 1.25 M186.45 9.81 C196.5 5.66, 204.42 3.61, 209.94 1.25" stroke="#1e1e1e" stroke-width="2" fill="none"></path></g><g transform="translate(1238 730) rotate(0 106 0)"><path d="M186.45 -7.29 C196.63 -4.9, 202.63 -0.04, 209.94 1.25 M186.45 -7.29 C196.61 -4.6, 204.54 0.19, 209.94 1.25" stroke="#1e1e1e" stroke-width="2" fill="none"></path></g></g><mask id="mask-lMUjPSobeSdAGBd5uaTU0"><rect x="0" y="0" fill="#fff" width="1550" height="830"></rect><rect x="1261.5440521240234" y="720" fill="#000" width="164.91189575195312" height="20" opacity="1"></rect></mask><g mask="url(#mask-hst_l5GYJ-UcycPOtvfDd)" stroke-linecap="round"><g transform="translate(1455 776) rotate(0 33.92229415947031 9.854912217531592)"><path d="M0.66 -0.9 C10.74 -2.31, 49.72 -14.57, 59.81 -9.28 C69.9 -4, 71.09 25.69, 61.2 30.8 C51.3 35.9, 10.7 23.22, 0.44 21.35 M-0.19 -2.16 C9.73 -3.89, 48.56 -16.2, 58.76 -11.03 C68.97 -5.86, 70.75 23.83, 61.06 28.87 C51.38 33.92, 10.61 20.81, 0.66 19.24" stroke="#1e1e1e" stroke-width="2" fill="none"></path></g><g transform="translate(1455 776) rotate(0 33.92229415947031 9.854912217531592)"><path d="M25.49 16.38 C17.7 17.12, 12.44 20.26, 0.66 19.24 M25.49 16.38 C15.65 16.84, 7.93 18, 0.66 19.24" stroke="#1e1e1e" stroke-width="2" fill="none"></path></g><g transform="translate(1455 776) rotate(0 33.92229415947031 9.854912217531592)"><path d="M21.52 33.01 C14.91 28.95, 10.79 27.32, 0.66 19.24 M21.52 33.01 C13.15 27.35, 6.88 22.41, 0.66 19.24" stroke="#1e1e1e" stroke-width="2" fill="none"></path></g></g><mask id="mask-hst_l5GYJ-UcycPOtvfDd"><rect x="0" y="0" fill="#fff" width="1615" height="916"></rect><rect x="1455.295309100432" y="777.0472818095316" fill="#000" width="135.42391967773438" height="20" opacity="1"></rect></mask><g mask="url(#mask-HE3w3vG8GrTAoZidD_Czt)" stroke-linecap="round"><g transform="translate(1658.5 901) rotate(0 142.5 0)"><path d="M0.1 -0.19 C47.6 -0.18, 237.68 1.18, 285.22 1.2 M2.09 -1.33 C49.52 -1.12, 237.5 -0.72, 284.64 -0.29" stroke="#1e1e1e" stroke-width="2" fill="none"></path></g><g transform="translate(1658.5 901) rotate(0 142.5 0)"><path d="M261.11 8.14 C267.19 7.09, 275.98 4.9, 284.64 -0.29 M261.11 8.14 C267.23 6.46, 274.28 4.28, 284.64 -0.29" stroke="#1e1e1e" stroke-width="2" fill="none"></path></g><g transform="translate(1658.5 901) rotate(0 142.5 0)"><path d="M261.2 -8.96 C267.42 -5.31, 276.19 -2.79, 284.64 -0.29 M261.2 -8.96 C267.41 -5.6, 274.44 -2.73, 284.64 -0.29" stroke="#1e1e1e" stroke-width="2" fill="none"></path></g></g><mask id="mask-HE3w3vG8GrTAoZidD_Czt"><rect x="0" y="0" fill="#fff" width="2043.5" height="1001"></rect><rect x="1737.5600357055664" y="881" fill="#000" width="126.87992858886719" height="40" opacity="1"></rect></mask><g mask="url(#mask-SSWPVxXWjom4HtSXTODTM)" stroke-linecap="round"><g transform="translate(1946.5 947) rotate(0 -787.75 0)"><path d="M-0.69 0.72 C-263.1 0.92, -1311.41 0.77, -1573.8 0.8 M-2.25 0.05 C-264.81 -0.06, -1311.85 -0.73, -1574.12 -0.91" stroke="#1e1e1e" stroke-width="2" fill="none"></path></g><g transform="translate(1946.5 947) rotate(0 -787.75 0)"><path d="M-1550.62 -9.44 C-1558.78 -4.09, -1567.97 -2.81, -1574.12 -0.91 M-1550.62 -9.44 C-1558.77 -7.11, -1567.18 -3.63, -1574.12 -0.91" stroke="#1e1e1e" stroke-width="2" fill="none"></path></g><g transform="translate(1946.5 947) rotate(0 -787.75 0)"><path d="M-1550.63 7.66 C-1558.73 6.22, -1567.92 0.72, -1574.12 -0.91 M-1550.63 7.66 C-1558.65 3.64, -1567.06 0.78, -1574.12 -0.91" stroke="#1e1e1e" stroke-width="2" fill="none"></path></g></g><mask id="mask-SSWPVxXWjom4HtSXTODTM"><rect x="0" y="0" fill="#fff" width="3622" height="1047"></rect><rect x="996.590087890625" y="937" fill="#000" width="324.31982421875" height="20" opacity="1"></rect></mask><g mask="url(#mask-liHXsj4N4CNmKRJrwvYp0)" stroke-linecap="round"><g transform="translate(368 993) rotate(0 132.5 0)"><path d="M1.22 1.2 C45.42 1.22, 221.27 0.29, 265.3 -0.06 M0.13 0.78 C44.28 1.02, 220.62 1.58, 264.77 1.45" stroke="#1e1e1e" stroke-width="2" fill="none"></path></g><g transform="translate(368 993) rotate(0 132.5 0)"><path d="M241.27 9.98 C249.55 8.89, 253.72 6.71, 264.77 1.45 M241.27 9.98 C246 8.84, 251.63 6.28, 264.77 1.45" stroke="#1e1e1e" stroke-width="2" fill="none"></path></g><g transform="translate(368 993) rotate(0 132.5 0)"><path d="M241.28 -7.12 C249.53 -3.65, 253.69 -1.27, 264.77 1.45 M241.28 -7.12 C245.87 -4.38, 251.5 -3.08, 264.77 1.45" stroke="#1e1e1e" stroke-width="2" fill="none"></path></g></g><mask id="mask-liHXsj4N4CNmKRJrwvYp0"><rect x="0" y="0" fill="#fff" width="733" height="1093"></rect><rect x="418.4600372314453" y="973" fill="#000" width="164.07992553710938" height="40" opacity="1"></rect></mask><g mask="url(#mask-VxKOYni0y2XQIaKCOMCM1)" stroke-linecap="round"><g transform="translate(636 1039) rotate(0 -132.5 0)"><path d="M0.7 0.8 C-43.28 0.82, -220.21 1.14, -264.56 0.85" stroke="#1e1e1e" stroke-width="2.5" fill="none" stroke-dasharray="1.5 8"></path></g><g transform="translate(636 1039) rotate(0 -132.5 0)"><path d="M-241.05 -7.66 C-246.36 -5.1, -252.94 -4.06, -264.56 0.85" stroke="#1e1e1e" stroke-width="2.5" fill="none" stroke-dasharray="1.5 6"></path></g><g transform="translate(636 1039) rotate(0 -132.5 0)"><path d="M-241.08 9.44 C-246.48 7.14, -253.06 3.32, -264.56 0.85" stroke="#1e1e1e" stroke-width="2.5" fill="none" stroke-dasharray="1.5 6"></path></g></g><mask id="mask-VxKOYni0y2XQIaKCOMCM1"><rect x="0" y="0" fill="#fff" width="1001" height="1139"></rect><rect x="450.9800338745117" y="1019" fill="#000" width="105.03993225097656" height="40" opacity="1"></rect></mask><g mask="url(#mask-cUNpI4tPuH61e8wgkmCaO)" stroke-linecap="round"><g transform="translate(368 1085) rotate(0 232.5 0)"><path d="M1.3 -0.06 C78.65 -0.41, 388.3 -1.02, 465.35 -0.88 M0.26 -1.14 C77.47 -0.85, 387.23 0.2, 464.85 0.19" stroke="#1e1e1e" stroke-width="2" fill="none"></path></g><g transform="translate(368 1085) rotate(0 232.5 0)"><path d="M441.34 8.7 C449.61 6.9, 456.7 0.9, 464.85 0.19 M441.34 8.7 C449.6 5.7, 457.77 2.48, 464.85 0.19" stroke="#1e1e1e" stroke-width="2" fill="none"></path></g><g transform="translate(368 1085) rotate(0 232.5 0)"><path d="M441.38 -8.4 C449.81 -4.05, 456.88 -3.9, 464.85 0.19 M441.38 -8.4 C449.51 -5.19, 457.66 -2.19, 464.85 0.19" stroke="#1e1e1e" stroke-width="2" fill="none"></path></g></g><mask id="mask-cUNpI4tPuH61e8wgkmCaO"><rect x="0" y="0" fill="#fff" width="933" height="1185"></rect><rect x="488.9320755004883" y="1075" fill="#000" width="223.13584899902344" height="20" opacity="1"></rect></mask><g mask="url(#mask-OjWXMd7wNs4cYsXciMn-z)" stroke-linecap="round"><g transform="translate(836 1131) rotate(0 -232.5 0)"><path d="M-0.56 0.85 C-78.24 0.57, -388.19 -0.64, -465.38 -0.91" stroke="#1e1e1e" stroke-width="2.5" fill="none" stroke-dasharray="1.5 8"></path></g><g transform="translate(836 1131) rotate(0 -232.5 0)"><path d="M-441.86 -9.38 C-449.79 -7.48, -462.14 -1.35, -465.38 -0.91" stroke="#1e1e1e" stroke-width="2.5" fill="none" stroke-dasharray="1.5 6"></path></g><g transform="translate(836 1131) rotate(0 -232.5 0)"><path d="M-441.92 7.72 C-449.94 2.79, -462.27 2.07, -465.38 -0.91" stroke="#1e1e1e" stroke-width="2.5" fill="none" stroke-dasharray="1.5 6"></path></g></g><mask id="mask-OjWXMd7wNs4cYsXciMn-z"><rect x="0" y="0" fill="#fff" width="1401" height="1231"></rect><rect x="572.9960174560547" y="1121" fill="#000" width="61.007965087890625" height="20" opacity="1"></rect></mask><g mask="url(#mask-lGnXeAfW6oa1Aoxe5RKvZ)" stroke-linecap="round"><g transform="translate(368 1177) rotate(0 132.5 0)"><path d="M1.35 -0.88 C45.07 -0.75, 219.86 0.43, 263.59 0.76 M0.34 1.27 C44.36 1.07, 221.51 -0.65, 265.82 -0.96" stroke="#1e1e1e" stroke-width="2" fill="none"></path></g><g transform="translate(368 1177) rotate(0 132.5 0)"><path d="M242.4 7.79 C249.51 2.89, 260.83 -0.1, 265.82 -0.96 M242.4 7.79 C250.94 4.45, 261.61 0.18, 265.82 -0.96" stroke="#1e1e1e" stroke-width="2" fill="none"></path></g><g transform="translate(368 1177) rotate(0 132.5 0)"><path d="M242.25 -9.31 C249.41 -7.94, 260.79 -4.67, 265.82 -0.96 M242.25 -9.31 C250.79 -5.91, 261.52 -3.43, 265.82 -0.96" stroke="#1e1e1e" stroke-width="2" fill="none"></path></g></g><mask id="mask-lGnXeAfW6oa1Aoxe5RKvZ"><rect x="0" y="0" fill="#fff" width="733" height="1277"></rect><rect x="437.69205474853516" y="1157" fill="#000" width="125.61589050292969" height="40" opacity="1"></rect></mask><g mask="url(#mask-oJt-qvHvVzE-RkjC77Fkc)" stroke-linecap="round"><g transform="translate(368 1223) rotate(0 787.75 0)"><path d="M-0.38 -0.91 C262.17 -1.19, 1313.01 -0.87, 1575.76 -0.79" stroke="#1e1e1e" stroke-width="2.5" fill="none" stroke-dasharray="1.5 8"></path></g><g transform="translate(368 1223) rotate(0 787.75 0)"><path d="M1552.27 7.76 C1557.61 6.68, 1564.76 4.77, 1575.76 -0.79" stroke="#1e1e1e" stroke-width="2.5" fill="none" stroke-dasharray="1.5 6"></path></g><g transform="translate(368 1223) rotate(0 787.75 0)"><path d="M1552.27 -9.35 C1557.74 -5.38, 1564.88 -2.24, 1575.76 -0.79" stroke="#1e1e1e" stroke-width="2.5" fill="none" stroke-dasharray="1.5 6"></path></g></g><mask id="mask-oJt-qvHvVzE-RkjC77Fkc"><rect x="0" y="0" fill="#fff" width="2043.5" height="1323"></rect><rect x="1124.3340072631836" y="1213" fill="#000" width="62.83198547363281" height="20" opacity="1"></rect></mask><g stroke-linecap="round"><g transform="translate(356 501) rotate(0 446 0)"><path d="M0 0 C331.48 2.19, 662.7 2.44, 892 0" stroke="#adb5bd" stroke-width="2.5" fill="none" stroke-dasharray="1.5 8"></path></g></g><mask></mask><g stroke-linecap="round"><g transform="translate(1248 501) rotate(0 0 68.5)"><path d="M0 0 C-2.36 32.91, -1.73 62.67, 0 137" stroke="#adb5bd" stroke-width="2.5" fill="none" stroke-dasharray="1.5 8"></path></g></g><mask></mask><g stroke-linecap="round"><g transform="translate(356 638) rotate(0 446 0)"><path d="M0 0 C200.38 2.07, 399.5 1.76, 892 0" stroke="#adb5bd" stroke-width="2.5" fill="none" stroke-dasharray="1.5 8"></path></g></g><mask></mask><g stroke-linecap="round"><g transform="translate(356 501) rotate(0 0 68.5)"><path d="M0 0 C-1.59 50.43, -2.35 99.98, 0 137" stroke="#adb5bd" stroke-width="2.5" fill="none" stroke-dasharray="1.5 8"></path></g></g><mask></mask><g stroke-linecap="round"><g transform="translate(346 272) rotate(0 456 0)"><path d="M0 0 C213.92 0.68, 427.48 1.83, 912 0" stroke="#adb5bd" stroke-width="2.5" fill="none" stroke-dasharray="1.5 8"></path></g></g><mask></mask><g stroke-linecap="round"><g transform="translate(1258 272) rotate(0 0 188)"><path d="M0 0 C-1.67 148.48, 0.08 295.74, 0 376" stroke="#adb5bd" stroke-width="2.5" fill="none" stroke-dasharray="1.5 8"></path></g></g><mask></mask><g stroke-linecap="round"><g transform="translate(346 648) rotate(0 456 0)"><path d="M0 0 C242.27 3.21, 483.74 3.3, 912 0" stroke="#adb5bd" stroke-width="2.5" fill="none" stroke-dasharray="1.5 8"></path></g></g><mask></mask><g stroke-linecap="round"><g transform="translate(346 272) rotate(0 0 188)"><path d="M0 0 C-0.79 123.82, -0.66 249.3, 0 376" stroke="#adb5bd" stroke-width="2.5" fill="none" stroke-dasharray="1.5 8"></path></g></g><mask></mask><g transform="translate(735.28125 509) rotate(0 94.5999526977539 10)"><text x="0" y="0" font-family="Virgil, Segoe UI Emoji" font-size="16px" fill="#1e1e1e" text-anchor="start" style="white-space: pre;" direction="ltr" dominant-baseline="text-before-edge">[Recommendation Found]</text></g><g transform="translate(755.8515625 280) rotate(0 82.03995513916016 10)"><text x="0" y="0" font-family="Virgil, Segoe UI Emoji" font-size="16px" fill="#1e1e1e" text-anchor="start" style="white-space: pre;" direction="ltr" dominant-baseline="text-before-edge">[For Each Resource]</text></g><g stroke-linecap="round" transform="translate(356 501) rotate(0 17 15)"><path d="M0.95 0.84 L34.73 0.01 L34.4 29.28 L-0.86 29.02" stroke="none" stroke-width="0" fill="#e9ecef"></path><path d="M0 0 C12.72 -0.41, 25.38 -0.32, 34 0 M0 0 C12.73 -0.51, 25.64 -0.09, 34 0 M34 0 C33.86 7.56, 34.81 13.87, 34 30 M34 0 C34.12 10.55, 34.29 21.29, 34 30 M34 30 C22.2 29.13, 9.51 30.02, 0 30 M34 30 C24.82 30.08, 14.71 29.87, 0 30 M0 30 C0.2 20.07, -0.35 10.07, 0 0 M0 30 C-0.2 20.34, 0.07 11.26, 0 0" stroke="#adb5bd" stroke-width="2" fill="none"></path></g><g stroke-linecap="round" transform="translate(346 272) rotate(0 20 15)"><path d="M0.84 0.73 L40.01 0.4 L39.28 29.14 L-0.98 29.49" stroke="none" stroke-width="0" fill="#e9ecef"></path><path d="M0 0 C9.2 0.13, 18.75 0.77, 40 0 M0 0 C13.98 -0.11, 28.73 -0.33, 40 0 M40 0 C40.92 8.86, 40.61 16.49, 40 30 M40 0 C40.18 11.61, 40.42 23.11, 40 30 M40 30 C23.45 28.99, 8.75 29.79, 0 30 M40 30 C30.62 29.87, 21.02 30.32, 0 30 M0 30 C0.16 22.62, 0.26 16.31, 0 0 M0 30 C-0.03 18.9, 0.44 7.92, 0 0" stroke="#adb5bd" stroke-width="2" fill="none"></path></g><g transform="translate(28.016036987304688 32.5) rotate(0 56.98396301269531 10)"><text x="56.98396301269531" y="0" font-family="Virgil, Segoe UI Emoji" font-size="16px" fill="#000" text-anchor="middle" style="white-space: pre;" direction="ltr" dominant-baseline="text-before-edge">Cron Scheduler</text></g><g transform="translate(28.016036987304688 1275.5) rotate(0 56.98396301269531 10)"><text x="56.98396301269531" y="0" font-family="Virgil, Segoe UI Emoji" font-size="16px" fill="#000" text-anchor="middle" style="white-space: pre;" direction="ltr" dominant-baseline="text-before-edge">Cron Scheduler</text></g><g transform="translate(279.1840362548828 32.5) rotate(0 87.81596374511719 10)"><text x="87.81596374511719" y="0" font-family="Virgil, Segoe UI Emoji" font-size="16px" fill="#000" text-anchor="middle" style="white-space: pre;" direction="ltr" dominant-baseline="text-before-edge">Recommendation Engine</text></g><g transform="translate(279.1840362548828 1275.5) rotate(0 87.81596374511719 10)"><text x="87.81596374511719" y="0" font-family="Virgil, Segoe UI Emoji" font-size="16px" fill="#000" text-anchor="middle" style="white-space: pre;" direction="ltr" dominant-baseline="text-before-edge">Recommendation Engine</text></g><g transform="translate(597.4480209350586 32.5) rotate(0 39.551979064941406 10)"><text x="39.551979064941406" y="0" font-family="Virgil, Segoe UI Emoji" font-size="16px" fill="#000" text-anchor="middle" style="white-space: pre;" direction="ltr" dominant-baseline="text-before-edge">Database</text></g><g transform="translate(597.4480209350586 1275.5) rotate(0 39.551979064941406 10)"><text x="39.551979064941406" y="0" font-family="Virgil, Segoe UI Emoji" font-size="16px" fill="#000" text-anchor="middle" style="white-space: pre;" direction="ltr" dominant-baseline="text-before-edge">Database</text></g><g transform="translate(800.9120178222656 32.5) rotate(0 36.087982177734375 10)"><text x="36.087982177734375" y="0" font-family="Virgil, Segoe UI Emoji" font-size="16px" fill="#000" text-anchor="middle" style="white-space: pre;" direction="ltr" dominant-baseline="text-before-edge">AWS SDK</text></g><g transform="translate(800.9120178222656 1275.5) rotate(0 36.087982177734375 10)"><text x="36.087982177734375" y="0" font-family="Virgil, Segoe UI Emoji" font-size="16px" fill="#000" text-anchor="middle" style="white-space: pre;" direction="ltr" dominant-baseline="text-before-edge">AWS SDK</text></g><g transform="translate(969.4800262451172 32.5) rotate(0 67.51997375488281 10)"><text x="67.51997375488281" y="0" font-family="Virgil, Segoe UI Emoji" font-size="16px" fill="#000" text-anchor="middle" style="white-space: pre;" direction="ltr" dominant-baseline="text-before-edge">ML Model Service</text></g><g transform="translate(969.4800262451172 1275.5) rotate(0 67.51997375488281 10)"><text x="67.51997375488281" y="0" font-family="Virgil, Segoe UI Emoji" font-size="16px" fill="#000" text-anchor="middle" style="white-space: pre;" direction="ltr" dominant-baseline="text-before-edge">ML Model Service</text></g><g transform="translate(1176.608024597168 32.5) rotate(0 60.39197540283203 10)"><text x="60.39197540283203" y="0" font-family="Virgil, Segoe UI Emoji" font-size="16px" fill="#000" text-anchor="middle" style="white-space: pre;" direction="ltr" dominant-baseline="text-before-edge">Message Queue</text></g><g transform="translate(1176.608024597168 1275.5) rotate(0 60.39197540283203 10)"><text x="60.39197540283203" y="0" font-family="Virgil, Segoe UI Emoji" font-size="16px" fill="#000" text-anchor="middle" style="white-space: pre;" direction="ltr" dominant-baseline="text-before-edge">Message Queue</text></g><g transform="translate(1404.712028503418 22.5) rotate(0 49.28797149658203 20)"><text x="49.28797149658203" y="0" font-family="Virgil, Segoe UI Emoji" font-size="16px" fill="#000" text-anchor="middle" style="white-space: pre;" direction="ltr" dominant-baseline="text-before-edge">Notification </text><text x="49.28797149658203" y="20" font-family="Virgil, Segoe UI Emoji" font-size="16px" fill="#000" text-anchor="middle" style="white-space: pre;" direction="ltr" dominant-baseline="text-before-edge">Service</text></g><g transform="translate(1404.712028503418 1265.5) rotate(0 49.28797149658203 20)"><text x="49.28797149658203" y="0" font-family="Virgil, Segoe UI Emoji" font-size="16px" fill="#000" text-anchor="middle" style="white-space: pre;" direction="ltr" dominant-baseline="text-before-edge">Notification </text><text x="49.28797149658203" y="20" font-family="Virgil, Segoe UI Emoji" font-size="16px" fill="#000" text-anchor="middle" style="white-space: pre;" direction="ltr" dominant-baseline="text-before-edge">Service</text></g><g transform="translate(1639.6280136108398 32.5) rotate(0 17.871986389160156 10)"><text x="17.871986389160156" y="0" font-family="Virgil, Segoe UI Emoji" font-size="16px" fill="#000" text-anchor="middle" style="white-space: pre;" direction="ltr" dominant-baseline="text-before-edge">User</text></g><g transform="translate(1639.6280136108398 1275.5) rotate(0 17.871986389160156 10)"><text x="17.871986389160156" y="0" font-family="Virgil, Segoe UI Emoji" font-size="16px" fill="#000" text-anchor="middle" style="white-space: pre;" direction="ltr" dominant-baseline="text-before-edge">User</text></g><g transform="translate(1914.1160202026367 32.5) rotate(0 33.38397979736328 10)"><text x="33.38397979736328" y="0" font-family="Virgil, Segoe UI Emoji" font-size="16px" fill="#000" text-anchor="middle" style="white-space: pre;" direction="ltr" dominant-baseline="text-before-edge">Frontend</text></g><g transform="translate(1914.1160202026367 1275.5) rotate(0 33.38397979736328 10)"><text x="33.38397979736328" y="0" font-family="Virgil, Segoe UI Emoji" font-size="16px" fill="#000" text-anchor="middle" style="white-space: pre;" direction="ltr" dominant-baseline="text-before-edge">Frontend</text></g><g transform="translate(660.2360610961914 94.5) rotate(0 109.2639389038086 10)"><text x="109.2639389038086" y="0" font-family="Virgil, Segoe UI Emoji" font-size="16px" fill="#000" text-anchor="middle" style="white-space: pre;" direction="ltr" dominant-baseline="text-before-edge">Daily Analysis (02:00 UTC)</text></g><g transform="translate(657.1000747680664 835.5) rotate(0 112.3999252319336 10)"><text x="112.3999252319336" y="0" font-family="Virgil, Segoe UI Emoji" font-size="16px" fill="#000" text-anchor="middle" style="white-space: pre;" direction="ltr" dominant-baseline="text-before-edge">User Applies Recommendation</text></g><g transform="translate(130.21205139160156 140) rotate(0 94.28079033121465 20.34168379777111)"><text x="94.28794860839844" y="0" font-family="Virgil, Segoe UI Emoji" font-size="16px" fill="#1e1e1e" text-anchor="middle" style="white-space: pre;" direction="ltr" dominant-baseline="text-before-edge">Trigger recommendation </text><text x="94.28794860839844" y="20" font-family="Virgil, Segoe UI Emoji" font-size="16px" fill="#1e1e1e" text-anchor="middle" style="white-space: pre;" direction="ltr" dominant-baseline="text-before-edge">scan</text></g><g transform="translate(433.31603240966797 186) rotate(0 66.63458726135548 20.744175682412447)"><text x="67.18396759033203" y="0" font-family="Virgil, Segoe UI Emoji" font-size="16px" fill="#1e1e1e" text-anchor="middle" style="white-space: pre;" direction="ltr" dominant-baseline="text-before-edge">Fetch all active </text><text x="67.18396759033203" y="20" font-family="Virgil, Segoe UI Emoji" font-size="16px" fill="#1e1e1e" text-anchor="middle" style="white-space: pre;" direction="ltr" dominant-baseline="text-before-edge">resources</text></g><g transform="translate(451.8280334472656 242) rotate(0 51.990310218185186 9.520821708191818)"><text x="51.671966552734375" y="0" font-family="Virgil, Segoe UI Emoji" font-size="16px" fill="#1e1e1e" text-anchor="middle" style="white-space: pre;" direction="ltr" dominant-baseline="text-before-edge">Resource list</text></g><g transform="translate(452.74810791015625 323) rotate(0 147.31896706596018 19.624857709576048)"><text x="147.75189208984375" y="0" font-family="Virgil, Segoe UI Emoji" font-size="16px" fill="#1e1e1e" text-anchor="middle" style="white-space: pre;" direction="ltr" dominant-baseline="text-before-edge">get_metric_statistics() [CPU, RAM, </text><text x="147.75189208984375" y="20" font-family="Virgil, Segoe UI Emoji" font-size="16px" fill="#1e1e1e" text-anchor="middle" style="white-space: pre;" direction="ltr" dominant-baseline="text-before-edge">etc.]</text></g><g transform="translate(484.4520797729492 379) rotate(0 119.32409234270455 10.30419472232461)"><text x="119.04792022705078" y="0" font-family="Virgil, Segoe UI Emoji" font-size="16px" fill="#1e1e1e" text-anchor="middle" style="white-space: pre;" direction="ltr" dominant-baseline="text-before-edge">CloudWatch metrics (30 days)</text></g><g transform="translate(519.7161102294922 425) rotate(0 181.08808449283237 9.739807060339814)"><text x="180.7838897705078" y="0" font-family="Virgil, Segoe UI Emoji" font-size="16px" fill="#1e1e1e" text-anchor="middle" style="white-space: pre;" direction="ltr" dominant-baseline="text-before-edge">POST /api/ml/predict {metrics, resourceType}</text></g><g transform="translate(557.4200744628906 471) rotate(0 146.66336686834694 10.497583881466966)"><text x="146.07992553710938" y="0" font-family="Virgil, Segoe UI Emoji" font-size="16px" fill="#1e1e1e" text-anchor="middle" style="white-space: pre;" direction="ltr" dominant-baseline="text-before-edge">{recommendation, confidence, savings}</text></g><g transform="translate(441.66802978515625 552) rotate(0 58.90147299406587 20.393312029340336)"><text x="58.83197021484375" y="0" font-family="Virgil, Segoe UI Emoji" font-size="16px" fill="#1e1e1e" text-anchor="middle" style="white-space: pre;" direction="ltr" dominant-baseline="text-before-edge">INSERT </text><text x="58.83197021484375" y="20" font-family="Virgil, Segoe UI Emoji" font-size="16px" fill="#1e1e1e" text-anchor="middle" style="white-space: pre;" direction="ltr" dominant-baseline="text-before-edge">recommendation</text></g><g transform="translate(711.4600601196289 608) rotate(0 88.63182831804733 9.93678182891523)"><text x="89.0399398803711" y="0" font-family="Virgil, Segoe UI Emoji" font-size="16px" fill="#1e1e1e" text-anchor="middle" style="white-space: pre;" direction="ltr" dominant-baseline="text-before-edge">Publish notification job</text></g><g transform="translate(423.43604278564453 674) rotate(0 76.7939648923045 9.71397375044387)"><text x="77.06395721435547" y="0" font-family="Virgil, Segoe UI Emoji" font-size="16px" fill="#1e1e1e" text-anchor="middle" style="white-space: pre;" direction="ltr" dominant-baseline="text-before-edge">Mark scan complete</text></g><g transform="translate(1261.5440521240234 720) rotate(0 82.1074257157743 10.553537404679787)"><text x="82.45594787597656" y="0" font-family="Virgil, Segoe UI Emoji" font-size="16px" fill="#1e1e1e" text-anchor="middle" style="white-space: pre;" direction="ltr" dominant-baseline="text-before-edge">Process notifications</text></g><g transform="translate(1455.2953091004322 777.0472818095316) rotate(0 33.626985059038134 8.807630408000023)"><text x="67.71195983886719" y="0" font-family="Virgil, Segoe UI Emoji" font-size="16px" fill="#1e1e1e" text-anchor="middle" style="white-space: pre;" direction="ltr" dominant-baseline="text-before-edge">Send email digest</text></g><g transform="translate(1737.5600357055664 881) rotate(0 63.59815669283273 19.932843947526976)"><text x="63.439964294433594" y="0" font-family="Virgil, Segoe UI Emoji" font-size="16px" fill="#1e1e1e" text-anchor="middle" style="white-space: pre;" direction="ltr" dominant-baseline="text-before-edge">Click "Apply </text><text x="63.439964294433594" y="20" font-family="Virgil, Segoe UI Emoji" font-size="16px" fill="#1e1e1e" text-anchor="middle" style="white-space: pre;" direction="ltr" dominant-baseline="text-before-edge">Recommendation"</text></g><g transform="translate(996.590087890625 937) rotate(0 162.50603284460954 9.958083155560587)"><text x="162.159912109375" y="0" font-family="Virgil, Segoe UI Emoji" font-size="16px" fill="#1e1e1e" text-anchor="middle" style="white-space: pre;" direction="ltr" dominant-baseline="text-before-edge">POST /api/recommendations/{id}/execute</text></g><g transform="translate(418.4600372314453 973) rotate(0 82.2546072114585 20.703506437996737)"><text x="82.03996276855469" y="0" font-family="Virgil, Segoe UI Emoji" font-size="16px" fill="#1e1e1e" text-anchor="middle" style="white-space: pre;" direction="ltr" dominant-baseline="text-before-edge">Get recommendation </text><text x="82.03996276855469" y="20" font-family="Virgil, Segoe UI Emoji" font-size="16px" fill="#1e1e1e" text-anchor="middle" style="white-space: pre;" direction="ltr" dominant-baseline="text-before-edge">details</text></g><g transform="translate(450.9800338745117 1019) rotate(0 53.089791164547194 20.883440493254625)"><text x="52.51996612548828" y="0" font-family="Virgil, Segoe UI Emoji" font-size="16px" fill="#1e1e1e" text-anchor="middle" style="white-space: pre;" direction="ltr" dominant-baseline="text-before-edge">{resourceId, </text><text x="52.51996612548828" y="20" font-family="Virgil, Segoe UI Emoji" font-size="16px" fill="#1e1e1e" text-anchor="middle" style="white-space: pre;" direction="ltr" dominant-baseline="text-before-edge">targetTier}</text></g><g transform="translate(488.9320755004883 1075) rotate(0 111.8718711773632 9.527059854703452)"><text x="111.56792449951172" y="0" font-family="Virgil, Segoe UI Emoji" font-size="16px" fill="#1e1e1e" text-anchor="middle" style="white-space: pre;" direction="ltr" dominant-baseline="text-before-edge">modify_instance_attribute()</text></g><g transform="translate(572.9960174560547 1121) rotate(0 30.03259328380227 9.9690236352385)"><text x="30.503982543945312" y="0" font-family="Virgil, Segoe UI Emoji" font-size="16px" fill="#1e1e1e" text-anchor="middle" style="white-space: pre;" direction="ltr" dominant-baseline="text-before-edge">Success</text></g><g transform="translate(437.69205474853516 1157) rotate(0 63.3871141987201 20.15425295763646)"><text x="62.807945251464844" y="0" font-family="Virgil, Segoe UI Emoji" font-size="16px" fill="#1e1e1e" text-anchor="middle" style="white-space: pre;" direction="ltr" dominant-baseline="text-before-edge">UPDATE </text><text x="62.807945251464844" y="20" font-family="Virgil, Segoe UI Emoji" font-size="16px" fill="#1e1e1e" text-anchor="middle" style="white-space: pre;" direction="ltr" dominant-baseline="text-before-edge">status='applied'</text></g><g transform="translate(1124.3340072631836 1213) rotate(0 31.355889330059313 9.093810310395497)"><text x="31.415992736816406" y="0" font-family="Virgil, Segoe UI Emoji" font-size="16px" fill="#1e1e1e" text-anchor="middle" style="white-space: pre;" direction="ltr" dominant-baseline="text-before-edge">200 OK</text></g><g transform="translate(361.0400085449219 506) rotate(0 11.959991455078125 10)"><text x="11.959991455078125" y="0" font-family="Virgil, Segoe UI Emoji" font-size="16px" fill="#000" text-anchor="middle" style="white-space: pre;" direction="ltr" dominant-baseline="text-before-edge">alt</text></g><g transform="translate(351.0880126953125 277) rotate(0 14.9119873046875 10)"><text x="14.9119873046875" y="0" font-family="Virgil, Segoe UI Emoji" font-size="16px" fill="#000" text-anchor="middle" style="white-space: pre;" direction="ltr" dominant-baseline="text-before-edge">loop</text></g></svg>