<svg version="1.1" xmlns="http://www.w3.org/2000/svg" viewBox="0 0 1789.5 1492.5" width="1789.5" height="1492.5">
  <!-- svg-source:excalidraw -->
  
  <defs>
    <style class="style-fonts">
      @font-face {
        font-family: "Virgil";
        src: url("https://unpkg.com/@excalidraw/excalidraw@undefined/dist/excalidraw-assets/Virgil.woff2");
      }
      @font-face {
        font-family: "Cascadia";
        src: url("https://unpkg.com/@excalidraw/excalidraw@undefined/dist/excalidraw-assets/Cascadia.woff2");
      }
      @font-face {
        font-family: "Assistant";
        src: url("https://unpkg.com/@excalidraw/excalidraw@undefined/dist/excalidraw-assets/Assistant-Regular.woff2");
      }
    </style>
    
  </defs>
  <rect x="0" y="0" width="1789.5" height="1492.5" fill="#fafafa"></rect><g stroke-linecap="round"><g transform="translate(35 40) rotate(0 0 10)"><path d="M0 0 C0.04 7.09, 0.71 16.48, 0 20 M0 0 C-0.07 6.23, -0.03 11.35, 0 20" stroke="#000" stroke-width="1" fill="none"></path></g></g><mask></mask><g stroke-linecap="round"><g transform="translate(17 48) rotate(0 18 0)"><path d="M0 0 C8.52 0.74, 19.33 -0.12, 36 0 M0 0 C10.11 0.01, 19.1 -0.1, 36 0" stroke="#000" stroke-width="1" fill="none"></path></g></g><mask></mask><g stroke-linecap="round"><g transform="translate(17 75) rotate(0 9 -7.5)"><path d="M0 0 C7.2 -4.52, 12.81 -11.01, 18 -15 M0 0 C3.64 -3.35, 7.16 -5.94, 18 -15" stroke="#000" stroke-width="1" fill="none"></path></g></g><mask></mask><g stroke-linecap="round"><g transform="translate(35 60) rotate(0 8 7.5)"><path d="M0 0 C5.68 4.47, 9.51 8.22, 16 15 M0 0 C4.51 4.28, 9.63 8.53, 16 15" stroke="#000" stroke-width="1" fill="none"></path></g></g><mask></mask><g stroke-linecap="round" transform="translate(20 10) rotate(0 15 15)"><path d="M14.26 0.04 C17.33 -0.4, 20.9 0.85, 23.47 2.68 C26.05 4.5, 28.85 7.81, 29.72 10.99 C30.6 14.18, 30.16 18.93, 28.72 21.79 C27.29 24.66, 24.03 26.93, 21.13 28.16 C18.23 29.4, 14.37 29.88, 11.32 29.19 C8.28 28.49, 4.71 26.62, 2.87 23.98 C1.03 21.34, 0.06 16.68, 0.3 13.34 C0.53 9.99, 1.86 6.06, 4.3 3.91 C6.73 1.76, 13.03 1.1, 14.9 0.44 C16.76 -0.23, 15.57 -0.25, 15.48 -0.09 M16.3 0.52 C19.35 0.64, 23.62 2.08, 25.8 4.35 C27.98 6.61, 29.32 10.91, 29.41 14.12 C29.5 17.33, 28.27 21.01, 26.35 23.59 C24.44 26.16, 21.06 28.81, 17.93 29.58 C14.8 30.34, 10.37 29.69, 7.6 28.19 C4.82 26.7, 2.32 23.42, 1.28 20.62 C0.24 17.81, 0.35 14.43, 1.35 11.38 C2.35 8.32, 4.81 4.06, 7.29 2.29 C9.78 0.51, 14.57 1.09, 16.26 0.73 C17.95 0.37, 17.3 -0.07, 17.41 0.13" stroke="#1e1e1e" stroke-width="2" fill="none"></path></g><g transform="translate(19.1015625 72.5) rotate(0 17.871986389160156 10)"><text x="0" y="0" font-family="Virgil, Segoe UI Emoji" font-size="16px" fill="#1e1e1e" text-anchor="start" style="white-space: pre;" direction="ltr" dominant-baseline="text-before-edge">User</text></g><g stroke-linecap="round"><g transform="translate(35 1430) rotate(0 0 10)"><path d="M0 0 C-0.99 7.52, 0.86 15.18, 0 20 M0 0 C-0.27 5.23, 0.31 9.99, 0 20" stroke="#000" stroke-width="1" fill="none"></path></g></g><mask></mask><g stroke-linecap="round"><g transform="translate(17 1438) rotate(0 18 0)"><path d="M0 0 C10.36 1.05, 20.86 -0.3, 36 0 M0 0 C10.18 0.42, 19.89 -0.4, 36 0" stroke="#000" stroke-width="1" fill="none"></path></g></g><mask></mask><g stroke-linecap="round"><g transform="translate(17 1465) rotate(0 9 -7.5)"><path d="M0 0 C5.78 -4.03, 9.27 -8.28, 18 -15 M0 0 C6.49 -5.22, 11.78 -9.89, 18 -15" stroke="#000" stroke-width="1" fill="none"></path></g></g><mask></mask><g stroke-linecap="round"><g transform="translate(35 1450) rotate(0 8 7.5)"><path d="M0 0 C3.22 2.48, 6.23 6.39, 16 15 M0 0 C3.93 3.2, 8.35 7.16, 16 15" stroke="#000" stroke-width="1" fill="none"></path></g></g><mask></mask><g stroke-linecap="round" transform="translate(20 1400) rotate(0 15 15)"><path d="M14.35 0.36 C17.33 -0.04, 21.29 0.68, 23.89 2.5 C26.49 4.32, 29.15 8.01, 29.94 11.3 C30.72 14.59, 30.09 19.37, 28.62 22.24 C27.16 25.12, 24.16 27.44, 21.14 28.56 C18.12 29.68, 13.53 29.79, 10.48 28.97 C7.43 28.15, 4.51 26.34, 2.83 23.65 C1.15 20.96, 0.09 16.12, 0.37 12.84 C0.66 9.56, 2.11 6.13, 4.51 3.98 C6.92 1.84, 13.08 0.64, 14.82 -0.02 C16.56 -0.68, 14.93 -0.22, 14.95 0.03 M12.61 -0.25 C15.63 -0.79, 20.05 0.69, 22.73 2.48 C25.41 4.28, 27.67 7.5, 28.69 10.52 C29.7 13.55, 29.84 17.54, 28.79 20.64 C27.74 23.73, 25.2 27.62, 22.41 29.08 C19.62 30.53, 15.37 30.14, 12.05 29.38 C8.73 28.63, 4.37 27.14, 2.49 24.54 C0.61 21.95, 0.43 17.07, 0.76 13.81 C1.1 10.54, 2.3 7.22, 4.51 4.97 C6.72 2.72, 12.54 1.14, 14.01 0.29 C15.48 -0.56, 13.52 -0.43, 13.35 -0.14" stroke="#1e1e1e" stroke-width="2" fill="none"></path></g><g transform="translate(19.1015625 1462.5) rotate(0 17.871986389160156 10)"><text x="0" y="0" font-family="Virgil, Segoe UI Emoji" font-size="16px" fill="#1e1e1e" text-anchor="start" style="white-space: pre;" direction="ltr" dominant-baseline="text-before-edge">User</text></g><g stroke-linecap="round" transform="translate(231 15) rotate(0 75 32.5)"><path d="M0 0 C45.74 -0.67, 90.63 1.67, 150 0 M0 0 C41.77 -0.54, 85.58 -0.55, 150 0 M150 0 C151.27 18.32, 150.83 31.65, 150 65 M150 0 C149.83 16.58, 149.35 34, 150 65 M150 65 C106.84 62.01, 62.64 62.38, 0 65 M150 65 C105.31 64.08, 61.48 65.41, 0 65 M0 65 C1.85 42.61, -0.54 17.33, 0 0 M0 65 C-0.6 42.18, -1.31 21.35, 0 0" stroke="#1e1e1e" stroke-width="2" fill="none"></path></g><g stroke-linecap="round" transform="translate(231 1405) rotate(0 75 32.5)"><path d="M0 0 C36.8 0.15, 76.95 -0.95, 150 0 M0 0 C30.87 1.77, 61.27 0.36, 150 0 M150 0 C151.21 18.09, 147.94 33.17, 150 65 M150 0 C150.16 17.87, 150.86 36.71, 150 65 M150 65 C109.9 64.12, 72.04 65.01, 0 65 M150 65 C118.52 66.04, 88.86 65.82, 0 65 M0 65 C2.35 46.51, 1.42 30.27, 0 0 M0 65 C-0.88 38.75, 0.39 13.01, 0 0" stroke="#1e1e1e" stroke-width="2" fill="none"></path></g><g stroke-linecap="round" transform="translate(548 15) rotate(0 75 32.5)"><path d="M0 0 C42.38 2.09, 82.9 -1.19, 150 0 M0 0 C55.96 -0.24, 109.54 -1.08, 150 0 M150 0 C151.57 12.87, 149.64 28.51, 150 65 M150 0 C149.42 23.04, 149.84 44.49, 150 65 M150 65 C115.34 62.11, 82.49 61.74, 0 65 M150 65 C110.48 65.16, 69.76 64.02, 0 65 M0 65 C-1.26 50.43, 0.25 35.66, 0 0 M0 65 C-0.71 44.38, -0.92 22.86, 0 0" stroke="#1e1e1e" stroke-width="2" fill="none"></path></g><g stroke-linecap="round" transform="translate(548 1405) rotate(0 75 32.5)"><path d="M0 0 C52.29 -0.92, 99.97 0.77, 150 0 M0 0 C37.42 -1.9, 73.54 -2.23, 150 0 M150 0 C149 23.56, 150.22 49.75, 150 65 M150 0 C150.47 19.01, 149.46 37.5, 150 65 M150 65 C103.06 64.28, 57.24 63.71, 0 65 M150 65 C105.11 67.2, 58.23 65.85, 0 65 M0 65 C0.39 40.84, 1.22 15.59, 0 0 M0 65 C1.03 44.57, 0.68 25.29, 0 0" stroke="#1e1e1e" stroke-width="2" fill="none"></path></g><g stroke-linecap="round" transform="translate(824 15) rotate(0 75 32.5)"><path d="M0 0 C37.07 -2.95, 76.19 -2.07, 150 0 M0 0 C51.51 -1.06, 103.14 0.08, 150 0 M150 0 C149.49 24.75, 151.26 50.06, 150 65 M150 0 C149.53 18.13, 148.9 37.2, 150 65 M150 65 C118.94 62.02, 87.34 63.98, 0 65 M150 65 C112.84 66.03, 73.58 67.14, 0 65 M0 65 C1.03 40.98, 0.75 13.24, 0 0 M0 65 C-0.46 50.34, -0.24 34.76, 0 0" stroke="#1e1e1e" stroke-width="2" fill="none"></path></g><g stroke-linecap="round" transform="translate(824 1405) rotate(0 75 32.5)"><path d="M0 0 C48.66 1.6, 100.14 1.2, 150 0 M0 0 C59.11 -0.11, 119.75 1.53, 150 0 M150 0 C149.16 23.92, 149.38 45.73, 150 65 M150 0 C149.92 15.22, 150.4 31.02, 150 65 M150 65 C110.04 64.37, 73.91 64.03, 0 65 M150 65 C90.2 65.52, 31.77 67.1, 0 65 M0 65 C1.52 48.35, -0.33 29.24, 0 0 M0 65 C-0.15 49.42, -0.87 35.73, 0 0" stroke="#1e1e1e" stroke-width="2" fill="none"></path></g><g stroke-linecap="round" transform="translate(1024 15) rotate(0 75 32.5)"><path d="M0 0 C56.35 0.39, 110.97 3.39, 150 0 M0 0 C51 1.33, 104.43 1.11, 150 0 M150 0 C150.64 14.32, 149.44 27.79, 150 65 M150 0 C149.17 23.21, 148.99 45.89, 150 65 M150 65 C115.58 63.7, 81.43 65.54, 0 65 M150 65 C91.43 65.44, 35.04 64.24, 0 65 M0 65 C0.26 42.16, -1.68 17.89, 0 0 M0 65 C-0.1 41.34, 1.09 19.55, 0 0" stroke="#1e1e1e" stroke-width="2" fill="none"></path></g><g stroke-linecap="round" transform="translate(1024 1405) rotate(0 75 32.5)"><path d="M0 0 C41.23 -0.07, 86.54 -0.09, 150 0 M0 0 C39.07 2.03, 77.17 0.39, 150 0 M150 0 C149.78 16.44, 148.81 34.57, 150 65 M150 0 C149.74 17.8, 149.25 36.71, 150 65 M150 65 C105.36 63.6, 62.45 66.28, 0 65 M150 65 C94.65 65.08, 37.26 64.61, 0 65 M0 65 C-0.6 41.47, -2.02 21.92, 0 0 M0 65 C-0.64 52, 0.72 38.73, 0 0" stroke="#1e1e1e" stroke-width="2" fill="none"></path></g><g stroke-linecap="round" transform="translate(1224 15) rotate(0 75 32.5)"><path d="M0 0 C31.33 2.74, 61.72 -0.09, 150 0 M0 0 C40.12 -0.6, 77.75 -1.56, 150 0 M150 0 C150.02 17.33, 151.43 36.59, 150 65 M150 0 C148.58 16.11, 148.77 33.12, 150 65 M150 65 C118.05 67.01, 89.72 66.57, 0 65 M150 65 C109.98 65.9, 68.51 66.66, 0 65 M0 65 C-1.59 38.04, 0.96 12.08, 0 0 M0 65 C0.95 44.97, 1.18 23.2, 0 0" stroke="#1e1e1e" stroke-width="2" fill="none"></path></g><g stroke-linecap="round" transform="translate(1224 1405) rotate(0 75 32.5)"><path d="M0 0 C56.92 0.21, 109.09 -1.46, 150 0 M0 0 C33.82 -2.07, 66.14 -1.46, 150 0 M150 0 C148.88 23.6, 149.72 44.04, 150 65 M150 0 C149.56 13.87, 150 28.31, 150 65 M150 65 C111.44 66.02, 70.51 63.76, 0 65 M150 65 C113.65 66.99, 78.41 67.4, 0 65 M0 65 C-1.42 44.95, -1.85 23.07, 0 0 M0 65 C1.18 50.78, 0.31 35.65, 0 0" stroke="#1e1e1e" stroke-width="2" fill="none"></path></g><g stroke-linecap="round" transform="translate(1424 15) rotate(0 75 32.5)"><path d="M0 0 C37.87 -2.34, 73.16 -3.01, 150 0 M0 0 C55.57 -1.24, 112.54 -0.35, 150 0 M150 0 C151.04 18.89, 149.01 36.75, 150 65 M150 0 C148.65 19.68, 148.46 39.09, 150 65 M150 65 C105.98 67.95, 57.96 65.25, 0 65 M150 65 C92.91 64.86, 35.72 64.72, 0 65 M0 65 C1.59 43.65, 0.89 24.59, 0 0 M0 65 C0.4 48.74, 0.21 32.39, 0 0" stroke="#1e1e1e" stroke-width="2" fill="none"></path></g><g stroke-linecap="round" transform="translate(1424 1405) rotate(0 75 32.5)"><path d="M0 0 C51.07 -1.44, 102.36 0.83, 150 0 M0 0 C57.46 1, 116.24 1.11, 150 0 M150 0 C149.41 17.68, 148.15 37.23, 150 65 M150 0 C149.68 12.51, 149.4 26.94, 150 65 M150 65 C113.58 65.76, 72.98 67.98, 0 65 M150 65 C90.68 66.7, 30.81 65.77, 0 65 M0 65 C-1.39 50.56, -0.94 34.25, 0 0 M0 65 C-0.58 42.84, -0.69 19.48, 0 0" stroke="#1e1e1e" stroke-width="2" fill="none"></path></g><g stroke-linecap="round" transform="translate(1624 15) rotate(0 75 32.5)"><path d="M0 0 C58.73 -0.89, 120.51 2.39, 150 0 M0 0 C52.93 1.1, 106.13 0.5, 150 0 M150 0 C149.47 14.47, 150.43 30.09, 150 65 M150 0 C148.58 16.21, 149.57 32.54, 150 65 M150 65 C89.93 64.92, 32.61 68.08, 0 65 M150 65 C111.31 65.86, 70.77 64.89, 0 65 M0 65 C0.06 48.72, -1.37 36.22, 0 0 M0 65 C0.06 39.79, -0.62 15.74, 0 0" stroke="#1e1e1e" stroke-width="2" fill="none"></path></g><g stroke-linecap="round" transform="translate(1624 1405) rotate(0 75 32.5)"><path d="M0 0 C50.22 2.09, 105.29 1.65, 150 0 M0 0 C33.78 0.19, 66.5 -0.29, 150 0 M150 0 C148.42 23.24, 148.06 45.43, 150 65 M150 0 C149.69 14.7, 149.52 30.27, 150 65 M150 65 C90.83 66.28, 36.02 63.88, 0 65 M150 65 C97.54 66.39, 43.86 65.68, 0 65 M0 65 C-0.8 40.84, 1.58 20.41, 0 0 M0 65 C-0.12 40.67, 0.91 17.63, 0 0" stroke="#1e1e1e" stroke-width="2" fill="none"></path></g><g stroke-linecap="round" transform="translate(10 90) rotate(0 857 19.5)"><path d="M0 0 C438.41 6.04, 876.03 4.73, 1714 0 M1714 0 C1713.82 9.75, 1712.85 21.19, 1714 39 M1714 39 C1220.19 33.11, 725.97 33.26, 0 39 M0 39 C0.46 26.42, 2.3 17.46, 0 0" stroke="#1e1e1e" stroke-width="2.5" fill="none" stroke-dasharray="8 10"></path></g><g stroke-linecap="round" transform="translate(10 745) rotate(0 857 19.5)"><path d="M0 0 C449.36 -4.76, 896.72 -5.53, 1714 0 M1714 0 C1713.9 9.96, 1715.31 21.86, 1714 39 M1714 39 C1276.39 38.84, 839.67 39.19, 0 39 M0 39 C-0.83 32.88, 1.85 24.37, 0 0" stroke="#1e1e1e" stroke-width="2.5" fill="none" stroke-dasharray="8 10"></path></g><g stroke-linecap="round" transform="translate(1618.5 1070) rotate(0 80.5 19.5)"><path d="M0 0 C36.8 -2.94, 70.59 -1.72, 161 0 M161 0 C159.89 14.61, 160.74 26.06, 161 39 M161 39 C123.87 36.01, 88.54 35.63, 0 39 M0 39 C1.92 30.2, 1.47 17.41, 0 0" stroke="#1e1e1e" stroke-width="2.5" fill="none" stroke-dasharray="8 10"></path></g><g stroke-linecap="round"><g transform="translate(35 95) rotate(0 0 652.5)"><path d="M0 0 C3.86 489.92, 4.35 980.89, 0 1305 M0 0 C-0.51 383.93, -0.92 767.65, 0 1305" stroke="#999" stroke-width="1" fill="none"></path></g></g><mask></mask><g stroke-linecap="round"><g transform="translate(306 80) rotate(0 0 662.5)"><path d="M0 0 C2.52 511.25, 3.23 1022.73, 0 1325 M0 0 C-2.92 378.66, -3.18 757.7, 0 1325" stroke="#999" stroke-width="1" fill="none"></path></g></g><mask></mask><g stroke-linecap="round"><g transform="translate(623 80) rotate(0 0 662.5)"><path d="M0 0 C-4.26 469.37, -4.17 937.9, 0 1325 M0 0 C2.82 325.32, 3.01 650.87, 0 1325" stroke="#999" stroke-width="1" fill="none"></path></g></g><mask></mask><g stroke-linecap="round"><g transform="translate(899 80) rotate(0 0 662.5)"><path d="M0 0 C-1.9 294.29, -2.38 588.23, 0 1325 M0 0 C-0.93 472.45, -1 944.69, 0 1325" stroke="#999" stroke-width="1" fill="none"></path></g></g><mask></mask><g stroke-linecap="round"><g transform="translate(1099 80) rotate(0 0 662.5)"><path d="M0 0 C-0.93 340.67, -1.32 682.01, 0 1325 M0 0 C-2.38 381.38, -2.58 763.21, 0 1325" stroke="#999" stroke-width="1" fill="none"></path></g></g><mask></mask><g stroke-linecap="round"><g transform="translate(1299 80) rotate(0 0 662.5)"><path d="M0 0 C2.31 374.89, 2.87 750.56, 0 1325 M0 0 C-4.35 337.53, -4.28 675.43, 0 1325" stroke="#999" stroke-width="1" fill="none"></path></g></g><mask></mask><g stroke-linecap="round"><g transform="translate(1499 80) rotate(0 0 662.5)"><path d="M0 0 C-0.74 458.51, -0.4 915.76, 0 1325 M0 0 C-0.03 297.73, 0.15 595.69, 0 1325" stroke="#999" stroke-width="1" fill="none"></path></g></g><mask></mask><g stroke-linecap="round"><g transform="translate(1699 80) rotate(0 0 662.5)"><path d="M0 0 C-0.29 389.76, -1.11 779.11, 0 1325 M0 0 C-5.23 401.44, -5.31 802.77, 0 1325" stroke="#999" stroke-width="1" fill="none"></path></g></g><mask></mask><g mask="url(#mask-kXFFsWgpiotzXpC-VoAzM)" stroke-linecap="round"><g transform="translate(36 165) rotate(0 133 0)"><path d="M1.18 -0.14 C45.28 -0.18, 220.9 -0.74, 264.96 -0.9 M0.08 -1.26 C43.99 -1.12, 219.61 0.02, 263.73 0.16" stroke="#1e1e1e" stroke-width="2" fill="none"></path></g><g transform="translate(36 165) rotate(0 133 0)"><path d="M240.19 8.59 C246.73 5.15, 252.19 3.7, 263.73 0.16 M240.19 8.59 C245.08 6.09, 249.67 5.33, 263.73 0.16" stroke="#1e1e1e" stroke-width="2" fill="none"></path></g><g transform="translate(36 165) rotate(0 133 0)"><path d="M240.28 -8.51 C246.7 -7.06, 252.14 -3.62, 263.73 0.16 M240.28 -8.51 C245.07 -7.47, 249.64 -4.69, 263.73 0.16" stroke="#1e1e1e" stroke-width="2" fill="none"></path></g></g><mask id="mask-kXFFsWgpiotzXpC-VoAzM"><rect x="0" y="0" fill="#fff" width="402" height="265"></rect><rect x="117.38402557373047" y="145" fill="#000" width="103.23194885253906" height="40" opacity="1"></rect></mask><g mask="url(#mask-23GeABGsP_EMuoo4VpKh_)" stroke-linecap="round"><g transform="translate(307 211) rotate(0 156 0)"><path d="M0.36 -0.54 C52.15 -0.65, 258.93 0.04, 310.6 0.04 M-1.18 1.79 C51.05 1.83, 260.53 1.81, 312.84 1.59" stroke="#1e1e1e" stroke-width="2" fill="none"></path></g><g transform="translate(307 211) rotate(0 156 0)"><path d="M289.36 10.18 C294.18 6.6, 300.91 4.13, 312.84 1.59 M289.36 10.18 C294.45 7.71, 301.4 5.35, 312.84 1.59" stroke="#1e1e1e" stroke-width="2" fill="none"></path></g><g transform="translate(307 211) rotate(0 156 0)"><path d="M289.33 -6.92 C294.25 -6.3, 300.99 -4.57, 312.84 1.59 M289.33 -6.92 C294.3 -5.05, 301.26 -3.06, 312.84 1.59" stroke="#1e1e1e" stroke-width="2" fill="none"></path></g></g><mask id="mask-23GeABGsP_EMuoo4VpKh_"><rect x="0" y="0" fill="#fff" width="719" height="311"></rect><rect x="357.66407775878906" y="181" fill="#000" width="210.67184448242188" height="60" opacity="1"></rect></mask><g mask="url(#mask-lgxRsE1ee_mhjVs-sQqkv)" stroke-linecap="round"><g transform="translate(624 257) rotate(0 235.5 0)"><path d="M-0.04 -0.9 C78.18 -1.06, 392.2 -1.12, 470.54 -1.12 M1.88 1.24 C79.89 1.2, 391.77 0.05, 469.61 -0.17" stroke="#1e1e1e" stroke-width="2" fill="none"></path></g><g transform="translate(624 257) rotate(0 235.5 0)"><path d="M446.14 8.46 C453.02 5.55, 461.02 1.49, 469.61 -0.17 M446.14 8.46 C451.13 6.78, 456.25 5.76, 469.61 -0.17" stroke="#1e1e1e" stroke-width="2" fill="none"></path></g><g transform="translate(624 257) rotate(0 235.5 0)"><path d="M446.09 -8.64 C452.96 -5.45, 460.99 -3.41, 469.61 -0.17 M446.09 -8.64 C451.09 -6.46, 456.22 -3.63, 469.61 -0.17" stroke="#1e1e1e" stroke-width="2" fill="none"></path></g></g><mask id="mask-lgxRsE1ee_mhjVs-sQqkv"><rect x="0" y="0" fill="#fff" width="1195" height="357"></rect><rect x="784.1160430908203" y="247" fill="#000" width="150.76791381835938" height="20" opacity="1"></rect></mask><g mask="url(#mask-ha089Usk_-uPjFUxJsuae)" stroke-linecap="round"><g transform="translate(1098 348) rotate(0 -235.5 0)"><path d="M-1.4 0.04 C-79.9 0.03, -393.29 -0.54, -471.62 -0.55" stroke="#1e1e1e" stroke-width="2.5" fill="none" stroke-dasharray="1.5 8"></path></g><g transform="translate(1098 348) rotate(0 -235.5 0)"><path d="M-448.12 -9.08 C-454.87 -8.66, -462.62 -5.83, -471.62 -0.55" stroke="#1e1e1e" stroke-width="2.5" fill="none" stroke-dasharray="1.5 6"></path></g><g transform="translate(1098 348) rotate(0 -235.5 0)"><path d="M-448.13 8.02 C-454.8 3.51, -462.55 1.41, -471.62 -0.55" stroke="#1e1e1e" stroke-width="2.5" fill="none" stroke-dasharray="1.5 6"></path></g></g><mask id="mask-ha089Usk_-uPjFUxJsuae"><rect x="0" y="0" fill="#fff" width="1669" height="448"></rect><rect x="764.9000549316406" y="338" fill="#000" width="195.19989013671875" height="20" opacity="1"></rect></mask><g mask="url(#mask-TPgFgwPFcbP_aujA6b1xH)" stroke-linecap="round"><g transform="translate(622 394) rotate(0 -156 0)"><path d="M-0.46 -1.12 C-52.3 -1.12, -260.21 -0.89, -312.05 -0.89" stroke="#1e1e1e" stroke-width="2.5" fill="none" stroke-dasharray="1.5 8"></path></g><g transform="translate(622 394) rotate(0 -156 0)"><path d="M-288.57 -9.46 C-296.48 -8.19, -302.09 -5.12, -312.05 -0.89" stroke="#1e1e1e" stroke-width="2.5" fill="none" stroke-dasharray="1.5 6"></path></g><g transform="translate(622 394) rotate(0 -156 0)"><path d="M-288.55 7.64 C-296.34 4.55, -301.96 3.26, -312.05 -0.89" stroke="#1e1e1e" stroke-width="2.5" fill="none" stroke-dasharray="1.5 6"></path></g></g><mask id="mask-TPgFgwPFcbP_aujA6b1xH"><rect x="0" y="0" fill="#fff" width="1034" height="494"></rect><rect x="384.7200393676758" y="384" fill="#000" width="162.55992126464844" height="20" opacity="1"></rect></mask><g mask="url(#mask-lNcAgNzdxNZaNfNzObU7m)" stroke-linecap="round"><g transform="translate(1098 485) rotate(0 -235.5 0)"><path d="M-1.62 -0.55 C-79.95 -0.56, -393.06 -0.05, -471.39 -0.02" stroke="#1e1e1e" stroke-width="2.5" fill="none" stroke-dasharray="1.5 8"></path></g><g transform="translate(1098 485) rotate(0 -235.5 0)"><path d="M-447.91 -8.6 C-454.11 -8.38, -458.51 -6.82, -471.39 -0.02" stroke="#1e1e1e" stroke-width="2.5" fill="none" stroke-dasharray="1.5 6"></path></g><g transform="translate(1098 485) rotate(0 -235.5 0)"><path d="M-447.89 8.5 C-454.1 4.88, -458.5 2.58, -471.39 -0.02" stroke="#1e1e1e" stroke-width="2.5" fill="none" stroke-dasharray="1.5 6"></path></g></g><mask id="mask-lNcAgNzdxNZaNfNzObU7m"><rect x="0" y="0" fill="#fff" width="1669" height="585"></rect><rect x="829.1720199584961" y="475" fill="#000" width="66.65596008300781" height="20" opacity="1"></rect></mask><g mask="url(#mask-mHiisaQPPvl9qMyL7fStP)" stroke-linecap="round"><g transform="translate(624 531) rotate(0 335.5 0)"><path d="M-0.05 -0.89 C111.6 -0.9, 558.78 -1.28, 670.48 -1.12 M1.86 1.25 C113.35 1.45, 558.3 -0.2, 669.52 -0.17" stroke="#1e1e1e" stroke-width="2" fill="none"></path></g><g transform="translate(624 531) rotate(0 335.5 0)"><path d="M646.05 8.43 C651.75 5.9, 658.48 2.72, 669.52 -0.17 M646.05 8.43 C654.11 6.32, 660.14 2.35, 669.52 -0.17" stroke="#1e1e1e" stroke-width="2" fill="none"></path></g><g transform="translate(624 531) rotate(0 335.5 0)"><path d="M646.01 -8.68 C651.56 -6.02, 658.31 -4.01, 669.52 -0.17 M646.01 -8.68 C654.01 -5.56, 660.05 -4.32, 669.52 -0.17" stroke="#1e1e1e" stroke-width="2" fill="none"></path></g></g><mask id="mask-mHiisaQPPvl9qMyL7fStP"><rect x="0" y="0" fill="#fff" width="1395" height="631"></rect><rect x="879.7880554199219" y="521" fill="#000" width="159.42388916015625" height="20" opacity="1"></rect></mask><g mask="url(#mask-Z6eXQWI1eLDYC7Y33Tdv9)" stroke-linecap="round"><g transform="translate(1298 577) rotate(0 -335.5 0)"><path d="M-1.39 -0.02 C-113.06 0.01, -560.11 -0.27, -671.62 -0.36" stroke="#1e1e1e" stroke-width="2.5" fill="none" stroke-dasharray="1.5 8"></path></g><g transform="translate(1298 577) rotate(0 -335.5 0)"><path d="M-648.12 -8.89 C-653.06 -9.17, -658.48 -5.44, -671.62 -0.36" stroke="#1e1e1e" stroke-width="2.5" fill="none" stroke-dasharray="1.5 6"></path></g><g transform="translate(1298 577) rotate(0 -335.5 0)"><path d="M-648.13 8.21 C-652.99 4.39, -658.41 4.59, -671.62 -0.36" stroke="#1e1e1e" stroke-width="2.5" fill="none" stroke-dasharray="1.5 6"></path></g></g><mask id="mask-Z6eXQWI1eLDYC7Y33Tdv9"><rect x="0" y="0" fill="#fff" width="2069" height="677"></rect><rect x="911.3560333251953" y="567" fill="#000" width="102.28793334960938" height="20" opacity="1"></rect></mask><g mask="url(#mask-2A029SFdl0SYrO8ICebSz)" stroke-linecap="round"><g transform="translate(624 623) rotate(0 135.5 0)"><path d="M0.48 -1.12 C45.51 -0.96, 225.23 -0.32, 270.14 0.06 M-0.99 0.91 C43.9 1.35, 224.03 1.88, 269 1.63" stroke="#1e1e1e" stroke-width="2" fill="none"></path></g><g transform="translate(624 623) rotate(0 135.5 0)"><path d="M245.51 10.19 C249.68 7.42, 257.61 4.9, 269 1.63 M245.51 10.19 C254.5 6.02, 264.93 4.2, 269 1.63" stroke="#1e1e1e" stroke-width="2" fill="none"></path></g><g transform="translate(624 623) rotate(0 135.5 0)"><path d="M245.51 -6.91 C249.54 -5.34, 257.48 -3.51, 269 1.63 M245.51 -6.91 C254.64 -4.3, 265.07 0.67, 269 1.63" stroke="#1e1e1e" stroke-width="2" fill="none"></path></g></g><mask id="mask-2A029SFdl0SYrO8ICebSz"><rect x="0" y="0" fill="#fff" width="995" height="723"></rect><rect x="701.4280319213867" y="603" fill="#000" width="116.14393615722656" height="40" opacity="1"></rect></mask><g mask="url(#mask-zjmhLBChFbbWo8Z72XIBO)" stroke-linecap="round"><g transform="translate(624 669) rotate(0 235.5 0)"><path d="M-0.62 -0.36 C77.87 -0.45, 391.85 -0.8, 470.56 -0.57 M0.99 -1.6 C79.41 -1.53, 391.22 0.53, 469.64 0.67" stroke="#1e1e1e" stroke-width="2" fill="none"></path></g><g transform="translate(624 669) rotate(0 235.5 0)"><path d="M446.11 9.12 C450.82 7.53, 455.78 7.47, 469.64 0.67 M446.11 9.12 C454.54 6.76, 465.22 2.29, 469.64 0.67" stroke="#1e1e1e" stroke-width="2" fill="none"></path></g><g transform="translate(624 669) rotate(0 235.5 0)"><path d="M446.19 -7.98 C450.87 -5.71, 455.82 -1.92, 469.64 0.67 M446.19 -7.98 C454.72 -3.73, 465.36 -1.59, 469.64 0.67" stroke="#1e1e1e" stroke-width="2" fill="none"></path></g></g><mask id="mask-zjmhLBChFbbWo8Z72XIBO"><rect x="0" y="0" fill="#fff" width="1195" height="769"></rect><rect x="746.2440643310547" y="659" fill="#000" width="226.51187133789062" height="20" opacity="1"></rect></mask><g mask="url(#mask-fz7_Q-R6kqrqjDVKKeCNQ)" stroke-linecap="round"><g transform="translate(622 715) rotate(0 -156 0)"><path d="M-0.86 0.06 C-52.79 0.44, -260.47 1.02, -312.07 1.16" stroke="#1e1e1e" stroke-width="2.5" fill="none" stroke-dasharray="1.5 8"></path></g><g transform="translate(622 715) rotate(0 -156 0)"><path d="M-288.6 -7.45 C-295.58 -5.9, -300.74 -0.65, -312.07 1.16" stroke="#1e1e1e" stroke-width="2.5" fill="none" stroke-dasharray="1.5 6"></path></g><g transform="translate(622 715) rotate(0 -156 0)"><path d="M-288.55 9.65 C-295.39 6.1, -300.56 6.24, -312.07 1.16" stroke="#1e1e1e" stroke-width="2.5" fill="none" stroke-dasharray="1.5 6"></path></g></g><mask id="mask-fz7_Q-R6kqrqjDVKKeCNQ"><rect x="0" y="0" fill="#fff" width="1034" height="815"></rect><rect x="384.7200393676758" y="705" fill="#000" width="162.55992126464844" height="20" opacity="1"></rect></mask><g mask="url(#mask-l30hpqiNiGWAn7jf-X0ha)" stroke-linecap="round"><g transform="translate(36 820) rotate(0 133 0)"><path d="M0.56 -0.57 C45.11 -0.33, 222.36 1, 266.66 1.04 M-0.87 1.75 C43.72 1.7, 221.83 -0.39, 266.33 -0.54" stroke="#1e1e1e" stroke-width="2" fill="none"></path></g><g transform="translate(36 820) rotate(0 133 0)"><path d="M242.9 8.2 C246.82 8.32, 254.34 6.07, 266.33 -0.54 M242.9 8.2 C250.34 5.25, 256.27 3.63, 266.33 -0.54" stroke="#1e1e1e" stroke-width="2" fill="none"></path></g><g transform="translate(36 820) rotate(0 133 0)"><path d="M242.77 -8.9 C246.66 -5.25, 254.21 -3.97, 266.33 -0.54 M242.77 -8.9 C250.14 -7.17, 256.11 -4.13, 266.33 -0.54" stroke="#1e1e1e" stroke-width="2" fill="none"></path></g></g><mask id="mask-l30hpqiNiGWAn7jf-X0ha"><rect x="0" y="0" fill="#fff" width="402" height="920"></rect><rect x="106.96003723144531" y="800" fill="#000" width="124.07992553710938" height="40" opacity="1"></rect></mask><g mask="url(#mask-xP72Xg5XwzZJAFe6Ojqru)" stroke-linecap="round"><g transform="translate(307 866) rotate(0 156 0)"><path d="M-0.07 1.16 C52 1.3, 260.66 1.21, 312.54 0.9 M1.84 0.73 C53.87 0.53, 260.73 -0.67, 312.13 -0.76" stroke="#1e1e1e" stroke-width="2" fill="none"></path></g><g transform="translate(307 866) rotate(0 156 0)"><path d="M288.68 7.89 C296.94 7.39, 302.83 2.8, 312.13 -0.76 M288.68 7.89 C293.87 6.1, 300.26 4.44, 312.13 -0.76" stroke="#1e1e1e" stroke-width="2" fill="none"></path></g><g transform="translate(307 866) rotate(0 156 0)"><path d="M288.61 -9.21 C296.9 -5.09, 302.81 -5.07, 312.13 -0.76 M288.61 -9.21 C293.97 -6.9, 300.37 -4.46, 312.13 -0.76" stroke="#1e1e1e" stroke-width="2" fill="none"></path></g></g><mask id="mask-xP72Xg5XwzZJAFe6Ojqru"><rect x="0" y="0" fill="#fff" width="719" height="966"></rect><rect x="361.5360565185547" y="836" fill="#000" width="202.92788696289062" height="60" opacity="1"></rect></mask><g mask="url(#mask-L9pPHZRYrtu1_SP-ZTfur)" stroke-linecap="round"><g transform="translate(624 912) rotate(0 135.5 0)"><path d="M1.66 1.04 C46.8 1.08, 226.71 -0.32, 271.4 -0.32 M0.81 0.54 C45.87 0.8, 225.67 1.27, 270.92 1.05" stroke="#1e1e1e" stroke-width="2" fill="none"></path></g><g transform="translate(624 912) rotate(0 135.5 0)"><path d="M247.43 9.61 C256.36 8.27, 261.27 2.96, 270.92 1.05 M247.43 9.61 C256.88 6.81, 266.31 3.38, 270.92 1.05" stroke="#1e1e1e" stroke-width="2" fill="none"></path></g><g transform="translate(624 912) rotate(0 135.5 0)"><path d="M247.42 -7.49 C256.28 -3.62, 261.18 -3.71, 270.92 1.05 M247.42 -7.49 C257.04 -3.72, 266.48 -0.59, 270.92 1.05" stroke="#1e1e1e" stroke-width="2" fill="none"></path></g></g><mask id="mask-L9pPHZRYrtu1_SP-ZTfur"><rect x="0" y="0" fill="#fff" width="995" height="1012"></rect><rect x="673.3080596923828" y="902" fill="#000" width="172.38388061523438" height="20" opacity="1"></rect></mask><g mask="url(#mask-DKgUglxOiWRPHhXKqNfFq)" stroke-linecap="round"><g transform="translate(898 958) rotate(0 -135.5 0)"><path d="M0.54 0.9 C-44.42 0.58, -225.82 -0.77, -270.82 -0.72" stroke="#1e1e1e" stroke-width="2.5" fill="none" stroke-dasharray="1.5 8"></path></g><g transform="translate(898 958) rotate(0 -135.5 0)"><path d="M-247.29 -9.18 C-251.67 -7.37, -260.3 -3.02, -270.82 -0.72" stroke="#1e1e1e" stroke-width="2.5" fill="none" stroke-dasharray="1.5 6"></path></g><g transform="translate(898 958) rotate(0 -135.5 0)"><path d="M-247.36 7.92 C-251.88 5.41, -260.5 5.44, -270.82 -0.72" stroke="#1e1e1e" stroke-width="2.5" fill="none" stroke-dasharray="1.5 6"></path></g></g><mask id="mask-DKgUglxOiWRPHhXKqNfFq"><rect x="0" y="0" fill="#fff" width="1269" height="1058"></rect><rect x="696.5640411376953" y="948" fill="#000" width="131.87191772460938" height="20" opacity="1"></rect></mask><g mask="url(#mask-zVZv6AHyRCwAHr6djmoS8)" stroke-linecap="round"><g transform="translate(624 1004) rotate(0 535.5 0)"><path d="M1.4 -0.32 C179.41 -0.32, 891.4 1.03, 1069.78 1.01 M0.41 -1.53 C178.71 -1.34, 893.59 -0.95, 1072.11 -0.58" stroke="#1e1e1e" stroke-width="2" fill="none"></path></g><g transform="translate(624 1004) rotate(0 535.5 0)"><path d="M1048.61 7.94 C1057.33 3.18, 1068.87 2.96, 1072.11 -0.58 M1048.61 7.94 C1055.7 5.85, 1060.98 2.63, 1072.11 -0.58" stroke="#1e1e1e" stroke-width="2" fill="none"></path></g><g transform="translate(624 1004) rotate(0 535.5 0)"><path d="M1048.63 -9.16 C1057.49 -7.13, 1069.03 -0.57, 1072.11 -0.58 M1048.63 -9.16 C1055.81 -6.73, 1061.08 -5.44, 1072.11 -0.58" stroke="#1e1e1e" stroke-width="2" fill="none"></path></g></g><mask id="mask-zVZv6AHyRCwAHr6djmoS8"><rect x="0" y="0" fill="#fff" width="1795" height="1104"></rect><rect x="1071.6680603027344" y="994" fill="#000" width="175.66387939453125" height="20" opacity="1"></rect></mask><g mask="url(#mask-dnAO63kSe4UHASW4CIm6_)" stroke-linecap="round"><g transform="translate(622 1050) rotate(0 -156 0)"><path d="M-0.82 -0.72 C-52.66 -0.67, -258.64 0.95, -310.49 1.18" stroke="#1e1e1e" stroke-width="2.5" fill="none" stroke-dasharray="1.5 8"></path></g><g transform="translate(622 1050) rotate(0 -156 0)"><path d="M-287.05 -7.52 C-297.25 -2.54, -303.14 -1.58, -310.49 1.18" stroke="#1e1e1e" stroke-width="2.5" fill="none" stroke-dasharray="1.5 6"></path></g><g transform="translate(622 1050) rotate(0 -156 0)"><path d="M-286.95 9.58 C-297.31 7.95, -303.24 2.31, -310.49 1.18" stroke="#1e1e1e" stroke-width="2.5" fill="none" stroke-dasharray="1.5 6"></path></g></g><mask id="mask-dnAO63kSe4UHASW4CIm6_"><rect x="0" y="0" fill="#fff" width="1034" height="1150"></rect><rect x="377.47206115722656" y="1040" fill="#000" width="177.05587768554688" height="20" opacity="1"></rect></mask><g mask="url(#mask-lAdf5GzLykT94HF0pp2lk)" stroke-linecap="round"><g transform="translate(1698 1145) rotate(0 -535.5 0)"><path d="M-1.22 1.01 C-179.51 0.99, -891.21 -0.34, -1069.32 -0.43 M0.6 0.49 C-177.82 0.67, -891.16 1.23, -1069.65 0.88" stroke="#1e1e1e" stroke-width="2" fill="none"></path></g><g transform="translate(1698 1145) rotate(0 -535.5 0)"><path d="M-1046.16 -7.66 C-1053.3 -2.64, -1064.5 -0.37, -1069.65 0.88 M-1046.16 -7.66 C-1054.07 -5.41, -1062.77 -1.23, -1069.65 0.88" stroke="#1e1e1e" stroke-width="2" fill="none"></path></g><g transform="translate(1698 1145) rotate(0 -535.5 0)"><path d="M-1046.16 9.44 C-1053.26 8.06, -1064.46 3.91, -1069.65 0.88 M-1046.16 9.44 C-1054.23 5.88, -1062.93 4.24, -1069.65 0.88" stroke="#1e1e1e" stroke-width="2" fill="none"></path></g></g><mask id="mask-lAdf5GzLykT94HF0pp2lk"><rect x="0" y="0" fill="#fff" width="2869" height="1245"></rect><rect x="1070.476058959961" y="1135" fill="#000" width="184.04788208007812" height="20" opacity="1"></rect></mask><g mask="url(#mask-1jVVawGTcV2f8LH1GG0II)" stroke-linecap="round"><g transform="translate(624 1191) rotate(0 335.5 0)"><path d="M1.51 1.18 C113.16 1.4, 558.49 0.63, 670.07 0.62 M0.58 0.75 C112.06 0.68, 557.25 -0.95, 668.89 -1.18" stroke="#1e1e1e" stroke-width="2" fill="none"></path></g><g transform="translate(624 1191) rotate(0 335.5 0)"><path d="M645.43 7.44 C653.86 4.17, 659.34 3.33, 668.89 -1.18 M645.43 7.44 C653.91 3.34, 664.41 -0.26, 668.89 -1.18" stroke="#1e1e1e" stroke-width="2" fill="none"></path></g><g transform="translate(624 1191) rotate(0 335.5 0)"><path d="M645.38 -9.66 C653.72 -8.26, 659.21 -4.42, 668.89 -1.18 M645.38 -9.66 C653.93 -7.04, 664.44 -3.92, 668.89 -1.18" stroke="#1e1e1e" stroke-width="2" fill="none"></path></g></g><mask id="mask-1jVVawGTcV2f8LH1GG0II"><rect x="0" y="0" fill="#fff" width="1395" height="1291"></rect><rect x="867.2840576171875" y="1181" fill="#000" width="184.431884765625" height="20" opacity="1"></rect></mask><g mask="url(#mask-xAUkj-C43vzUG_JPXQhhp)" stroke-linecap="round"><g transform="translate(1298 1237) rotate(0 -335.5 0)"><path d="M0.68 -0.43 C-110.77 -0.52, -558.21 0.36, -669.88 0.48" stroke="#1e1e1e" stroke-width="2.5" fill="none" stroke-dasharray="1.5 8"></path></g><g transform="translate(1298 1237) rotate(0 -335.5 0)"><path d="M-646.4 -8.11 C-652.68 -4.79, -656.8 -1.9, -669.88 0.48" stroke="#1e1e1e" stroke-width="2.5" fill="none" stroke-dasharray="1.5 6"></path></g><g transform="translate(1298 1237) rotate(0 -335.5 0)"><path d="M-646.38 8.99 C-652.81 8.21, -656.93 7, -669.88 0.48" stroke="#1e1e1e" stroke-width="2.5" fill="none" stroke-dasharray="1.5 6"></path></g></g><mask id="mask-xAUkj-C43vzUG_JPXQhhp"><rect x="0" y="0" fill="#fff" width="2069" height="1337"></rect><rect x="867.8840637207031" y="1227" fill="#000" width="189.23187255859375" height="20" opacity="1"></rect></mask><g mask="url(#mask-AaPDWFu_1igN9iDA1VI-E)" stroke-linecap="round"><g transform="translate(624 1283) rotate(0 135.5 0)"><path d="M0.07 0.62 C44.98 0.61, 225.86 1.22, 270.98 1.11 M2.04 -0.1 C46.75 0.08, 225.59 -0.66, 270.29 -0.42" stroke="#1e1e1e" stroke-width="2" fill="none"></path></g><g transform="translate(624 1283) rotate(0 135.5 0)"><path d="M246.79 8.13 C256.76 5.73, 266.61 2.16, 270.29 -0.42 M246.79 8.13 C254.46 4.8, 261.16 2.46, 270.29 -0.42" stroke="#1e1e1e" stroke-width="2" fill="none"></path></g><g transform="translate(624 1283) rotate(0 135.5 0)"><path d="M246.79 -8.97 C256.93 -4.8, 266.78 -1.81, 270.29 -0.42 M246.79 -8.97 C254.34 -7.17, 261.04 -4.38, 270.29 -0.42" stroke="#1e1e1e" stroke-width="2" fill="none"></path></g></g><mask id="mask-AaPDWFu_1igN9iDA1VI-E"><rect x="0" y="0" fill="#fff" width="995" height="1383"></rect><rect x="682.5000457763672" y="1263" fill="#000" width="153.99990844726562" height="40" opacity="1"></rect></mask><g mask="url(#mask-uJiImcJHVskueKMMk-drJ)" stroke-linecap="round"><g transform="translate(624 1329) rotate(0 235.5 0)"><path d="M1.12 0.48 C79.44 0.6, 393.38 0.53, 471.61 0.31 M-0.02 -0.31 C78.14 -0.53, 392.96 -1.7, 471.25 -1.65" stroke="#1e1e1e" stroke-width="2" fill="none"></path></g><g transform="translate(624 1329) rotate(0 235.5 0)"><path d="M447.77 6.94 C457.95 5.26, 467.02 -0.02, 471.25 -1.65 M447.77 6.94 C452.28 5.06, 457.88 2.38, 471.25 -1.65" stroke="#1e1e1e" stroke-width="2" fill="none"></path></g><g transform="translate(624 1329) rotate(0 235.5 0)"><path d="M447.74 -10.16 C457.87 -5.03, 466.95 -3.5, 471.25 -1.65 M447.74 -10.16 C452.14 -8.13, 457.74 -6.9, 471.25 -1.65" stroke="#1e1e1e" stroke-width="2" fill="none"></path></g></g><mask id="mask-uJiImcJHVskueKMMk-drJ"><rect x="0" y="0" fill="#fff" width="1195" height="1429"></rect><rect x="793.5480346679688" y="1319" fill="#000" width="131.9039306640625" height="20" opacity="1"></rect></mask><g mask="url(#mask-H-gRMLcBjvoA0OWjPPwI4)" stroke-linecap="round"><g transform="translate(622 1375) rotate(0 -156 0)"><path d="M-0.02 1.11 C-51.73 1.01, -259.13 0.33, -311.19 0 M-1.23 0.65 C-53.03 0.7, -260.53 1.64, -311.98 1.54" stroke="#1e1e1e" stroke-width="2" fill="none"></path></g><g transform="translate(622 1375) rotate(0 -156 0)"><path d="M-288.5 -7.05 C-292.8 -4.17, -300.85 -3.84, -311.98 1.54 M-288.5 -7.05 C-293.61 -6, -299.7 -2.85, -311.98 1.54" stroke="#1e1e1e" stroke-width="2" fill="none"></path></g><g transform="translate(622 1375) rotate(0 -156 0)"><path d="M-288.47 10.05 C-292.86 8.41, -300.93 4.22, -311.98 1.54 M-288.47 10.05 C-293.68 7.18, -299.78 6.42, -311.98 1.54" stroke="#1e1e1e" stroke-width="2" fill="none"></path></g></g><mask id="mask-H-gRMLcBjvoA0OWjPPwI4"><rect x="0" y="0" fill="#fff" width="1034" height="1475"></rect><rect x="360.15206146240234" y="1365" fill="#000" width="211.6958770751953" height="20" opacity="1"></rect></mask><g stroke-linecap="round"><g transform="translate(295 277) rotate(0 507.5 0)"><path d="M0 0 C356.91 -3.77, 712.84 -4.34, 1015 0" stroke="#adb5bd" stroke-width="2.5" fill="none" stroke-dasharray="1.5 8"></path></g></g><mask></mask><g stroke-linecap="round"><g transform="translate(1310 277) rotate(0 0 229)"><path d="M0 0 C2 155.08, 1.33 312.03, 0 458" stroke="#adb5bd" stroke-width="2.5" fill="none" stroke-dasharray="1.5 8"></path></g></g><mask></mask><g stroke-linecap="round"><g transform="translate(295 735) rotate(0 507.5 0)"><path d="M0 0 C398.17 -0.57, 797.93 -0.74, 1015 0" stroke="#adb5bd" stroke-width="2.5" fill="none" stroke-dasharray="1.5 8"></path></g></g><mask></mask><g stroke-linecap="round"><g transform="translate(295 277) rotate(0 0 229)"><path d="M0 0 C-0.67 149.75, -0.87 298.65, 0 458" stroke="#adb5bd" stroke-width="2.5" fill="none" stroke-dasharray="1.5 8"></path></g></g><mask></mask><g stroke-linecap="round"><g transform="translate(295 419) rotate(0 507.5 0)"><path d="M0 0 C304.98 2.15, 609.24 2.32, 1015 0" stroke="#adb5bd" stroke-width="2.5" fill="none" stroke-dasharray="1.5 8"></path></g></g><mask></mask><g transform="translate(786.84375 285) rotate(0 45.439971923828125 10)"><text x="0" y="0" font-family="Virgil, Segoe UI Emoji" font-size="16px" fill="#1e1e1e" text-anchor="start" style="white-space: pre;" direction="ltr" dominant-baseline="text-before-edge">[Cache Hit]</text></g><g transform="translate(758.09375 427) rotate(0 51.327964782714844 10)"><text x="0" y="0" font-family="Virgil, Segoe UI Emoji" font-size="16px" fill="#1e1e1e" text-anchor="start" style="white-space: pre;" direction="ltr" dominant-baseline="text-before-edge">[Cache Miss]</text></g><g stroke-linecap="round" transform="translate(295 277) rotate(0 17 15)"><path d="M0.7 -0.37 L33.25 -0.21 L34.3 29.99 L0.87 29.84" stroke="none" stroke-width="0" fill="#e9ecef"></path><path d="M0 0 C11.41 -0.54, 24.71 0.82, 34 0 M0 0 C12.58 -0.16, 25.74 0.41, 34 0 M34 0 C33.16 12.04, 33.01 22.6, 34 30 M34 0 C34.31 9.4, 34.26 18.73, 34 30 M34 30 C26.45 30.82, 17.89 30.23, 0 30 M34 30 C23.17 29.92, 13.62 29.93, 0 30 M0 30 C-0.88 18.84, 0.93 8.18, 0 0 M0 30 C-0.1 22.75, 0.35 14.44, 0 0" stroke="#adb5bd" stroke-width="2" fill="none"></path></g><g transform="translate(272.6160202026367 37.5) rotate(0 33.38397979736328 10)"><text x="33.38397979736328" y="0" font-family="Virgil, Segoe UI Emoji" font-size="16px" fill="#000" text-anchor="middle" style="white-space: pre;" direction="ltr" dominant-baseline="text-before-edge">Frontend</text></g><g transform="translate(272.6160202026367 1427.5) rotate(0 33.38397979736328 10)"><text x="33.38397979736328" y="0" font-family="Virgil, Segoe UI Emoji" font-size="16px" fill="#000" text-anchor="middle" style="white-space: pre;" direction="ltr" dominant-baseline="text-before-edge">Frontend</text></g><g transform="translate(569.1520385742188 37.5) rotate(0 53.84796142578125 10)"><text x="53.84796142578125" y="0" font-family="Virgil, Segoe UI Emoji" font-size="16px" fill="#000" text-anchor="middle" style="white-space: pre;" direction="ltr" dominant-baseline="text-before-edge">Resource API</text></g><g transform="translate(569.1520385742188 1427.5) rotate(0 53.84796142578125 10)"><text x="53.84796142578125" y="0" font-family="Virgil, Segoe UI Emoji" font-size="16px" fill="#000" text-anchor="middle" style="white-space: pre;" direction="ltr" dominant-baseline="text-before-edge">Resource API</text></g><g transform="translate(859.4480209350586 37.5) rotate(0 39.551979064941406 10)"><text x="39.551979064941406" y="0" font-family="Virgil, Segoe UI Emoji" font-size="16px" fill="#000" text-anchor="middle" style="white-space: pre;" direction="ltr" dominant-baseline="text-before-edge">Database</text></g><g transform="translate(859.4480209350586 1427.5) rotate(0 39.551979064941406 10)"><text x="39.551979064941406" y="0" font-family="Virgil, Segoe UI Emoji" font-size="16px" fill="#000" text-anchor="middle" style="white-space: pre;" direction="ltr" dominant-baseline="text-before-edge">Database</text></g><g transform="translate(1051.7200317382812 37.5) rotate(0 47.27996826171875 10)"><text x="47.27996826171875" y="0" font-family="Virgil, Segoe UI Emoji" font-size="16px" fill="#000" text-anchor="middle" style="white-space: pre;" direction="ltr" dominant-baseline="text-before-edge">Redis Cache</text></g><g transform="translate(1051.7200317382812 1427.5) rotate(0 47.27996826171875 10)"><text x="47.27996826171875" y="0" font-family="Virgil, Segoe UI Emoji" font-size="16px" fill="#000" text-anchor="middle" style="white-space: pre;" direction="ltr" dominant-baseline="text-before-edge">Redis Cache</text></g><g transform="translate(1262.9120178222656 37.5) rotate(0 36.087982177734375 10)"><text x="36.087982177734375" y="0" font-family="Virgil, Segoe UI Emoji" font-size="16px" fill="#000" text-anchor="middle" style="white-space: pre;" direction="ltr" dominant-baseline="text-before-edge">AWS SDK</text></g><g transform="translate(1262.9120178222656 1427.5) rotate(0 36.087982177734375 10)"><text x="36.087982177734375" y="0" font-family="Virgil, Segoe UI Emoji" font-size="16px" fill="#000" text-anchor="middle" style="white-space: pre;" direction="ltr" dominant-baseline="text-before-edge">AWS SDK</text></g><g transform="translate(1456.8080215454102 37.5) rotate(0 42.191978454589844 10)"><text x="42.191978454589844" y="0" font-family="Virgil, Segoe UI Emoji" font-size="16px" fill="#000" text-anchor="middle" style="white-space: pre;" direction="ltr" dominant-baseline="text-before-edge">Azure SDK</text></g><g transform="translate(1456.8080215454102 1427.5) rotate(0 42.191978454589844 10)"><text x="42.191978454589844" y="0" font-family="Virgil, Segoe UI Emoji" font-size="16px" fill="#000" text-anchor="middle" style="white-space: pre;" direction="ltr" dominant-baseline="text-before-edge">Azure SDK</text></g><g transform="translate(1638.608024597168 37.5) rotate(0 60.39197540283203 10)"><text x="60.39197540283203" y="0" font-family="Virgil, Segoe UI Emoji" font-size="16px" fill="#000" text-anchor="middle" style="white-space: pre;" direction="ltr" dominant-baseline="text-before-edge">Message Queue</text></g><g transform="translate(1638.608024597168 1427.5) rotate(0 60.39197540283203 10)"><text x="60.39197540283203" y="0" font-family="Virgil, Segoe UI Emoji" font-size="16px" fill="#000" text-anchor="middle" style="white-space: pre;" direction="ltr" dominant-baseline="text-before-edge">Message Queue</text></g><g transform="translate(802.2480392456055 99.5) rotate(0 64.75196075439453 10)"><text x="64.75196075439453" y="0" font-family="Virgil, Segoe UI Emoji" font-size="16px" fill="#000" text-anchor="middle" style="white-space: pre;" direction="ltr" dominant-baseline="text-before-edge">Fetch Resources</text></g><g transform="translate(789.0160369873047 754.5) rotate(0 77.98396301269531 10)"><text x="77.98396301269531" y="0" font-family="Virgil, Segoe UI Emoji" font-size="16px" fill="#000" text-anchor="middle" style="white-space: pre;" direction="ltr" dominant-baseline="text-before-edge">Terminate Resource</text></g><g transform="translate(1625.6720504760742 1079.5) rotate(0 73.32794952392578 10)"><text x="73.32794952392578" y="0" font-family="Virgil, Segoe UI Emoji" font-size="16px" fill="#000" text-anchor="middle" style="white-space: pre;" direction="ltr" dominant-baseline="text-before-edge">Background Worker</text></g><g transform="translate(117.38402557373047 145) rotate(0 51.13318140415011 19.450265325801453)"><text x="51.61597442626953" y="0" font-family="Virgil, Segoe UI Emoji" font-size="16px" fill="#1e1e1e" text-anchor="middle" style="white-space: pre;" direction="ltr" dominant-baseline="text-before-edge">Navigate to </text><text x="51.61597442626953" y="20" font-family="Virgil, Segoe UI Emoji" font-size="16px" fill="#1e1e1e" text-anchor="middle" style="white-space: pre;" direction="ltr" dominant-baseline="text-before-edge">Dashboard</text></g><g transform="translate(357.66407775878906 181) rotate(0 105.16668481758796 30.62665914214986)"><text x="105.33592224121094" y="0" font-family="Virgil, Segoe UI Emoji" font-size="16px" fill="#1e1e1e" text-anchor="middle" style="white-space: pre;" direction="ltr" dominant-baseline="text-before-edge">GET </text><text x="105.33592224121094" y="20" font-family="Virgil, Segoe UI Emoji" font-size="16px" fill="#1e1e1e" text-anchor="middle" style="white-space: pre;" direction="ltr" dominant-baseline="text-before-edge">/api/resources?provider=aw</text><text x="105.33592224121094" y="40" font-family="Virgil, Segoe UI Emoji" font-size="16px" fill="#1e1e1e" text-anchor="middle" style="white-space: pre;" direction="ltr" dominant-baseline="text-before-edge">s</text></g><g transform="translate(784.1160430908203 247) rotate(0 75.13111339583992 10.06148234906901)"><text x="75.38395690917969" y="0" font-family="Virgil, Segoe UI Emoji" font-size="16px" fill="#1e1e1e" text-anchor="middle" style="white-space: pre;" direction="ltr" dominant-baseline="text-before-edge">Check cached data</text></g><g transform="translate(764.9000549316406 338) rotate(0 96.5907126449049 9.741687426716084)"><text x="97.59994506835938" y="0" font-family="Virgil, Segoe UI Emoji" font-size="16px" fill="#1e1e1e" text-anchor="middle" style="white-space: pre;" direction="ltr" dominant-baseline="text-before-edge">Return cached resources</text></g><g transform="translate(384.7200393676758 384) rotate(0 81.02164805904027 8.993775235728407)"><text x="81.27996063232422" y="0" font-family="Virgil, Segoe UI Emoji" font-size="16px" fill="#1e1e1e" text-anchor="middle" style="white-space: pre;" direction="ltr" dominant-baseline="text-before-edge">200 OK {resources}</text></g><g transform="translate(829.1720199584961 475) rotate(0 32.32175505384805 9.713557213844581)"><text x="33.327980041503906" y="0" font-family="Virgil, Segoe UI Emoji" font-size="16px" fill="#1e1e1e" text-anchor="middle" style="white-space: pre;" direction="ltr" dominant-baseline="text-before-edge">No data</text></g><g transform="translate(879.7880554199219 521) rotate(0 79.42556544318796 10.054370863191764)"><text x="79.71194458007812" y="0" font-family="Virgil, Segoe UI Emoji" font-size="16px" fill="#1e1e1e" text-anchor="middle" style="white-space: pre;" direction="ltr" dominant-baseline="text-before-edge">describe_instances()</text></g><g transform="translate(911.3560333251953 567) rotate(0 50.13664984926584 9.810774500781008)"><text x="51.14396667480469" y="0" font-family="Virgil, Segoe UI Emoji" font-size="16px" fill="#1e1e1e" text-anchor="middle" style="white-space: pre;" direction="ltr" dominant-baseline="text-before-edge">Instance list</text></g><g transform="translate(701.4280319213867 603) rotate(0 57.14655599860009 20.28634171752219)"><text x="58.07196807861328" y="0" font-family="Virgil, Segoe UI Emoji" font-size="16px" fill="#1e1e1e" text-anchor="middle" style="white-space: pre;" direction="ltr" dominant-baseline="text-before-edge">Store/Update </text><text x="58.07196807861328" y="20" font-family="Virgil, Segoe UI Emoji" font-size="16px" fill="#1e1e1e" text-anchor="middle" style="white-space: pre;" direction="ltr" dominant-baseline="text-before-edge">resources</text></g><g transform="translate(746.2440643310547 659) rotate(0 112.7261669896543 9.53843561702405)"><text x="113.25593566894531" y="0" font-family="Virgil, Segoe UI Emoji" font-size="16px" fill="#1e1e1e" text-anchor="middle" style="white-space: pre;" direction="ltr" dominant-baseline="text-before-edge">Cache resources (TTL: 5min)</text></g><g transform="translate(384.7200393676758 705) rotate(0 80.8160425759852 10.61150245890019)"><text x="81.27996063232422" y="0" font-family="Virgil, Segoe UI Emoji" font-size="16px" fill="#1e1e1e" text-anchor="middle" style="white-space: pre;" direction="ltr" dominant-baseline="text-before-edge">200 OK {resources}</text></g><g transform="translate(106.96003723144531 800) rotate(0 61.937710971045306 20.591015805718484)"><text x="62.03996276855469" y="0" font-family="Virgil, Segoe UI Emoji" font-size="16px" fill="#1e1e1e" text-anchor="middle" style="white-space: pre;" direction="ltr" dominant-baseline="text-before-edge">Click terminate </text><text x="62.03996276855469" y="20" font-family="Virgil, Segoe UI Emoji" font-size="16px" fill="#1e1e1e" text-anchor="middle" style="white-space: pre;" direction="ltr" dominant-baseline="text-before-edge">(resource-id)</text></g><g transform="translate(361.5360565185547 836) rotate(0 101.69913705363871 30.23403302582267)"><text x="101.46394348144531" y="0" font-family="Virgil, Segoe UI Emoji" font-size="16px" fill="#1e1e1e" text-anchor="middle" style="white-space: pre;" direction="ltr" dominant-baseline="text-before-edge">POST </text><text x="101.46394348144531" y="20" font-family="Virgil, Segoe UI Emoji" font-size="16px" fill="#1e1e1e" text-anchor="middle" style="white-space: pre;" direction="ltr" dominant-baseline="text-before-edge">/api/resources/terminate </text><text x="101.46394348144531" y="40" font-family="Virgil, Segoe UI Emoji" font-size="16px" fill="#1e1e1e" text-anchor="middle" style="white-space: pre;" direction="ltr" dominant-baseline="text-before-edge">{id}</text></g><g transform="translate(673.3080596923828 902) rotate(0 86.79651797245725 10.39414224635749)"><text x="86.19194030761719" y="0" font-family="Virgil, Segoe UI Emoji" font-size="16px" fill="#1e1e1e" text-anchor="middle" style="white-space: pre;" direction="ltr" dominant-baseline="text-before-edge">Check resource exists</text></g><g transform="translate(696.5640411376953 948) rotate(0 66.29483452811837 10.086661963323422)"><text x="65.93595886230469" y="0" font-family="Virgil, Segoe UI Emoji" font-size="16px" fill="#1e1e1e" text-anchor="middle" style="white-space: pre;" direction="ltr" dominant-baseline="text-before-edge">Resource details</text></g><g transform="translate(1071.6680603027344 994) rotate(0 88.59142595163542 9.737626787624208)"><text x="87.83193969726562" y="0" font-family="Virgil, Segoe UI Emoji" font-size="16px" fill="#1e1e1e" text-anchor="middle" style="white-space: pre;" direction="ltr" dominant-baseline="text-before-edge">Publish termination job</text></g><g transform="translate(377.47206115722656 1040) rotate(0 88.8722496844828 10.228640153258993)"><text x="88.52793884277344" y="0" font-family="Virgil, Segoe UI Emoji" font-size="16px" fill="#1e1e1e" text-anchor="middle" style="white-space: pre;" direction="ltr" dominant-baseline="text-before-edge">202 Accepted {jobId}</text></g><g transform="translate(1070.476058959961 1135) rotate(0 92.99902517727583 10.288837967067934)"><text x="92.02394104003906" y="0" font-family="Virgil, Segoe UI Emoji" font-size="16px" fill="#1e1e1e" text-anchor="middle" style="white-space: pre;" direction="ltr" dominant-baseline="text-before-edge">Process termination job</text></g><g transform="translate(867.2840576171875 1181) rotate(0 92.03995025274804 10.018409022514675)"><text x="92.2159423828125" y="0" font-family="Virgil, Segoe UI Emoji" font-size="16px" fill="#1e1e1e" text-anchor="middle" style="white-space: pre;" direction="ltr" dominant-baseline="text-before-edge">terminate_instances(id)</text></g><g transform="translate(867.8840637207031 1227) rotate(0 95.51344461664553 10.02185568132984)"><text x="94.61593627929688" y="0" font-family="Virgil, Segoe UI Emoji" font-size="16px" fill="#1e1e1e" text-anchor="middle" style="white-space: pre;" direction="ltr" dominant-baseline="text-before-edge">{State: 'shutting-down'}</text></g><g transform="translate(682.5000457763672 1263) rotate(0 77.02490638270973 20.327623389127893)"><text x="76.99995422363281" y="0" font-family="Virgil, Segoe UI Emoji" font-size="16px" fill="#1e1e1e" text-anchor="middle" style="white-space: pre;" direction="ltr" dominant-baseline="text-before-edge">Update status to </text><text x="76.99995422363281" y="20" font-family="Virgil, Segoe UI Emoji" font-size="16px" fill="#1e1e1e" text-anchor="middle" style="white-space: pre;" direction="ltr" dominant-baseline="text-before-edge">'terminating'</text></g><g transform="translate(793.5480346679688 1319) rotate(0 66.25007535051088 9.444446621686438)"><text x="65.95196533203125" y="0" font-family="Virgil, Segoe UI Emoji" font-size="16px" fill="#1e1e1e" text-anchor="middle" style="white-space: pre;" direction="ltr" dominant-baseline="text-before-edge">Invalidate cache</text></g><g transform="translate(360.15206146240234 1365) rotate(0 105.85055638445073 10.77335045338441)"><text x="105.84793853759766" y="0" font-family="Virgil, Segoe UI Emoji" font-size="16px" fill="#1e1e1e" text-anchor="middle" style="white-space: pre;" direction="ltr" dominant-baseline="text-before-edge">WebSocket: Status update</text></g><g transform="translate(300.0400085449219 282) rotate(0 11.959991455078125 10)"><text x="11.959991455078125" y="0" font-family="Virgil, Segoe UI Emoji" font-size="16px" fill="#000" text-anchor="middle" style="white-space: pre;" direction="ltr" dominant-baseline="text-before-edge">alt</text></g></svg>