<svg version="1.1" xmlns="http://www.w3.org/2000/svg" viewBox="0 0 1390 1730.5" width="1390" height="1730.5">
  <!-- svg-source:excalidraw -->
  
  <defs>
    <style class="style-fonts">
      @font-face {
        font-family: "Virgil";
        src: url("https://unpkg.com/@excalidraw/excalidraw@undefined/dist/excalidraw-assets/Virgil.woff2");
      }
      @font-face {
        font-family: "Cascadia";
        src: url("https://unpkg.com/@excalidraw/excalidraw@undefined/dist/excalidraw-assets/Cascadia.woff2");
      }
      @font-face {
        font-family: "Assistant";
        src: url("https://unpkg.com/@excalidraw/excalidraw@undefined/dist/excalidraw-assets/Assistant-Regular.woff2");
      }
    </style>
    
  </defs>
  <rect x="0" y="0" width="1390" height="1730.5" fill="#ffffff"></rect><g stroke-linecap="round"><g transform="translate(35 40) rotate(0 0 10)"><path d="M0 0 C-0.09 5.2, 0.08 11.35, 0 20 M0 0 C-0.37 5.12, -0.24 10.95, 0 20" stroke="#000" stroke-width="1" fill="none"></path></g></g><mask></mask><g stroke-linecap="round"><g transform="translate(17 48) rotate(0 18 0)"><path d="M0 0 C8.63 0.14, 18.22 -0.26, 36 0 M0 0 C7.39 -0.06, 15.51 -0.09, 36 0" stroke="#000" stroke-width="1" fill="none"></path></g></g><mask></mask><g stroke-linecap="round"><g transform="translate(17 75) rotate(0 9 -7.5)"><path d="M0 0 C5.46 -4.3, 10.4 -9.7, 18 -15 M0 0 C3.69 -3.1, 7.47 -6.34, 18 -15" stroke="#000" stroke-width="1" fill="none"></path></g></g><mask></mask><g stroke-linecap="round"><g transform="translate(35 60) rotate(0 8 7.5)"><path d="M0 0 C4.81 4.17, 8.59 7.98, 16 15 M0 0 C3.85 3.48, 7.68 7.75, 16 15" stroke="#000" stroke-width="1" fill="none"></path></g></g><mask></mask><g stroke-linecap="round" transform="translate(20 10) rotate(0 15 15)"><path d="M11.49 0.18 C14.51 -0.64, 19.13 -0.05, 22.02 1.55 C24.91 3.15, 27.6 6.77, 28.83 9.77 C30.07 12.76, 30.44 16.46, 29.44 19.52 C28.45 22.58, 25.65 26.33, 22.86 28.12 C20.07 29.91, 15.87 30.74, 12.72 30.26 C9.57 29.78, 6.14 27.64, 3.95 25.25 C1.75 22.86, -0.24 19.13, -0.43 15.94 C-0.63 12.76, 0.59 8.82, 2.76 6.17 C4.93 3.51, 10.87 0.97, 12.57 0 C14.27 -0.97, 12.87 0.01, 12.96 0.32 M18.59 1 C21.57 1.62, 24.81 4.05, 26.62 6.5 C28.43 8.94, 29.5 12.49, 29.43 15.69 C29.37 18.88, 28.39 23.18, 26.22 25.65 C24.06 28.12, 19.63 30.11, 16.44 30.52 C13.26 30.92, 9.69 29.94, 7.13 28.07 C4.57 26.2, 2.03 22.4, 1.07 19.3 C0.1 16.2, 0.24 12.38, 1.34 9.46 C2.43 6.54, 4.76 3.39, 7.66 1.77 C10.55 0.16, 16.95 0.01, 18.73 -0.24 C20.5 -0.49, 18.35 -0.01, 18.32 0.3" stroke="#1e1e1e" stroke-width="2" fill="none"></path></g><g transform="translate(19.1015625 72.5) rotate(0 17.871986389160156 10)"><text x="0" y="0" font-family="Virgil, Segoe UI Emoji" font-size="16px" fill="#1e1e1e" text-anchor="start" style="white-space: pre;" direction="ltr" dominant-baseline="text-before-edge">User</text></g><g stroke-linecap="round"><g transform="translate(35 1668) rotate(0 0 10)"><path d="M0 0 C-0.91 5.64, -0.74 12.09, 0 20 M0 0 C0.38 6.19, -0.12 11.94, 0 20" stroke="#000" stroke-width="1" fill="none"></path></g></g><mask></mask><g stroke-linecap="round"><g transform="translate(17 1676) rotate(0 18 0)"><path d="M0 0 C9.29 -0.56, 19.39 0.17, 36 0 M0 0 C9.58 -0.24, 18.71 0.26, 36 0" stroke="#000" stroke-width="1" fill="none"></path></g></g><mask></mask><g stroke-linecap="round"><g transform="translate(17 1703) rotate(0 9 -7.5)"><path d="M0 0 C3.23 -3.49, 7.83 -6.79, 18 -15 M0 0 C5.03 -4.47, 10.72 -8.89, 18 -15" stroke="#000" stroke-width="1" fill="none"></path></g></g><mask></mask><g stroke-linecap="round"><g transform="translate(35 1688) rotate(0 8 7.5)"><path d="M0 0 C3.03 3.24, 6.34 6.28, 16 15 M0 0 C6.05 6.19, 12.09 11.94, 16 15" stroke="#000" stroke-width="1" fill="none"></path></g></g><mask></mask><g stroke-linecap="round" transform="translate(20 1638) rotate(0 15 15)"><path d="M13.72 -0.02 C16.73 -0.5, 20.79 1.15, 23.37 3.05 C25.96 4.95, 28.34 8.33, 29.23 11.39 C30.12 14.45, 30.09 18.48, 28.72 21.4 C27.35 24.33, 24 27.51, 21.02 28.92 C18.04 30.34, 13.85 30.81, 10.85 29.9 C7.85 28.99, 4.8 26.18, 3.01 23.48 C1.21 20.78, -0.2 16.83, 0.09 13.7 C0.38 10.57, 2.33 6.98, 4.74 4.68 C7.15 2.38, 12.92 0.59, 14.55 -0.12 C16.19 -0.84, 14.54 0.16, 14.55 0.39 M17.58 0.53 C20.67 0.94, 23.84 3.28, 25.97 5.72 C28.1 8.16, 30.17 12.09, 30.37 15.2 C30.56 18.31, 29.19 21.89, 27.14 24.38 C25.09 26.86, 21.37 29.45, 18.05 30.11 C14.72 30.77, 9.98 30.05, 7.19 28.33 C4.39 26.62, 2.37 22.89, 1.29 19.8 C0.22 16.71, -0.34 12.77, 0.73 9.79 C1.8 6.82, 4.84 3.48, 7.69 1.96 C10.55 0.43, 16.4 0.95, 17.87 0.62 C19.34 0.29, 16.73 -0.14, 16.51 -0.03" stroke="#1e1e1e" stroke-width="2" fill="none"></path></g><g transform="translate(19.1015625 1700.5) rotate(0 17.871986389160156 10)"><text x="0" y="0" font-family="Virgil, Segoe UI Emoji" font-size="16px" fill="#1e1e1e" text-anchor="start" style="white-space: pre;" direction="ltr" dominant-baseline="text-before-edge">User</text></g><g stroke-linecap="round" transform="translate(234 15) rotate(0 75 32.5)"><path d="M0 0 C40.03 2.26, 81.21 0.24, 150 0 M0 0 C42.22 0.82, 83.21 -0.21, 150 0 M150 0 C150.34 23.58, 149.67 48.54, 150 65 M150 0 C149.94 25.11, 150.42 51.34, 150 65 M150 65 C112.71 64.74, 77.35 63.12, 0 65 M150 65 C93.22 66.07, 35.42 66.6, 0 65 M0 65 C-1.87 50.62, -1.21 37.86, 0 0 M0 65 C-1.47 46.8, -1.12 29.42, 0 0" stroke="#1e1e1e" stroke-width="2" fill="none"></path></g><g stroke-linecap="round" transform="translate(234 1643) rotate(0 75 32.5)"><path d="M0 0 C46.89 0.85, 90.07 -0.3, 150 0 M0 0 C57.55 -0.83, 113.93 -0.43, 150 0 M150 0 C149.54 14.51, 149.98 30.43, 150 65 M150 0 C150.45 22.15, 151.4 43.41, 150 65 M150 65 C96.71 65.59, 40.96 66.28, 0 65 M150 65 C97.61 66.02, 45.76 65.06, 0 65 M0 65 C-0.4 42.91, 1.06 22.32, 0 0 M0 65 C-1.05 39.7, -0.9 15.74, 0 0" stroke="#1e1e1e" stroke-width="2" fill="none"></path></g><g stroke-linecap="round" transform="translate(547 15) rotate(0 75 32.5)"><path d="M0 0 C39.89 -1.6, 77.97 0.39, 150 0 M0 0 C38.62 -1.1, 77.26 -1.01, 150 0 M150 0 C150.47 23.86, 152.05 49.5, 150 65 M150 0 C149.97 26.35, 149.26 51.7, 150 65 M150 65 C116.8 64.82, 83.34 66.6, 0 65 M150 65 C94.47 65.53, 37.83 65.23, 0 65 M0 65 C-0.5 44.45, -0.05 22.93, 0 0 M0 65 C0.02 41.09, 0.77 17.34, 0 0" stroke="#1e1e1e" stroke-width="2" fill="none"></path></g><g stroke-linecap="round" transform="translate(547 1643) rotate(0 75 32.5)"><path d="M0 0 C42.85 -0.98, 88.03 -1.4, 150 0 M0 0 C56.11 0.21, 113.2 0.19, 150 0 M150 0 C149.19 24.06, 150.46 46.42, 150 65 M150 0 C150.7 16.97, 150.5 34.31, 150 65 M150 65 C107.87 67.37, 68.31 67.14, 0 65 M150 65 C96.81 64.41, 42.78 65.58, 0 65 M0 65 C1.34 50.48, 1.66 38.37, 0 0 M0 65 C-0.07 51.83, -0.41 39.17, 0 0" stroke="#1e1e1e" stroke-width="2" fill="none"></path></g><g stroke-linecap="round" transform="translate(830 15) rotate(0 75 32.5)"><path d="M0 0 C57.15 1.91, 114.36 1.85, 150 0 M0 0 C47.92 0.54, 95.03 1.76, 150 0 M150 0 C151.84 17.2, 151.92 32.26, 150 65 M150 0 C149.57 19.07, 149.39 36.68, 150 65 M150 65 C100.46 65.39, 49.05 65.57, 0 65 M150 65 C104.23 66.04, 60.44 64.94, 0 65 M0 65 C-0.26 47.65, 1.55 25.19, 0 0 M0 65 C0.54 48.97, 1.2 35.61, 0 0" stroke="#1e1e1e" stroke-width="2" fill="none"></path></g><g stroke-linecap="round" transform="translate(830 1643) rotate(0 75 32.5)"><path d="M0 0 C51.65 -0.54, 101.58 0.64, 150 0 M0 0 C49.82 -0.41, 101.66 -1.63, 150 0 M150 0 C150.6 21.97, 149.23 39.9, 150 65 M150 0 C151.13 19.9, 150.28 41.65, 150 65 M150 65 C98.8 67.66, 46.8 66.23, 0 65 M150 65 C103.03 64.14, 54.74 63.7, 0 65 M0 65 C1.18 50.14, -2.32 31.55, 0 0 M0 65 C-0.51 50.2, 1.31 32.84, 0 0" stroke="#1e1e1e" stroke-width="2" fill="none"></path></g><g stroke-linecap="round" transform="translate(1030 15) rotate(0 75 32.5)"><path d="M0 0 C41.56 0.36, 85.2 -0.49, 150 0 M0 0 C32.39 1.62, 62.82 1.29, 150 0 M150 0 C152.44 17.24, 150.26 36.05, 150 65 M150 0 C148.92 24.45, 150.06 49.87, 150 65 M150 65 C112.41 66.9, 71.96 66.03, 0 65 M150 65 C97.35 64.5, 43.89 64.83, 0 65 M0 65 C1.4 39.41, -1.13 16.42, 0 0 M0 65 C0.71 49.77, -1.04 32.82, 0 0" stroke="#1e1e1e" stroke-width="2" fill="none"></path></g><g stroke-linecap="round" transform="translate(1030 1643) rotate(0 75 32.5)"><path d="M0 0 C43.02 0.96, 83.59 -1.1, 150 0 M0 0 C57.02 -1.59, 113.27 -1.38, 150 0 M150 0 C149.64 24.95, 150.59 52.14, 150 65 M150 0 C150.15 16.36, 150.87 31.5, 150 65 M150 65 C93.8 66.06, 35.56 67.14, 0 65 M150 65 C116.34 65.45, 83.86 66.18, 0 65 M0 65 C-2.42 46.14, -1.72 28.92, 0 0 M0 65 C1.53 43.57, 0.79 23.69, 0 0" stroke="#1e1e1e" stroke-width="2" fill="none"></path></g><g stroke-linecap="round" transform="translate(1230 15) rotate(0 75 32.5)"><path d="M0 0 C57.7 -0.45, 113.04 0.34, 150 0 M0 0 C32.59 -0.55, 65.87 0.25, 150 0 M150 0 C150.29 22.32, 152.2 42.86, 150 65 M150 0 C149.94 23.93, 149.13 47.73, 150 65 M150 65 C97.61 66.17, 46.29 64.25, 0 65 M150 65 C101.37 63.18, 53.56 63.41, 0 65 M0 65 C-1.72 39.1, -1.4 15.9, 0 0 M0 65 C-1.47 51.19, -0.87 37.79, 0 0" stroke="#1e1e1e" stroke-width="2" fill="none"></path></g><g stroke-linecap="round" transform="translate(1230 1643) rotate(0 75 32.5)"><path d="M0 0 C38.99 -1.99, 78.03 -1.81, 150 0 M0 0 C56.33 0.45, 113.35 1.09, 150 0 M150 0 C150.15 27.14, 148.71 52.31, 150 65 M150 0 C150.32 14.4, 150.67 30.09, 150 65 M150 65 C94.61 66.06, 37.02 65.47, 0 65 M150 65 C99.08 65.52, 48.92 65.68, 0 65 M0 65 C-0.58 40.58, 0.92 16.5, 0 0 M0 65 C-0.4 39.87, 0.24 14.84, 0 0" stroke="#1e1e1e" stroke-width="2" fill="none"></path></g><g stroke-linecap="round" transform="translate(10 90) rotate(0 660 19.5)"><path d="M0 0 C500.89 -1.36, 1002.57 -1.38, 1320 0 M1320 0 C1319.31 15.14, 1320.58 28.6, 1320 39 M1320 39 C964.89 39.47, 608.99 39.33, 0 39 M0 39 C-0.96 29.9, 0.82 18.93, 0 0" stroke="#1e1e1e" stroke-width="2.5" fill="none" stroke-dasharray="8 10"></path></g><g stroke-linecap="round" transform="translate(10 978) rotate(0 660 19.5)"><path d="M0 0 C415.48 4.06, 830.32 5.04, 1320 0 M1320 0 C1321.81 10.62, 1321.9 19.11, 1320 39 M1320 39 C944.59 43.71, 569.48 43.02, 0 39 M0 39 C1.46 26.68, 1.24 13.55, 0 0" stroke="#1e1e1e" stroke-width="2.5" fill="none" stroke-dasharray="8 10"></path></g><g stroke-linecap="round"><g transform="translate(35 95) rotate(0 0 771.5)"><path d="M0 0 C-6.13 521.29, -5.15 1041, 0 1543 M0 0 C-1.41 477.78, -1.69 954.75, 0 1543" stroke="#999" stroke-width="1" fill="none"></path></g></g><mask></mask><g stroke-linecap="round"><g transform="translate(309 80) rotate(0 0 781.5)"><path d="M0 0 C5.43 330.1, 4.45 659.58, 0 1563 M0 0 C5.92 429.14, 5.49 858.58, 0 1563" stroke="#999" stroke-width="1" fill="none"></path></g></g><mask></mask><g stroke-linecap="round"><g transform="translate(622 80) rotate(0 0 781.5)"><path d="M0 0 C-4.63 589.26, -4.9 1179.08, 0 1563 M0 0 C2.26 607.58, 2.45 1215.6, 0 1563" stroke="#999" stroke-width="1" fill="none"></path></g></g><mask></mask><g stroke-linecap="round"><g transform="translate(905 80) rotate(0 0 781.5)"><path d="M0 0 C4.3 344.58, 4.48 689.72, 0 1563 M0 0 C5.75 528.51, 6.13 1056.65, 0 1563" stroke="#999" stroke-width="1" fill="none"></path></g></g><mask></mask><g stroke-linecap="round"><g transform="translate(1105 80) rotate(0 0 781.5)"><path d="M0 0 C2.75 585.73, 3.39 1172.16, 0 1563 M0 0 C-1.84 614.6, -2.13 1228.81, 0 1563" stroke="#999" stroke-width="1" fill="none"></path></g></g><mask></mask><g stroke-linecap="round"><g transform="translate(1305 80) rotate(0 0 781.5)"><path d="M0 0 C-3.15 536.51, -2.64 1072.35, 0 1563 M0 0 C-0.68 421.02, -0.75 842.18, 0 1563" stroke="#999" stroke-width="1" fill="none"></path></g></g><mask></mask><g mask="url(#mask-cGRbrVFr5tAlPazrkBLip)" stroke-linecap="round"><g transform="translate(36 165) rotate(0 134.5 0)"><path d="M0.2 1.07 C45.03 1.23, 224.3 1.33, 268.96 1.12 M2.24 0.58 C47.01 0.43, 224.09 -0.49, 268.25 -0.42" stroke="#1e1e1e" stroke-width="2" fill="none"></path></g><g transform="translate(36 165) rotate(0 134.5 0)"><path d="M244.78 8.18 C252.48 6.83, 258.5 3.28, 268.25 -0.42 M244.78 8.18 C250.88 6.16, 257.37 2.86, 268.25 -0.42" stroke="#1e1e1e" stroke-width="2" fill="none"></path></g><g transform="translate(36 165) rotate(0 134.5 0)"><path d="M244.74 -8.92 C252.47 -5.95, 258.5 -5.17, 268.25 -0.42 M244.74 -8.92 C250.88 -6.08, 257.39 -4.52, 268.25 -0.42" stroke="#1e1e1e" stroke-width="2" fill="none"></path></g></g><mask id="mask-cGRbrVFr5tAlPazrkBLip"><rect x="0" y="0" fill="#fff" width="405" height="265"></rect><rect x="82.31604766845703" y="155" fill="#000" width="176.36790466308594" height="20" opacity="1"></rect></mask><g mask="url(#mask-gHWV65RF-l_IDQh0KmpWn)" stroke-linecap="round"><g transform="translate(310 211) rotate(0 154 0)"><path d="M1.57 0.46 C52.9 0.45, 257.66 -0.32, 308.62 -0.37 M0.67 -0.35 C51.93 -0.16, 257.29 0.65, 308.25 0.98" stroke="#1e1e1e" stroke-width="2" fill="none"></path></g><g transform="translate(310 211) rotate(0 154 0)"><path d="M284.72 9.41 C292.78 8.45, 298.69 3.67, 308.25 0.98 M284.72 9.41 C292.73 6.14, 299.34 4.6, 308.25 0.98" stroke="#1e1e1e" stroke-width="2" fill="none"></path></g><g transform="translate(310 211) rotate(0 154 0)"><path d="M284.8 -7.69 C292.8 -3.35, 298.68 -2.85, 308.25 0.98 M284.8 -7.69 C292.92 -5.53, 299.51 -1.65, 308.25 0.98" stroke="#1e1e1e" stroke-width="2" fill="none"></path></g></g><mask id="mask-gHWV65RF-l_IDQh0KmpWn"><rect x="0" y="0" fill="#fff" width="718" height="311"></rect><rect x="368.0000534057617" y="191" fill="#000" width="191.99989318847656" height="40" opacity="1"></rect></mask><g mask="url(#mask-30D6QPmdr5pgAbUTRuL7e)" stroke-linecap="round"><g transform="translate(623 257) rotate(0 139 0)"><path d="M0.96 1.12 C47.11 0.91, 231.01 -0.16, 277.13 -0.19 M-0.26 0.66 C45.73 1.15, 229.78 1.5, 275.99 1.25" stroke="#1e1e1e" stroke-width="2" fill="none"></path></g><g transform="translate(623 257) rotate(0 139 0)"><path d="M252.51 9.82 C260.74 6.77, 265.01 5.37, 275.99 1.25 M252.51 9.82 C260.76 6.18, 270.81 3.64, 275.99 1.25" stroke="#1e1e1e" stroke-width="2" fill="none"></path></g><g transform="translate(623 257) rotate(0 139 0)"><path d="M252.49 -7.28 C260.88 -5.64, 265.16 -2.34, 275.99 1.25 M252.49 -7.28 C260.65 -4.43, 270.71 -0.47, 275.99 1.25" stroke="#1e1e1e" stroke-width="2" fill="none"></path></g></g><mask id="mask-30D6QPmdr5pgAbUTRuL7e"><rect x="0" y="0" fill="#fff" width="1001" height="357"></rect><rect x="698.8240356445312" y="237" fill="#000" width="126.3519287109375" height="40" opacity="1"></rect></mask><g mask="url(#mask-7sRdpF1U2HG0kfdoNF97g)" stroke-linecap="round"><g transform="translate(623 348) rotate(0 239 0)"><path d="M1.62 -0.37 C80.91 -0.41, 397.84 0.25, 477.31 0.21 M0.74 -1.6 C79.77 -2.07, 396.68 -2.13, 476.26 -1.81" stroke="#1e1e1e" stroke-width="2" fill="none"></path></g><g transform="translate(623 348) rotate(0 239 0)"><path d="M452.76 6.71 C461.25 2.86, 471.34 1.47, 476.26 -1.81 M452.76 6.71 C458.23 5.2, 464.72 2.3, 476.26 -1.81" stroke="#1e1e1e" stroke-width="2" fill="none"></path></g><g transform="translate(623 348) rotate(0 239 0)"><path d="M452.78 -10.39 C461.33 -7.59, 471.41 -2.34, 476.26 -1.81 M452.78 -10.39 C458.35 -7.7, 464.83 -6.41, 476.26 -1.81" stroke="#1e1e1e" stroke-width="2" fill="none"></path></g></g><mask id="mask-7sRdpF1U2HG0kfdoNF97g"><rect x="0" y="0" fill="#fff" width="1201" height="448"></rect><rect x="806.8880462646484" y="338" fill="#000" width="110.22390747070312" height="20" opacity="1"></rect></mask><g mask="url(#mask-o2J4bvZDvdDn1keZRBSDR)" stroke-linecap="round"><g transform="translate(1104 394) rotate(0 -239 0)"><path d="M-0.87 -0.19 C-80.41 -0.22, -397.75 0.81, -477.29 0.96" stroke="#1e1e1e" stroke-width="2.5" fill="none" stroke-dasharray="1.5 8"></path></g><g transform="translate(1104 394) rotate(0 -239 0)"><path d="M-453.82 -7.65 C-462 -4.47, -468.02 -2.99, -477.29 0.96" stroke="#1e1e1e" stroke-width="2.5" fill="none" stroke-dasharray="1.5 6"></path></g><g transform="translate(1104 394) rotate(0 -239 0)"><path d="M-453.78 9.45 C-462.13 6.85, -468.16 2.54, -477.29 0.96" stroke="#1e1e1e" stroke-width="2.5" fill="none" stroke-dasharray="1.5 6"></path></g></g><mask id="mask-o2J4bvZDvdDn1keZRBSDR"><rect x="0" y="0" fill="#fff" width="1682" height="494"></rect><rect x="821.1120300292969" y="384" fill="#000" width="87.77593994140625" height="20" opacity="1"></rect></mask><g mask="url(#mask-vrYkCrkCxeryIsxACDBeP)" stroke-linecap="round"><g transform="translate(623 485) rotate(0 239 0)"><path d="M0.31 0.21 C79.78 0.16, 398.81 -0.48, 478.46 -0.66 M-1.25 -0.73 C78.05 -0.6, 398.16 0.42, 478.01 0.54" stroke="#1e1e1e" stroke-width="2" fill="none"></path></g><g transform="translate(623 485) rotate(0 239 0)"><path d="M454.5 9.03 C464.11 7.33, 471.92 3.61, 478.01 0.54 M454.5 9.03 C460.35 6.6, 466.05 5.56, 478.01 0.54" stroke="#1e1e1e" stroke-width="2" fill="none"></path></g><g transform="translate(623 485) rotate(0 239 0)"><path d="M454.54 -8.07 C464.09 -3.05, 471.87 -0.05, 478.01 0.54 M454.54 -8.07 C460.35 -6.61, 466.03 -3.75, 478.01 0.54" stroke="#1e1e1e" stroke-width="2" fill="none"></path></g></g><mask id="mask-vrYkCrkCxeryIsxACDBeP"><rect x="0" y="0" fill="#fff" width="1201" height="585"></rect><rect x="717.8560943603516" y="475" fill="#000" width="288.2878112792969" height="20" opacity="1"></rect></mask><g mask="url(#mask-tQmeIZzcz0aPLtAD6BI8I)" stroke-linecap="round"><g transform="translate(623 531) rotate(0 239 0)"><path d="M0.71 0.96 C80.16 1.11, 397.52 0.94, 476.84 0.73 M-0.64 0.42 C79.23 0.24, 399.26 -1.09, 479.21 -1.01" stroke="#1e1e1e" stroke-width="2" fill="none"></path></g><g transform="translate(623 531) rotate(0 239 0)"><path d="M455.74 7.59 C463.68 4.14, 469.62 1.47, 479.21 -1.01 M455.74 7.59 C461.77 5.93, 469.13 3.45, 479.21 -1.01" stroke="#1e1e1e" stroke-width="2" fill="none"></path></g><g transform="translate(623 531) rotate(0 239 0)"><path d="M455.7 -9.51 C463.62 -8.36, 469.58 -6.42, 479.21 -1.01 M455.7 -9.51 C461.82 -6.46, 469.19 -4.23, 479.21 -1.01" stroke="#1e1e1e" stroke-width="2" fill="none"></path></g></g><mask id="mask-tQmeIZzcz0aPLtAD6BI8I"><rect x="0" y="0" fill="#fff" width="1201" height="631"></rect><rect x="754.6880874633789" y="521" fill="#000" width="214.6238250732422" height="20" opacity="1"></rect></mask><g mask="url(#mask-6RZzUtQssMeHLKNK_r5Gx)" stroke-linecap="round"><g transform="translate(623 577) rotate(0 239 0)"><path d="M1.46 -0.66 C81.11 -0.83, 398.94 -1.06, 478.23 -0.87 M0.5 1.61 C80.08 1.55, 398.37 0.75, 477.66 0.21" stroke="#1e1e1e" stroke-width="2" fill="none"></path></g><g transform="translate(623 577) rotate(0 239 0)"><path d="M454.21 8.86 C459.76 7.44, 466.07 3.27, 477.66 0.21 M454.21 8.86 C463 6.5, 470.89 3.64, 477.66 0.21" stroke="#1e1e1e" stroke-width="2" fill="none"></path></g><g transform="translate(623 577) rotate(0 239 0)"><path d="M454.14 -8.24 C459.74 -4.81, 466.07 -4.11, 477.66 0.21 M454.14 -8.24 C463.03 -4.77, 470.95 -1.79, 477.66 0.21" stroke="#1e1e1e" stroke-width="2" fill="none"></path></g></g><mask id="mask-6RZzUtQssMeHLKNK_r5Gx"><rect x="0" y="0" fill="#fff" width="1201" height="677"></rect><rect x="776.9280624389648" y="567" fill="#000" width="170.1438751220703" height="20" opacity="1"></rect></mask><g mask="url(#mask-TJrORPeRfwg6O8p5hAu2o)" stroke-linecap="round"><g transform="translate(1104 623) rotate(0 -239 0)"><path d="M-1.16 0.73 C-80.83 0.52, -399.06 -0.27, -478.37 -0.29" stroke="#1e1e1e" stroke-width="2.5" fill="none" stroke-dasharray="1.5 8"></path></g><g transform="translate(1104 623) rotate(0 -239 0)"><path d="M-454.86 -8.81 C-461.03 -7.68, -470.2 -2.71, -478.37 -0.29" stroke="#1e1e1e" stroke-width="2.5" fill="none" stroke-dasharray="1.5 6"></path></g><g transform="translate(1104 623) rotate(0 -239 0)"><path d="M-454.89 8.29 C-461.19 4, -470.34 3.54, -478.37 -0.29" stroke="#1e1e1e" stroke-width="2.5" fill="none" stroke-dasharray="1.5 6"></path></g></g><mask id="mask-TJrORPeRfwg6O8p5hAu2o"><rect x="0" y="0" fill="#fff" width="1682" height="723"></rect><rect x="794.7920379638672" y="613" fill="#000" width="140.41592407226562" height="20" opacity="1"></rect></mask><g mask="url(#mask-SpN8Xa4XzIr_mrX9G2YSW)" stroke-linecap="round"><g transform="translate(623 669) rotate(0 33.35670051207893 9.625083092561397)"><path d="M0.23 -1.37 C10.1 -2.76, 49.65 -14.65, 59.71 -9.51 C69.76 -4.36, 70.28 24.42, 60.57 29.52 C50.87 34.62, 11.36 22.48, 1.49 21.09 M-0.85 0.79 C8.76 -0.91, 48.45 -16.33, 58.6 -11.37 C68.76 -6.4, 69.5 25.55, 60.11 30.59 C50.72 35.62, 12.22 20.28, 2.26 18.85" stroke="#1e1e1e" stroke-width="2" fill="none"></path></g><g transform="translate(623 669) rotate(0 33.35670051207893 9.625083092561397)"><path d="M27.17 16.78 C16.25 17.23, 9.05 19.46, 2.26 18.85 M27.17 16.78 C21.42 18.02, 14.22 18.12, 2.26 18.85" stroke="#1e1e1e" stroke-width="2" fill="none"></path></g><g transform="translate(623 669) rotate(0 33.35670051207893 9.625083092561397)"><path d="M22.67 33.28 C13.55 27.43, 8.06 23.39, 2.26 18.85 M22.67 33.28 C17.95 30.2, 11.93 26.02, 2.26 18.85" stroke="#1e1e1e" stroke-width="2" fill="none"></path></g></g><mask id="mask-SpN8Xa4XzIr_mrX9G2YSW"><rect x="0" y="0" fill="#fff" width="783" height="809"></rect><rect x="626.1391609118446" y="658.9394096487686" fill="#000" width="127.11993408203125" height="40" opacity="1"></rect></mask><g mask="url(#mask-uwLt4_H0whouPef03HeJc)" stroke-linecap="round"><g transform="translate(623 745) rotate(0 339 0)"><path d="M-0.37 -0.29 C112.66 -0.32, 565.1 0.36, 677.99 0.57 M1.38 -1.49 C114.35 -1.94, 564.87 -1.36, 677.31 -1.25" stroke="#1e1e1e" stroke-width="2" fill="none"></path></g><g transform="translate(623 745) rotate(0 339 0)"><path d="M653.81 7.28 C659.03 6.18, 666.24 2.47, 677.31 -1.25 M653.81 7.28 C663.33 3.85, 671.89 1.13, 677.31 -1.25" stroke="#1e1e1e" stroke-width="2" fill="none"></path></g><g transform="translate(623 745) rotate(0 339 0)"><path d="M653.82 -9.82 C659.15 -6.72, 666.36 -6.24, 677.31 -1.25 M653.82 -9.82 C663.43 -6.71, 671.97 -2.9, 677.31 -1.25" stroke="#1e1e1e" stroke-width="2" fill="none"></path></g></g><mask id="mask-uwLt4_H0whouPef03HeJc"><rect x="0" y="0" fill="#fff" width="1401" height="845"></rect><rect x="892.8080444335938" y="735" fill="#000" width="138.3839111328125" height="20" opacity="1"></rect></mask><g mask="url(#mask-3bCnTaIiOvtIWF4UVvXjm)" stroke-linecap="round"><g transform="translate(1304 791) rotate(0 -339 0)"><path d="M-0.79 0.49 C-113.65 0.56, -564.31 -0.49, -676.93 -0.48" stroke="#1e1e1e" stroke-width="2.5" fill="none" stroke-dasharray="1.5 8"></path></g><g transform="translate(1304 791) rotate(0 -339 0)"><path d="M-653.42 -9 C-661.14 -5.03, -671.24 -1.26, -676.93 -0.48" stroke="#1e1e1e" stroke-width="2.5" fill="none" stroke-dasharray="1.5 6"></path></g><g transform="translate(1304 791) rotate(0 -339 0)"><path d="M-653.44 8.1 C-661.03 5.91, -671.12 3.5, -676.93 -0.48" stroke="#1e1e1e" stroke-width="2.5" fill="none" stroke-dasharray="1.5 6"></path></g></g><mask id="mask-3bCnTaIiOvtIWF4UVvXjm"><rect x="0" y="0" fill="#fff" width="2082" height="891"></rect><rect x="893.4400482177734" y="781" fill="#000" width="143.11990356445312" height="20" opacity="1"></rect></mask><g mask="url(#mask-_dntcORkp96H3JpSMNMUL)" stroke-linecap="round"><g transform="translate(623 882) rotate(0 139 0)"><path d="M0.99 0.57 C47.23 0.79, 230.84 0.94, 277.02 0.99 M-0.2 -0.17 C45.9 -0.25, 229.52 -0.47, 275.82 -0.61" stroke="#1e1e1e" stroke-width="2" fill="none"></path></g><g transform="translate(623 882) rotate(0 139 0)"><path d="M252.35 7.98 C258.67 5.13, 264.71 4.96, 275.82 -0.61 M252.35 7.98 C261.16 5.33, 268.91 1.84, 275.82 -0.61" stroke="#1e1e1e" stroke-width="2" fill="none"></path></g><g transform="translate(623 882) rotate(0 139 0)"><path d="M252.31 -9.12 C258.6 -8.08, 264.65 -4.36, 275.82 -0.61 M252.31 -9.12 C261.24 -5.43, 269 -2.57, 275.82 -0.61" stroke="#1e1e1e" stroke-width="2" fill="none"></path></g></g><mask id="mask-_dntcORkp96H3JpSMNMUL"><rect x="0" y="0" fill="#fff" width="1001" height="982"></rect><rect x="666.0560455322266" y="872" fill="#000" width="191.88790893554688" height="20" opacity="1"></rect></mask><g mask="url(#mask-6IRZ6EswOg6zd85IFwewZ)" stroke-linecap="round"><g transform="translate(621 958) rotate(0 -154 0)"><path d="M0.07 -0.48 C-50.88 -0.46, -255.39 0.39, -306.51 0.59" stroke="#1e1e1e" stroke-width="2.5" fill="none" stroke-dasharray="1.5 8"></path></g><g transform="translate(621 958) rotate(0 -154 0)"><path d="M-283.05 -8.05 C-290.28 -3.91, -294.96 -1.75, -306.51 0.59" stroke="#1e1e1e" stroke-width="2.5" fill="none" stroke-dasharray="1.5 6"></path></g><g transform="translate(621 958) rotate(0 -154 0)"><path d="M-282.98 9.05 C-290.3 8.48, -295 5.92, -306.51 0.59" stroke="#1e1e1e" stroke-width="2.5" fill="none" stroke-dasharray="1.5 6"></path></g></g><mask id="mask-6IRZ6EswOg6zd85IFwewZ"><rect x="0" y="0" fill="#fff" width="1029" height="1058"></rect><rect x="359.8560485839844" y="948" fill="#000" width="214.28790283203125" height="20" opacity="1"></rect></mask><g mask="url(#mask-v2IeTy9sXNOsB0PAMsvqT)" stroke-linecap="round"><g transform="translate(36 1053) rotate(0 134.5 0)"><path d="M0.02 0.99 C44.7 1.04, 224.23 1.02, 269.09 0.85 M1.97 0.46 C46.5 0.13, 223.98 -0.96, 268.45 -0.82" stroke="#1e1e1e" stroke-width="2" fill="none"></path></g><g transform="translate(36 1053) rotate(0 134.5 0)"><path d="M244.98 7.78 C254.6 5.93, 262.38 3.17, 268.45 -0.82 M244.98 7.78 C251.19 5.32, 259.4 1.64, 268.45 -0.82" stroke="#1e1e1e" stroke-width="2" fill="none"></path></g><g transform="translate(36 1053) rotate(0 134.5 0)"><path d="M244.94 -9.32 C254.65 -5.34, 262.45 -2.26, 268.45 -0.82 M244.94 -9.32 C251.19 -6.66, 259.41 -5.21, 268.45 -0.82" stroke="#1e1e1e" stroke-width="2" fill="none"></path></g></g><mask id="mask-v2IeTy9sXNOsB0PAMsvqT"><rect x="0" y="0" fill="#fff" width="405" height="1153"></rect><rect x="99.99604797363281" y="1033" fill="#000" width="141.00790405273438" height="40" opacity="1"></rect></mask><g mask="url(#mask-eltQqbhJTjVGpP2xAu59C)" stroke-linecap="round"><g transform="translate(310 1099) rotate(0 154 0)"><path d="M1.49 0.59 C52.7 0.79, 257.35 0.77, 308.35 0.7 M0.55 -0.14 C51.63 -0.25, 256.82 -1.35, 307.85 -1.06" stroke="#1e1e1e" stroke-width="2" fill="none"></path></g><g transform="translate(310 1099) rotate(0 154 0)"><path d="M284.37 7.51 C293.56 5.76, 301.91 1.35, 307.85 -1.06 M284.37 7.51 C291.95 5.36, 298.25 2.22, 307.85 -1.06" stroke="#1e1e1e" stroke-width="2" fill="none"></path></g><g transform="translate(310 1099) rotate(0 154 0)"><path d="M284.36 -9.59 C293.48 -5.39, 301.84 -3.85, 307.85 -1.06 M284.36 -9.59 C292.03 -6.36, 298.33 -4.11, 307.85 -1.06" stroke="#1e1e1e" stroke-width="2" fill="none"></path></g></g><mask id="mask-eltQqbhJTjVGpP2xAu59C"><rect x="0" y="0" fill="#fff" width="718" height="1199"></rect><rect x="358.6720657348633" y="1069" fill="#000" width="210.65586853027344" height="60" opacity="1"></rect></mask><g mask="url(#mask-ymIoeHH1MnyVpO6Jli7Ms)" stroke-linecap="round"><g transform="translate(623 1145) rotate(0 139 0)"><path d="M1.09 0.85 C47.45 0.69, 232.1 0.03, 278.2 0 M-0.06 0.26 C46.25 0.21, 231.44 1.8, 277.62 1.53" stroke="#1e1e1e" stroke-width="2" fill="none"></path></g><g transform="translate(623 1145) rotate(0 139 0)"><path d="M254.1 10.03 C261.57 8.87, 266.26 5.79, 277.62 1.53 M254.1 10.03 C262.84 6.11, 270.71 3.44, 277.62 1.53" stroke="#1e1e1e" stroke-width="2" fill="none"></path></g><g transform="translate(623 1145) rotate(0 139 0)"><path d="M254.14 -7.07 C261.74 -3.79, 266.42 -2.42, 277.62 1.53 M254.14 -7.07 C262.73 -4.95, 270.58 -1.57, 277.62 1.53" stroke="#1e1e1e" stroke-width="2" fill="none"></path></g></g><mask id="mask-ymIoeHH1MnyVpO6Jli7Ms"><rect x="0" y="0" fill="#fff" width="1001" height="1245"></rect><rect x="683.9600372314453" y="1135" fill="#000" width="156.07992553710938" height="20" opacity="1"></rect></mask><g mask="url(#mask-SM0zWym9pOmG8afylRv2J)" stroke-linecap="round"><g transform="translate(904 1191) rotate(0 -139 0)"><path d="M0.35 0.7 C-45.98 0.63, -231.3 0.46, -277.5 0.18" stroke="#1e1e1e" stroke-width="2.5" fill="none" stroke-dasharray="1.5 8"></path></g><g transform="translate(904 1191) rotate(0 -139 0)"><path d="M-253.98 -8.3 C-261.77 -4.9, -271.64 -0.58, -277.5 0.18" stroke="#1e1e1e" stroke-width="2.5" fill="none" stroke-dasharray="1.5 6"></path></g><g transform="translate(904 1191) rotate(0 -139 0)"><path d="M-254.04 8.8 C-261.89 5.66, -271.73 3.44, -277.5 0.18" stroke="#1e1e1e" stroke-width="2.5" fill="none" stroke-dasharray="1.5 6"></path></g></g><mask id="mask-SM0zWym9pOmG8afylRv2J"><rect x="0" y="0" fill="#fff" width="1282" height="1291"></rect><rect x="687.816047668457" y="1181" fill="#000" width="154.36790466308594" height="20" opacity="1"></rect></mask><g mask="url(#mask-JkW6ryQ0_HnVfNLjLmCNB)" stroke-linecap="round"><g transform="translate(623 1237) rotate(0 239 0)"><path d="M1.2 0 C80.63 -0.04, 398.46 0.59, 477.68 0.64 M0.11 -1.05 C79.34 -1.51, 397.02 -1.61, 476.82 -1.15" stroke="#1e1e1e" stroke-width="2" fill="none"></path></g><g transform="translate(623 1237) rotate(0 239 0)"><path d="M453.31 7.35 C461.46 4.54, 470.74 -0.35, 476.82 -1.15 M453.31 7.35 C460.8 4.28, 469.14 1.75, 476.82 -1.15" stroke="#1e1e1e" stroke-width="2" fill="none"></path></g><g transform="translate(623 1237) rotate(0 239 0)"><path d="M453.35 -9.75 C461.6 -6.59, 470.87 -5.5, 476.82 -1.15 M453.35 -9.75 C460.89 -7.29, 469.22 -4.28, 476.82 -1.15" stroke="#1e1e1e" stroke-width="2" fill="none"></path></g></g><mask id="mask-JkW6ryQ0_HnVfNLjLmCNB"><rect x="0" y="0" fill="#fff" width="1201" height="1337"></rect><rect x="696.9601135253906" y="1227" fill="#000" width="330.07977294921875" height="20" opacity="1"></rect></mask><g mask="url(#mask-4mAFK3NJDEaACp8LlL9cM)" stroke-linecap="round"><g transform="translate(1104 1328) rotate(0 -239 0)"><path d="M-0.5 0.18 C-80.04 -0.1, -397.41 -1.02, -476.86 -0.98" stroke="#1e1e1e" stroke-width="2.5" fill="none" stroke-dasharray="1.5 8"></path></g><g transform="translate(1104 1328) rotate(0 -239 0)"><path d="M-453.35 -9.49 C-461.74 -5.26, -472.38 -2.7, -476.86 -0.98" stroke="#1e1e1e" stroke-width="2.5" fill="none" stroke-dasharray="1.5 6"></path></g><g transform="translate(1104 1328) rotate(0 -239 0)"><path d="M-453.38 7.61 C-461.85 5.49, -472.49 1.71, -476.86 -0.98" stroke="#1e1e1e" stroke-width="2.5" fill="none" stroke-dasharray="1.5 6"></path></g></g><mask id="mask-4mAFK3NJDEaACp8LlL9cM"><rect x="0" y="0" fill="#fff" width="1682" height="1428"></rect><rect x="833.5840072631836" y="1318" fill="#000" width="62.83198547363281" height="20" opacity="1"></rect></mask><g mask="url(#mask-_D6YnSTNYzngTHsLC5ECz)" stroke-linecap="round"><g transform="translate(623 1374) rotate(0 139 0)"><path d="M0.68 0.64 C46.56 0.69, 230.32 0.56, 276.52 0.28 M-0.69 -0.07 C45.5 -0.4, 232.38 -1.66, 278.72 -1.69" stroke="#1e1e1e" stroke-width="2" fill="none"></path></g><g transform="translate(623 1374) rotate(0 139 0)"><path d="M255.27 6.96 C264.74 2.2, 272.54 1.45, 278.72 -1.69 M255.27 6.96 C260.94 4.93, 266.12 3.98, 278.72 -1.69" stroke="#1e1e1e" stroke-width="2" fill="none"></path></g><g transform="translate(623 1374) rotate(0 139 0)"><path d="M255.2 -10.14 C264.69 -8.78, 272.52 -3.4, 278.72 -1.69 M255.2 -10.14 C260.87 -8.51, 266.06 -5.8, 278.72 -1.69" stroke="#1e1e1e" stroke-width="2" fill="none"></path></g></g><mask id="mask-_D6YnSTNYzngTHsLC5ECz"><rect x="0" y="0" fill="#fff" width="1001" height="1474"></rect><rect x="699.1920547485352" y="1354" fill="#000" width="125.61589050292969" height="40" opacity="1"></rect></mask><g mask="url(#mask--JmtDlt9OQH-hd0iggxJf)" stroke-linecap="round"><g transform="translate(623 1420) rotate(0 139 0)"><path d="M1.14 -0.98 C47.36 -0.93, 231.9 0.29, 277.78 0.43 M0.02 1.13 C46.1 0.79, 230.52 -1.47, 276.98 -1.47" stroke="#1e1e1e" stroke-width="2" fill="none"></path></g><g transform="translate(623 1420) rotate(0 139 0)"><path d="M253.55 7.25 C258.94 4.98, 268.3 0.18, 276.98 -1.47 M253.55 7.25 C260.13 5.36, 267.87 1.06, 276.98 -1.47" stroke="#1e1e1e" stroke-width="2" fill="none"></path></g><g transform="translate(623 1420) rotate(0 139 0)"><path d="M253.43 -9.85 C258.88 -6.99, 268.28 -6.67, 276.98 -1.47 M253.43 -9.85 C259.96 -6.76, 267.73 -6.06, 276.98 -1.47" stroke="#1e1e1e" stroke-width="2" fill="none"></path></g></g><mask id="mask--JmtDlt9OQH-hd0iggxJf"><rect x="0" y="0" fill="#fff" width="1001" height="1520"></rect><rect x="696.2720260620117" y="1410" fill="#000" width="131.45594787597656" height="20" opacity="1"></rect></mask><g mask="url(#mask-bBhnrhUIF5S2fYwNQveF9)" stroke-linecap="round"><g transform="translate(621 1466) rotate(0 -154 0)"><path d="M-1.48 0.28 C-52.6 0, -256.05 -0.88, -307.07 -1.03" stroke="#1e1e1e" stroke-width="2.5" fill="none" stroke-dasharray="1.5 8"></path></g><g transform="translate(621 1466) rotate(0 -154 0)"><path d="M-283.54 -9.49 C-290.43 -6.3, -300.02 -4.53, -307.07 -1.03" stroke="#1e1e1e" stroke-width="2.5" fill="none" stroke-dasharray="1.5 6"></path></g><g transform="translate(621 1466) rotate(0 -154 0)"><path d="M-283.61 7.61 C-290.57 5.42, -300.14 1.81, -307.07 -1.03" stroke="#1e1e1e" stroke-width="2.5" fill="none" stroke-dasharray="1.5 6"></path></g></g><mask id="mask-bBhnrhUIF5S2fYwNQveF9"><rect x="0" y="0" fill="#fff" width="1029" height="1566"></rect><rect x="391.1840362548828" y="1456" fill="#000" width="151.63192749023438" height="20" opacity="1"></rect></mask><g mask="url(#mask-lCqkEShTOI82S094MVoa4)" stroke-linecap="round"><g transform="translate(1104 1557) rotate(0 -239 0)"><path d="M-0.22 0.43 C-80 0.58, -398.88 -0.16, -478.53 -0.1" stroke="#1e1e1e" stroke-width="2.5" fill="none" stroke-dasharray="1.5 8"></path></g><g transform="translate(1104 1557) rotate(0 -239 0)"><path d="M-455.03 -8.63 C-462.69 -7.28, -471.88 -3.6, -478.53 -0.1" stroke="#1e1e1e" stroke-width="2.5" fill="none" stroke-dasharray="1.5 6"></path></g><g transform="translate(1104 1557) rotate(0 -239 0)"><path d="M-455.05 8.47 C-462.56 3.78, -471.74 1.41, -478.53 -0.1" stroke="#1e1e1e" stroke-width="2.5" fill="none" stroke-dasharray="1.5 6"></path></g></g><mask id="mask-lCqkEShTOI82S094MVoa4"><rect x="0" y="0" fill="#fff" width="1682" height="1657"></rect><rect x="844.8560180664062" y="1547" fill="#000" width="40.2879638671875" height="20" opacity="1"></rect></mask><g mask="url(#mask-cQSmK5E02lN099VxDytO1)" stroke-linecap="round"><g transform="translate(621 1603) rotate(0 -154 0)"><path d="M-0.07 -1.03 C-51.09 -1.18, -256.49 -0.75, -307.6 -0.63" stroke="#1e1e1e" stroke-width="2.5" fill="none" stroke-dasharray="1.5 8"></path></g><g transform="translate(621 1603) rotate(0 -154 0)"><path d="M-284.13 -9.23 C-290.96 -7.44, -295.43 -4.1, -307.6 -0.63" stroke="#1e1e1e" stroke-width="2.5" fill="none" stroke-dasharray="1.5 6"></path></g><g transform="translate(621 1603) rotate(0 -154 0)"><path d="M-284.09 7.87 C-290.97 5.93, -295.45 5.52, -307.6 -0.63" stroke="#1e1e1e" stroke-width="2.5" fill="none" stroke-dasharray="1.5 6"></path></g></g><mask id="mask-cQSmK5E02lN099VxDytO1"><rect x="0" y="0" fill="#fff" width="1029" height="1703"></rect><rect x="426.9040298461914" y="1593" fill="#000" width="80.19194030761719" height="20" opacity="1"></rect></mask><g stroke-linecap="round"><g transform="translate(611 811) rotate(0 152.5 0)"><path d="M0 0 C98.59 1.13, 198.35 1.46, 305 0" stroke="#adb5bd" stroke-width="2.5" fill="none" stroke-dasharray="1.5 8"></path></g></g><mask></mask><g stroke-linecap="round"><g transform="translate(916 811) rotate(0 0 45.5)"><path d="M0 0 C-1.84 31.86, -1.39 62.74, 0 91" stroke="#adb5bd" stroke-width="2.5" fill="none" stroke-dasharray="1.5 8"></path></g></g><mask></mask><g stroke-linecap="round"><g transform="translate(611 902) rotate(0 152.5 0)"><path d="M0 0 C66.24 0.73, 131.77 2.04, 305 0" stroke="#adb5bd" stroke-width="2.5" fill="none" stroke-dasharray="1.5 8"></path></g></g><mask></mask><g stroke-linecap="round"><g transform="translate(611 811) rotate(0 0 45.5)"><path d="M0 0 C-1.09 28.14, 0.72 51.18, 0 91" stroke="#adb5bd" stroke-width="2.5" fill="none" stroke-dasharray="1.5 8"></path></g></g><mask></mask><g stroke-linecap="round"><g transform="translate(526.5 414) rotate(0 394.75 0)"><path d="M0 0 C195.75 1.44, 389.46 0.42, 789.5 0" stroke="#adb5bd" stroke-width="2.5" fill="none" stroke-dasharray="1.5 8"></path></g></g><mask></mask><g stroke-linecap="round"><g transform="translate(1316 414) rotate(0 0 249)"><path d="M0 0 C-0.12 180.73, -1.14 362.51, 0 498" stroke="#adb5bd" stroke-width="2.5" fill="none" stroke-dasharray="1.5 8"></path></g></g><mask></mask><g stroke-linecap="round"><g transform="translate(526.5 912) rotate(0 394.75 0)"><path d="M0 0 C212.22 -2.43, 425.48 -2.3, 789.5 0" stroke="#adb5bd" stroke-width="2.5" fill="none" stroke-dasharray="1.5 8"></path></g></g><mask></mask><g stroke-linecap="round"><g transform="translate(526.5 414) rotate(0 0 249)"><path d="M0 0 C0.67 188.79, 0.8 378.66, 0 498" stroke="#adb5bd" stroke-width="2.5" fill="none" stroke-dasharray="1.5 8"></path></g></g><mask></mask><g stroke-linecap="round"><g transform="translate(516.5 277) rotate(0 404.75 0)"><path d="M0 0 C291.05 1.74, 583.18 1.48, 809.5 0" stroke="#adb5bd" stroke-width="2.5" fill="none" stroke-dasharray="1.5 8"></path></g></g><mask></mask><g stroke-linecap="round"><g transform="translate(1326 277) rotate(0 0 322.5)"><path d="M0 0 C-2.12 132.31, -2.38 265.03, 0 645" stroke="#adb5bd" stroke-width="2.5" fill="none" stroke-dasharray="1.5 8"></path></g></g><mask></mask><g stroke-linecap="round"><g transform="translate(516.5 922) rotate(0 404.75 0)"><path d="M0 0 C189.29 0.97, 378.99 2.43, 809.5 0" stroke="#adb5bd" stroke-width="2.5" fill="none" stroke-dasharray="1.5 8"></path></g></g><mask></mask><g stroke-linecap="round"><g transform="translate(516.5 277) rotate(0 0 322.5)"><path d="M0 0 C-1.98 155.57, -0.52 309.08, 0 645" stroke="#adb5bd" stroke-width="2.5" fill="none" stroke-dasharray="1.5 8"></path></g></g><mask></mask><g stroke-linecap="round"><g transform="translate(298 1257) rotate(0 409 0)"><path d="M0 0 C204.67 3.53, 407.28 2.94, 818 0" stroke="#adb5bd" stroke-width="2.5" fill="none" stroke-dasharray="1.5 8"></path></g></g><mask></mask><g stroke-linecap="round"><g transform="translate(1116 1257) rotate(0 0 183)"><path d="M0 0 C-0.68 114.17, -1.61 230.27, 0 366" stroke="#adb5bd" stroke-width="2.5" fill="none" stroke-dasharray="1.5 8"></path></g></g><mask></mask><g stroke-linecap="round"><g transform="translate(298 1623) rotate(0 409 0)"><path d="M0 0 C176.01 -3.03, 353.26 -2.52, 818 0" stroke="#adb5bd" stroke-width="2.5" fill="none" stroke-dasharray="1.5 8"></path></g></g><mask></mask><g stroke-linecap="round"><g transform="translate(298 1257) rotate(0 0 183)"><path d="M0 0 C2.55 139.14, 3.35 278.39, 0 366" stroke="#adb5bd" stroke-width="2.5" fill="none" stroke-dasharray="1.5 8"></path></g></g><mask></mask><g stroke-linecap="round"><g transform="translate(298 1491) rotate(0 409 0)"><path d="M0 0 C325.78 -0.08, 651.63 -1.09, 818 0" stroke="#adb5bd" stroke-width="2.5" fill="none" stroke-dasharray="1.5 8"></path></g></g><mask></mask><g transform="translate(713.09375 819) rotate(0 77.41595458984375 10)"><text x="0" y="0" font-family="Virgil, Segoe UI Emoji" font-size="16px" fill="#1e1e1e" text-anchor="start" style="white-space: pre;" direction="ltr" dominant-baseline="text-before-edge">[Should Recommend]</text></g><g transform="translate(882.703125 422) rotate(0 74.2559585571289 10)"><text x="0" y="0" font-family="Virgil, Segoe UI Emoji" font-size="16px" fill="#1e1e1e" text-anchor="start" style="white-space: pre;" direction="ltr" dominant-baseline="text-before-edge">[For Each Bucket]</text></g><g transform="translate(872.78125 285) rotate(0 81.96794891357422 10)"><text x="0" y="0" font-family="Virgil, Segoe UI Emoji" font-size="16px" fill="#1e1e1e" text-anchor="start" style="white-space: pre;" direction="ltr" dominant-baseline="text-before-edge">[Fresh Scan Needed]</text></g><g transform="translate(699.140625 1265) rotate(0 38.431976318359375 10)"><text x="0" y="0" font-family="Virgil, Segoe UI Emoji" font-size="16px" fill="#1e1e1e" text-anchor="start" style="white-space: pre;" direction="ltr" dominant-baseline="text-before-edge">[Success]</text></g><g transform="translate(683.21875 1499) rotate(0 28.071975708007812 10)"><text x="0" y="0" font-family="Virgil, Segoe UI Emoji" font-size="16px" fill="#1e1e1e" text-anchor="start" style="white-space: pre;" direction="ltr" dominant-baseline="text-before-edge">[Error]</text></g><g stroke-linecap="round" transform="translate(611 811) rotate(0 17 15)"><path d="M-0.37 0.81 L33.73 -0.81 L34.93 29.04 L0.1 29.24" stroke="none" stroke-width="0" fill="#e9ecef"></path><path d="M0 0 C8.28 0.3, 17.6 -0.04, 34 0 M0 0 C8.89 -0.24, 17.93 -0.27, 34 0 M34 0 C34.56 9.98, 33.57 20.23, 34 30 M34 0 C34.16 11.21, 34.26 22.51, 34 30 M34 30 C23.34 29.83, 12.66 29.68, 0 30 M34 30 C26.21 29.46, 18.53 29.4, 0 30 M0 30 C-0.75 20.33, 0.69 10.35, 0 0 M0 30 C0.11 20.39, 0.08 10.07, 0 0" stroke="#adb5bd" stroke-width="2" fill="none"></path></g><g stroke-linecap="round" transform="translate(526.5 414) rotate(0 20 15)"><path d="M0.81 -0.27 L39.19 0.93 L39.04 30.1 L-0.76 30.9" stroke="none" stroke-width="0" fill="#e9ecef"></path><path d="M0 0 C12.68 -0.07, 24.72 -0.2, 40 0 M0 0 C8.77 -0.2, 17.76 0.34, 40 0 M40 0 C39.39 10.54, 39.08 22.91, 40 30 M40 0 C39.99 8.98, 39.96 17.54, 40 30 M40 30 C26.35 30.94, 12.88 29.36, 0 30 M40 30 C30.27 29.95, 20.9 30.19, 0 30 M0 30 C0.56 22.78, 0.84 14.53, 0 0 M0 30 C0.01 18.79, -0.58 7, 0 0" stroke="#adb5bd" stroke-width="2" fill="none"></path></g><g stroke-linecap="round" transform="translate(516.5 277) rotate(0 17 15)"><path d="M-0.27 -0.81 L34.93 -0.96 L34.1 29.24 L0.9 29.61" stroke="none" stroke-width="0" fill="#e9ecef"></path><path d="M0 0 C9.86 -0.1, 19.78 -0.8, 34 0 M0 0 C9.99 -0.18, 20.79 0.43, 34 0 M34 0 C33.54 7.4, 34.84 16.48, 34 30 M34 0 C34.32 10.94, 34.18 22.33, 34 30 M34 30 C21.54 29.47, 6.66 29.27, 0 30 M34 30 C26.28 29.38, 18.81 29.67, 0 30 M0 30 C0.75 21.13, 0.36 11.31, 0 0 M0 30 C0.13 18.26, -0.26 7.85, 0 0" stroke="#adb5bd" stroke-width="2" fill="none"></path></g><g stroke-linecap="round" transform="translate(298 1257) rotate(0 17 15)"><path d="M-0.81 0.93 L33.04 0.1 L33.24 30.9 L-0.39 29.78" stroke="none" stroke-width="0" fill="#e9ecef"></path><path d="M0 0 C8.06 -0.29, 15.48 0.05, 34 0 M0 0 C8.51 0.36, 17.88 -0.02, 34 0 M34 0 C33.03 11.14, 33.81 21.43, 34 30 M34 0 C33.83 10.15, 34.13 20.5, 34 30 M34 30 C21.83 29.42, 9.94 29.41, 0 30 M34 30 C23.75 30.2, 14.26 30.12, 0 30 M0 30 C0.79 23.65, 0.71 17.57, 0 0 M0 30 C-0.5 19.41, 0.37 9.06, 0 0" stroke="#adb5bd" stroke-width="2" fill="none"></path></g><g transform="translate(275.6160202026367 37.5) rotate(0 33.38397979736328 10)"><text x="33.38397979736328" y="0" font-family="Virgil, Segoe UI Emoji" font-size="16px" fill="#000" text-anchor="middle" style="white-space: pre;" direction="ltr" dominant-baseline="text-before-edge">Frontend</text></g><g transform="translate(275.6160202026367 1665.5) rotate(0 33.38397979736328 10)"><text x="33.38397979736328" y="0" font-family="Virgil, Segoe UI Emoji" font-size="16px" fill="#000" text-anchor="middle" style="white-space: pre;" direction="ltr" dominant-baseline="text-before-edge">Frontend</text></g><g transform="translate(555.7200393676758 37.5) rotate(0 66.27996063232422 10)"><text x="66.27996063232422" y="0" font-family="Virgil, Segoe UI Emoji" font-size="16px" fill="#000" text-anchor="middle" style="white-space: pre;" direction="ltr" dominant-baseline="text-before-edge">S3 Lifecycle API</text></g><g transform="translate(555.7200393676758 1665.5) rotate(0 66.27996063232422 10)"><text x="66.27996063232422" y="0" font-family="Virgil, Segoe UI Emoji" font-size="16px" fill="#000" text-anchor="middle" style="white-space: pre;" direction="ltr" dominant-baseline="text-before-edge">S3 Lifecycle API</text></g><g transform="translate(865.4480209350586 37.5) rotate(0 39.551979064941406 10)"><text x="39.551979064941406" y="0" font-family="Virgil, Segoe UI Emoji" font-size="16px" fill="#000" text-anchor="middle" style="white-space: pre;" direction="ltr" dominant-baseline="text-before-edge">Database</text></g><g transform="translate(865.4480209350586 1665.5) rotate(0 39.551979064941406 10)"><text x="39.551979064941406" y="0" font-family="Virgil, Segoe UI Emoji" font-size="16px" fill="#000" text-anchor="middle" style="white-space: pre;" direction="ltr" dominant-baseline="text-before-edge">Database</text></g><g transform="translate(1054.6000213623047 37.5) rotate(0 50.39997863769531 10)"><text x="50.39997863769531" y="0" font-family="Virgil, Segoe UI Emoji" font-size="16px" fill="#000" text-anchor="middle" style="white-space: pre;" direction="ltr" dominant-baseline="text-before-edge">AWS S3 SDK</text></g><g transform="translate(1054.6000213623047 1665.5) rotate(0 50.39997863769531 10)"><text x="50.39997863769531" y="0" font-family="Virgil, Segoe UI Emoji" font-size="16px" fill="#000" text-anchor="middle" style="white-space: pre;" direction="ltr" dominant-baseline="text-before-edge">AWS S3 SDK</text></g><g transform="translate(1255.5440292358398 37.5) rotate(0 49.455970764160156 10)"><text x="49.455970764160156" y="0" font-family="Virgil, Segoe UI Emoji" font-size="16px" fill="#000" text-anchor="middle" style="white-space: pre;" direction="ltr" dominant-baseline="text-before-edge">Cost Service</text></g><g transform="translate(1255.5440292358398 1665.5) rotate(0 49.455970764160156 10)"><text x="49.455970764160156" y="0" font-family="Virgil, Segoe UI Emoji" font-size="16px" fill="#000" text-anchor="middle" style="white-space: pre;" direction="ltr" dominant-baseline="text-before-edge">Cost Service</text></g><g transform="translate(548.216064453125 99.5) rotate(0 121.783935546875 10)"><text x="121.783935546875" y="0" font-family="Virgil, Segoe UI Emoji" font-size="16px" fill="#000" text-anchor="middle" style="white-space: pre;" direction="ltr" dominant-baseline="text-before-edge">Fetch Bucket Recommendations</text></g><g transform="translate(588.5920562744141 987.5) rotate(0 81.40794372558594 10)"><text x="81.40794372558594" y="0" font-family="Virgil, Segoe UI Emoji" font-size="16px" fill="#000" text-anchor="middle" style="white-space: pre;" direction="ltr" dominant-baseline="text-before-edge">Apply Lifecycle Policy</text></g><g transform="translate(82.31604766845703 155) rotate(0 88.26031890138987 10.406129430853696)"><text x="88.18395233154297" y="0" font-family="Virgil, Segoe UI Emoji" font-size="16px" fill="#1e1e1e" text-anchor="middle" style="white-space: pre;" direction="ltr" dominant-baseline="text-before-edge">View S3 Lifecycle page</text></g><g transform="translate(368.0000534057617 191) rotate(0 96.64068415430839 20.30671595374588)"><text x="95.99994659423828" y="0" font-family="Virgil, Segoe UI Emoji" font-size="16px" fill="#1e1e1e" text-anchor="middle" style="white-space: pre;" direction="ltr" dominant-baseline="text-before-edge">GET </text><text x="95.99994659423828" y="20" font-family="Virgil, Segoe UI Emoji" font-size="16px" fill="#1e1e1e" text-anchor="middle" style="white-space: pre;" direction="ltr" dominant-baseline="text-before-edge">/api/s3/recommendations</text></g><g transform="translate(698.8240356445312 237) rotate(0 62.611959108221356 20.570417551546896)"><text x="63.17596435546875" y="0" font-family="Virgil, Segoe UI Emoji" font-size="16px" fill="#1e1e1e" text-anchor="middle" style="white-space: pre;" direction="ltr" dominant-baseline="text-before-edge">Get cached </text><text x="63.17596435546875" y="20" font-family="Virgil, Segoe UI Emoji" font-size="16px" fill="#1e1e1e" text-anchor="middle" style="white-space: pre;" direction="ltr" dominant-baseline="text-before-edge">recommendations</text></g><g transform="translate(806.8880462646484 338) rotate(0 55.13789646384777 9.099700597422412)"><text x="55.11195373535156" y="0" font-family="Virgil, Segoe UI Emoji" font-size="16px" fill="#1e1e1e" text-anchor="middle" style="white-space: pre;" direction="ltr" dominant-baseline="text-before-edge">list_buckets()</text></g><g transform="translate(821.1120300292969 384) rotate(0 43.808277895301615 10.383580470577101)"><text x="43.887969970703125" y="0" font-family="Virgil, Segoe UI Emoji" font-size="16px" fill="#1e1e1e" text-anchor="middle" style="white-space: pre;" direction="ltr" dominant-baseline="text-before-edge">Bucket list</text></g><g transform="translate(717.8560943603516 475) rotate(0 143.74798338619524 9.903525522248827)"><text x="144.14390563964844" y="0" font-family="Virgil, Segoe UI Emoji" font-size="16px" fill="#1e1e1e" text-anchor="middle" style="white-space: pre;" direction="ltr" dominant-baseline="text-before-edge">get_bucket_lifecycle_configuration()</text></g><g transform="translate(754.6880874633789 521) rotate(0 107.59593530944551 10.002043983956014)"><text x="107.3119125366211" y="0" font-family="Virgil, Segoe UI Emoji" font-size="16px" fill="#1e1e1e" text-anchor="middle" style="white-space: pre;" direction="ltr" dominant-baseline="text-before-edge">list_objects_v2() [sample]</text></g><g transform="translate(776.9280624389648 567) rotate(0 85.43822733101905 10.336828401473326)"><text x="85.07193756103516" y="0" font-family="Virgil, Segoe UI Emoji" font-size="16px" fill="#1e1e1e" text-anchor="middle" style="white-space: pre;" direction="ltr" dominant-baseline="text-before-edge">get_bucket_metrics()</text></g><g transform="translate(794.7920379638672 613) rotate(0 69.44634156450627 10.21821411624552)"><text x="70.20796203613281" y="0" font-family="Virgil, Segoe UI Emoji" font-size="16px" fill="#1e1e1e" text-anchor="middle" style="white-space: pre;" direction="ltr" dominant-baseline="text-before-edge">Bucket metadata</text></g><g transform="translate(626.1391609118444 658.9394096487687) rotate(0 30.21753960023449 19.685673443792723)"><text x="63.559967041015625" y="0" font-family="Virgil, Segoe UI Emoji" font-size="16px" fill="#1e1e1e" text-anchor="middle" style="white-space: pre;" direction="ltr" dominant-baseline="text-before-edge">Analyze access </text><text x="63.559967041015625" y="20" font-family="Virgil, Segoe UI Emoji" font-size="16px" fill="#1e1e1e" text-anchor="middle" style="white-space: pre;" direction="ltr" dominant-baseline="text-before-edge">patterns</text></g><g transform="translate(892.8080444335938 735) rotate(0 69.00556085333233 9.458362481511301)"><text x="69.19195556640625" y="0" font-family="Virgil, Segoe UI Emoji" font-size="16px" fill="#1e1e1e" text-anchor="middle" style="white-space: pre;" direction="ltr" dominant-baseline="text-before-edge">Calculate savings</text></g><g transform="translate(893.4400482177734 781) rotate(0 71.70075698867447 10.009466293877665)"><text x="71.55995178222656" y="0" font-family="Virgil, Segoe UI Emoji" font-size="16px" fill="#1e1e1e" text-anchor="middle" style="white-space: pre;" direction="ltr" dominant-baseline="text-before-edge">Estimated savings</text></g><g transform="translate(666.0560455322266 872) rotate(0 95.35240840475541 10.187549323406984)"><text x="95.94395446777344" y="0" font-family="Virgil, Segoe UI Emoji" font-size="16px" fill="#1e1e1e" text-anchor="middle" style="white-space: pre;" direction="ltr" dominant-baseline="text-before-edge">UPSERT recommendation</text></g><g transform="translate(359.8560485839844 948) rotate(0 107.9258879043162 10.056226756423712)"><text x="107.14395141601562" y="0" font-family="Virgil, Segoe UI Emoji" font-size="16px" fill="#1e1e1e" text-anchor="middle" style="white-space: pre;" direction="ltr" dominant-baseline="text-before-edge">200 OK {recommendations}</text></g><g transform="translate(99.99604797363281 1033) rotate(0 70.56017878279087 20.089774781190613)"><text x="70.50395202636719" y="0" font-family="Virgil, Segoe UI Emoji" font-size="16px" fill="#1e1e1e" text-anchor="middle" style="white-space: pre;" direction="ltr" dominant-baseline="text-before-edge">Apply tier change </text><text x="70.50395202636719" y="20" font-family="Virgil, Segoe UI Emoji" font-size="16px" fill="#1e1e1e" text-anchor="middle" style="white-space: pre;" direction="ltr" dominant-baseline="text-before-edge">(bucket-id)</text></g><g transform="translate(358.6720657348633 1069) rotate(0 105.77978334484158 29.820291863113653)"><text x="105.32793426513672" y="0" font-family="Virgil, Segoe UI Emoji" font-size="16px" fill="#1e1e1e" text-anchor="middle" style="white-space: pre;" direction="ltr" dominant-baseline="text-before-edge">POST </text><text x="105.32793426513672" y="20" font-family="Virgil, Segoe UI Emoji" font-size="16px" fill="#1e1e1e" text-anchor="middle" style="white-space: pre;" direction="ltr" dominant-baseline="text-before-edge">/api/s3/buckets/{id}/lifecy</text><text x="105.32793426513672" y="40" font-family="Virgil, Segoe UI Emoji" font-size="16px" fill="#1e1e1e" text-anchor="middle" style="white-space: pre;" direction="ltr" dominant-baseline="text-before-edge">cle</text></g><g transform="translate(683.9600372314453 1135) rotate(0 78.11012180905323 10.780157930396513)"><text x="78.03996276855469" y="0" font-family="Virgil, Segoe UI Emoji" font-size="16px" fill="#1e1e1e" text-anchor="middle" style="white-space: pre;" direction="ltr" dominant-baseline="text-before-edge">Get recommendation</text></g><g transform="translate(687.816047668457 1181) rotate(0 77.60953367725017 10.437138631194784)"><text x="77.18395233154297" y="0" font-family="Virgil, Segoe UI Emoji" font-size="16px" fill="#1e1e1e" text-anchor="middle" style="white-space: pre;" direction="ltr" dominant-baseline="text-before-edge">Target tier details</text></g><g transform="translate(696.9601135253906 1227) rotate(0 164.93069617878177 9.595873535328565)"><text x="165.03988647460938" y="0" font-family="Virgil, Segoe UI Emoji" font-size="16px" fill="#1e1e1e" text-anchor="middle" style="white-space: pre;" direction="ltr" dominant-baseline="text-before-edge">put_bucket_lifecycle_configuration(Rules)</text></g><g transform="translate(833.5840072631836 1318) rotate(0 31.73485914245248 9.59955190069536)"><text x="31.415992736816406" y="0" font-family="Virgil, Segoe UI Emoji" font-size="16px" fill="#1e1e1e" text-anchor="middle" style="white-space: pre;" direction="ltr" dominant-baseline="text-before-edge">200 OK</text></g><g transform="translate(699.1920547485352 1354) rotate(0 62.82475950471121 19.48032274395746)"><text x="62.807945251464844" y="0" font-family="Virgil, Segoe UI Emoji" font-size="16px" fill="#1e1e1e" text-anchor="middle" style="white-space: pre;" direction="ltr" dominant-baseline="text-before-edge">UPDATE </text><text x="62.807945251464844" y="20" font-family="Virgil, Segoe UI Emoji" font-size="16px" fill="#1e1e1e" text-anchor="middle" style="white-space: pre;" direction="ltr" dominant-baseline="text-before-edge">status='applied'</text></g><g transform="translate(696.2720260620117 1410) rotate(0 65.62887838808354 9.830539771169128)"><text x="65.72797393798828" y="0" font-family="Virgil, Segoe UI Emoji" font-size="16px" fill="#1e1e1e" text-anchor="middle" style="white-space: pre;" direction="ltr" dominant-baseline="text-before-edge">Log action audit</text></g><g transform="translate(391.1840362548828 1456) rotate(0 75.54359371885658 9.626462373882532)"><text x="75.81596374511719" y="0" font-family="Virgil, Segoe UI Emoji" font-size="16px" fill="#1e1e1e" text-anchor="middle" style="white-space: pre;" direction="ltr" dominant-baseline="text-before-edge">200 OK {message}</text></g><g transform="translate(844.8560180664062 1547) rotate(0 19.770444307476282 10.1732723019569)"><text x="20.14398193359375" y="0" font-family="Virgil, Segoe UI Emoji" font-size="16px" fill="#1e1e1e" text-anchor="middle" style="white-space: pre;" direction="ltr" dominant-baseline="text-before-edge">Error</text></g><g transform="translate(426.9040298461914 1593) rotate(0 40.261219837516535 9.151442960692975)"><text x="40.095970153808594" y="0" font-family="Virgil, Segoe UI Emoji" font-size="16px" fill="#1e1e1e" text-anchor="middle" style="white-space: pre;" direction="ltr" dominant-baseline="text-before-edge">500 Error</text></g><g transform="translate(616.0400085449219 816) rotate(0 11.959991455078125 10)"><text x="11.959991455078125" y="0" font-family="Virgil, Segoe UI Emoji" font-size="16px" fill="#000" text-anchor="middle" style="white-space: pre;" direction="ltr" dominant-baseline="text-before-edge">alt</text></g><g transform="translate(531.5880126953125 419) rotate(0 14.9119873046875 10)"><text x="14.9119873046875" y="0" font-family="Virgil, Segoe UI Emoji" font-size="16px" fill="#000" text-anchor="middle" style="white-space: pre;" direction="ltr" dominant-baseline="text-before-edge">loop</text></g><g transform="translate(521.5400085449219 282) rotate(0 11.959991455078125 10)"><text x="11.959991455078125" y="0" font-family="Virgil, Segoe UI Emoji" font-size="16px" fill="#000" text-anchor="middle" style="white-space: pre;" direction="ltr" dominant-baseline="text-before-edge">alt</text></g><g transform="translate(303.0400085449219 1262) rotate(0 11.959991455078125 10)"><text x="11.959991455078125" y="0" font-family="Virgil, Segoe UI Emoji" font-size="16px" fill="#000" text-anchor="middle" style="white-space: pre;" direction="ltr" dominant-baseline="text-before-edge">alt</text></g></svg>