<svg version="1.1" xmlns="http://www.w3.org/2000/svg" viewBox="0 0 1488 1197.5" width="1488" height="1197.5">
  <!-- svg-source:excalidraw -->
  
  <defs>
    <style class="style-fonts">
      @font-face {
        font-family: "Virgil";
        src: url("https://unpkg.com/@excalidraw/excalidraw@undefined/dist/excalidraw-assets/Virgil.woff2");
      }
      @font-face {
        font-family: "Cascadia";
        src: url("https://unpkg.com/@excalidraw/excalidraw@undefined/dist/excalidraw-assets/Cascadia.woff2");
      }
      @font-face {
        font-family: "Assistant";
        src: url("https://unpkg.com/@excalidraw/excalidraw@undefined/dist/excalidraw-assets/Assistant-Regular.woff2");
      }
    </style>
    
  </defs>
  <rect x="0" y="0" width="1488" height="1197.5" fill="#ffffff"></rect><g stroke-linecap="round"><g transform="translate(35 40) rotate(0 0 10)"><path d="M0 0 C-0.17 5.44, -0.36 9.7, 0 20 M0 0 C-0.11 3.97, 0.37 7.73, 0 20" stroke="#000" stroke-width="1" fill="none"></path></g></g><mask></mask><g stroke-linecap="round"><g transform="translate(17 48) rotate(0 18 0)"><path d="M0 0 C10.4 -0.31, 19.63 -0.95, 36 0 M0 0 C8.27 0.45, 16.33 -0.29, 36 0" stroke="#000" stroke-width="1" fill="none"></path></g></g><mask></mask><g stroke-linecap="round"><g transform="translate(17 75) rotate(0 9 -7.5)"><path d="M0 0 C6.74 -6.26, 13.17 -12.5, 18 -15 M0 0 C6.9 -5.72, 12.59 -10.57, 18 -15" stroke="#000" stroke-width="1" fill="none"></path></g></g><mask></mask><g stroke-linecap="round"><g transform="translate(35 60) rotate(0 8 7.5)"><path d="M0 0 C4.26 3.33, 8.48 9.17, 16 15 M0 0 C4.31 4, 9.5 8.36, 16 15" stroke="#000" stroke-width="1" fill="none"></path></g></g><mask></mask><g stroke-linecap="round" transform="translate(20 10) rotate(0 15 15)"><path d="M12.38 0.66 C15.25 -0.09, 19.38 0.24, 22.19 1.73 C25.01 3.22, 28.17 6.49, 29.28 9.59 C30.38 12.69, 29.92 17.22, 28.82 20.33 C27.71 23.44, 25.4 26.7, 22.64 28.23 C19.88 29.75, 15.46 30.12, 12.26 29.46 C9.06 28.81, 5.49 26.72, 3.44 24.31 C1.4 21.89, -0.07 18.19, 0.02 14.96 C0.11 11.72, 1.82 7.35, 3.99 4.89 C6.16 2.42, 11.62 0.91, 13.05 0.17 C14.48 -0.58, 12.63 0.19, 12.55 0.41 M16.02 0.33 C19.09 0.28, 22.99 2.1, 25.32 4.18 C27.65 6.26, 29.76 9.61, 30 12.8 C30.25 15.99, 28.58 20.53, 26.79 23.31 C25 26.1, 22.24 28.63, 19.29 29.5 C16.34 30.37, 11.94 29.97, 9.09 28.53 C6.24 27.09, 3.71 23.69, 2.18 20.85 C0.65 18.02, -0.66 14.54, -0.1 11.52 C0.45 8.5, 2.87 4.54, 5.51 2.71 C8.14 0.88, 13.92 0.94, 15.7 0.54 C17.48 0.13, 16.13 0.2, 16.18 0.28" stroke="#1e1e1e" stroke-width="2" fill="none"></path></g><g transform="translate(19.1015625 72.5) rotate(0 17.871986389160156 10)"><text x="0" y="0" font-family="Virgil, Segoe UI Emoji" font-size="16px" fill="#1e1e1e" text-anchor="start" style="white-space: pre;" direction="ltr" dominant-baseline="text-before-edge">User</text></g><g stroke-linecap="round"><g transform="translate(35 1135) rotate(0 0 10)"><path d="M0 0 C0.48 5.26, -0.24 11.56, 0 20 M0 0 C-0.4 4.32, 0.08 9.34, 0 20" stroke="#000" stroke-width="1" fill="none"></path></g></g><mask></mask><g stroke-linecap="round"><g transform="translate(17 1143) rotate(0 18 0)"><path d="M0 0 C7.2 -0.25, 15.44 -0.82, 36 0 M0 0 C8.32 0.26, 17.34 0.33, 36 0" stroke="#000" stroke-width="1" fill="none"></path></g></g><mask></mask><g stroke-linecap="round"><g transform="translate(17 1170) rotate(0 9 -7.5)"><path d="M0 0 C3.98 -2.59, 7.59 -7.56, 18 -15 M0 0 C6.18 -4.75, 12.24 -10.01, 18 -15" stroke="#000" stroke-width="1" fill="none"></path></g></g><mask></mask><g stroke-linecap="round"><g transform="translate(35 1155) rotate(0 8 7.5)"><path d="M0 0 C6.61 4.67, 10.84 11.09, 16 15 M0 0 C3.88 3.68, 7.34 6.67, 16 15" stroke="#000" stroke-width="1" fill="none"></path></g></g><mask></mask><g stroke-linecap="round" transform="translate(20 1105) rotate(0 15 15)"><path d="M12.43 0.32 C15.43 -0.25, 20.17 0.78, 22.95 2.37 C25.73 3.96, 28.12 6.9, 29.12 9.86 C30.12 12.81, 30.11 17.07, 28.96 20.12 C27.82 23.17, 24.99 26.62, 22.26 28.15 C19.52 29.68, 15.64 29.92, 12.54 29.29 C9.44 28.67, 5.82 26.84, 3.65 24.4 C1.48 21.96, -0.42 17.92, -0.46 14.67 C-0.51 11.43, 1.08 7.4, 3.37 4.95 C5.65 2.5, 11.5 0.75, 13.24 -0.03 C14.98 -0.8, 13.76 0.05, 13.8 0.31 M13.98 -0.13 C17.05 -0.28, 21.88 1.31, 24.54 3.3 C27.2 5.3, 29.22 8.81, 29.95 11.84 C30.68 14.87, 30.56 18.59, 28.89 21.48 C27.23 24.36, 23.18 27.89, 19.96 29.17 C16.73 30.44, 12.55 30.09, 9.53 29.13 C6.5 28.16, 3.35 26.08, 1.8 23.35 C0.26 20.62, -0.29 16.1, 0.24 12.75 C0.78 9.39, 2.6 5.25, 5.03 3.24 C7.45 1.23, 13.27 1.23, 14.79 0.68 C16.32 0.13, 14.2 -0.26, 14.19 -0.08" stroke="#1e1e1e" stroke-width="2" fill="none"></path></g><g transform="translate(19.1015625 1167.5) rotate(0 17.871986389160156 10)"><text x="0" y="0" font-family="Virgil, Segoe UI Emoji" font-size="16px" fill="#1e1e1e" text-anchor="start" style="white-space: pre;" direction="ltr" dominant-baseline="text-before-edge">User</text></g><g stroke-linecap="round" transform="translate(180 15) rotate(0 75 32.5)"><path d="M0 0 C58.86 -0.41, 115.39 1.5, 150 0 M0 0 C50.19 0.17, 100.99 0.26, 150 0 M150 0 C151.91 19.65, 148.71 39.26, 150 65 M150 0 C149.46 15.63, 149.63 30.53, 150 65 M150 65 C106.09 63.54, 65.56 65.74, 0 65 M150 65 C104.75 63.84, 56.89 65.01, 0 65 M0 65 C1.41 52.1, -0.08 38.72, 0 0 M0 65 C-0.72 49.68, -0.04 35.75, 0 0" stroke="#1e1e1e" stroke-width="2" fill="none"></path></g><g stroke-linecap="round" transform="translate(180 1110) rotate(0 75 32.5)"><path d="M0 0 C32.97 -1.52, 69.19 0.28, 150 0 M0 0 C51.18 0.31, 102.52 0.92, 150 0 M150 0 C149.41 23.39, 149.35 49.17, 150 65 M150 0 C150.75 16.98, 150.57 34.03, 150 65 M150 65 C105.06 63.24, 63.94 63.75, 0 65 M150 65 C99 65.64, 50.05 65.41, 0 65 M0 65 C0.59 46.27, 0.33 26.43, 0 0 M0 65 C-1.09 43.8, -0.2 22.34, 0 0" stroke="#1e1e1e" stroke-width="2" fill="none"></path></g><g stroke-linecap="round" transform="translate(486 15) rotate(0 75 32.5)"><path d="M0 0 C34.7 1.58, 72.24 1.84, 150 0 M0 0 C42.19 0.12, 85.57 0.97, 150 0 M150 0 C148.56 13.87, 149.07 27.21, 150 65 M150 0 C149.67 21.82, 149.61 42.77, 150 65 M150 65 C103.12 64.38, 57.12 64.47, 0 65 M150 65 C107.06 63.97, 64.65 63.54, 0 65 M0 65 C-0.6 49.11, -1.87 33.86, 0 0 M0 65 C0.49 40.03, 0.37 13.88, 0 0" stroke="#1e1e1e" stroke-width="2" fill="none"></path></g><g stroke-linecap="round" transform="translate(486 1110) rotate(0 75 32.5)"><path d="M0 0 C50.49 1.55, 100.66 0.48, 150 0 M0 0 C36.11 0.9, 73.03 0.02, 150 0 M150 0 C149.89 22.48, 149.26 48.27, 150 65 M150 0 C150.74 17.36, 150.25 35.22, 150 65 M150 65 C119.64 64.89, 88.79 64.36, 0 65 M150 65 C91.36 62.89, 32 63.31, 0 65 M0 65 C-0.11 39.78, 0.49 19.25, 0 0 M0 65 C0.72 48.98, -0.07 33.76, 0 0" stroke="#1e1e1e" stroke-width="2" fill="none"></path></g><g stroke-linecap="round" transform="translate(728 15) rotate(0 75 32.5)"><path d="M0 0 C35.73 0.4, 69.61 -1.62, 150 0 M0 0 C44.2 0.83, 87.48 0.61, 150 0 M150 0 C148.03 18.66, 149.99 38.19, 150 65 M150 0 C149.71 22.98, 150.01 45.24, 150 65 M150 65 C117.26 66.12, 83.83 67.3, 0 65 M150 65 C117.2 65.29, 85.8 66.1, 0 65 M0 65 C-1.39 45.35, 1.86 23.49, 0 0 M0 65 C-0.07 48.4, 0.74 32.51, 0 0" stroke="#1e1e1e" stroke-width="2" fill="none"></path></g><g stroke-linecap="round" transform="translate(728 1110) rotate(0 75 32.5)"><path d="M0 0 C38.08 -0.88, 73.31 -0.69, 150 0 M0 0 C37.16 -0.89, 73.22 -0.06, 150 0 M150 0 C149.23 14.02, 149.37 27.94, 150 65 M150 0 C150.13 18.72, 149.31 36.44, 150 65 M150 65 C108.37 64.74, 67.22 63.36, 0 65 M150 65 C116.16 62.97, 83.27 63.64, 0 65 M0 65 C0.58 47.85, -1.05 26.09, 0 0 M0 65 C-0.65 45.4, -0.34 23.42, 0 0" stroke="#1e1e1e" stroke-width="2" fill="none"></path></g><g stroke-linecap="round" transform="translate(928 15) rotate(0 75 32.5)"><path d="M0 0 C49.03 -1.81, 98.55 -1.79, 150 0 M0 0 C44.75 -0.66, 91.19 -2.27, 150 0 M150 0 C150.16 18.59, 150.66 38.11, 150 65 M150 0 C149.97 21.02, 149.06 43.74, 150 65 M150 65 C100.21 67.37, 49.41 64, 0 65 M150 65 C100.07 65.44, 51.37 64.7, 0 65 M0 65 C2.27 44.55, -0.55 26.53, 0 0 M0 65 C0.82 42.9, -0.72 21.87, 0 0" stroke="#1e1e1e" stroke-width="2" fill="none"></path></g><g stroke-linecap="round" transform="translate(928 1110) rotate(0 75 32.5)"><path d="M0 0 C49.6 0.11, 100.41 0.3, 150 0 M0 0 C46.08 1.26, 89.89 1.23, 150 0 M150 0 C149.16 16.18, 149.49 30.91, 150 65 M150 0 C148.99 17.41, 149.75 36.73, 150 65 M150 65 C105.68 62.96, 56.13 65.3, 0 65 M150 65 C120.38 64.27, 89.36 64.14, 0 65 M0 65 C-1.25 49.17, 0.1 36.14, 0 0 M0 65 C0.17 44.67, 1.14 25.76, 0 0" stroke="#1e1e1e" stroke-width="2" fill="none"></path></g><g stroke-linecap="round" transform="translate(1128 15) rotate(0 75 32.5)"><path d="M0 0 C51.13 -0.27, 102.56 0.95, 150 0 M0 0 C58.28 -1.94, 116.55 -1.68, 150 0 M150 0 C151.3 16.84, 150.95 33.83, 150 65 M150 0 C149.26 18.59, 150.36 37.63, 150 65 M150 65 C98.12 64.89, 50.34 64.43, 0 65 M150 65 C107.27 65.9, 64.31 65.27, 0 65 M0 65 C-1.6 43.95, 0.18 22.36, 0 0 M0 65 C-1.25 48.97, -0.52 32.16, 0 0" stroke="#1e1e1e" stroke-width="2" fill="none"></path></g><g stroke-linecap="round" transform="translate(1128 1110) rotate(0 75 32.5)"><path d="M0 0 C41.61 0.16, 85.6 1.86, 150 0 M0 0 C31.3 -0.02, 63.8 -0.34, 150 0 M150 0 C149.54 22.2, 149.41 42.66, 150 65 M150 0 C149.21 20.45, 149.47 40.66, 150 65 M150 65 C106.31 64.26, 63.67 63.39, 0 65 M150 65 C113.33 65.15, 76.11 65.45, 0 65 M0 65 C0.63 40.41, 0.39 13.49, 0 0 M0 65 C0.94 40.1, 1.03 15.64, 0 0" stroke="#1e1e1e" stroke-width="2" fill="none"></path></g><g stroke-linecap="round" transform="translate(1328 15) rotate(0 75 32.5)"><path d="M0 0 C36.15 0.93, 73.92 -0.83, 150 0 M0 0 C54.96 0.72, 109.66 1.7, 150 0 M150 0 C151.12 17.16, 150.14 35.32, 150 65 M150 0 C149.77 13.49, 149.82 26.63, 150 65 M150 65 C91.66 61.91, 31.86 62.75, 0 65 M150 65 C95.11 64.15, 40.54 65.77, 0 65 M0 65 C1.1 49, -0.47 34.6, 0 0 M0 65 C0.48 47.08, 0.94 26.78, 0 0" stroke="#1e1e1e" stroke-width="2" fill="none"></path></g><g stroke-linecap="round" transform="translate(1328 1110) rotate(0 75 32.5)"><path d="M0 0 C44.22 1.71, 86.63 1.27, 150 0 M0 0 C44.08 -0.3, 89.81 -0.23, 150 0 M150 0 C149.52 22.86, 150.11 44.3, 150 65 M150 0 C149.96 14.6, 149.7 29.44, 150 65 M150 65 C116.22 65.15, 85.24 66.75, 0 65 M150 65 C102.62 65.26, 57.58 64.44, 0 65 M0 65 C-0.05 48, 1.57 32.42, 0 0 M0 65 C0.4 50.56, -1 35.07, 0 0" stroke="#1e1e1e" stroke-width="2" fill="none"></path></g><g stroke-linecap="round" transform="translate(10 90) rotate(0 709 19.5)"><path d="M0 0 C343.62 -0.84, 686.36 -0.17, 1418 0 M1418 0 C1417.25 8.65, 1417.38 17.21, 1418 39 M1418 39 C1011.66 37.96, 604.75 37.24, 0 39 M0 39 C0.57 27.62, 1.74 15.24, 0 0" stroke="#1e1e1e" stroke-width="2.5" fill="none" stroke-dasharray="8 10"></path></g><g stroke-linecap="round" transform="translate(10 821) rotate(0 709 19.5)"><path d="M0 0 C430.42 -4.5, 862.2 -5.78, 1418 0 M1418 0 C1418.33 10.92, 1418.84 22.76, 1418 39 M1418 39 C938.98 37.62, 459.16 38.22, 0 39 M0 39 C-0.41 28.01, -1.79 11.8, 0 0" stroke="#1e1e1e" stroke-width="2.5" fill="none" stroke-dasharray="8 10"></path></g><g stroke-linecap="round"><g transform="translate(35 95) rotate(0 0 505)"><path d="M0 0 C4.12 305.75, 2.83 611.5, 0 1010 M0 0 C-1.6 234.51, -1.54 468.73, 0 1010" stroke="#999" stroke-width="1" fill="none"></path></g></g><mask></mask><g stroke-linecap="round"><g transform="translate(255 80) rotate(0 0 515)"><path d="M0 0 C-3.52 399.58, -3.54 800.11, 0 1030 M0 0 C1.45 271.14, 1.38 542.3, 0 1030" stroke="#999" stroke-width="1" fill="none"></path></g></g><mask></mask><g stroke-linecap="round"><g transform="translate(561 80) rotate(0 0 515)"><path d="M0 0 C2 221.33, 2.21 442.44, 0 1030 M0 0 C-1.28 339.91, -1.31 679.47, 0 1030" stroke="#999" stroke-width="1" fill="none"></path></g></g><mask></mask><g stroke-linecap="round"><g transform="translate(803 80) rotate(0 0 515)"><path d="M0 0 C-0.11 377.21, -0.36 755.75, 0 1030 M0 0 C2.43 278.15, 2.23 556.5, 0 1030" stroke="#999" stroke-width="1" fill="none"></path></g></g><mask></mask><g stroke-linecap="round"><g transform="translate(1003 80) rotate(0 0 515)"><path d="M0 0 C-4.4 307.04, -3.62 614.42, 0 1030 M0 0 C-0.64 365.81, -0.52 731.33, 0 1030" stroke="#999" stroke-width="1" fill="none"></path></g></g><mask></mask><g stroke-linecap="round"><g transform="translate(1203 80) rotate(0 0 515)"><path d="M0 0 C-0.49 212.88, -0.44 425.72, 0 1030 M0 0 C1.52 295.13, 1.19 589.85, 0 1030" stroke="#999" stroke-width="1" fill="none"></path></g></g><mask></mask><g stroke-linecap="round"><g transform="translate(1403 80) rotate(0 0 515)"><path d="M0 0 C-2.56 303.82, -2.36 608.01, 0 1030 M0 0 C-0.77 347.63, -1.14 695.94, 0 1030" stroke="#999" stroke-width="1" fill="none"></path></g></g><mask></mask><g mask="url(#mask-elifyALjkdYfg3-wNvEDl)" stroke-linecap="round"><g transform="translate(36 165) rotate(0 107.5 0)"><path d="M0.86 -0.36 C36.77 -0.31, 179.48 -0.18, 215.16 -0.16 M-0.41 -1.59 C35.47 -1.32, 178.76 0.87, 214.56 1.29" stroke="#1e1e1e" stroke-width="2" fill="none"></path></g><g transform="translate(36 165) rotate(0 107.5 0)"><path d="M190.96 9.52 C195.86 8.64, 201.67 6.39, 214.56 1.29 M190.96 9.52 C196.64 6.38, 204.02 5.18, 214.56 1.29" stroke="#1e1e1e" stroke-width="2" fill="none"></path></g><g transform="translate(36 165) rotate(0 107.5 0)"><path d="M191.19 -7.58 C195.98 -4.49, 201.73 -2.78, 214.56 1.29 M191.19 -7.58 C196.79 -5.92, 204.1 -2.34, 214.56 1.29" stroke="#1e1e1e" stroke-width="2" fill="none"></path></g></g><mask id="mask-elifyALjkdYfg3-wNvEDl"><rect x="0" y="0" fill="#fff" width="351" height="265"></rect><rect x="62.51605987548828" y="155" fill="#000" width="161.96788024902344" height="20" opacity="1"></rect></mask><g mask="url(#mask-dnCdwNTKeUH6pIKkFQyB3)" stroke-linecap="round"><g transform="translate(256 211) rotate(0 150.5 0)"><path d="M0.14 0.66 C50.19 0.68, 250.32 0.59, 300.34 0.45 M2.15 -0.04 C52.07 -0.42, 249.77 -1.62, 299.3 -1.43" stroke="#1e1e1e" stroke-width="2" fill="none"></path></g><g transform="translate(256 211) rotate(0 150.5 0)"><path d="M275.83 7.17 C283.09 4.7, 288.92 2.31, 299.3 -1.43 M275.83 7.17 C281.79 4.72, 289.68 2.5, 299.3 -1.43" stroke="#1e1e1e" stroke-width="2" fill="none"></path></g><g transform="translate(256 211) rotate(0 150.5 0)"><path d="M275.8 -9.94 C283.12 -7.9, 288.96 -5.78, 299.3 -1.43 M275.8 -9.94 C281.79 -7.44, 289.68 -4.72, 299.3 -1.43" stroke="#1e1e1e" stroke-width="2" fill="none"></path></g></g><mask id="mask-dnCdwNTKeUH6pIKkFQyB3"><rect x="0" y="0" fill="#fff" width="657" height="311"></rect><rect x="303.1960754394531" y="181" fill="#000" width="206.60784912109375" height="60" opacity="1"></rect></mask><g mask="url(#mask-ibEh1By7YlDLpFR1nzwRz)" stroke-linecap="round"><g transform="translate(562 257) rotate(0 33.37272704876773 10.53080860486186)"><path d="M0.16 -0.66 C10.26 -2.23, 50.5 -15.37, 60.45 -10.24 C70.41 -5.11, 70.05 25.16, 59.87 30.12 C49.69 35.08, 9.31 21.08, -0.62 19.53 M-0.95 -1.79 C9 -3.14, 49.75 -14.37, 59.74 -8.82 C69.74 -3.27, 69.15 26.68, 59.03 31.5 C48.91 36.33, 9.09 21.81, -0.97 20.13" stroke="#1e1e1e" stroke-width="2" fill="none"></path></g><g transform="translate(562 257) rotate(0 33.37272704876773 10.53080860486186)"><path d="M23.93 17.89 C15.44 19.52, 7.1 19.28, -0.97 20.13 M23.93 17.89 C16.01 18.68, 8.55 19.42, -0.97 20.13" stroke="#1e1e1e" stroke-width="2" fill="none"></path></g><g transform="translate(562 257) rotate(0 33.37272704876773 10.53080860486186)"><path d="M19.54 34.42 C12.55 30.58, 5.66 24.88, -0.97 20.13 M19.54 34.42 C13.14 30.12, 7.03 25.73, -0.97 20.13" stroke="#1e1e1e" stroke-width="2" fill="none"></path></g></g><mask id="mask-ibEh1By7YlDLpFR1nzwRz"><rect x="0" y="0" fill="#fff" width="722" height="397"></rect><rect x="547.0349109853892" y="247.53743107125536" fill="#000" width="165.32789611816406" height="40" opacity="1"></rect></mask><g mask="url(#mask-8M2UTYs9nhIlqF8Hmx_W_)" stroke-linecap="round"><g transform="translate(562 333) rotate(0 418.5 0)"><path d="M0.34 0.45 C139.69 0.32, 696.88 0.13, 836.26 -0.13 M-1.21 -0.35 C138 -0.35, 695.67 1.34, 835.19 1.33" stroke="#1e1e1e" stroke-width="2" fill="none"></path></g><g transform="translate(562 333) rotate(0 418.5 0)"><path d="M811.68 9.84 C818.74 7.18, 824.11 5.48, 835.19 1.33 M811.68 9.84 C816.9 8.21, 821.79 6.19, 835.19 1.33" stroke="#1e1e1e" stroke-width="2" fill="none"></path></g><g transform="translate(562 333) rotate(0 418.5 0)"><path d="M811.71 -7.26 C818.86 -5.3, 824.22 -2.38, 835.19 1.33 M811.71 -7.26 C816.78 -5.36, 821.67 -3.86, 835.19 1.33" stroke="#1e1e1e" stroke-width="2" fill="none"></path></g></g><mask id="mask-8M2UTYs9nhIlqF8Hmx_W_"><rect x="0" y="0" fill="#fff" width="1499" height="433"></rect><rect x="862.6360626220703" y="323" fill="#000" width="235.72787475585938" height="20" opacity="1"></rect></mask><g mask="url(#mask-mW0qoAVybyNWNyP1C20fW)" stroke-linecap="round"><g transform="translate(1402 424) rotate(0 -418.5 0)"><path d="M-0.05 -0.24 C-139.51 -0.19, -697.04 0.24, -836.63 0.12" stroke="#1e1e1e" stroke-width="2.5" fill="none" stroke-dasharray="1.5 8"></path></g><g transform="translate(1402 424) rotate(0 -418.5 0)"><path d="M-813.14 -8.43 C-821.89 -5.53, -829.64 -4.14, -836.63 0.12" stroke="#1e1e1e" stroke-width="2.5" fill="none" stroke-dasharray="1.5 6"></path></g><g transform="translate(1402 424) rotate(0 -418.5 0)"><path d="M-813.14 8.67 C-821.87 5.5, -829.62 0.81, -836.63 0.12" stroke="#1e1e1e" stroke-width="2.5" fill="none" stroke-dasharray="1.5 6"></path></g></g><mask id="mask-mW0qoAVybyNWNyP1C20fW"><rect x="0" y="0" fill="#fff" width="2339" height="524"></rect><rect x="963.3560180664062" y="414" fill="#000" width="40.2879638671875" height="20" opacity="1"></rect></mask><g mask="url(#mask-X34IBS3fmBIqBHFrn36Ne)" stroke-linecap="round"><g transform="translate(560 470) rotate(0 -150.5 0)"><path d="M-0.74 -0.13 C-50.69 -0.4, -250.26 -1.11, -300.38 -1.12" stroke="#1e1e1e" stroke-width="2.5" fill="none" stroke-dasharray="1.5 8"></path></g><g transform="translate(560 470) rotate(0 -150.5 0)"><path d="M-276.87 -9.62 C-283.79 -7.03, -292.18 -6.41, -300.38 -1.12" stroke="#1e1e1e" stroke-width="2.5" fill="none" stroke-dasharray="1.5 6"></path></g><g transform="translate(560 470) rotate(0 -150.5 0)"><path d="M-276.91 7.48 C-283.89 5.17, -292.26 0.89, -300.38 -1.12" stroke="#1e1e1e" stroke-width="2.5" fill="none" stroke-dasharray="1.5 6"></path></g></g><mask id="mask-X34IBS3fmBIqBHFrn36Ne"><rect x="0" y="0" fill="#fff" width="961" height="570"></rect><rect x="316.79605865478516" y="460" fill="#000" width="185.4078826904297" height="20" opacity="1"></rect></mask><g mask="url(#mask-i456dbfvRvbqMvn7Y8I14)" stroke-linecap="round"><g transform="translate(1402 561) rotate(0 -418.5 0)"><path d="M-0.63 0.12 C-140.23 0, -698.28 -1.01, -837.62 -0.97" stroke="#1e1e1e" stroke-width="2.5" fill="none" stroke-dasharray="1.5 8"></path></g><g transform="translate(1402 561) rotate(0 -418.5 0)"><path d="M-814.12 -9.5 C-821.88 -8.52, -831.63 -4.12, -837.62 -0.97" stroke="#1e1e1e" stroke-width="2.5" fill="none" stroke-dasharray="1.5 6"></path></g><g transform="translate(1402 561) rotate(0 -418.5 0)"><path d="M-814.14 7.6 C-821.86 2.81, -831.61 1.43, -837.62 -0.97" stroke="#1e1e1e" stroke-width="2.5" fill="none" stroke-dasharray="1.5 6"></path></g></g><mask id="mask-i456dbfvRvbqMvn7Y8I14"><rect x="0" y="0" fill="#fff" width="2339" height="661"></rect><rect x="965.6200180053711" y="551" fill="#000" width="35.75996398925781" height="20" opacity="1"></rect></mask><g mask="url(#mask-kmXrc752vcu-ppv4lsdjx)" stroke-linecap="round"><g transform="translate(562 607) rotate(0 318.5 0)"><path d="M0.62 -1.12 C106.5 -1.14, 529.49 -0.42, 635.53 -0.21 M-0.77 0.9 C105.49 1.08, 531.56 1.12, 637.74 1.21" stroke="#1e1e1e" stroke-width="2" fill="none"></path></g><g transform="translate(562 607) rotate(0 318.5 0)"><path d="M614.24 9.75 C618.96 5.72, 627.06 5.53, 637.74 1.21 M614.24 9.75 C622.37 6.29, 627.92 4.83, 637.74 1.21" stroke="#1e1e1e" stroke-width="2" fill="none"></path></g><g transform="translate(562 607) rotate(0 318.5 0)"><path d="M614.25 -7.35 C618.95 -6.59, 627.05 -1.99, 637.74 1.21 M614.25 -7.35 C622.44 -5.55, 627.99 -1.74, 637.74 1.21" stroke="#1e1e1e" stroke-width="2" fill="none"></path></g></g><mask id="mask-kmXrc752vcu-ppv4lsdjx"><rect x="0" y="0" fill="#fff" width="1299" height="707"></rect><rect x="771.6040649414062" y="597" fill="#000" width="217.7918701171875" height="20" opacity="1"></rect></mask><g mask="url(#mask-Ye18qMm8g8D-_IE9NsTiG)" stroke-linecap="round"><g transform="translate(1202 653) rotate(0 -318.5 0)"><path d="M-1.62 -0.97 C-107.64 -0.93, -530.92 0.12, -636.71 0.35" stroke="#1e1e1e" stroke-width="2.5" fill="none" stroke-dasharray="1.5 8"></path></g><g transform="translate(1202 653) rotate(0 -318.5 0)"><path d="M-613.24 -8.25 C-621.63 -6.34, -626.2 -3.34, -636.71 0.35" stroke="#1e1e1e" stroke-width="2.5" fill="none" stroke-dasharray="1.5 6"></path></g><g transform="translate(1202 653) rotate(0 -318.5 0)"><path d="M-613.2 8.85 C-621.62 5.82, -626.2 3.88, -636.71 0.35" stroke="#1e1e1e" stroke-width="2.5" fill="none" stroke-dasharray="1.5 6"></path></g></g><mask id="mask-Ye18qMm8g8D-_IE9NsTiG"><rect x="0" y="0" fill="#fff" width="1939" height="753"></rect><rect x="838.0840301513672" y="643" fill="#000" width="90.83193969726562" height="20" opacity="1"></rect></mask><g mask="url(#mask-WL6Ti4KXWHSll7P6RxFQR)" stroke-linecap="round"><g transform="translate(562 699) rotate(0 118.5 0)"><path d="M-0.47 -0.21 C38.9 -0.01, 197.29 0.1, 236.85 0.09 M1.22 -1.37 C40.46 -0.86, 196.9 1.29, 236.09 1.68" stroke="#1e1e1e" stroke-width="2" fill="none"></path></g><g transform="translate(562 699) rotate(0 118.5 0)"><path d="M212.5 9.95 C219.53 8.16, 227.37 5.69, 236.09 1.68 M212.5 9.95 C218.3 8.12, 224.71 5.36, 236.09 1.68" stroke="#1e1e1e" stroke-width="2" fill="none"></path></g><g transform="translate(562 699) rotate(0 118.5 0)"><path d="M212.7 -7.15 C219.52 -3.64, 227.28 -0.8, 236.09 1.68 M212.7 -7.15 C218.61 -4.17, 224.96 -2.12, 236.09 1.68" stroke="#1e1e1e" stroke-width="2" fill="none"></path></g></g><mask id="mask-WL6Ti4KXWHSll7P6RxFQR"><rect x="0" y="0" fill="#fff" width="899" height="799"></rect><rect x="621.9400482177734" y="679" fill="#000" width="117.11990356445312" height="40" opacity="1"></rect></mask><g mask="url(#mask-S_-l6kaeVkih1gTb5UzPN)" stroke-linecap="round"><g transform="translate(562 745) rotate(0 218.5 0)"><path d="M0.29 0.35 C73.16 0.58, 363.93 0.28, 436.59 0.41 M-1.29 -0.51 C71.53 -0.56, 362.92 -1.48, 435.7 -1.5" stroke="#1e1e1e" stroke-width="2" fill="none"></path></g><g transform="translate(562 745) rotate(0 218.5 0)"><path d="M412.22 7.1 C417.72 5.52, 422.66 3.22, 435.7 -1.5 M412.22 7.1 C421.81 2.92, 430.6 -0.04, 435.7 -1.5" stroke="#1e1e1e" stroke-width="2" fill="none"></path></g><g transform="translate(562 745) rotate(0 218.5 0)"><path d="M412.19 -10 C417.56 -8.05, 422.5 -6.83, 435.7 -1.5 M412.19 -10 C421.64 -7.47, 430.44 -3.7, 435.7 -1.5" stroke="#1e1e1e" stroke-width="2" fill="none"></path></g></g><mask id="mask-S_-l6kaeVkih1gTb5UzPN"><rect x="0" y="0" fill="#fff" width="1099" height="845"></rect><rect x="658.2440719604492" y="735" fill="#000" width="244.51185607910156" height="20" opacity="1"></rect></mask><g mask="url(#mask-ooxEX3zdYBaUiHf4CCYjj)" stroke-linecap="round"><g transform="translate(560 791) rotate(0 -150.5 0)"><path d="M-0.15 0.09 C-49.92 0.09, -250.22 -0.03, -300.09 -0.23" stroke="#1e1e1e" stroke-width="2.5" fill="none" stroke-dasharray="1.5 8"></path></g><g transform="translate(560 791) rotate(0 -150.5 0)"><path d="M-276.58 -8.73 C-281.6 -6.11, -287.28 -3.07, -300.09 -0.23" stroke="#1e1e1e" stroke-width="2.5" fill="none" stroke-dasharray="1.5 6"></path></g><g transform="translate(560 791) rotate(0 -150.5 0)"><path d="M-276.62 8.37 C-281.59 7.24, -287.27 6.53, -300.09 -0.23" stroke="#1e1e1e" stroke-width="2.5" fill="none" stroke-dasharray="1.5 6"></path></g></g><mask id="mask-ooxEX3zdYBaUiHf4CCYjj"><rect x="0" y="0" fill="#fff" width="961" height="891"></rect><rect x="378.0840072631836" y="781" fill="#000" width="62.83198547363281" height="20" opacity="1"></rect></mask><g mask="url(#mask-ffX-Slk4lXWRzcgo5Vtqc)" stroke-linecap="round"><g transform="translate(36 896) rotate(0 107.5 0)"><path d="M0.59 0.41 C36.26 0.54, 178.8 1.33, 214.27 1.11 M-0.82 -0.42 C34.69 -0.63, 177.11 -0.48, 213.21 -0.42" stroke="#1e1e1e" stroke-width="2" fill="none"></path></g><g transform="translate(36 896) rotate(0 107.5 0)"><path d="M189.71 8.1 C196.99 5.3, 204.8 1.51, 213.21 -0.42 M189.71 8.1 C194.82 5.85, 200.9 4.61, 213.21 -0.42" stroke="#1e1e1e" stroke-width="2" fill="none"></path></g><g transform="translate(36 896) rotate(0 107.5 0)"><path d="M189.73 -9 C197.06 -6.98, 204.86 -5.94, 213.21 -0.42 M189.73 -9 C194.88 -7.41, 200.96 -4.81, 213.21 -0.42" stroke="#1e1e1e" stroke-width="2" fill="none"></path></g></g><mask id="mask-ffX-Slk4lXWRzcgo5Vtqc"><rect x="0" y="0" fill="#fff" width="351" height="996"></rect><rect x="67.38804626464844" y="886" fill="#000" width="152.22390747070312" height="20" opacity="1"></rect></mask><g mask="url(#mask-vshqQN9QXaIB5JYBd9VVt)" stroke-linecap="round"><g transform="translate(256 942) rotate(0 150.5 0)"><path d="M0.91 -0.23 C51.04 -0.42, 251.83 -1.15, 301.61 -1.05 M-0.33 -1.39 C49.7 -1.48, 250.86 0, 301.25 -0.07" stroke="#1e1e1e" stroke-width="2" fill="none"></path></g><g transform="translate(256 942) rotate(0 150.5 0)"><path d="M277.73 8.4 C285.1 7.39, 291.46 1.23, 301.25 -0.07 M277.73 8.4 C284.99 6.3, 293.41 2.77, 301.25 -0.07" stroke="#1e1e1e" stroke-width="2" fill="none"></path></g><g transform="translate(256 942) rotate(0 150.5 0)"><path d="M277.79 -8.7 C285.15 -4.08, 291.5 -4.6, 301.25 -0.07 M277.79 -8.7 C284.87 -5.17, 293.26 -3.07, 301.25 -0.07" stroke="#1e1e1e" stroke-width="2" fill="none"></path></g></g><mask id="mask-vshqQN9QXaIB5JYBd9VVt"><rect x="0" y="0" fill="#fff" width="657" height="1042"></rect><rect x="303.65206146240234" y="922" fill="#000" width="205.6958770751953" height="40" opacity="1"></rect></mask><g mask="url(#mask-BtGnXcVW0vmA1ka_kL6AM)" stroke-linecap="round"><g transform="translate(562 988) rotate(0 118.5 0)"><path d="M0.27 1.11 C39.42 0.9, 196.02 -0.52, 235.45 -0.9 M-1.3 0.65 C38.19 0.52, 198.01 0.35, 237.6 0.16" stroke="#1e1e1e" stroke-width="2" fill="none"></path></g><g transform="translate(562 988) rotate(0 118.5 0)"><path d="M214.13 8.77 C223.19 4.41, 227.05 4.1, 237.6 0.16 M214.13 8.77 C219.54 7.28, 223.54 5.41, 237.6 0.16" stroke="#1e1e1e" stroke-width="2" fill="none"></path></g><g transform="translate(562 988) rotate(0 118.5 0)"><path d="M214.09 -8.33 C223.21 -7.43, 227.09 -2.48, 237.6 0.16 M214.09 -8.33 C219.48 -6.37, 223.48 -4.79, 237.6 0.16" stroke="#1e1e1e" stroke-width="2" fill="none"></path></g></g><mask id="mask-BtGnXcVW0vmA1ka_kL6AM"><rect x="0" y="0" fill="#fff" width="899" height="1088"></rect><rect x="625.5880432128906" y="968" fill="#000" width="109.82391357421875" height="40" opacity="1"></rect></mask><g mask="url(#mask-BUZExEFgMozcYSKPrHhO9)" stroke-linecap="round"><g transform="translate(562 1034) rotate(0 218.5 0)"><path d="M1.61 -1.05 C74.06 -0.96, 363.31 0.2, 435.6 0.35 M0.74 1.01 C73.52 0.75, 365.02 -1.6, 437.83 -1.59" stroke="#1e1e1e" stroke-width="2" fill="none"></path></g><g transform="translate(562 1034) rotate(0 218.5 0)"><path d="M414.38 7.07 C420.47 2.45, 430.65 -0.9, 437.83 -1.59 M414.38 7.07 C421.24 4.36, 427.8 1.25, 437.83 -1.59" stroke="#1e1e1e" stroke-width="2" fill="none"></path></g><g transform="translate(562 1034) rotate(0 218.5 0)"><path d="M414.3 -10.03 C420.39 -8.94, 430.59 -6.57, 437.83 -1.59 M414.3 -10.03 C421.09 -7.86, 427.68 -6.09, 437.83 -1.59" stroke="#1e1e1e" stroke-width="2" fill="none"></path></g></g><mask id="mask-BUZExEFgMozcYSKPrHhO9"><rect x="0" y="0" fill="#fff" width="1099" height="1134"></rect><rect x="673.5000686645508" y="1024" fill="#000" width="213.99986267089844" height="20" opacity="1"></rect></mask><g mask="url(#mask-1r8TbPqIH7ymEdJtNFvMv)" stroke-linecap="round"><g transform="translate(560 1080) rotate(0 -150.5 0)"><path d="M-1.55 -0.9 C-51.46 -1.29, -250.3 -1.22, -300.15 -1.18" stroke="#1e1e1e" stroke-width="2.5" fill="none" stroke-dasharray="1.5 8"></path></g><g transform="translate(560 1080) rotate(0 -150.5 0)"><path d="M-276.66 -9.74 C-284.69 -6.95, -291.76 -5.42, -300.15 -1.18" stroke="#1e1e1e" stroke-width="2.5" fill="none" stroke-dasharray="1.5 6"></path></g><g transform="translate(560 1080) rotate(0 -150.5 0)"><path d="M-276.65 7.36 C-284.85 5.34, -291.91 2.06, -300.15 -1.18" stroke="#1e1e1e" stroke-width="2.5" fill="none" stroke-dasharray="1.5 6"></path></g></g><mask id="mask-1r8TbPqIH7ymEdJtNFvMv"><rect x="0" y="0" fill="#fff" width="961" height="1180"></rect><rect x="378.0840072631836" y="1070" fill="#000" width="62.83198547363281" height="20" opacity="1"></rect></mask><g stroke-linecap="round"><g transform="translate(244 353) rotate(0 585 0)"><path d="M0 0 C459.87 2.74, 919.15 3.08, 1170 0" stroke="#adb5bd" stroke-width="2.5" fill="none" stroke-dasharray="1.5 8"></path></g></g><mask></mask><g stroke-linecap="round"><g transform="translate(1414 353) rotate(0 0 229)"><path d="M0 0 C-2.54 97.02, -2.15 194.94, 0 458" stroke="#adb5bd" stroke-width="2.5" fill="none" stroke-dasharray="1.5 8"></path></g></g><mask></mask><g stroke-linecap="round"><g transform="translate(244 811) rotate(0 585 0)"><path d="M0 0 C262.71 4.14, 526.17 4.68, 1170 0" stroke="#adb5bd" stroke-width="2.5" fill="none" stroke-dasharray="1.5 8"></path></g></g><mask></mask><g stroke-linecap="round"><g transform="translate(244 353) rotate(0 0 229)"><path d="M0 0 C-2.64 151.37, -2.01 301.42, 0 458" stroke="#adb5bd" stroke-width="2.5" fill="none" stroke-dasharray="1.5 8"></path></g></g><mask></mask><g stroke-linecap="round"><g transform="translate(244 495) rotate(0 585 0)"><path d="M0 0 C236.69 2.71, 472.25 2.61, 1170 0" stroke="#adb5bd" stroke-width="2.5" fill="none" stroke-dasharray="1.5 8"></path></g></g><mask></mask><g transform="translate(783.5859375 361) rotate(0 74.52796173095703 10)"><text x="0" y="0" font-family="Virgil, Segoe UI Emoji" font-size="16px" fill="#1e1e1e" text-anchor="start" style="white-space: pre;" direction="ltr" dominant-baseline="text-before-edge">[Connection Failed]</text></g><g transform="translate(753.46875 503) rotate(0 82.31996154785156 10)"><text x="0" y="0" font-family="Virgil, Segoe UI Emoji" font-size="16px" fill="#1e1e1e" text-anchor="start" style="white-space: pre;" direction="ltr" dominant-baseline="text-before-edge">[Connection Success]</text></g><g stroke-linecap="round" transform="translate(244 353) rotate(0 17 15)"><path d="M0.97 1 L34.14 -0.6 L34.26 29.94 L0.82 29.88" stroke="none" stroke-width="0" fill="#e9ecef"></path><path d="M0 0 C12.42 -0.71, 25.16 0.92, 34 0 M0 0 C8.58 -0.01, 16.58 0.39, 34 0 M34 0 C33.92 9.69, 34.38 17.01, 34 30 M34 0 C34.3 8.38, 33.67 18, 34 30 M34 30 C27.5 29.1, 20.13 29.78, 0 30 M34 30 C24.98 29.76, 16.14 29.96, 0 30 M0 30 C0.46 19.77, -0.32 9.64, 0 0 M0 30 C0.42 22.68, -0.21 15.83, 0 0" stroke="#adb5bd" stroke-width="2" fill="none"></path></g><g transform="translate(221.61602020263672 37.5) rotate(0 33.38397979736328 10)"><text x="33.38397979736328" y="0" font-family="Virgil, Segoe UI Emoji" font-size="16px" fill="#000" text-anchor="middle" style="white-space: pre;" direction="ltr" dominant-baseline="text-before-edge">Frontend</text></g><g transform="translate(221.61602020263672 1132.5) rotate(0 33.38397979736328 10)"><text x="33.38397979736328" y="0" font-family="Virgil, Segoe UI Emoji" font-size="16px" fill="#000" text-anchor="middle" style="white-space: pre;" direction="ltr" dominant-baseline="text-before-edge">Frontend</text></g><g transform="translate(509.9840393066406 37.5) rotate(0 51.015960693359375 10)"><text x="51.015960693359375" y="0" font-family="Virgil, Segoe UI Emoji" font-size="16px" fill="#000" text-anchor="middle" style="white-space: pre;" direction="ltr" dominant-baseline="text-before-edge">Settings API</text></g><g transform="translate(509.9840393066406 1132.5) rotate(0 51.015960693359375 10)"><text x="51.015960693359375" y="0" font-family="Virgil, Segoe UI Emoji" font-size="16px" fill="#000" text-anchor="middle" style="white-space: pre;" direction="ltr" dominant-baseline="text-before-edge">Settings API</text></g><g transform="translate(763.4480209350586 37.5) rotate(0 39.551979064941406 10)"><text x="39.551979064941406" y="0" font-family="Virgil, Segoe UI Emoji" font-size="16px" fill="#000" text-anchor="middle" style="white-space: pre;" direction="ltr" dominant-baseline="text-before-edge">Database</text></g><g transform="translate(763.4480209350586 1132.5) rotate(0 39.551979064941406 10)"><text x="39.551979064941406" y="0" font-family="Virgil, Segoe UI Emoji" font-size="16px" fill="#000" text-anchor="middle" style="white-space: pre;" direction="ltr" dominant-baseline="text-before-edge">Database</text></g><g transform="translate(982.5520172119141 37.5) rotate(0 20.447982788085938 10)"><text x="20.447982788085938" y="0" font-family="Virgil, Segoe UI Emoji" font-size="16px" fill="#000" text-anchor="middle" style="white-space: pre;" direction="ltr" dominant-baseline="text-before-edge">Redis</text></g><g transform="translate(982.5520172119141 1132.5) rotate(0 20.447982788085938 10)"><text x="20.447982788085938" y="0" font-family="Virgil, Segoe UI Emoji" font-size="16px" fill="#000" text-anchor="middle" style="white-space: pre;" direction="ltr" dominant-baseline="text-before-edge">Redis</text></g><g transform="translate(1136.7040328979492 37.5) rotate(0 66.29596710205078 10)"><text x="66.29596710205078" y="0" font-family="Virgil, Segoe UI Emoji" font-size="16px" fill="#000" text-anchor="middle" style="white-space: pre;" direction="ltr" dominant-baseline="text-before-edge">Secrets Manager</text></g><g transform="translate(1136.7040328979492 1132.5) rotate(0 66.29596710205078 10)"><text x="66.29596710205078" y="0" font-family="Virgil, Segoe UI Emoji" font-size="16px" fill="#000" text-anchor="middle" style="white-space: pre;" direction="ltr" dominant-baseline="text-before-edge">Secrets Manager</text></g><g transform="translate(1346.7520446777344 37.5) rotate(0 56.247955322265625 10)"><text x="56.247955322265625" y="0" font-family="Virgil, Segoe UI Emoji" font-size="16px" fill="#000" text-anchor="middle" style="white-space: pre;" direction="ltr" dominant-baseline="text-before-edge">Cloud Provider</text></g><g transform="translate(1346.7520446777344 1132.5) rotate(0 56.247955322265625 10)"><text x="56.247955322265625" y="0" font-family="Virgil, Segoe UI Emoji" font-size="16px" fill="#000" text-anchor="middle" style="white-space: pre;" direction="ltr" dominant-baseline="text-before-edge">Cloud Provider</text></g><g transform="translate(582.6240997314453 99.5) rotate(0 136.3759002685547 10)"><text x="136.3759002685547" y="0" font-family="Virgil, Segoe UI Emoji" font-size="16px" fill="#000" text-anchor="middle" style="white-space: pre;" direction="ltr" dominant-baseline="text-before-edge">Update Cloud Provider Credentials</text></g><g transform="translate(591.616081237793 830.5) rotate(0 127.38391876220703 10)"><text x="127.38391876220703" y="0" font-family="Virgil, Segoe UI Emoji" font-size="16px" fill="#000" text-anchor="middle" style="white-space: pre;" direction="ltr" dominant-baseline="text-before-edge">Update Notification Preferences</text></g><g transform="translate(62.51605987548828 155) rotate(0 80.85876792577561 9.84896262099035)"><text x="80.98394012451172" y="0" font-family="Virgil, Segoe UI Emoji" font-size="16px" fill="#1e1e1e" text-anchor="middle" style="white-space: pre;" direction="ltr" dominant-baseline="text-before-edge">Add AWS credentials</text></g><g transform="translate(303.1960754394531 181) rotate(0 103.0436307691038 29.607070951998452)"><text x="103.30392456054688" y="0" font-family="Virgil, Segoe UI Emoji" font-size="16px" fill="#1e1e1e" text-anchor="middle" style="white-space: pre;" direction="ltr" dominant-baseline="text-before-edge">POST </text><text x="103.30392456054688" y="20" font-family="Virgil, Segoe UI Emoji" font-size="16px" fill="#1e1e1e" text-anchor="middle" style="white-space: pre;" direction="ltr" dominant-baseline="text-before-edge">/api/settings/providers/aw</text><text x="103.30392456054688" y="40" font-family="Virgil, Segoe UI Emoji" font-size="16px" fill="#1e1e1e" text-anchor="middle" style="white-space: pre;" direction="ltr" dominant-baseline="text-before-edge">s</text></g><g transform="translate(547.0349109853894 247.53743107125536) rotate(0 48.337816063378455 19.993377533606534)"><text x="82.66394805908203" y="0" font-family="Virgil, Segoe UI Emoji" font-size="16px" fill="#1e1e1e" text-anchor="middle" style="white-space: pre;" direction="ltr" dominant-baseline="text-before-edge">Validate credentials </text><text x="82.66394805908203" y="20" font-family="Virgil, Segoe UI Emoji" font-size="16px" fill="#1e1e1e" text-anchor="middle" style="white-space: pre;" direction="ltr" dominant-baseline="text-before-edge">format</text></g><g transform="translate(862.6360626220703 323) rotate(0 116.8923775724648 10.490143449940604)"><text x="117.86393737792969" y="0" font-family="Virgil, Segoe UI Emoji" font-size="16px" fill="#1e1e1e" text-anchor="middle" style="white-space: pre;" direction="ltr" dominant-baseline="text-before-edge">Test connection (list_regions)</text></g><g transform="translate(963.3560180664062 414) rotate(0 20.304126582294714 9.953108826605018)"><text x="20.14398193359375" y="0" font-family="Virgil, Segoe UI Emoji" font-size="16px" fill="#1e1e1e" text-anchor="middle" style="white-space: pre;" direction="ltr" dominant-baseline="text-before-edge">Error</text></g><g transform="translate(316.79605865478516 460) rotate(0 92.64627878889445 9.370743856579054)"><text x="92.70394134521484" y="0" font-family="Virgil, Segoe UI Emoji" font-size="16px" fill="#1e1e1e" text-anchor="middle" style="white-space: pre;" direction="ltr" dominant-baseline="text-before-edge">400 Invalid credentials</text></g><g transform="translate(965.6200180053711 551) rotate(0 17.250725851208017 9.5761587572253)"><text x="17.879981994628906" y="0" font-family="Virgil, Segoe UI Emoji" font-size="16px" fill="#1e1e1e" text-anchor="middle" style="white-space: pre;" direction="ltr" dominant-baseline="text-before-edge">Valid</text></g><g transform="translate(771.6040649414062 597) rotate(0 108.8768118774052 10.042778015744148)"><text x="108.89593505859375" y="0" font-family="Virgil, Segoe UI Emoji" font-size="16px" fill="#1e1e1e" text-anchor="middle" style="white-space: pre;" direction="ltr" dominant-baseline="text-before-edge">Store encrypted credentials</text></g><g transform="translate(838.0840301513672 643) rotate(0 44.74646833911538 9.692634084075678)"><text x="45.41596984863281" y="0" font-family="Virgil, Segoe UI Emoji" font-size="16px" fill="#1e1e1e" text-anchor="middle" style="white-space: pre;" direction="ltr" dominant-baseline="text-before-edge">Secret ARN</text></g><g transform="translate(621.9400482177734 679) rotate(0 58.25258586630224 20.15421608977954)"><text x="58.55995178222656" y="0" font-family="Virgil, Segoe UI Emoji" font-size="16px" fill="#1e1e1e" text-anchor="middle" style="white-space: pre;" direction="ltr" dominant-baseline="text-before-edge">INSERT </text><text x="58.55995178222656" y="20" font-family="Virgil, Segoe UI Emoji" font-size="16px" fill="#1e1e1e" text-anchor="middle" style="white-space: pre;" direction="ltr" dominant-baseline="text-before-edge">provider_config</text></g><g transform="translate(658.2440719604492 735) rotate(0 121.40989048955498 9.472423949428617)"><text x="122.25592803955078" y="0" font-family="Virgil, Segoe UI Emoji" font-size="16px" fill="#1e1e1e" text-anchor="middle" style="white-space: pre;" direction="ltr" dominant-baseline="text-before-edge">Invalidate user settings cache</text></g><g transform="translate(378.0840072631836 781) rotate(0 31.797462656348927 9.934485755115759)"><text x="31.415992736816406" y="0" font-family="Virgil, Segoe UI Emoji" font-size="16px" fill="#1e1e1e" text-anchor="middle" style="white-space: pre;" direction="ltr" dominant-baseline="text-before-edge">200 OK</text></g><g transform="translate(67.38804626464844 886) rotate(0 75.3416437479621 10.310578680659091)"><text x="76.11195373535156" y="0" font-family="Virgil, Segoe UI Emoji" font-size="16px" fill="#1e1e1e" text-anchor="middle" style="white-space: pre;" direction="ltr" dominant-baseline="text-before-edge">Toggle email alerts</text></g><g transform="translate(303.65206146240234 922) rotate(0 102.98776986788494 19.269415841147293)"><text x="102.84793853759766" y="0" font-family="Virgil, Segoe UI Emoji" font-size="16px" fill="#1e1e1e" text-anchor="middle" style="white-space: pre;" direction="ltr" dominant-baseline="text-before-edge">PATCH </text><text x="102.84793853759766" y="20" font-family="Virgil, Segoe UI Emoji" font-size="16px" fill="#1e1e1e" text-anchor="middle" style="white-space: pre;" direction="ltr" dominant-baseline="text-before-edge">/api/settings/notifications</text></g><g transform="translate(625.5880432128906 968) rotate(0 54.56253986771219 20.104900410026346)"><text x="54.911956787109375" y="0" font-family="Virgil, Segoe UI Emoji" font-size="16px" fill="#1e1e1e" text-anchor="middle" style="white-space: pre;" direction="ltr" dominant-baseline="text-before-edge">UPDATE </text><text x="54.911956787109375" y="20" font-family="Virgil, Segoe UI Emoji" font-size="16px" fill="#1e1e1e" text-anchor="middle" style="white-space: pre;" direction="ltr" dominant-baseline="text-before-edge">user_settings</text></g><g transform="translate(673.5000686645508 1024) rotate(0 107.78631236425605 9.70863175281454)"><text x="106.99993133544922" y="0" font-family="Virgil, Segoe UI Emoji" font-size="16px" fill="#1e1e1e" text-anchor="middle" style="white-space: pre;" direction="ltr" dominant-baseline="text-before-edge">Update cached preferences</text></g><g transform="translate(378.0840072631836 1070) rotate(0 31.06368511691693 8.943222711637759)"><text x="31.415992736816406" y="0" font-family="Virgil, Segoe UI Emoji" font-size="16px" fill="#1e1e1e" text-anchor="middle" style="white-space: pre;" direction="ltr" dominant-baseline="text-before-edge">200 OK</text></g><g transform="translate(249.04000854492188 358) rotate(0 11.959991455078125 10)"><text x="11.959991455078125" y="0" font-family="Virgil, Segoe UI Emoji" font-size="16px" fill="#000" text-anchor="middle" style="white-space: pre;" direction="ltr" dominant-baseline="text-before-edge">alt</text></g></svg>